M48
; DRILL file {KiCad 8.0.3} date 2024-07-09T21:21:34-0400
; FORMAT={-:-/ absolute / inch / decimal}
; #@! TF.CreationDate,2024-07-09T21:21:34-04:00
; #@! TF.GenerationSoftware,Kicad,Pcbnew,8.0.3
; #@! TF.FileFunction,Plated,1,2,PTH
FMAT,2
INCH
; #@! TA.AperFunction,Plated,PTH,ViaDrill
T1C0.0118
; #@! TA.AperFunction,Plated,PTH,ComponentDrill
T2C0.0118
; #@! TA.AperFunction,Plated,PTH,ComponentDrill
T3C0.0197
; #@! TA.AperFunction,Plated,PTH,ComponentDrill
T4C0.0217
; #@! TA.AperFunction,Plated,PTH,ComponentDrill
T5C0.0236
; #@! TA.AperFunction,Plated,PTH,ComponentDrill
T6C0.0394
; #@! TA.AperFunction,Plated,PTH,ComponentDrill
T7C0.0433
; #@! TA.AperFunction,Plated,PTH,ComponentDrill
T8C0.1260
%
G90
G05
T1
X1.98Y-2.315
X2.0Y-2.425
X2.05Y-2.165
X2.09Y-2.7463
X2.14Y-3.11
X2.17Y-2.175
X2.175Y-3.125
X2.23Y-3.13
X2.26Y-2.895
X2.285Y-3.13
X2.3Y-2.485
X2.31Y-2.185
X2.325Y-2.86
X2.33Y-3.105
X2.36Y-2.245
X2.36Y-2.465
X2.39Y-2.875
X2.42Y-2.095
X2.43Y-2.2178
X2.43Y-2.275
X2.57Y-1.895
X2.57Y-1.995
X2.57Y-2.125
X2.57Y-2.165
X2.57Y-2.455
X2.6Y-2.645
X2.61Y-2.315
X2.69Y-2.125
X2.72Y-2.355
X2.7714Y-2.3594
X2.8Y-2.455
X2.81Y-2.015
X2.81Y-2.235
X2.84Y-2.455
X2.87Y-3.265
X2.92Y-2.125
X3.04Y-1.895
X3.04Y-1.965
X3.09Y-2.455
X3.1Y-2.605
X3.23Y-2.425
X3.23Y-2.505
X3.27Y-3.205
X3.31Y-2.205
X3.33Y-2.025
X3.37Y-2.275
X3.37Y-2.455
X3.47Y-2.315
X3.48Y-3.105
X3.53Y-2.205
X3.62Y-2.435
T2
X2.1605Y-2.3031
X2.1605Y-2.3622
X2.1605Y-2.4212
X2.2195Y-2.3031
X2.2195Y-2.3622
X2.2195Y-2.4212
T6
X1.86Y-2.3101
X1.86Y-2.4101
X1.86Y-2.5895
X1.86Y-2.6895
T7
X2.04Y-2.615
X2.44Y-2.615
T8
X1.83Y-2.01
X1.83Y-3.11
T3
G00X2.088Y-3.0501
M15
G01X2.1175Y-3.0501
M16
G05
G00X2.4025Y-3.0501
M15
G01X2.432Y-3.0501
M16
G05
T4
G00X2.0072Y-3.2164
M15
G01X2.0072Y-3.2676
M16
G05
G00X2.0309Y-3.1022
M15
G01X2.0309Y-3.1534
M16
G05
G00X2.4891Y-3.1022
M15
G01X2.4891Y-3.1534
M16
G05
G00X2.5128Y-3.2164
M15
G01X2.5128Y-3.2676
M16
G05
T5
G00X2.0899Y-3.0007
M15
G01X2.0899Y-3.0471
M16
G05
G00X2.4301Y-3.0007
M15
G01X2.4301Y-3.0471
M16
G05
M30
