%TF.GenerationSoftware,KiCad,Pcbnew,8.0.3*%
%TF.CreationDate,2024-07-09T13:00:30-04:00*%
%TF.ProjectId,PCB,5043422e-6b69-4636-9164-5f7063625858,rev?*%
%TF.SameCoordinates,Original*%
%TF.FileFunction,Legend,Top*%
%TF.FilePolarity,Positive*%
%FSLAX46Y46*%
G04 Gerber Fmt 4.6, Leading zero omitted, Abs format (unit mm)*
G04 Created by KiCad (PCBNEW 8.0.3) date 2024-07-09 13:00:30*
%MOMM*%
%LPD*%
G01*
G04 APERTURE LIST*
%ADD10C,0.200000*%
%ADD11C,0.150000*%
%ADD12C,0.120000*%
G04 APERTURE END LIST*
D10*
X29591000Y-33020000D02*
X53713000Y-33020000D01*
X53713000Y-83820000D01*
X29591000Y-83820000D01*
X29591000Y-33020000D01*
X56140000Y-46867000D02*
X72650000Y-46867000D01*
X72650000Y-68203000D01*
X56140000Y-68203000D01*
X56140000Y-46867000D01*
X31750000Y-86693000D02*
X49530000Y-86693000D01*
X49530000Y-112093000D01*
X31750000Y-112093000D01*
X31750000Y-86693000D01*
D11*
X31162666Y-79254819D02*
X31162666Y-79969104D01*
X31162666Y-79969104D02*
X31115047Y-80111961D01*
X31115047Y-80111961D02*
X31019809Y-80207200D01*
X31019809Y-80207200D02*
X30876952Y-80254819D01*
X30876952Y-80254819D02*
X30781714Y-80254819D01*
X32162666Y-80254819D02*
X31591238Y-80254819D01*
X31876952Y-80254819D02*
X31876952Y-79254819D01*
X31876952Y-79254819D02*
X31781714Y-79397676D01*
X31781714Y-79397676D02*
X31686476Y-79492914D01*
X31686476Y-79492914D02*
X31591238Y-79540533D01*
X51482666Y-46844819D02*
X51482666Y-47559104D01*
X51482666Y-47559104D02*
X51435047Y-47701961D01*
X51435047Y-47701961D02*
X51339809Y-47797200D01*
X51339809Y-47797200D02*
X51196952Y-47844819D01*
X51196952Y-47844819D02*
X51101714Y-47844819D01*
X51911238Y-46940057D02*
X51958857Y-46892438D01*
X51958857Y-46892438D02*
X52054095Y-46844819D01*
X52054095Y-46844819D02*
X52292190Y-46844819D01*
X52292190Y-46844819D02*
X52387428Y-46892438D01*
X52387428Y-46892438D02*
X52435047Y-46940057D01*
X52435047Y-46940057D02*
X52482666Y-47035295D01*
X52482666Y-47035295D02*
X52482666Y-47130533D01*
X52482666Y-47130533D02*
X52435047Y-47273390D01*
X52435047Y-47273390D02*
X51863619Y-47844819D01*
X51863619Y-47844819D02*
X52482666Y-47844819D01*
X67344666Y-97589819D02*
X67344666Y-98304104D01*
X67344666Y-98304104D02*
X67297047Y-98446961D01*
X67297047Y-98446961D02*
X67201809Y-98542200D01*
X67201809Y-98542200D02*
X67058952Y-98589819D01*
X67058952Y-98589819D02*
X66963714Y-98589819D01*
X67725619Y-97589819D02*
X68392285Y-97589819D01*
X68392285Y-97589819D02*
X67963714Y-98589819D01*
X33956666Y-110481819D02*
X33956666Y-111196104D01*
X33956666Y-111196104D02*
X33909047Y-111338961D01*
X33909047Y-111338961D02*
X33813809Y-111434200D01*
X33813809Y-111434200D02*
X33670952Y-111481819D01*
X33670952Y-111481819D02*
X33575714Y-111481819D01*
X34337619Y-110481819D02*
X34956666Y-110481819D01*
X34956666Y-110481819D02*
X34623333Y-110862771D01*
X34623333Y-110862771D02*
X34766190Y-110862771D01*
X34766190Y-110862771D02*
X34861428Y-110910390D01*
X34861428Y-110910390D02*
X34909047Y-110958009D01*
X34909047Y-110958009D02*
X34956666Y-111053247D01*
X34956666Y-111053247D02*
X34956666Y-111291342D01*
X34956666Y-111291342D02*
X34909047Y-111386580D01*
X34909047Y-111386580D02*
X34861428Y-111434200D01*
X34861428Y-111434200D02*
X34766190Y-111481819D01*
X34766190Y-111481819D02*
X34480476Y-111481819D01*
X34480476Y-111481819D02*
X34385238Y-111434200D01*
X34385238Y-111434200D02*
X34337619Y-111386580D01*
X67344666Y-82379819D02*
X67344666Y-83094104D01*
X67344666Y-83094104D02*
X67297047Y-83236961D01*
X67297047Y-83236961D02*
X67201809Y-83332200D01*
X67201809Y-83332200D02*
X67058952Y-83379819D01*
X67058952Y-83379819D02*
X66963714Y-83379819D01*
X68249428Y-82379819D02*
X68058952Y-82379819D01*
X68058952Y-82379819D02*
X67963714Y-82427438D01*
X67963714Y-82427438D02*
X67916095Y-82475057D01*
X67916095Y-82475057D02*
X67820857Y-82617914D01*
X67820857Y-82617914D02*
X67773238Y-82808390D01*
X67773238Y-82808390D02*
X67773238Y-83189342D01*
X67773238Y-83189342D02*
X67820857Y-83284580D01*
X67820857Y-83284580D02*
X67868476Y-83332200D01*
X67868476Y-83332200D02*
X67963714Y-83379819D01*
X67963714Y-83379819D02*
X68154190Y-83379819D01*
X68154190Y-83379819D02*
X68249428Y-83332200D01*
X68249428Y-83332200D02*
X68297047Y-83284580D01*
X68297047Y-83284580D02*
X68344666Y-83189342D01*
X68344666Y-83189342D02*
X68344666Y-82951247D01*
X68344666Y-82951247D02*
X68297047Y-82856009D01*
X68297047Y-82856009D02*
X68249428Y-82808390D01*
X68249428Y-82808390D02*
X68154190Y-82760771D01*
X68154190Y-82760771D02*
X67963714Y-82760771D01*
X67963714Y-82760771D02*
X67868476Y-82808390D01*
X67868476Y-82808390D02*
X67820857Y-82856009D01*
X67820857Y-82856009D02*
X67773238Y-82951247D01*
X46656666Y-90675819D02*
X46656666Y-91390104D01*
X46656666Y-91390104D02*
X46609047Y-91532961D01*
X46609047Y-91532961D02*
X46513809Y-91628200D01*
X46513809Y-91628200D02*
X46370952Y-91675819D01*
X46370952Y-91675819D02*
X46275714Y-91675819D01*
X47561428Y-91009152D02*
X47561428Y-91675819D01*
X47323333Y-90628200D02*
X47085238Y-91342485D01*
X47085238Y-91342485D02*
X47704285Y-91342485D01*
X70344666Y-45438819D02*
X70344666Y-46153104D01*
X70344666Y-46153104D02*
X70297047Y-46295961D01*
X70297047Y-46295961D02*
X70201809Y-46391200D01*
X70201809Y-46391200D02*
X70058952Y-46438819D01*
X70058952Y-46438819D02*
X69963714Y-46438819D01*
X71297047Y-45438819D02*
X70820857Y-45438819D01*
X70820857Y-45438819D02*
X70773238Y-45915009D01*
X70773238Y-45915009D02*
X70820857Y-45867390D01*
X70820857Y-45867390D02*
X70916095Y-45819771D01*
X70916095Y-45819771D02*
X71154190Y-45819771D01*
X71154190Y-45819771D02*
X71249428Y-45867390D01*
X71249428Y-45867390D02*
X71297047Y-45915009D01*
X71297047Y-45915009D02*
X71344666Y-46010247D01*
X71344666Y-46010247D02*
X71344666Y-46248342D01*
X71344666Y-46248342D02*
X71297047Y-46343580D01*
X71297047Y-46343580D02*
X71249428Y-46391200D01*
X71249428Y-46391200D02*
X71154190Y-46438819D01*
X71154190Y-46438819D02*
X70916095Y-46438819D01*
X70916095Y-46438819D02*
X70820857Y-46391200D01*
X70820857Y-46391200D02*
X70773238Y-46343580D01*
D12*
%TO.C,J1*%
X30166000Y-76200000D02*
X30166000Y-38040000D01*
X32826000Y-38040000D02*
X30166000Y-38040000D01*
X32826000Y-76200000D02*
X30166000Y-76200000D01*
X32826000Y-76200000D02*
X32826000Y-38040000D01*
X32826000Y-77470000D02*
X32826000Y-78800000D01*
X32826000Y-78800000D02*
X31496000Y-78800000D01*
%TO.C,J2*%
X50486000Y-48390000D02*
X51816000Y-48390000D01*
X50486000Y-49720000D02*
X50486000Y-48390000D01*
X50486000Y-50990000D02*
X50486000Y-78990000D01*
X50486000Y-50990000D02*
X53146000Y-50990000D01*
X50486000Y-78990000D02*
X53146000Y-78990000D01*
X53146000Y-50990000D02*
X53146000Y-78990000D01*
%TO.C,J7*%
X66348000Y-94535000D02*
X66348000Y-91935000D01*
X69008000Y-91935000D02*
X66348000Y-91935000D01*
X69008000Y-94535000D02*
X66348000Y-94535000D01*
X69008000Y-94535000D02*
X69008000Y-91935000D01*
X69008000Y-95805000D02*
X69008000Y-97135000D01*
X69008000Y-97135000D02*
X67678000Y-97135000D01*
%TO.C,J3*%
X32960000Y-107427000D02*
X32960000Y-89587000D01*
X35620000Y-89587000D02*
X32960000Y-89587000D01*
X35620000Y-107427000D02*
X32960000Y-107427000D01*
X35620000Y-107427000D02*
X35620000Y-89587000D01*
X35620000Y-108697000D02*
X35620000Y-110027000D01*
X35620000Y-110027000D02*
X34290000Y-110027000D01*
%TO.C,J6*%
X66348000Y-83925000D02*
X67678000Y-83925000D01*
X66348000Y-85255000D02*
X66348000Y-83925000D01*
X66348000Y-86525000D02*
X66348000Y-89125000D01*
X66348000Y-86525000D02*
X69008000Y-86525000D01*
X66348000Y-89125000D02*
X69008000Y-89125000D01*
X69008000Y-86525000D02*
X69008000Y-89125000D01*
%TO.C,J4*%
X45660000Y-92221000D02*
X46990000Y-92221000D01*
X45660000Y-93551000D02*
X45660000Y-92221000D01*
X45660000Y-94821000D02*
X45660000Y-107581000D01*
X45660000Y-94821000D02*
X48320000Y-94821000D01*
X45660000Y-107581000D02*
X48320000Y-107581000D01*
X48320000Y-94821000D02*
X48320000Y-107581000D01*
%TO.C,J5*%
X69348000Y-47325000D02*
X70678000Y-47325000D01*
X69348000Y-48655000D02*
X69348000Y-47325000D01*
X69348000Y-49925000D02*
X69348000Y-67765000D01*
X69348000Y-49925000D02*
X72008000Y-49925000D01*
X69348000Y-67765000D02*
X72008000Y-67765000D01*
X72008000Y-49925000D02*
X72008000Y-67765000D01*
%TD*%
M02*
