%TF.GenerationSoftware,KiCad,Pcbnew,8.0.3*%
%TF.CreationDate,2024-07-08T11:59:48-04:00*%
%TF.ProjectId,PCB,5043422e-6b69-4636-9164-5f7063625858,rev?*%
%TF.SameCoordinates,Original*%
%TF.FileFunction,Soldermask,Bot*%
%TF.FilePolarity,Negative*%
%FSLAX46Y46*%
G04 Gerber Fmt 4.6, Leading zero omitted, Abs format (unit mm)*
G04 Created by KiCad (PCBNEW 8.0.3) date 2024-07-08 11:59:48*
%MOMM*%
%LPD*%
G01*
G04 APERTURE LIST*
G04 APERTURE END LIST*
G36*
X35154542Y-107811893D02*
G01*
X35166870Y-107820130D01*
X35175107Y-107832458D01*
X35178000Y-107847000D01*
X35178000Y-109547000D01*
X35175107Y-109561542D01*
X35166870Y-109573870D01*
X35154542Y-109582107D01*
X35140000Y-109585000D01*
X33440000Y-109585000D01*
X33425458Y-109582107D01*
X33413130Y-109573870D01*
X33404893Y-109561542D01*
X33402000Y-109547000D01*
X33402000Y-107847000D01*
X33404893Y-107832458D01*
X33413130Y-107820130D01*
X33425458Y-107811893D01*
X33440000Y-107809000D01*
X35140000Y-107809000D01*
X35154542Y-107811893D01*
G37*
G36*
X47264407Y-105406462D02*
G01*
X47434000Y-105481969D01*
X47584188Y-105591087D01*
X47708407Y-105729047D01*
X47801228Y-105889818D01*
X47858595Y-106066374D01*
X47878000Y-106251000D01*
X47858595Y-106435626D01*
X47801228Y-106612182D01*
X47708407Y-106772953D01*
X47584188Y-106910913D01*
X47434000Y-107020031D01*
X47264407Y-107095538D01*
X47082821Y-107134135D01*
X46897179Y-107134135D01*
X46715593Y-107095538D01*
X46546000Y-107020031D01*
X46395812Y-106910913D01*
X46271593Y-106772953D01*
X46178772Y-106612182D01*
X46121405Y-106435626D01*
X46102000Y-106251000D01*
X46121405Y-106066374D01*
X46178772Y-105889818D01*
X46271593Y-105729047D01*
X46395812Y-105591087D01*
X46546000Y-105481969D01*
X46715593Y-105406462D01*
X46897179Y-105367865D01*
X47082821Y-105367865D01*
X47264407Y-105406462D01*
G37*
G36*
X69698542Y-105291893D02*
G01*
X69710870Y-105300130D01*
X69719107Y-105312458D01*
X69722000Y-105327000D01*
X69722000Y-107027000D01*
X69719107Y-107041542D01*
X69710870Y-107053870D01*
X69698542Y-107062107D01*
X69684000Y-107065000D01*
X67984000Y-107065000D01*
X67969458Y-107062107D01*
X67957130Y-107053870D01*
X67948893Y-107041542D01*
X67946000Y-107027000D01*
X67946000Y-105327000D01*
X67948893Y-105312458D01*
X67957130Y-105300130D01*
X67969458Y-105291893D01*
X67984000Y-105289000D01*
X69684000Y-105289000D01*
X69698542Y-105291893D01*
G37*
G36*
X34564407Y-105312462D02*
G01*
X34734000Y-105387969D01*
X34884188Y-105497087D01*
X35008407Y-105635047D01*
X35101228Y-105795818D01*
X35158595Y-105972374D01*
X35178000Y-106157000D01*
X35158595Y-106341626D01*
X35101228Y-106518182D01*
X35008407Y-106678953D01*
X34884188Y-106816913D01*
X34734000Y-106926031D01*
X34564407Y-107001538D01*
X34382821Y-107040135D01*
X34197179Y-107040135D01*
X34015593Y-107001538D01*
X33846000Y-106926031D01*
X33695812Y-106816913D01*
X33571593Y-106678953D01*
X33478772Y-106518182D01*
X33421405Y-106341626D01*
X33402000Y-106157000D01*
X33421405Y-105972374D01*
X33478772Y-105795818D01*
X33571593Y-105635047D01*
X33695812Y-105497087D01*
X33846000Y-105387969D01*
X34015593Y-105312462D01*
X34197179Y-105273865D01*
X34382821Y-105273865D01*
X34564407Y-105312462D01*
G37*
G36*
X47264407Y-102866462D02*
G01*
X47434000Y-102941969D01*
X47584188Y-103051087D01*
X47708407Y-103189047D01*
X47801228Y-103349818D01*
X47858595Y-103526374D01*
X47878000Y-103711000D01*
X47858595Y-103895626D01*
X47801228Y-104072182D01*
X47708407Y-104232953D01*
X47584188Y-104370913D01*
X47434000Y-104480031D01*
X47264407Y-104555538D01*
X47082821Y-104594135D01*
X46897179Y-104594135D01*
X46715593Y-104555538D01*
X46546000Y-104480031D01*
X46395812Y-104370913D01*
X46271593Y-104232953D01*
X46178772Y-104072182D01*
X46121405Y-103895626D01*
X46102000Y-103711000D01*
X46121405Y-103526374D01*
X46178772Y-103349818D01*
X46271593Y-103189047D01*
X46395812Y-103051087D01*
X46546000Y-102941969D01*
X46715593Y-102866462D01*
X46897179Y-102827865D01*
X47082821Y-102827865D01*
X47264407Y-102866462D01*
G37*
G36*
X69108407Y-102792462D02*
G01*
X69278000Y-102867969D01*
X69428188Y-102977087D01*
X69552407Y-103115047D01*
X69645228Y-103275818D01*
X69702595Y-103452374D01*
X69722000Y-103637000D01*
X69702595Y-103821626D01*
X69645228Y-103998182D01*
X69552407Y-104158953D01*
X69428188Y-104296913D01*
X69278000Y-104406031D01*
X69108407Y-104481538D01*
X68926821Y-104520135D01*
X68741179Y-104520135D01*
X68559593Y-104481538D01*
X68390000Y-104406031D01*
X68239812Y-104296913D01*
X68115593Y-104158953D01*
X68022772Y-103998182D01*
X67965405Y-103821626D01*
X67946000Y-103637000D01*
X67965405Y-103452374D01*
X68022772Y-103275818D01*
X68115593Y-103115047D01*
X68239812Y-102977087D01*
X68390000Y-102867969D01*
X68559593Y-102792462D01*
X68741179Y-102753865D01*
X68926821Y-102753865D01*
X69108407Y-102792462D01*
G37*
G36*
X34564407Y-102772462D02*
G01*
X34734000Y-102847969D01*
X34884188Y-102957087D01*
X35008407Y-103095047D01*
X35101228Y-103255818D01*
X35158595Y-103432374D01*
X35178000Y-103617000D01*
X35158595Y-103801626D01*
X35101228Y-103978182D01*
X35008407Y-104138953D01*
X34884188Y-104276913D01*
X34734000Y-104386031D01*
X34564407Y-104461538D01*
X34382821Y-104500135D01*
X34197179Y-104500135D01*
X34015593Y-104461538D01*
X33846000Y-104386031D01*
X33695812Y-104276913D01*
X33571593Y-104138953D01*
X33478772Y-103978182D01*
X33421405Y-103801626D01*
X33402000Y-103617000D01*
X33421405Y-103432374D01*
X33478772Y-103255818D01*
X33571593Y-103095047D01*
X33695812Y-102957087D01*
X33846000Y-102847969D01*
X34015593Y-102772462D01*
X34197179Y-102733865D01*
X34382821Y-102733865D01*
X34564407Y-102772462D01*
G37*
G36*
X47264407Y-100326462D02*
G01*
X47434000Y-100401969D01*
X47584188Y-100511087D01*
X47708407Y-100649047D01*
X47801228Y-100809818D01*
X47858595Y-100986374D01*
X47878000Y-101171000D01*
X47858595Y-101355626D01*
X47801228Y-101532182D01*
X47708407Y-101692953D01*
X47584188Y-101830913D01*
X47434000Y-101940031D01*
X47264407Y-102015538D01*
X47082821Y-102054135D01*
X46897179Y-102054135D01*
X46715593Y-102015538D01*
X46546000Y-101940031D01*
X46395812Y-101830913D01*
X46271593Y-101692953D01*
X46178772Y-101532182D01*
X46121405Y-101355626D01*
X46102000Y-101171000D01*
X46121405Y-100986374D01*
X46178772Y-100809818D01*
X46271593Y-100649047D01*
X46395812Y-100511087D01*
X46546000Y-100401969D01*
X46715593Y-100326462D01*
X46897179Y-100287865D01*
X47082821Y-100287865D01*
X47264407Y-100326462D01*
G37*
G36*
X34564407Y-100232462D02*
G01*
X34734000Y-100307969D01*
X34884188Y-100417087D01*
X35008407Y-100555047D01*
X35101228Y-100715818D01*
X35158595Y-100892374D01*
X35178000Y-101077000D01*
X35158595Y-101261626D01*
X35101228Y-101438182D01*
X35008407Y-101598953D01*
X34884188Y-101736913D01*
X34734000Y-101846031D01*
X34564407Y-101921538D01*
X34382821Y-101960135D01*
X34197179Y-101960135D01*
X34015593Y-101921538D01*
X33846000Y-101846031D01*
X33695812Y-101736913D01*
X33571593Y-101598953D01*
X33478772Y-101438182D01*
X33421405Y-101261626D01*
X33402000Y-101077000D01*
X33421405Y-100892374D01*
X33478772Y-100715818D01*
X33571593Y-100555047D01*
X33695812Y-100417087D01*
X33846000Y-100307969D01*
X34015593Y-100232462D01*
X34197179Y-100193865D01*
X34382821Y-100193865D01*
X34564407Y-100232462D01*
G37*
G36*
X47264407Y-97786462D02*
G01*
X47434000Y-97861969D01*
X47584188Y-97971087D01*
X47708407Y-98109047D01*
X47801228Y-98269818D01*
X47858595Y-98446374D01*
X47878000Y-98631000D01*
X47858595Y-98815626D01*
X47801228Y-98992182D01*
X47708407Y-99152953D01*
X47584188Y-99290913D01*
X47434000Y-99400031D01*
X47264407Y-99475538D01*
X47082821Y-99514135D01*
X46897179Y-99514135D01*
X46715593Y-99475538D01*
X46546000Y-99400031D01*
X46395812Y-99290913D01*
X46271593Y-99152953D01*
X46178772Y-98992182D01*
X46121405Y-98815626D01*
X46102000Y-98631000D01*
X46121405Y-98446374D01*
X46178772Y-98269818D01*
X46271593Y-98109047D01*
X46395812Y-97971087D01*
X46546000Y-97861969D01*
X46715593Y-97786462D01*
X46897179Y-97747865D01*
X47082821Y-97747865D01*
X47264407Y-97786462D01*
G37*
G36*
X69698542Y-97671893D02*
G01*
X69710870Y-97680130D01*
X69719107Y-97692458D01*
X69722000Y-97707000D01*
X69722000Y-99407000D01*
X69719107Y-99421542D01*
X69710870Y-99433870D01*
X69698542Y-99442107D01*
X69684000Y-99445000D01*
X67984000Y-99445000D01*
X67969458Y-99442107D01*
X67957130Y-99433870D01*
X67948893Y-99421542D01*
X67946000Y-99407000D01*
X67946000Y-97707000D01*
X67948893Y-97692458D01*
X67957130Y-97680130D01*
X67969458Y-97671893D01*
X67984000Y-97669000D01*
X69684000Y-97669000D01*
X69698542Y-97671893D01*
G37*
G36*
X34564407Y-97692462D02*
G01*
X34734000Y-97767969D01*
X34884188Y-97877087D01*
X35008407Y-98015047D01*
X35101228Y-98175818D01*
X35158595Y-98352374D01*
X35178000Y-98537000D01*
X35158595Y-98721626D01*
X35101228Y-98898182D01*
X35008407Y-99058953D01*
X34884188Y-99196913D01*
X34734000Y-99306031D01*
X34564407Y-99381538D01*
X34382821Y-99420135D01*
X34197179Y-99420135D01*
X34015593Y-99381538D01*
X33846000Y-99306031D01*
X33695812Y-99196913D01*
X33571593Y-99058953D01*
X33478772Y-98898182D01*
X33421405Y-98721626D01*
X33402000Y-98537000D01*
X33421405Y-98352374D01*
X33478772Y-98175818D01*
X33571593Y-98015047D01*
X33695812Y-97877087D01*
X33846000Y-97767969D01*
X34015593Y-97692462D01*
X34197179Y-97653865D01*
X34382821Y-97653865D01*
X34564407Y-97692462D01*
G37*
G36*
X47264407Y-95246462D02*
G01*
X47434000Y-95321969D01*
X47584188Y-95431087D01*
X47708407Y-95569047D01*
X47801228Y-95729818D01*
X47858595Y-95906374D01*
X47878000Y-96091000D01*
X47858595Y-96275626D01*
X47801228Y-96452182D01*
X47708407Y-96612953D01*
X47584188Y-96750913D01*
X47434000Y-96860031D01*
X47264407Y-96935538D01*
X47082821Y-96974135D01*
X46897179Y-96974135D01*
X46715593Y-96935538D01*
X46546000Y-96860031D01*
X46395812Y-96750913D01*
X46271593Y-96612953D01*
X46178772Y-96452182D01*
X46121405Y-96275626D01*
X46102000Y-96091000D01*
X46121405Y-95906374D01*
X46178772Y-95729818D01*
X46271593Y-95569047D01*
X46395812Y-95431087D01*
X46546000Y-95321969D01*
X46715593Y-95246462D01*
X46897179Y-95207865D01*
X47082821Y-95207865D01*
X47264407Y-95246462D01*
G37*
G36*
X69108407Y-95172462D02*
G01*
X69278000Y-95247969D01*
X69428188Y-95357087D01*
X69552407Y-95495047D01*
X69645228Y-95655818D01*
X69702595Y-95832374D01*
X69722000Y-96017000D01*
X69702595Y-96201626D01*
X69645228Y-96378182D01*
X69552407Y-96538953D01*
X69428188Y-96676913D01*
X69278000Y-96786031D01*
X69108407Y-96861538D01*
X68926821Y-96900135D01*
X68741179Y-96900135D01*
X68559593Y-96861538D01*
X68390000Y-96786031D01*
X68239812Y-96676913D01*
X68115593Y-96538953D01*
X68022772Y-96378182D01*
X67965405Y-96201626D01*
X67946000Y-96017000D01*
X67965405Y-95832374D01*
X68022772Y-95655818D01*
X68115593Y-95495047D01*
X68239812Y-95357087D01*
X68390000Y-95247969D01*
X68559593Y-95172462D01*
X68741179Y-95133865D01*
X68926821Y-95133865D01*
X69108407Y-95172462D01*
G37*
G36*
X34564407Y-95152462D02*
G01*
X34734000Y-95227969D01*
X34884188Y-95337087D01*
X35008407Y-95475047D01*
X35101228Y-95635818D01*
X35158595Y-95812374D01*
X35178000Y-95997000D01*
X35158595Y-96181626D01*
X35101228Y-96358182D01*
X35008407Y-96518953D01*
X34884188Y-96656913D01*
X34734000Y-96766031D01*
X34564407Y-96841538D01*
X34382821Y-96880135D01*
X34197179Y-96880135D01*
X34015593Y-96841538D01*
X33846000Y-96766031D01*
X33695812Y-96656913D01*
X33571593Y-96518953D01*
X33478772Y-96358182D01*
X33421405Y-96181626D01*
X33402000Y-95997000D01*
X33421405Y-95812374D01*
X33478772Y-95635818D01*
X33571593Y-95475047D01*
X33695812Y-95337087D01*
X33846000Y-95227969D01*
X34015593Y-95152462D01*
X34197179Y-95113865D01*
X34382821Y-95113865D01*
X34564407Y-95152462D01*
G37*
G36*
X47854542Y-92665893D02*
G01*
X47866870Y-92674130D01*
X47875107Y-92686458D01*
X47878000Y-92701000D01*
X47878000Y-94401000D01*
X47875107Y-94415542D01*
X47866870Y-94427870D01*
X47854542Y-94436107D01*
X47840000Y-94439000D01*
X46140000Y-94439000D01*
X46125458Y-94436107D01*
X46113130Y-94427870D01*
X46104893Y-94415542D01*
X46102000Y-94401000D01*
X46102000Y-92701000D01*
X46104893Y-92686458D01*
X46113130Y-92674130D01*
X46125458Y-92665893D01*
X46140000Y-92663000D01*
X47840000Y-92663000D01*
X47854542Y-92665893D01*
G37*
G36*
X34564407Y-92612462D02*
G01*
X34734000Y-92687969D01*
X34884188Y-92797087D01*
X35008407Y-92935047D01*
X35101228Y-93095818D01*
X35158595Y-93272374D01*
X35178000Y-93457000D01*
X35158595Y-93641626D01*
X35101228Y-93818182D01*
X35008407Y-93978953D01*
X34884188Y-94116913D01*
X34734000Y-94226031D01*
X34564407Y-94301538D01*
X34382821Y-94340135D01*
X34197179Y-94340135D01*
X34015593Y-94301538D01*
X33846000Y-94226031D01*
X33695812Y-94116913D01*
X33571593Y-93978953D01*
X33478772Y-93818182D01*
X33421405Y-93641626D01*
X33402000Y-93457000D01*
X33421405Y-93272374D01*
X33478772Y-93095818D01*
X33571593Y-92935047D01*
X33695812Y-92797087D01*
X33846000Y-92687969D01*
X34015593Y-92612462D01*
X34197179Y-92573865D01*
X34382821Y-92573865D01*
X34564407Y-92612462D01*
G37*
G36*
X34564407Y-90072462D02*
G01*
X34734000Y-90147969D01*
X34884188Y-90257087D01*
X35008407Y-90395047D01*
X35101228Y-90555818D01*
X35158595Y-90732374D01*
X35178000Y-90917000D01*
X35158595Y-91101626D01*
X35101228Y-91278182D01*
X35008407Y-91438953D01*
X34884188Y-91576913D01*
X34734000Y-91686031D01*
X34564407Y-91761538D01*
X34382821Y-91800135D01*
X34197179Y-91800135D01*
X34015593Y-91761538D01*
X33846000Y-91686031D01*
X33695812Y-91576913D01*
X33571593Y-91438953D01*
X33478772Y-91278182D01*
X33421405Y-91101626D01*
X33402000Y-90917000D01*
X33421405Y-90732374D01*
X33478772Y-90555818D01*
X33571593Y-90395047D01*
X33695812Y-90257087D01*
X33846000Y-90147969D01*
X34015593Y-90072462D01*
X34197179Y-90033865D01*
X34382821Y-90033865D01*
X34564407Y-90072462D01*
G37*
G36*
X52090407Y-76815462D02*
G01*
X52260000Y-76890969D01*
X52410188Y-77000087D01*
X52534407Y-77138047D01*
X52627228Y-77298818D01*
X52684595Y-77475374D01*
X52704000Y-77660000D01*
X52684595Y-77844626D01*
X52627228Y-78021182D01*
X52534407Y-78181953D01*
X52410188Y-78319913D01*
X52260000Y-78429031D01*
X52090407Y-78504538D01*
X51908821Y-78543135D01*
X51723179Y-78543135D01*
X51541593Y-78504538D01*
X51372000Y-78429031D01*
X51221812Y-78319913D01*
X51097593Y-78181953D01*
X51004772Y-78021182D01*
X50947405Y-77844626D01*
X50928000Y-77660000D01*
X50947405Y-77475374D01*
X51004772Y-77298818D01*
X51097593Y-77138047D01*
X51221812Y-77000087D01*
X51372000Y-76890969D01*
X51541593Y-76815462D01*
X51723179Y-76776865D01*
X51908821Y-76776865D01*
X52090407Y-76815462D01*
G37*
G36*
X32360542Y-76584893D02*
G01*
X32372870Y-76593130D01*
X32381107Y-76605458D01*
X32384000Y-76620000D01*
X32384000Y-78320000D01*
X32381107Y-78334542D01*
X32372870Y-78346870D01*
X32360542Y-78355107D01*
X32346000Y-78358000D01*
X30646000Y-78358000D01*
X30631458Y-78355107D01*
X30619130Y-78346870D01*
X30610893Y-78334542D01*
X30608000Y-78320000D01*
X30608000Y-76620000D01*
X30610893Y-76605458D01*
X30619130Y-76593130D01*
X30631458Y-76584893D01*
X30646000Y-76582000D01*
X32346000Y-76582000D01*
X32360542Y-76584893D01*
G37*
G36*
X52090407Y-74275462D02*
G01*
X52260000Y-74350969D01*
X52410188Y-74460087D01*
X52534407Y-74598047D01*
X52627228Y-74758818D01*
X52684595Y-74935374D01*
X52704000Y-75120000D01*
X52684595Y-75304626D01*
X52627228Y-75481182D01*
X52534407Y-75641953D01*
X52410188Y-75779913D01*
X52260000Y-75889031D01*
X52090407Y-75964538D01*
X51908821Y-76003135D01*
X51723179Y-76003135D01*
X51541593Y-75964538D01*
X51372000Y-75889031D01*
X51221812Y-75779913D01*
X51097593Y-75641953D01*
X51004772Y-75481182D01*
X50947405Y-75304626D01*
X50928000Y-75120000D01*
X50947405Y-74935374D01*
X51004772Y-74758818D01*
X51097593Y-74598047D01*
X51221812Y-74460087D01*
X51372000Y-74350969D01*
X51541593Y-74275462D01*
X51723179Y-74236865D01*
X51908821Y-74236865D01*
X52090407Y-74275462D01*
G37*
G36*
X31770407Y-74085462D02*
G01*
X31940000Y-74160969D01*
X32090188Y-74270087D01*
X32214407Y-74408047D01*
X32307228Y-74568818D01*
X32364595Y-74745374D01*
X32384000Y-74930000D01*
X32364595Y-75114626D01*
X32307228Y-75291182D01*
X32214407Y-75451953D01*
X32090188Y-75589913D01*
X31940000Y-75699031D01*
X31770407Y-75774538D01*
X31588821Y-75813135D01*
X31403179Y-75813135D01*
X31221593Y-75774538D01*
X31052000Y-75699031D01*
X30901812Y-75589913D01*
X30777593Y-75451953D01*
X30684772Y-75291182D01*
X30627405Y-75114626D01*
X30608000Y-74930000D01*
X30627405Y-74745374D01*
X30684772Y-74568818D01*
X30777593Y-74408047D01*
X30901812Y-74270087D01*
X31052000Y-74160969D01*
X31221593Y-74085462D01*
X31403179Y-74046865D01*
X31588821Y-74046865D01*
X31770407Y-74085462D01*
G37*
G36*
X52090407Y-71735462D02*
G01*
X52260000Y-71810969D01*
X52410188Y-71920087D01*
X52534407Y-72058047D01*
X52627228Y-72218818D01*
X52684595Y-72395374D01*
X52704000Y-72580000D01*
X52684595Y-72764626D01*
X52627228Y-72941182D01*
X52534407Y-73101953D01*
X52410188Y-73239913D01*
X52260000Y-73349031D01*
X52090407Y-73424538D01*
X51908821Y-73463135D01*
X51723179Y-73463135D01*
X51541593Y-73424538D01*
X51372000Y-73349031D01*
X51221812Y-73239913D01*
X51097593Y-73101953D01*
X51004772Y-72941182D01*
X50947405Y-72764626D01*
X50928000Y-72580000D01*
X50947405Y-72395374D01*
X51004772Y-72218818D01*
X51097593Y-72058047D01*
X51221812Y-71920087D01*
X51372000Y-71810969D01*
X51541593Y-71735462D01*
X51723179Y-71696865D01*
X51908821Y-71696865D01*
X52090407Y-71735462D01*
G37*
G36*
X31770407Y-71545462D02*
G01*
X31940000Y-71620969D01*
X32090188Y-71730087D01*
X32214407Y-71868047D01*
X32307228Y-72028818D01*
X32364595Y-72205374D01*
X32384000Y-72390000D01*
X32364595Y-72574626D01*
X32307228Y-72751182D01*
X32214407Y-72911953D01*
X32090188Y-73049913D01*
X31940000Y-73159031D01*
X31770407Y-73234538D01*
X31588821Y-73273135D01*
X31403179Y-73273135D01*
X31221593Y-73234538D01*
X31052000Y-73159031D01*
X30901812Y-73049913D01*
X30777593Y-72911953D01*
X30684772Y-72751182D01*
X30627405Y-72574626D01*
X30608000Y-72390000D01*
X30627405Y-72205374D01*
X30684772Y-72028818D01*
X30777593Y-71868047D01*
X30901812Y-71730087D01*
X31052000Y-71620969D01*
X31221593Y-71545462D01*
X31403179Y-71506865D01*
X31588821Y-71506865D01*
X31770407Y-71545462D01*
G37*
G36*
X52090407Y-69195462D02*
G01*
X52260000Y-69270969D01*
X52410188Y-69380087D01*
X52534407Y-69518047D01*
X52627228Y-69678818D01*
X52684595Y-69855374D01*
X52704000Y-70040000D01*
X52684595Y-70224626D01*
X52627228Y-70401182D01*
X52534407Y-70561953D01*
X52410188Y-70699913D01*
X52260000Y-70809031D01*
X52090407Y-70884538D01*
X51908821Y-70923135D01*
X51723179Y-70923135D01*
X51541593Y-70884538D01*
X51372000Y-70809031D01*
X51221812Y-70699913D01*
X51097593Y-70561953D01*
X51004772Y-70401182D01*
X50947405Y-70224626D01*
X50928000Y-70040000D01*
X50947405Y-69855374D01*
X51004772Y-69678818D01*
X51097593Y-69518047D01*
X51221812Y-69380087D01*
X51372000Y-69270969D01*
X51541593Y-69195462D01*
X51723179Y-69156865D01*
X51908821Y-69156865D01*
X52090407Y-69195462D01*
G37*
G36*
X31770407Y-69005462D02*
G01*
X31940000Y-69080969D01*
X32090188Y-69190087D01*
X32214407Y-69328047D01*
X32307228Y-69488818D01*
X32364595Y-69665374D01*
X32384000Y-69850000D01*
X32364595Y-70034626D01*
X32307228Y-70211182D01*
X32214407Y-70371953D01*
X32090188Y-70509913D01*
X31940000Y-70619031D01*
X31770407Y-70694538D01*
X31588821Y-70733135D01*
X31403179Y-70733135D01*
X31221593Y-70694538D01*
X31052000Y-70619031D01*
X30901812Y-70509913D01*
X30777593Y-70371953D01*
X30684772Y-70211182D01*
X30627405Y-70034626D01*
X30608000Y-69850000D01*
X30627405Y-69665374D01*
X30684772Y-69488818D01*
X30777593Y-69328047D01*
X30901812Y-69190087D01*
X31052000Y-69080969D01*
X31221593Y-69005462D01*
X31403179Y-68966865D01*
X31588821Y-68966865D01*
X31770407Y-69005462D01*
G37*
G36*
X52090407Y-66655462D02*
G01*
X52260000Y-66730969D01*
X52410188Y-66840087D01*
X52534407Y-66978047D01*
X52627228Y-67138818D01*
X52684595Y-67315374D01*
X52704000Y-67500000D01*
X52684595Y-67684626D01*
X52627228Y-67861182D01*
X52534407Y-68021953D01*
X52410188Y-68159913D01*
X52260000Y-68269031D01*
X52090407Y-68344538D01*
X51908821Y-68383135D01*
X51723179Y-68383135D01*
X51541593Y-68344538D01*
X51372000Y-68269031D01*
X51221812Y-68159913D01*
X51097593Y-68021953D01*
X51004772Y-67861182D01*
X50947405Y-67684626D01*
X50928000Y-67500000D01*
X50947405Y-67315374D01*
X51004772Y-67138818D01*
X51097593Y-66978047D01*
X51221812Y-66840087D01*
X51372000Y-66730969D01*
X51541593Y-66655462D01*
X51723179Y-66616865D01*
X51908821Y-66616865D01*
X52090407Y-66655462D01*
G37*
G36*
X31770407Y-66465462D02*
G01*
X31940000Y-66540969D01*
X32090188Y-66650087D01*
X32214407Y-66788047D01*
X32307228Y-66948818D01*
X32364595Y-67125374D01*
X32384000Y-67310000D01*
X32364595Y-67494626D01*
X32307228Y-67671182D01*
X32214407Y-67831953D01*
X32090188Y-67969913D01*
X31940000Y-68079031D01*
X31770407Y-68154538D01*
X31588821Y-68193135D01*
X31403179Y-68193135D01*
X31221593Y-68154538D01*
X31052000Y-68079031D01*
X30901812Y-67969913D01*
X30777593Y-67831953D01*
X30684772Y-67671182D01*
X30627405Y-67494626D01*
X30608000Y-67310000D01*
X30627405Y-67125374D01*
X30684772Y-66948818D01*
X30777593Y-66788047D01*
X30901812Y-66650087D01*
X31052000Y-66540969D01*
X31221593Y-66465462D01*
X31403179Y-66426865D01*
X31588821Y-66426865D01*
X31770407Y-66465462D01*
G37*
G36*
X52090407Y-64115462D02*
G01*
X52260000Y-64190969D01*
X52410188Y-64300087D01*
X52534407Y-64438047D01*
X52627228Y-64598818D01*
X52684595Y-64775374D01*
X52704000Y-64960000D01*
X52684595Y-65144626D01*
X52627228Y-65321182D01*
X52534407Y-65481953D01*
X52410188Y-65619913D01*
X52260000Y-65729031D01*
X52090407Y-65804538D01*
X51908821Y-65843135D01*
X51723179Y-65843135D01*
X51541593Y-65804538D01*
X51372000Y-65729031D01*
X51221812Y-65619913D01*
X51097593Y-65481953D01*
X51004772Y-65321182D01*
X50947405Y-65144626D01*
X50928000Y-64960000D01*
X50947405Y-64775374D01*
X51004772Y-64598818D01*
X51097593Y-64438047D01*
X51221812Y-64300087D01*
X51372000Y-64190969D01*
X51541593Y-64115462D01*
X51723179Y-64076865D01*
X51908821Y-64076865D01*
X52090407Y-64115462D01*
G37*
G36*
X31770407Y-63925462D02*
G01*
X31940000Y-64000969D01*
X32090188Y-64110087D01*
X32214407Y-64248047D01*
X32307228Y-64408818D01*
X32364595Y-64585374D01*
X32384000Y-64770000D01*
X32364595Y-64954626D01*
X32307228Y-65131182D01*
X32214407Y-65291953D01*
X32090188Y-65429913D01*
X31940000Y-65539031D01*
X31770407Y-65614538D01*
X31588821Y-65653135D01*
X31403179Y-65653135D01*
X31221593Y-65614538D01*
X31052000Y-65539031D01*
X30901812Y-65429913D01*
X30777593Y-65291953D01*
X30684772Y-65131182D01*
X30627405Y-64954626D01*
X30608000Y-64770000D01*
X30627405Y-64585374D01*
X30684772Y-64408818D01*
X30777593Y-64248047D01*
X30901812Y-64110087D01*
X31052000Y-64000969D01*
X31221593Y-63925462D01*
X31403179Y-63886865D01*
X31588821Y-63886865D01*
X31770407Y-63925462D01*
G37*
G36*
X52090407Y-61575462D02*
G01*
X52260000Y-61650969D01*
X52410188Y-61760087D01*
X52534407Y-61898047D01*
X52627228Y-62058818D01*
X52684595Y-62235374D01*
X52704000Y-62420000D01*
X52684595Y-62604626D01*
X52627228Y-62781182D01*
X52534407Y-62941953D01*
X52410188Y-63079913D01*
X52260000Y-63189031D01*
X52090407Y-63264538D01*
X51908821Y-63303135D01*
X51723179Y-63303135D01*
X51541593Y-63264538D01*
X51372000Y-63189031D01*
X51221812Y-63079913D01*
X51097593Y-62941953D01*
X51004772Y-62781182D01*
X50947405Y-62604626D01*
X50928000Y-62420000D01*
X50947405Y-62235374D01*
X51004772Y-62058818D01*
X51097593Y-61898047D01*
X51221812Y-61760087D01*
X51372000Y-61650969D01*
X51541593Y-61575462D01*
X51723179Y-61536865D01*
X51908821Y-61536865D01*
X52090407Y-61575462D01*
G37*
G36*
X31770407Y-61385462D02*
G01*
X31940000Y-61460969D01*
X32090188Y-61570087D01*
X32214407Y-61708047D01*
X32307228Y-61868818D01*
X32364595Y-62045374D01*
X32384000Y-62230000D01*
X32364595Y-62414626D01*
X32307228Y-62591182D01*
X32214407Y-62751953D01*
X32090188Y-62889913D01*
X31940000Y-62999031D01*
X31770407Y-63074538D01*
X31588821Y-63113135D01*
X31403179Y-63113135D01*
X31221593Y-63074538D01*
X31052000Y-62999031D01*
X30901812Y-62889913D01*
X30777593Y-62751953D01*
X30684772Y-62591182D01*
X30627405Y-62414626D01*
X30608000Y-62230000D01*
X30627405Y-62045374D01*
X30684772Y-61868818D01*
X30777593Y-61708047D01*
X30901812Y-61570087D01*
X31052000Y-61460969D01*
X31221593Y-61385462D01*
X31403179Y-61346865D01*
X31588821Y-61346865D01*
X31770407Y-61385462D01*
G37*
G36*
X52090407Y-59035462D02*
G01*
X52260000Y-59110969D01*
X52410188Y-59220087D01*
X52534407Y-59358047D01*
X52627228Y-59518818D01*
X52684595Y-59695374D01*
X52704000Y-59880000D01*
X52684595Y-60064626D01*
X52627228Y-60241182D01*
X52534407Y-60401953D01*
X52410188Y-60539913D01*
X52260000Y-60649031D01*
X52090407Y-60724538D01*
X51908821Y-60763135D01*
X51723179Y-60763135D01*
X51541593Y-60724538D01*
X51372000Y-60649031D01*
X51221812Y-60539913D01*
X51097593Y-60401953D01*
X51004772Y-60241182D01*
X50947405Y-60064626D01*
X50928000Y-59880000D01*
X50947405Y-59695374D01*
X51004772Y-59518818D01*
X51097593Y-59358047D01*
X51221812Y-59220087D01*
X51372000Y-59110969D01*
X51541593Y-59035462D01*
X51723179Y-58996865D01*
X51908821Y-58996865D01*
X52090407Y-59035462D01*
G37*
G36*
X31770407Y-58845462D02*
G01*
X31940000Y-58920969D01*
X32090188Y-59030087D01*
X32214407Y-59168047D01*
X32307228Y-59328818D01*
X32364595Y-59505374D01*
X32384000Y-59690000D01*
X32364595Y-59874626D01*
X32307228Y-60051182D01*
X32214407Y-60211953D01*
X32090188Y-60349913D01*
X31940000Y-60459031D01*
X31770407Y-60534538D01*
X31588821Y-60573135D01*
X31403179Y-60573135D01*
X31221593Y-60534538D01*
X31052000Y-60459031D01*
X30901812Y-60349913D01*
X30777593Y-60211953D01*
X30684772Y-60051182D01*
X30627405Y-59874626D01*
X30608000Y-59690000D01*
X30627405Y-59505374D01*
X30684772Y-59328818D01*
X30777593Y-59168047D01*
X30901812Y-59030087D01*
X31052000Y-58920969D01*
X31221593Y-58845462D01*
X31403179Y-58806865D01*
X31588821Y-58806865D01*
X31770407Y-58845462D01*
G37*
G36*
X71140407Y-58606462D02*
G01*
X71310000Y-58681969D01*
X71460188Y-58791087D01*
X71584407Y-58929047D01*
X71677228Y-59089818D01*
X71734595Y-59266374D01*
X71754000Y-59451000D01*
X71734595Y-59635626D01*
X71677228Y-59812182D01*
X71584407Y-59972953D01*
X71460188Y-60110913D01*
X71310000Y-60220031D01*
X71140407Y-60295538D01*
X70958821Y-60334135D01*
X70773179Y-60334135D01*
X70591593Y-60295538D01*
X70422000Y-60220031D01*
X70271812Y-60110913D01*
X70147593Y-59972953D01*
X70054772Y-59812182D01*
X69997405Y-59635626D01*
X69978000Y-59451000D01*
X69997405Y-59266374D01*
X70054772Y-59089818D01*
X70147593Y-58929047D01*
X70271812Y-58791087D01*
X70422000Y-58681969D01*
X70591593Y-58606462D01*
X70773179Y-58567865D01*
X70958821Y-58567865D01*
X71140407Y-58606462D01*
G37*
G36*
X52090407Y-56495462D02*
G01*
X52260000Y-56570969D01*
X52410188Y-56680087D01*
X52534407Y-56818047D01*
X52627228Y-56978818D01*
X52684595Y-57155374D01*
X52704000Y-57340000D01*
X52684595Y-57524626D01*
X52627228Y-57701182D01*
X52534407Y-57861953D01*
X52410188Y-57999913D01*
X52260000Y-58109031D01*
X52090407Y-58184538D01*
X51908821Y-58223135D01*
X51723179Y-58223135D01*
X51541593Y-58184538D01*
X51372000Y-58109031D01*
X51221812Y-57999913D01*
X51097593Y-57861953D01*
X51004772Y-57701182D01*
X50947405Y-57524626D01*
X50928000Y-57340000D01*
X50947405Y-57155374D01*
X51004772Y-56978818D01*
X51097593Y-56818047D01*
X51221812Y-56680087D01*
X51372000Y-56570969D01*
X51541593Y-56495462D01*
X51723179Y-56456865D01*
X51908821Y-56456865D01*
X52090407Y-56495462D01*
G37*
G36*
X31770407Y-56305462D02*
G01*
X31940000Y-56380969D01*
X32090188Y-56490087D01*
X32214407Y-56628047D01*
X32307228Y-56788818D01*
X32364595Y-56965374D01*
X32384000Y-57150000D01*
X32364595Y-57334626D01*
X32307228Y-57511182D01*
X32214407Y-57671953D01*
X32090188Y-57809913D01*
X31940000Y-57919031D01*
X31770407Y-57994538D01*
X31588821Y-58033135D01*
X31403179Y-58033135D01*
X31221593Y-57994538D01*
X31052000Y-57919031D01*
X30901812Y-57809913D01*
X30777593Y-57671953D01*
X30684772Y-57511182D01*
X30627405Y-57334626D01*
X30608000Y-57150000D01*
X30627405Y-56965374D01*
X30684772Y-56788818D01*
X30777593Y-56628047D01*
X30901812Y-56490087D01*
X31052000Y-56380969D01*
X31221593Y-56305462D01*
X31403179Y-56266865D01*
X31588821Y-56266865D01*
X31770407Y-56305462D01*
G37*
G36*
X71140407Y-56066462D02*
G01*
X71310000Y-56141969D01*
X71460188Y-56251087D01*
X71584407Y-56389047D01*
X71677228Y-56549818D01*
X71734595Y-56726374D01*
X71754000Y-56911000D01*
X71734595Y-57095626D01*
X71677228Y-57272182D01*
X71584407Y-57432953D01*
X71460188Y-57570913D01*
X71310000Y-57680031D01*
X71140407Y-57755538D01*
X70958821Y-57794135D01*
X70773179Y-57794135D01*
X70591593Y-57755538D01*
X70422000Y-57680031D01*
X70271812Y-57570913D01*
X70147593Y-57432953D01*
X70054772Y-57272182D01*
X69997405Y-57095626D01*
X69978000Y-56911000D01*
X69997405Y-56726374D01*
X70054772Y-56549818D01*
X70147593Y-56389047D01*
X70271812Y-56251087D01*
X70422000Y-56141969D01*
X70591593Y-56066462D01*
X70773179Y-56027865D01*
X70958821Y-56027865D01*
X71140407Y-56066462D01*
G37*
G36*
X52090407Y-53955462D02*
G01*
X52260000Y-54030969D01*
X52410188Y-54140087D01*
X52534407Y-54278047D01*
X52627228Y-54438818D01*
X52684595Y-54615374D01*
X52704000Y-54800000D01*
X52684595Y-54984626D01*
X52627228Y-55161182D01*
X52534407Y-55321953D01*
X52410188Y-55459913D01*
X52260000Y-55569031D01*
X52090407Y-55644538D01*
X51908821Y-55683135D01*
X51723179Y-55683135D01*
X51541593Y-55644538D01*
X51372000Y-55569031D01*
X51221812Y-55459913D01*
X51097593Y-55321953D01*
X51004772Y-55161182D01*
X50947405Y-54984626D01*
X50928000Y-54800000D01*
X50947405Y-54615374D01*
X51004772Y-54438818D01*
X51097593Y-54278047D01*
X51221812Y-54140087D01*
X51372000Y-54030969D01*
X51541593Y-53955462D01*
X51723179Y-53916865D01*
X51908821Y-53916865D01*
X52090407Y-53955462D01*
G37*
G36*
X31770407Y-53765462D02*
G01*
X31940000Y-53840969D01*
X32090188Y-53950087D01*
X32214407Y-54088047D01*
X32307228Y-54248818D01*
X32364595Y-54425374D01*
X32384000Y-54610000D01*
X32364595Y-54794626D01*
X32307228Y-54971182D01*
X32214407Y-55131953D01*
X32090188Y-55269913D01*
X31940000Y-55379031D01*
X31770407Y-55454538D01*
X31588821Y-55493135D01*
X31403179Y-55493135D01*
X31221593Y-55454538D01*
X31052000Y-55379031D01*
X30901812Y-55269913D01*
X30777593Y-55131953D01*
X30684772Y-54971182D01*
X30627405Y-54794626D01*
X30608000Y-54610000D01*
X30627405Y-54425374D01*
X30684772Y-54248818D01*
X30777593Y-54088047D01*
X30901812Y-53950087D01*
X31052000Y-53840969D01*
X31221593Y-53765462D01*
X31403179Y-53726865D01*
X31588821Y-53726865D01*
X31770407Y-53765462D01*
G37*
G36*
X71140407Y-53526462D02*
G01*
X71310000Y-53601969D01*
X71460188Y-53711087D01*
X71584407Y-53849047D01*
X71677228Y-54009818D01*
X71734595Y-54186374D01*
X71754000Y-54371000D01*
X71734595Y-54555626D01*
X71677228Y-54732182D01*
X71584407Y-54892953D01*
X71460188Y-55030913D01*
X71310000Y-55140031D01*
X71140407Y-55215538D01*
X70958821Y-55254135D01*
X70773179Y-55254135D01*
X70591593Y-55215538D01*
X70422000Y-55140031D01*
X70271812Y-55030913D01*
X70147593Y-54892953D01*
X70054772Y-54732182D01*
X69997405Y-54555626D01*
X69978000Y-54371000D01*
X69997405Y-54186374D01*
X70054772Y-54009818D01*
X70147593Y-53849047D01*
X70271812Y-53711087D01*
X70422000Y-53601969D01*
X70591593Y-53526462D01*
X70773179Y-53487865D01*
X70958821Y-53487865D01*
X71140407Y-53526462D01*
G37*
G36*
X52090407Y-51415462D02*
G01*
X52260000Y-51490969D01*
X52410188Y-51600087D01*
X52534407Y-51738047D01*
X52627228Y-51898818D01*
X52684595Y-52075374D01*
X52704000Y-52260000D01*
X52684595Y-52444626D01*
X52627228Y-52621182D01*
X52534407Y-52781953D01*
X52410188Y-52919913D01*
X52260000Y-53029031D01*
X52090407Y-53104538D01*
X51908821Y-53143135D01*
X51723179Y-53143135D01*
X51541593Y-53104538D01*
X51372000Y-53029031D01*
X51221812Y-52919913D01*
X51097593Y-52781953D01*
X51004772Y-52621182D01*
X50947405Y-52444626D01*
X50928000Y-52260000D01*
X50947405Y-52075374D01*
X51004772Y-51898818D01*
X51097593Y-51738047D01*
X51221812Y-51600087D01*
X51372000Y-51490969D01*
X51541593Y-51415462D01*
X51723179Y-51376865D01*
X51908821Y-51376865D01*
X52090407Y-51415462D01*
G37*
G36*
X31770407Y-51225462D02*
G01*
X31940000Y-51300969D01*
X32090188Y-51410087D01*
X32214407Y-51548047D01*
X32307228Y-51708818D01*
X32364595Y-51885374D01*
X32384000Y-52070000D01*
X32364595Y-52254626D01*
X32307228Y-52431182D01*
X32214407Y-52591953D01*
X32090188Y-52729913D01*
X31940000Y-52839031D01*
X31770407Y-52914538D01*
X31588821Y-52953135D01*
X31403179Y-52953135D01*
X31221593Y-52914538D01*
X31052000Y-52839031D01*
X30901812Y-52729913D01*
X30777593Y-52591953D01*
X30684772Y-52431182D01*
X30627405Y-52254626D01*
X30608000Y-52070000D01*
X30627405Y-51885374D01*
X30684772Y-51708818D01*
X30777593Y-51548047D01*
X30901812Y-51410087D01*
X31052000Y-51300969D01*
X31221593Y-51225462D01*
X31403179Y-51186865D01*
X31588821Y-51186865D01*
X31770407Y-51225462D01*
G37*
G36*
X71140407Y-50986462D02*
G01*
X71310000Y-51061969D01*
X71460188Y-51171087D01*
X71584407Y-51309047D01*
X71677228Y-51469818D01*
X71734595Y-51646374D01*
X71754000Y-51831000D01*
X71734595Y-52015626D01*
X71677228Y-52192182D01*
X71584407Y-52352953D01*
X71460188Y-52490913D01*
X71310000Y-52600031D01*
X71140407Y-52675538D01*
X70958821Y-52714135D01*
X70773179Y-52714135D01*
X70591593Y-52675538D01*
X70422000Y-52600031D01*
X70271812Y-52490913D01*
X70147593Y-52352953D01*
X70054772Y-52192182D01*
X69997405Y-52015626D01*
X69978000Y-51831000D01*
X69997405Y-51646374D01*
X70054772Y-51469818D01*
X70147593Y-51309047D01*
X70271812Y-51171087D01*
X70422000Y-51061969D01*
X70591593Y-50986462D01*
X70773179Y-50947865D01*
X70958821Y-50947865D01*
X71140407Y-50986462D01*
G37*
G36*
X52680542Y-48834893D02*
G01*
X52692870Y-48843130D01*
X52701107Y-48855458D01*
X52704000Y-48870000D01*
X52704000Y-50570000D01*
X52701107Y-50584542D01*
X52692870Y-50596870D01*
X52680542Y-50605107D01*
X52666000Y-50608000D01*
X50966000Y-50608000D01*
X50951458Y-50605107D01*
X50939130Y-50596870D01*
X50930893Y-50584542D01*
X50928000Y-50570000D01*
X50928000Y-48870000D01*
X50930893Y-48855458D01*
X50939130Y-48843130D01*
X50951458Y-48834893D01*
X50966000Y-48832000D01*
X52666000Y-48832000D01*
X52680542Y-48834893D01*
G37*
G36*
X31770407Y-48685462D02*
G01*
X31940000Y-48760969D01*
X32090188Y-48870087D01*
X32214407Y-49008047D01*
X32307228Y-49168818D01*
X32364595Y-49345374D01*
X32384000Y-49530000D01*
X32364595Y-49714626D01*
X32307228Y-49891182D01*
X32214407Y-50051953D01*
X32090188Y-50189913D01*
X31940000Y-50299031D01*
X31770407Y-50374538D01*
X31588821Y-50413135D01*
X31403179Y-50413135D01*
X31221593Y-50374538D01*
X31052000Y-50299031D01*
X30901812Y-50189913D01*
X30777593Y-50051953D01*
X30684772Y-49891182D01*
X30627405Y-49714626D01*
X30608000Y-49530000D01*
X30627405Y-49345374D01*
X30684772Y-49168818D01*
X30777593Y-49008047D01*
X30901812Y-48870087D01*
X31052000Y-48760969D01*
X31221593Y-48685462D01*
X31403179Y-48646865D01*
X31588821Y-48646865D01*
X31770407Y-48685462D01*
G37*
G36*
X71140407Y-48446462D02*
G01*
X71310000Y-48521969D01*
X71460188Y-48631087D01*
X71584407Y-48769047D01*
X71677228Y-48929818D01*
X71734595Y-49106374D01*
X71754000Y-49291000D01*
X71734595Y-49475626D01*
X71677228Y-49652182D01*
X71584407Y-49812953D01*
X71460188Y-49950913D01*
X71310000Y-50060031D01*
X71140407Y-50135538D01*
X70958821Y-50174135D01*
X70773179Y-50174135D01*
X70591593Y-50135538D01*
X70422000Y-50060031D01*
X70271812Y-49950913D01*
X70147593Y-49812953D01*
X70054772Y-49652182D01*
X69997405Y-49475626D01*
X69978000Y-49291000D01*
X69997405Y-49106374D01*
X70054772Y-48929818D01*
X70147593Y-48769047D01*
X70271812Y-48631087D01*
X70422000Y-48521969D01*
X70591593Y-48446462D01*
X70773179Y-48407865D01*
X70958821Y-48407865D01*
X71140407Y-48446462D01*
G37*
G36*
X31770407Y-46145462D02*
G01*
X31940000Y-46220969D01*
X32090188Y-46330087D01*
X32214407Y-46468047D01*
X32307228Y-46628818D01*
X32364595Y-46805374D01*
X32384000Y-46990000D01*
X32364595Y-47174626D01*
X32307228Y-47351182D01*
X32214407Y-47511953D01*
X32090188Y-47649913D01*
X31940000Y-47759031D01*
X31770407Y-47834538D01*
X31588821Y-47873135D01*
X31403179Y-47873135D01*
X31221593Y-47834538D01*
X31052000Y-47759031D01*
X30901812Y-47649913D01*
X30777593Y-47511953D01*
X30684772Y-47351182D01*
X30627405Y-47174626D01*
X30608000Y-46990000D01*
X30627405Y-46805374D01*
X30684772Y-46628818D01*
X30777593Y-46468047D01*
X30901812Y-46330087D01*
X31052000Y-46220969D01*
X31221593Y-46145462D01*
X31403179Y-46106865D01*
X31588821Y-46106865D01*
X31770407Y-46145462D01*
G37*
G36*
X71140407Y-45906462D02*
G01*
X71310000Y-45981969D01*
X71460188Y-46091087D01*
X71584407Y-46229047D01*
X71677228Y-46389818D01*
X71734595Y-46566374D01*
X71754000Y-46751000D01*
X71734595Y-46935626D01*
X71677228Y-47112182D01*
X71584407Y-47272953D01*
X71460188Y-47410913D01*
X71310000Y-47520031D01*
X71140407Y-47595538D01*
X70958821Y-47634135D01*
X70773179Y-47634135D01*
X70591593Y-47595538D01*
X70422000Y-47520031D01*
X70271812Y-47410913D01*
X70147593Y-47272953D01*
X70054772Y-47112182D01*
X69997405Y-46935626D01*
X69978000Y-46751000D01*
X69997405Y-46566374D01*
X70054772Y-46389818D01*
X70147593Y-46229047D01*
X70271812Y-46091087D01*
X70422000Y-45981969D01*
X70591593Y-45906462D01*
X70773179Y-45867865D01*
X70958821Y-45867865D01*
X71140407Y-45906462D01*
G37*
G36*
X31770407Y-43605462D02*
G01*
X31940000Y-43680969D01*
X32090188Y-43790087D01*
X32214407Y-43928047D01*
X32307228Y-44088818D01*
X32364595Y-44265374D01*
X32384000Y-44450000D01*
X32364595Y-44634626D01*
X32307228Y-44811182D01*
X32214407Y-44971953D01*
X32090188Y-45109913D01*
X31940000Y-45219031D01*
X31770407Y-45294538D01*
X31588821Y-45333135D01*
X31403179Y-45333135D01*
X31221593Y-45294538D01*
X31052000Y-45219031D01*
X30901812Y-45109913D01*
X30777593Y-44971953D01*
X30684772Y-44811182D01*
X30627405Y-44634626D01*
X30608000Y-44450000D01*
X30627405Y-44265374D01*
X30684772Y-44088818D01*
X30777593Y-43928047D01*
X30901812Y-43790087D01*
X31052000Y-43680969D01*
X31221593Y-43605462D01*
X31403179Y-43566865D01*
X31588821Y-43566865D01*
X31770407Y-43605462D01*
G37*
G36*
X71140407Y-43366462D02*
G01*
X71310000Y-43441969D01*
X71460188Y-43551087D01*
X71584407Y-43689047D01*
X71677228Y-43849818D01*
X71734595Y-44026374D01*
X71754000Y-44211000D01*
X71734595Y-44395626D01*
X71677228Y-44572182D01*
X71584407Y-44732953D01*
X71460188Y-44870913D01*
X71310000Y-44980031D01*
X71140407Y-45055538D01*
X70958821Y-45094135D01*
X70773179Y-45094135D01*
X70591593Y-45055538D01*
X70422000Y-44980031D01*
X70271812Y-44870913D01*
X70147593Y-44732953D01*
X70054772Y-44572182D01*
X69997405Y-44395626D01*
X69978000Y-44211000D01*
X69997405Y-44026374D01*
X70054772Y-43849818D01*
X70147593Y-43689047D01*
X70271812Y-43551087D01*
X70422000Y-43441969D01*
X70591593Y-43366462D01*
X70773179Y-43327865D01*
X70958821Y-43327865D01*
X71140407Y-43366462D01*
G37*
G36*
X31770407Y-41065462D02*
G01*
X31940000Y-41140969D01*
X32090188Y-41250087D01*
X32214407Y-41388047D01*
X32307228Y-41548818D01*
X32364595Y-41725374D01*
X32384000Y-41910000D01*
X32364595Y-42094626D01*
X32307228Y-42271182D01*
X32214407Y-42431953D01*
X32090188Y-42569913D01*
X31940000Y-42679031D01*
X31770407Y-42754538D01*
X31588821Y-42793135D01*
X31403179Y-42793135D01*
X31221593Y-42754538D01*
X31052000Y-42679031D01*
X30901812Y-42569913D01*
X30777593Y-42431953D01*
X30684772Y-42271182D01*
X30627405Y-42094626D01*
X30608000Y-41910000D01*
X30627405Y-41725374D01*
X30684772Y-41548818D01*
X30777593Y-41388047D01*
X30901812Y-41250087D01*
X31052000Y-41140969D01*
X31221593Y-41065462D01*
X31403179Y-41026865D01*
X31588821Y-41026865D01*
X31770407Y-41065462D01*
G37*
G36*
X71730542Y-40785893D02*
G01*
X71742870Y-40794130D01*
X71751107Y-40806458D01*
X71754000Y-40821000D01*
X71754000Y-42521000D01*
X71751107Y-42535542D01*
X71742870Y-42547870D01*
X71730542Y-42556107D01*
X71716000Y-42559000D01*
X70016000Y-42559000D01*
X70001458Y-42556107D01*
X69989130Y-42547870D01*
X69980893Y-42535542D01*
X69978000Y-42521000D01*
X69978000Y-40821000D01*
X69980893Y-40806458D01*
X69989130Y-40794130D01*
X70001458Y-40785893D01*
X70016000Y-40783000D01*
X71716000Y-40783000D01*
X71730542Y-40785893D01*
G37*
G36*
X31770407Y-38525462D02*
G01*
X31940000Y-38600969D01*
X32090188Y-38710087D01*
X32214407Y-38848047D01*
X32307228Y-39008818D01*
X32364595Y-39185374D01*
X32384000Y-39370000D01*
X32364595Y-39554626D01*
X32307228Y-39731182D01*
X32214407Y-39891953D01*
X32090188Y-40029913D01*
X31940000Y-40139031D01*
X31770407Y-40214538D01*
X31588821Y-40253135D01*
X31403179Y-40253135D01*
X31221593Y-40214538D01*
X31052000Y-40139031D01*
X30901812Y-40029913D01*
X30777593Y-39891953D01*
X30684772Y-39731182D01*
X30627405Y-39554626D01*
X30608000Y-39370000D01*
X30627405Y-39185374D01*
X30684772Y-39008818D01*
X30777593Y-38848047D01*
X30901812Y-38710087D01*
X31052000Y-38600969D01*
X31221593Y-38525462D01*
X31403179Y-38486865D01*
X31588821Y-38486865D01*
X31770407Y-38525462D01*
G37*
M02*
