M48
; DRILL file {KiCad 8.0.3} date 2024-07-09T13:00:25-0400
; FORMAT={-:-/ absolute / inch / decimal}
; #@! TF.CreationDate,2024-07-09T13:00:25-04:00
; #@! TF.GenerationSoftware,Kicad,Pcbnew,8.0.3
; #@! TF.FileFunction,Plated,1,2,PTH
FMAT,2
INCH
; #@! TA.AperFunction,Plated,PTH,ComponentDrill
T1C0.0394
; #@! TA.AperFunction,Plated,PTH,ComponentDrill
T2C0.1260
%
G90
G05
T1
X1.24Y-1.55
X1.24Y-1.65
X1.24Y-1.75
X1.24Y-1.85
X1.24Y-1.95
X1.24Y-2.05
X1.24Y-2.15
X1.24Y-2.25
X1.24Y-2.35
X1.24Y-2.45
X1.24Y-2.55
X1.24Y-2.65
X1.24Y-2.75
X1.24Y-2.85
X1.24Y-2.95
X1.24Y-3.05
X1.35Y-3.5794
X1.35Y-3.6794
X1.35Y-3.7794
X1.35Y-3.8794
X1.35Y-3.9794
X1.35Y-4.0794
X1.35Y-4.1794
X1.35Y-4.2794
X1.85Y-3.6831
X1.85Y-3.7831
X1.85Y-3.8831
X1.85Y-3.9831
X1.85Y-4.0831
X1.85Y-4.1831
X2.04Y-1.9575
X2.04Y-2.0575
X2.04Y-2.1575
X2.04Y-2.2575
X2.04Y-2.3575
X2.04Y-2.4575
X2.04Y-2.5575
X2.04Y-2.6575
X2.04Y-2.7575
X2.04Y-2.8575
X2.04Y-2.9575
X2.04Y-3.0575
X2.6645Y-3.3565
X2.6645Y-3.4565
X2.6645Y-3.6719
X2.6645Y-3.7719
X2.7826Y-1.9156
X2.7826Y-2.0156
X2.7826Y-2.1156
X2.7826Y-2.2156
X2.7826Y-2.3156
X2.7826Y-2.4156
X2.7826Y-2.5156
X2.7826Y-2.6156
T2
X2.77Y-1.45
X2.77Y-4.25
M30
