%TF.GenerationSoftware,KiCad,Pcbnew,8.0.3*%
%TF.CreationDate,2024-07-08T11:59:48-04:00*%
%TF.ProjectId,PCB,5043422e-6b69-4636-9164-5f7063625858,rev?*%
%TF.SameCoordinates,Original*%
%TF.FileFunction,Legend,Top*%
%TF.FilePolarity,Positive*%
%FSLAX46Y46*%
G04 Gerber Fmt 4.6, Leading zero omitted, Abs format (unit mm)*
G04 Created by KiCad (PCBNEW 8.0.3) date 2024-07-08 11:59:48*
%MOMM*%
%LPD*%
G01*
G04 APERTURE LIST*
%ADD10C,0.200000*%
%ADD11C,0.150000*%
%ADD12C,0.120000*%
G04 APERTURE END LIST*
D10*
X29591000Y-33020000D02*
X53213000Y-33020000D01*
X53213000Y-83820000D01*
X29591000Y-83820000D01*
X29591000Y-33020000D01*
X56328000Y-39883000D02*
X72838000Y-39883000D01*
X72838000Y-61219000D01*
X56328000Y-61219000D01*
X56328000Y-39883000D01*
X31750000Y-86693000D02*
X49530000Y-86693000D01*
X49530000Y-112093000D01*
X31750000Y-112093000D01*
X31750000Y-86693000D01*
D11*
X31162666Y-79254819D02*
X31162666Y-79969104D01*
X31162666Y-79969104D02*
X31115047Y-80111961D01*
X31115047Y-80111961D02*
X31019809Y-80207200D01*
X31019809Y-80207200D02*
X30876952Y-80254819D01*
X30876952Y-80254819D02*
X30781714Y-80254819D01*
X32115047Y-79254819D02*
X31638857Y-79254819D01*
X31638857Y-79254819D02*
X31591238Y-79731009D01*
X31591238Y-79731009D02*
X31638857Y-79683390D01*
X31638857Y-79683390D02*
X31734095Y-79635771D01*
X31734095Y-79635771D02*
X31972190Y-79635771D01*
X31972190Y-79635771D02*
X32067428Y-79683390D01*
X32067428Y-79683390D02*
X32115047Y-79731009D01*
X32115047Y-79731009D02*
X32162666Y-79826247D01*
X32162666Y-79826247D02*
X32162666Y-80064342D01*
X32162666Y-80064342D02*
X32115047Y-80159580D01*
X32115047Y-80159580D02*
X32067428Y-80207200D01*
X32067428Y-80207200D02*
X31972190Y-80254819D01*
X31972190Y-80254819D02*
X31734095Y-80254819D01*
X31734095Y-80254819D02*
X31638857Y-80207200D01*
X31638857Y-80207200D02*
X31591238Y-80159580D01*
X51482666Y-46844819D02*
X51482666Y-47559104D01*
X51482666Y-47559104D02*
X51435047Y-47701961D01*
X51435047Y-47701961D02*
X51339809Y-47797200D01*
X51339809Y-47797200D02*
X51196952Y-47844819D01*
X51196952Y-47844819D02*
X51101714Y-47844819D01*
X52387428Y-47178152D02*
X52387428Y-47844819D01*
X52149333Y-46797200D02*
X51911238Y-47511485D01*
X51911238Y-47511485D02*
X52530285Y-47511485D01*
X33956666Y-110481819D02*
X33956666Y-111196104D01*
X33956666Y-111196104D02*
X33909047Y-111338961D01*
X33909047Y-111338961D02*
X33813809Y-111434200D01*
X33813809Y-111434200D02*
X33670952Y-111481819D01*
X33670952Y-111481819D02*
X33575714Y-111481819D01*
X34861428Y-110481819D02*
X34670952Y-110481819D01*
X34670952Y-110481819D02*
X34575714Y-110529438D01*
X34575714Y-110529438D02*
X34528095Y-110577057D01*
X34528095Y-110577057D02*
X34432857Y-110719914D01*
X34432857Y-110719914D02*
X34385238Y-110910390D01*
X34385238Y-110910390D02*
X34385238Y-111291342D01*
X34385238Y-111291342D02*
X34432857Y-111386580D01*
X34432857Y-111386580D02*
X34480476Y-111434200D01*
X34480476Y-111434200D02*
X34575714Y-111481819D01*
X34575714Y-111481819D02*
X34766190Y-111481819D01*
X34766190Y-111481819D02*
X34861428Y-111434200D01*
X34861428Y-111434200D02*
X34909047Y-111386580D01*
X34909047Y-111386580D02*
X34956666Y-111291342D01*
X34956666Y-111291342D02*
X34956666Y-111053247D01*
X34956666Y-111053247D02*
X34909047Y-110958009D01*
X34909047Y-110958009D02*
X34861428Y-110910390D01*
X34861428Y-110910390D02*
X34766190Y-110862771D01*
X34766190Y-110862771D02*
X34575714Y-110862771D01*
X34575714Y-110862771D02*
X34480476Y-110910390D01*
X34480476Y-110910390D02*
X34432857Y-110958009D01*
X34432857Y-110958009D02*
X34385238Y-111053247D01*
X46656666Y-90675819D02*
X46656666Y-91390104D01*
X46656666Y-91390104D02*
X46609047Y-91532961D01*
X46609047Y-91532961D02*
X46513809Y-91628200D01*
X46513809Y-91628200D02*
X46370952Y-91675819D01*
X46370952Y-91675819D02*
X46275714Y-91675819D01*
X47037619Y-90675819D02*
X47704285Y-90675819D01*
X47704285Y-90675819D02*
X47275714Y-91675819D01*
X70532666Y-38795819D02*
X70532666Y-39510104D01*
X70532666Y-39510104D02*
X70485047Y-39652961D01*
X70485047Y-39652961D02*
X70389809Y-39748200D01*
X70389809Y-39748200D02*
X70246952Y-39795819D01*
X70246952Y-39795819D02*
X70151714Y-39795819D01*
X71151714Y-39224390D02*
X71056476Y-39176771D01*
X71056476Y-39176771D02*
X71008857Y-39129152D01*
X71008857Y-39129152D02*
X70961238Y-39033914D01*
X70961238Y-39033914D02*
X70961238Y-38986295D01*
X70961238Y-38986295D02*
X71008857Y-38891057D01*
X71008857Y-38891057D02*
X71056476Y-38843438D01*
X71056476Y-38843438D02*
X71151714Y-38795819D01*
X71151714Y-38795819D02*
X71342190Y-38795819D01*
X71342190Y-38795819D02*
X71437428Y-38843438D01*
X71437428Y-38843438D02*
X71485047Y-38891057D01*
X71485047Y-38891057D02*
X71532666Y-38986295D01*
X71532666Y-38986295D02*
X71532666Y-39033914D01*
X71532666Y-39033914D02*
X71485047Y-39129152D01*
X71485047Y-39129152D02*
X71437428Y-39176771D01*
X71437428Y-39176771D02*
X71342190Y-39224390D01*
X71342190Y-39224390D02*
X71151714Y-39224390D01*
X71151714Y-39224390D02*
X71056476Y-39272009D01*
X71056476Y-39272009D02*
X71008857Y-39319628D01*
X71008857Y-39319628D02*
X70961238Y-39414866D01*
X70961238Y-39414866D02*
X70961238Y-39605342D01*
X70961238Y-39605342D02*
X71008857Y-39700580D01*
X71008857Y-39700580D02*
X71056476Y-39748200D01*
X71056476Y-39748200D02*
X71151714Y-39795819D01*
X71151714Y-39795819D02*
X71342190Y-39795819D01*
X71342190Y-39795819D02*
X71437428Y-39748200D01*
X71437428Y-39748200D02*
X71485047Y-39700580D01*
X71485047Y-39700580D02*
X71532666Y-39605342D01*
X71532666Y-39605342D02*
X71532666Y-39414866D01*
X71532666Y-39414866D02*
X71485047Y-39319628D01*
X71485047Y-39319628D02*
X71437428Y-39272009D01*
X71437428Y-39272009D02*
X71342190Y-39224390D01*
X68024476Y-107961819D02*
X68024476Y-108676104D01*
X68024476Y-108676104D02*
X67976857Y-108818961D01*
X67976857Y-108818961D02*
X67881619Y-108914200D01*
X67881619Y-108914200D02*
X67738762Y-108961819D01*
X67738762Y-108961819D02*
X67643524Y-108961819D01*
X69024476Y-108961819D02*
X68453048Y-108961819D01*
X68738762Y-108961819D02*
X68738762Y-107961819D01*
X68738762Y-107961819D02*
X68643524Y-108104676D01*
X68643524Y-108104676D02*
X68548286Y-108199914D01*
X68548286Y-108199914D02*
X68453048Y-108247533D01*
X69643524Y-107961819D02*
X69738762Y-107961819D01*
X69738762Y-107961819D02*
X69834000Y-108009438D01*
X69834000Y-108009438D02*
X69881619Y-108057057D01*
X69881619Y-108057057D02*
X69929238Y-108152295D01*
X69929238Y-108152295D02*
X69976857Y-108342771D01*
X69976857Y-108342771D02*
X69976857Y-108580866D01*
X69976857Y-108580866D02*
X69929238Y-108771342D01*
X69929238Y-108771342D02*
X69881619Y-108866580D01*
X69881619Y-108866580D02*
X69834000Y-108914200D01*
X69834000Y-108914200D02*
X69738762Y-108961819D01*
X69738762Y-108961819D02*
X69643524Y-108961819D01*
X69643524Y-108961819D02*
X69548286Y-108914200D01*
X69548286Y-108914200D02*
X69500667Y-108866580D01*
X69500667Y-108866580D02*
X69453048Y-108771342D01*
X69453048Y-108771342D02*
X69405429Y-108580866D01*
X69405429Y-108580866D02*
X69405429Y-108342771D01*
X69405429Y-108342771D02*
X69453048Y-108152295D01*
X69453048Y-108152295D02*
X69500667Y-108057057D01*
X69500667Y-108057057D02*
X69548286Y-108009438D01*
X69548286Y-108009438D02*
X69643524Y-107961819D01*
X68500666Y-100341819D02*
X68500666Y-101056104D01*
X68500666Y-101056104D02*
X68453047Y-101198961D01*
X68453047Y-101198961D02*
X68357809Y-101294200D01*
X68357809Y-101294200D02*
X68214952Y-101341819D01*
X68214952Y-101341819D02*
X68119714Y-101341819D01*
X69024476Y-101341819D02*
X69214952Y-101341819D01*
X69214952Y-101341819D02*
X69310190Y-101294200D01*
X69310190Y-101294200D02*
X69357809Y-101246580D01*
X69357809Y-101246580D02*
X69453047Y-101103723D01*
X69453047Y-101103723D02*
X69500666Y-100913247D01*
X69500666Y-100913247D02*
X69500666Y-100532295D01*
X69500666Y-100532295D02*
X69453047Y-100437057D01*
X69453047Y-100437057D02*
X69405428Y-100389438D01*
X69405428Y-100389438D02*
X69310190Y-100341819D01*
X69310190Y-100341819D02*
X69119714Y-100341819D01*
X69119714Y-100341819D02*
X69024476Y-100389438D01*
X69024476Y-100389438D02*
X68976857Y-100437057D01*
X68976857Y-100437057D02*
X68929238Y-100532295D01*
X68929238Y-100532295D02*
X68929238Y-100770390D01*
X68929238Y-100770390D02*
X68976857Y-100865628D01*
X68976857Y-100865628D02*
X69024476Y-100913247D01*
X69024476Y-100913247D02*
X69119714Y-100960866D01*
X69119714Y-100960866D02*
X69310190Y-100960866D01*
X69310190Y-100960866D02*
X69405428Y-100913247D01*
X69405428Y-100913247D02*
X69453047Y-100865628D01*
X69453047Y-100865628D02*
X69500666Y-100770390D01*
D12*
%TO.C,J5*%
X30166000Y-76200000D02*
X30166000Y-38040000D01*
X32826000Y-38040000D02*
X30166000Y-38040000D01*
X32826000Y-76200000D02*
X30166000Y-76200000D01*
X32826000Y-76200000D02*
X32826000Y-38040000D01*
X32826000Y-77470000D02*
X32826000Y-78800000D01*
X32826000Y-78800000D02*
X31496000Y-78800000D01*
%TO.C,J4*%
X50486000Y-48390000D02*
X51816000Y-48390000D01*
X50486000Y-49720000D02*
X50486000Y-48390000D01*
X50486000Y-50990000D02*
X50486000Y-78990000D01*
X50486000Y-50990000D02*
X53146000Y-50990000D01*
X50486000Y-78990000D02*
X53146000Y-78990000D01*
X53146000Y-50990000D02*
X53146000Y-78990000D01*
%TO.C,J6*%
X32960000Y-107427000D02*
X32960000Y-89587000D01*
X35620000Y-89587000D02*
X32960000Y-89587000D01*
X35620000Y-107427000D02*
X32960000Y-107427000D01*
X35620000Y-107427000D02*
X35620000Y-89587000D01*
X35620000Y-108697000D02*
X35620000Y-110027000D01*
X35620000Y-110027000D02*
X34290000Y-110027000D01*
%TO.C,J7*%
X45660000Y-92221000D02*
X46990000Y-92221000D01*
X45660000Y-93551000D02*
X45660000Y-92221000D01*
X45660000Y-94821000D02*
X45660000Y-107581000D01*
X45660000Y-94821000D02*
X48320000Y-94821000D01*
X45660000Y-107581000D02*
X48320000Y-107581000D01*
X48320000Y-94821000D02*
X48320000Y-107581000D01*
%TO.C,J8*%
X69536000Y-40341000D02*
X70866000Y-40341000D01*
X69536000Y-41671000D02*
X69536000Y-40341000D01*
X69536000Y-42941000D02*
X69536000Y-60781000D01*
X69536000Y-42941000D02*
X72196000Y-42941000D01*
X69536000Y-60781000D02*
X72196000Y-60781000D01*
X72196000Y-42941000D02*
X72196000Y-60781000D01*
%TO.C,J10*%
X67504000Y-104907000D02*
X67504000Y-102307000D01*
X70164000Y-102307000D02*
X67504000Y-102307000D01*
X70164000Y-104907000D02*
X67504000Y-104907000D01*
X70164000Y-104907000D02*
X70164000Y-102307000D01*
X70164000Y-106177000D02*
X70164000Y-107507000D01*
X70164000Y-107507000D02*
X68834000Y-107507000D01*
%TO.C,J9*%
X67504000Y-97287000D02*
X67504000Y-94687000D01*
X70164000Y-94687000D02*
X67504000Y-94687000D01*
X70164000Y-97287000D02*
X67504000Y-97287000D01*
X70164000Y-97287000D02*
X70164000Y-94687000D01*
X70164000Y-98557000D02*
X70164000Y-99887000D01*
X70164000Y-99887000D02*
X68834000Y-99887000D01*
%TD*%
M02*
