%TF.GenerationSoftware,KiCad,Pcbnew,8.0.3*%
%TF.CreationDate,2024-07-09T13:00:23-04:00*%
%TF.ProjectId,PCB,5043422e-6b69-4636-9164-5f7063625858,rev?*%
%TF.SameCoordinates,Original*%
%TF.FileFunction,Drillmap*%
%TF.FilePolarity,Positive*%
%FSLAX45Y45*%
G04 Gerber Fmt 4.5, Leading zero omitted, Abs format (unit mm)*
G04 Created by KiCad (PCBNEW 8.0.3) date 2024-07-09 13:00:23*
%MOMM*%
%LPD*%
G01*
G04 APERTURE LIST*
%ADD10C,0.050000*%
%ADD11C,0.200000*%
G04 APERTURE END LIST*
D10*
X2971800Y-3175000D02*
X7289800Y-3175000D01*
X7543800Y-3429000D02*
X7543800Y-11049000D01*
X2717800Y-11049000D02*
X2717800Y-3429000D01*
X2717800Y-3429000D02*
G75*
G02*
X2971800Y-3175000I254000J0D01*
G01*
X2971800Y-11303000D02*
G75*
G02*
X2717800Y-11049000I0J254000D01*
G01*
X7289800Y-11303000D02*
X2971800Y-11303000D01*
X7543800Y-11049000D02*
G75*
G02*
X7289800Y-11303000I-254000J0D01*
G01*
X7289800Y-3175000D02*
G75*
G02*
X7543800Y-3429000I0J-254000D01*
G01*
D11*
X2976077Y-11616984D02*
X2976077Y-11416984D01*
X2976077Y-11416984D02*
X3023696Y-11416984D01*
X3023696Y-11416984D02*
X3052267Y-11426508D01*
X3052267Y-11426508D02*
X3071315Y-11445555D01*
X3071315Y-11445555D02*
X3080839Y-11464603D01*
X3080839Y-11464603D02*
X3090362Y-11502698D01*
X3090362Y-11502698D02*
X3090362Y-11531269D01*
X3090362Y-11531269D02*
X3080839Y-11569365D01*
X3080839Y-11569365D02*
X3071315Y-11588412D01*
X3071315Y-11588412D02*
X3052267Y-11607460D01*
X3052267Y-11607460D02*
X3023696Y-11616984D01*
X3023696Y-11616984D02*
X2976077Y-11616984D01*
X3176077Y-11616984D02*
X3176077Y-11483650D01*
X3176077Y-11521746D02*
X3185601Y-11502698D01*
X3185601Y-11502698D02*
X3195124Y-11493174D01*
X3195124Y-11493174D02*
X3214172Y-11483650D01*
X3214172Y-11483650D02*
X3233220Y-11483650D01*
X3299886Y-11616984D02*
X3299886Y-11483650D01*
X3299886Y-11416984D02*
X3290362Y-11426508D01*
X3290362Y-11426508D02*
X3299886Y-11436031D01*
X3299886Y-11436031D02*
X3309410Y-11426508D01*
X3309410Y-11426508D02*
X3299886Y-11416984D01*
X3299886Y-11416984D02*
X3299886Y-11436031D01*
X3423696Y-11616984D02*
X3404648Y-11607460D01*
X3404648Y-11607460D02*
X3395124Y-11588412D01*
X3395124Y-11588412D02*
X3395124Y-11416984D01*
X3528458Y-11616984D02*
X3509410Y-11607460D01*
X3509410Y-11607460D02*
X3499886Y-11588412D01*
X3499886Y-11588412D02*
X3499886Y-11416984D01*
X3757029Y-11616984D02*
X3757029Y-11416984D01*
X3757029Y-11416984D02*
X3823696Y-11559841D01*
X3823696Y-11559841D02*
X3890362Y-11416984D01*
X3890362Y-11416984D02*
X3890362Y-11616984D01*
X4071315Y-11616984D02*
X4071315Y-11512222D01*
X4071315Y-11512222D02*
X4061791Y-11493174D01*
X4061791Y-11493174D02*
X4042743Y-11483650D01*
X4042743Y-11483650D02*
X4004648Y-11483650D01*
X4004648Y-11483650D02*
X3985601Y-11493174D01*
X4071315Y-11607460D02*
X4052267Y-11616984D01*
X4052267Y-11616984D02*
X4004648Y-11616984D01*
X4004648Y-11616984D02*
X3985601Y-11607460D01*
X3985601Y-11607460D02*
X3976077Y-11588412D01*
X3976077Y-11588412D02*
X3976077Y-11569365D01*
X3976077Y-11569365D02*
X3985601Y-11550317D01*
X3985601Y-11550317D02*
X4004648Y-11540793D01*
X4004648Y-11540793D02*
X4052267Y-11540793D01*
X4052267Y-11540793D02*
X4071315Y-11531269D01*
X4166553Y-11483650D02*
X4166553Y-11683650D01*
X4166553Y-11493174D02*
X4185601Y-11483650D01*
X4185601Y-11483650D02*
X4223696Y-11483650D01*
X4223696Y-11483650D02*
X4242744Y-11493174D01*
X4242744Y-11493174D02*
X4252267Y-11502698D01*
X4252267Y-11502698D02*
X4261791Y-11521746D01*
X4261791Y-11521746D02*
X4261791Y-11578888D01*
X4261791Y-11578888D02*
X4252267Y-11597936D01*
X4252267Y-11597936D02*
X4242744Y-11607460D01*
X4242744Y-11607460D02*
X4223696Y-11616984D01*
X4223696Y-11616984D02*
X4185601Y-11616984D01*
X4185601Y-11616984D02*
X4166553Y-11607460D01*
X4347505Y-11597936D02*
X4357029Y-11607460D01*
X4357029Y-11607460D02*
X4347505Y-11616984D01*
X4347505Y-11616984D02*
X4337982Y-11607460D01*
X4337982Y-11607460D02*
X4347505Y-11597936D01*
X4347505Y-11597936D02*
X4347505Y-11616984D01*
X4347505Y-11493174D02*
X4357029Y-11502698D01*
X4357029Y-11502698D02*
X4347505Y-11512222D01*
X4347505Y-11512222D02*
X4337982Y-11502698D01*
X4337982Y-11502698D02*
X4347505Y-11493174D01*
X4347505Y-11493174D02*
X4347505Y-11512222D01*
M02*
