%TF.GenerationSoftware,KiCad,Pcbnew,8.0.3*%
%TF.CreationDate,2024-07-09T21:28:28-04:00*%
%TF.ProjectId,PCB,5043422e-6b69-4636-9164-5f7063625858,rev?*%
%TF.SameCoordinates,Original*%
%TF.FileFunction,Drillmap*%
%TF.FilePolarity,Positive*%
%FSLAX45Y45*%
G04 Gerber Fmt 4.5, Leading zero omitted, Abs format (unit mm)*
G04 Created by KiCad (PCBNEW 8.0.3) date 2024-07-09 21:28:28*
%MOMM*%
%LPD*%
G01*
G04 APERTURE LIST*
%ADD10C,0.050000*%
%ADD11C,0.200000*%
%ADD12C,0.100000*%
%ADD13C,0.110000*%
%ADD14C,0.320000*%
G04 APERTURE END LIST*
D10*
X4241800Y-4191000D02*
G75*
G02*
X4368800Y-4064000I127000J0D01*
G01*
X9245600Y-4064000D02*
G75*
G02*
X9372600Y-4191000I0J-127000D01*
G01*
X9372600Y-8305800D02*
G75*
G02*
X9245600Y-8432800I-127000J0D01*
G01*
X4356100Y-8432800D02*
G75*
G02*
X4241800Y-8318500I0J114300D01*
G01*
X9245600Y-4064000D02*
X4368800Y-4064000D01*
X9372600Y-8305800D02*
X9372600Y-4191000D01*
X4356100Y-8432800D02*
X9245600Y-8432800D01*
X4241800Y-4191000D02*
X4241800Y-8318500D01*
D11*
D12*
X5014200Y-5865100D02*
X5044200Y-5895100D01*
X5044200Y-5865100D02*
X5014200Y-5895100D01*
X5065000Y-6144500D02*
X5095000Y-6174500D01*
X5095000Y-6144500D02*
X5065000Y-6174500D01*
X5192000Y-5484100D02*
X5222000Y-5514100D01*
X5222000Y-5484100D02*
X5192000Y-5514100D01*
X5293600Y-6960500D02*
X5323600Y-6990500D01*
X5323600Y-6960500D02*
X5293600Y-6990500D01*
X5420600Y-7884400D02*
X5450600Y-7914400D01*
X5450600Y-7884400D02*
X5420600Y-7914400D01*
X5496800Y-5509500D02*
X5526800Y-5539500D01*
X5526800Y-5509500D02*
X5496800Y-5539500D01*
X5509500Y-7922500D02*
X5539500Y-7952500D01*
X5539500Y-7922500D02*
X5509500Y-7952500D01*
X5649200Y-7935200D02*
X5679200Y-7965200D01*
X5679200Y-7935200D02*
X5649200Y-7965200D01*
X5725384Y-7338284D02*
X5755384Y-7368284D01*
X5755384Y-7338284D02*
X5725384Y-7368284D01*
X5788900Y-7935200D02*
X5818900Y-7965200D01*
X5818900Y-7935200D02*
X5788900Y-7965200D01*
X5827000Y-6296900D02*
X5857000Y-6326900D01*
X5857000Y-6296900D02*
X5827000Y-6326900D01*
X5852400Y-5534900D02*
X5882400Y-5564900D01*
X5882400Y-5534900D02*
X5852400Y-5564900D01*
X5890500Y-7249400D02*
X5920500Y-7279400D01*
X5920500Y-7249400D02*
X5890500Y-7279400D01*
X5903200Y-7871700D02*
X5933200Y-7901700D01*
X5933200Y-7871700D02*
X5903200Y-7901700D01*
X5979400Y-5687300D02*
X6009400Y-5717300D01*
X6009400Y-5687300D02*
X5979400Y-5717300D01*
X5979400Y-6246100D02*
X6009400Y-6276100D01*
X6009400Y-6246100D02*
X5979400Y-6276100D01*
X6055600Y-7287500D02*
X6085600Y-7317500D01*
X6085600Y-7287500D02*
X6055600Y-7317500D01*
X6131800Y-5306300D02*
X6161800Y-5336300D01*
X6161800Y-5306300D02*
X6131800Y-5336300D01*
X6157200Y-5618250D02*
X6187200Y-5648250D01*
X6187200Y-5618250D02*
X6157200Y-5648250D01*
X6157200Y-5763500D02*
X6187200Y-5793500D01*
X6187200Y-5763500D02*
X6157200Y-5793500D01*
X6512800Y-4798300D02*
X6542800Y-4828300D01*
X6542800Y-4798300D02*
X6512800Y-4828300D01*
X6512800Y-5052300D02*
X6542800Y-5082300D01*
X6542800Y-5052300D02*
X6512800Y-5082300D01*
X6512800Y-5382500D02*
X6542800Y-5412500D01*
X6542800Y-5382500D02*
X6512800Y-5412500D01*
X6512800Y-5484100D02*
X6542800Y-5514100D01*
X6542800Y-5484100D02*
X6512800Y-5514100D01*
X6512800Y-6220700D02*
X6542800Y-6250700D01*
X6542800Y-6220700D02*
X6512800Y-6250700D01*
X6589000Y-6703300D02*
X6619000Y-6733300D01*
X6619000Y-6703300D02*
X6589000Y-6733300D01*
X6614400Y-5865100D02*
X6644400Y-5895100D01*
X6644400Y-5865100D02*
X6614400Y-5895100D01*
X6817600Y-5382500D02*
X6847600Y-5412500D01*
X6847600Y-5382500D02*
X6817600Y-5412500D01*
X6893800Y-5966700D02*
X6923800Y-5996700D01*
X6923800Y-5966700D02*
X6893800Y-5996700D01*
X7024408Y-5977840D02*
X7054408Y-6007840D01*
X7054408Y-5977840D02*
X7024408Y-6007840D01*
X7097000Y-6220700D02*
X7127000Y-6250700D01*
X7127000Y-6220700D02*
X7097000Y-6250700D01*
X7122400Y-5103100D02*
X7152400Y-5133100D01*
X7152400Y-5103100D02*
X7122400Y-5133100D01*
X7122400Y-5661900D02*
X7152400Y-5691900D01*
X7152400Y-5661900D02*
X7122400Y-5691900D01*
X7198600Y-6220700D02*
X7228600Y-6250700D01*
X7228600Y-6220700D02*
X7198600Y-6250700D01*
X7274800Y-8278100D02*
X7304800Y-8308100D01*
X7304800Y-8278100D02*
X7274800Y-8308100D01*
X7401800Y-5382500D02*
X7431800Y-5412500D01*
X7431800Y-5382500D02*
X7401800Y-5412500D01*
X7706600Y-4798300D02*
X7736600Y-4828300D01*
X7736600Y-4798300D02*
X7706600Y-4828300D01*
X7706600Y-4976100D02*
X7736600Y-5006100D01*
X7736600Y-4976100D02*
X7706600Y-5006100D01*
X7833600Y-6220700D02*
X7863600Y-6250700D01*
X7863600Y-6220700D02*
X7833600Y-6250700D01*
X7859000Y-6601700D02*
X7889000Y-6631700D01*
X7889000Y-6601700D02*
X7859000Y-6631700D01*
X8189200Y-6144500D02*
X8219200Y-6174500D01*
X8219200Y-6144500D02*
X8189200Y-6174500D01*
X8189200Y-6347700D02*
X8219200Y-6377700D01*
X8219200Y-6347700D02*
X8189200Y-6377700D01*
X8290800Y-8125700D02*
X8320800Y-8155700D01*
X8320800Y-8125700D02*
X8290800Y-8155700D01*
X8392400Y-5585700D02*
X8422400Y-5615700D01*
X8422400Y-5585700D02*
X8392400Y-5615700D01*
X8443200Y-5128500D02*
X8473200Y-5158500D01*
X8473200Y-5128500D02*
X8443200Y-5158500D01*
X8544800Y-5763500D02*
X8574800Y-5793500D01*
X8574800Y-5763500D02*
X8544800Y-5793500D01*
X8544800Y-6220700D02*
X8574800Y-6250700D01*
X8574800Y-6220700D02*
X8544800Y-6250700D01*
X8798800Y-5865100D02*
X8828800Y-5895100D01*
X8828800Y-5865100D02*
X8798800Y-5895100D01*
X8824200Y-7871700D02*
X8854200Y-7901700D01*
X8854200Y-7871700D02*
X8824200Y-7901700D01*
X8951200Y-5585700D02*
X8981200Y-5615700D01*
X8981200Y-5585700D02*
X8951200Y-5615700D01*
X9179800Y-6169900D02*
X9209800Y-6199900D01*
X9209800Y-6169900D02*
X9179800Y-6199900D01*
X5502600Y-5849900D02*
G75*
G02*
X5472600Y-5849900I-15000J0D01*
G01*
X5472600Y-5849900D02*
G75*
G02*
X5502600Y-5849900I15000J0D01*
G01*
X5502600Y-5999900D02*
G75*
G02*
X5472600Y-5999900I-15000J0D01*
G01*
X5472600Y-5999900D02*
G75*
G02*
X5502600Y-5999900I15000J0D01*
G01*
X5502600Y-6149900D02*
G75*
G02*
X5472600Y-6149900I-15000J0D01*
G01*
X5472600Y-6149900D02*
G75*
G02*
X5502600Y-6149900I15000J0D01*
G01*
X5652600Y-5849900D02*
G75*
G02*
X5622600Y-5849900I-15000J0D01*
G01*
X5622600Y-5849900D02*
G75*
G02*
X5652600Y-5849900I15000J0D01*
G01*
X5652600Y-5999900D02*
G75*
G02*
X5622600Y-5999900I-15000J0D01*
G01*
X5622600Y-5999900D02*
G75*
G02*
X5652600Y-5999900I15000J0D01*
G01*
X5652600Y-6149900D02*
G75*
G02*
X5622600Y-6149900I-15000J0D01*
G01*
X5622600Y-6149900D02*
G75*
G02*
X5652600Y-6149900I15000J0D01*
G01*
X5340900Y-7722200D02*
X5340900Y-7772200D01*
X5315900Y-7747200D02*
X5365900Y-7747200D01*
X5303400Y-7772200D02*
X5378400Y-7772200D01*
X5378400Y-7722200D02*
G75*
G02*
X5378400Y-7772200I0J-25000D01*
G01*
X5378400Y-7722200D02*
X5303400Y-7722200D01*
X5303400Y-7722200D02*
G75*
G03*
X5303400Y-7772200I0J-25000D01*
G01*
X6139900Y-7722200D02*
X6139900Y-7772200D01*
X6114900Y-7747200D02*
X6164900Y-7747200D01*
X6102400Y-7772200D02*
X6177400Y-7772200D01*
X6177400Y-7722200D02*
G75*
G02*
X6177400Y-7772200I0J-25000D01*
G01*
X6177400Y-7722200D02*
X6102400Y-7722200D01*
X6102400Y-7722200D02*
G75*
G03*
X6102400Y-7772200I0J-25000D01*
G01*
X5117846Y-8254146D02*
X5117846Y-8215254D01*
X5078954Y-8215254D01*
X5078954Y-8254146D01*
X5117846Y-8254146D01*
X5070900Y-8169700D02*
X5070900Y-8299700D01*
X5125900Y-8299700D02*
G75*
G02*
X5070900Y-8299700I-27500J0D01*
G01*
X5125900Y-8299700D02*
X5125900Y-8169700D01*
X5125900Y-8169700D02*
G75*
G03*
X5070900Y-8169700I-27500J0D01*
G01*
X5177846Y-7964146D02*
X5177846Y-7925254D01*
X5138954Y-7925254D01*
X5138954Y-7964146D01*
X5177846Y-7964146D01*
X5130900Y-7879700D02*
X5130900Y-8009700D01*
X5185900Y-8009700D02*
G75*
G02*
X5130900Y-8009700I-27500J0D01*
G01*
X5185900Y-8009700D02*
X5185900Y-7879700D01*
X5185900Y-7879700D02*
G75*
G03*
X5130900Y-7879700I-27500J0D01*
G01*
X6341846Y-7964146D02*
X6341846Y-7925254D01*
X6302954Y-7925254D01*
X6302954Y-7964146D01*
X6341846Y-7964146D01*
X6294900Y-7879700D02*
X6294900Y-8009700D01*
X6349900Y-8009700D02*
G75*
G02*
X6294900Y-8009700I-27500J0D01*
G01*
X6349900Y-8009700D02*
X6349900Y-7879700D01*
X6349900Y-7879700D02*
G75*
G03*
X6294900Y-7879700I-27500J0D01*
G01*
X6401846Y-8254146D02*
X6401846Y-8215254D01*
X6362954Y-8215254D01*
X6362954Y-8254146D01*
X6401846Y-8254146D01*
X6354900Y-8169700D02*
X6354900Y-8299700D01*
X6409900Y-8299700D02*
G75*
G02*
X6354900Y-8299700I-27500J0D01*
G01*
X6409900Y-8299700D02*
X6409900Y-8169700D01*
X6409900Y-8169700D02*
G75*
G03*
X6354900Y-8169700I-27500J0D01*
G01*
X5308400Y-7710700D02*
X5338400Y-7680700D01*
X5308400Y-7650700D01*
X5278400Y-7680700D01*
X5308400Y-7710700D01*
X5278400Y-7621700D02*
X5278400Y-7739700D01*
X5338400Y-7739700D02*
G75*
G02*
X5278400Y-7739700I-30000J0D01*
G01*
X5338400Y-7739700D02*
X5338400Y-7621700D01*
X5338400Y-7621700D02*
G75*
G03*
X5278400Y-7621700I-30000J0D01*
G01*
X6172400Y-7710700D02*
X6202400Y-7680700D01*
X6172400Y-7650700D01*
X6142400Y-7680700D01*
X6172400Y-7710700D01*
X6142400Y-7621700D02*
X6142400Y-7739700D01*
X6202400Y-7739700D02*
G75*
G02*
X6142400Y-7739700I-30000J0D01*
G01*
X6202400Y-7739700D02*
X6202400Y-7621700D01*
X6202400Y-7621700D02*
G75*
G03*
X6142400Y-7621700I-30000J0D01*
G01*
X4674400Y-5817700D02*
X4774400Y-5917700D01*
X4774400Y-5817700D02*
X4674400Y-5917700D01*
X4774400Y-5867700D02*
G75*
G02*
X4674400Y-5867700I-50000J0D01*
G01*
X4674400Y-5867700D02*
G75*
G02*
X4774400Y-5867700I50000J0D01*
G01*
X4674400Y-6071700D02*
X4774400Y-6171700D01*
X4774400Y-6071700D02*
X4674400Y-6171700D01*
X4774400Y-6121700D02*
G75*
G02*
X4674400Y-6121700I-50000J0D01*
G01*
X4674400Y-6121700D02*
G75*
G02*
X4774400Y-6121700I50000J0D01*
G01*
X4674400Y-6527400D02*
X4774400Y-6627400D01*
X4774400Y-6527400D02*
X4674400Y-6627400D01*
X4774400Y-6577400D02*
G75*
G02*
X4674400Y-6577400I-50000J0D01*
G01*
X4674400Y-6577400D02*
G75*
G02*
X4774400Y-6577400I50000J0D01*
G01*
X4674400Y-6781400D02*
X4774400Y-6881400D01*
X4774400Y-6781400D02*
X4674400Y-6881400D01*
X4774400Y-6831400D02*
G75*
G02*
X4674400Y-6831400I-50000J0D01*
G01*
X4674400Y-6831400D02*
G75*
G02*
X4774400Y-6831400I50000J0D01*
G01*
D13*
X5126600Y-6587100D02*
X5236600Y-6697100D01*
X5236600Y-6587100D02*
X5126600Y-6697100D01*
X5181600Y-6587100D02*
X5181600Y-6697100D01*
X5126600Y-6642100D02*
X5236600Y-6642100D01*
X6142600Y-6587100D02*
X6252600Y-6697100D01*
X6252600Y-6587100D02*
X6142600Y-6697100D01*
X6197600Y-6587100D02*
X6197600Y-6697100D01*
X6142600Y-6642100D02*
X6252600Y-6642100D01*
D14*
X4488200Y-4945400D02*
X4808200Y-5265400D01*
X4808200Y-4945400D02*
X4488200Y-5265400D01*
X4761338Y-5218538D02*
X4761338Y-4992262D01*
X4535062Y-4992262D01*
X4535062Y-5218538D01*
X4761338Y-5218538D01*
X4488200Y-7739400D02*
X4808200Y-8059400D01*
X4808200Y-7739400D02*
X4488200Y-8059400D01*
X4761338Y-8012538D02*
X4761338Y-7786262D01*
X4535062Y-7786262D01*
X4535062Y-8012538D01*
X4761338Y-8012538D01*
D11*
X4500077Y-8746784D02*
X4500077Y-8546784D01*
X4500077Y-8546784D02*
X4547696Y-8546784D01*
X4547696Y-8546784D02*
X4576267Y-8556308D01*
X4576267Y-8556308D02*
X4595315Y-8575355D01*
X4595315Y-8575355D02*
X4604839Y-8594403D01*
X4604839Y-8594403D02*
X4614363Y-8632498D01*
X4614363Y-8632498D02*
X4614363Y-8661070D01*
X4614363Y-8661070D02*
X4604839Y-8699165D01*
X4604839Y-8699165D02*
X4595315Y-8718212D01*
X4595315Y-8718212D02*
X4576267Y-8737260D01*
X4576267Y-8737260D02*
X4547696Y-8746784D01*
X4547696Y-8746784D02*
X4500077Y-8746784D01*
X4700077Y-8746784D02*
X4700077Y-8613450D01*
X4700077Y-8651546D02*
X4709601Y-8632498D01*
X4709601Y-8632498D02*
X4719124Y-8622974D01*
X4719124Y-8622974D02*
X4738172Y-8613450D01*
X4738172Y-8613450D02*
X4757220Y-8613450D01*
X4823886Y-8746784D02*
X4823886Y-8613450D01*
X4823886Y-8546784D02*
X4814363Y-8556308D01*
X4814363Y-8556308D02*
X4823886Y-8565831D01*
X4823886Y-8565831D02*
X4833410Y-8556308D01*
X4833410Y-8556308D02*
X4823886Y-8546784D01*
X4823886Y-8546784D02*
X4823886Y-8565831D01*
X4947696Y-8746784D02*
X4928648Y-8737260D01*
X4928648Y-8737260D02*
X4919124Y-8718212D01*
X4919124Y-8718212D02*
X4919124Y-8546784D01*
X5052458Y-8746784D02*
X5033410Y-8737260D01*
X5033410Y-8737260D02*
X5023886Y-8718212D01*
X5023886Y-8718212D02*
X5023886Y-8546784D01*
X5281029Y-8746784D02*
X5281029Y-8546784D01*
X5281029Y-8546784D02*
X5347696Y-8689641D01*
X5347696Y-8689641D02*
X5414363Y-8546784D01*
X5414363Y-8546784D02*
X5414363Y-8746784D01*
X5595315Y-8746784D02*
X5595315Y-8642022D01*
X5595315Y-8642022D02*
X5585791Y-8622974D01*
X5585791Y-8622974D02*
X5566744Y-8613450D01*
X5566744Y-8613450D02*
X5528648Y-8613450D01*
X5528648Y-8613450D02*
X5509601Y-8622974D01*
X5595315Y-8737260D02*
X5576267Y-8746784D01*
X5576267Y-8746784D02*
X5528648Y-8746784D01*
X5528648Y-8746784D02*
X5509601Y-8737260D01*
X5509601Y-8737260D02*
X5500077Y-8718212D01*
X5500077Y-8718212D02*
X5500077Y-8699165D01*
X5500077Y-8699165D02*
X5509601Y-8680117D01*
X5509601Y-8680117D02*
X5528648Y-8670593D01*
X5528648Y-8670593D02*
X5576267Y-8670593D01*
X5576267Y-8670593D02*
X5595315Y-8661070D01*
X5690553Y-8613450D02*
X5690553Y-8813450D01*
X5690553Y-8622974D02*
X5709601Y-8613450D01*
X5709601Y-8613450D02*
X5747696Y-8613450D01*
X5747696Y-8613450D02*
X5766743Y-8622974D01*
X5766743Y-8622974D02*
X5776267Y-8632498D01*
X5776267Y-8632498D02*
X5785791Y-8651546D01*
X5785791Y-8651546D02*
X5785791Y-8708689D01*
X5785791Y-8708689D02*
X5776267Y-8727736D01*
X5776267Y-8727736D02*
X5766743Y-8737260D01*
X5766743Y-8737260D02*
X5747696Y-8746784D01*
X5747696Y-8746784D02*
X5709601Y-8746784D01*
X5709601Y-8746784D02*
X5690553Y-8737260D01*
X5871505Y-8727736D02*
X5881029Y-8737260D01*
X5881029Y-8737260D02*
X5871505Y-8746784D01*
X5871505Y-8746784D02*
X5861982Y-8737260D01*
X5861982Y-8737260D02*
X5871505Y-8727736D01*
X5871505Y-8727736D02*
X5871505Y-8746784D01*
X5871505Y-8622974D02*
X5881029Y-8632498D01*
X5881029Y-8632498D02*
X5871505Y-8642022D01*
X5871505Y-8642022D02*
X5861982Y-8632498D01*
X5861982Y-8632498D02*
X5871505Y-8622974D01*
X5871505Y-8622974D02*
X5871505Y-8642022D01*
D12*
X4209300Y-9060300D02*
X4239300Y-9090300D01*
X4239300Y-9060300D02*
X4209300Y-9090300D01*
D11*
X4538172Y-8966784D02*
X4557220Y-8966784D01*
X4557220Y-8966784D02*
X4576267Y-8976308D01*
X4576267Y-8976308D02*
X4585791Y-8985831D01*
X4585791Y-8985831D02*
X4595315Y-9004879D01*
X4595315Y-9004879D02*
X4604839Y-9042974D01*
X4604839Y-9042974D02*
X4604839Y-9090593D01*
X4604839Y-9090593D02*
X4595315Y-9128689D01*
X4595315Y-9128689D02*
X4585791Y-9147736D01*
X4585791Y-9147736D02*
X4576267Y-9157260D01*
X4576267Y-9157260D02*
X4557220Y-9166784D01*
X4557220Y-9166784D02*
X4538172Y-9166784D01*
X4538172Y-9166784D02*
X4519124Y-9157260D01*
X4519124Y-9157260D02*
X4509601Y-9147736D01*
X4509601Y-9147736D02*
X4500077Y-9128689D01*
X4500077Y-9128689D02*
X4490553Y-9090593D01*
X4490553Y-9090593D02*
X4490553Y-9042974D01*
X4490553Y-9042974D02*
X4500077Y-9004879D01*
X4500077Y-9004879D02*
X4509601Y-8985831D01*
X4509601Y-8985831D02*
X4519124Y-8976308D01*
X4519124Y-8976308D02*
X4538172Y-8966784D01*
X4690553Y-9147736D02*
X4700077Y-9157260D01*
X4700077Y-9157260D02*
X4690553Y-9166784D01*
X4690553Y-9166784D02*
X4681029Y-9157260D01*
X4681029Y-9157260D02*
X4690553Y-9147736D01*
X4690553Y-9147736D02*
X4690553Y-9166784D01*
X4766744Y-8966784D02*
X4890553Y-8966784D01*
X4890553Y-8966784D02*
X4823886Y-9042974D01*
X4823886Y-9042974D02*
X4852458Y-9042974D01*
X4852458Y-9042974D02*
X4871505Y-9052498D01*
X4871505Y-9052498D02*
X4881029Y-9062022D01*
X4881029Y-9062022D02*
X4890553Y-9081070D01*
X4890553Y-9081070D02*
X4890553Y-9128689D01*
X4890553Y-9128689D02*
X4881029Y-9147736D01*
X4881029Y-9147736D02*
X4871505Y-9157260D01*
X4871505Y-9157260D02*
X4852458Y-9166784D01*
X4852458Y-9166784D02*
X4795315Y-9166784D01*
X4795315Y-9166784D02*
X4776267Y-9157260D01*
X4776267Y-9157260D02*
X4766744Y-9147736D01*
X5014363Y-8966784D02*
X5033410Y-8966784D01*
X5033410Y-8966784D02*
X5052458Y-8976308D01*
X5052458Y-8976308D02*
X5061982Y-8985831D01*
X5061982Y-8985831D02*
X5071505Y-9004879D01*
X5071505Y-9004879D02*
X5081029Y-9042974D01*
X5081029Y-9042974D02*
X5081029Y-9090593D01*
X5081029Y-9090593D02*
X5071505Y-9128689D01*
X5071505Y-9128689D02*
X5061982Y-9147736D01*
X5061982Y-9147736D02*
X5052458Y-9157260D01*
X5052458Y-9157260D02*
X5033410Y-9166784D01*
X5033410Y-9166784D02*
X5014363Y-9166784D01*
X5014363Y-9166784D02*
X4995315Y-9157260D01*
X4995315Y-9157260D02*
X4985791Y-9147736D01*
X4985791Y-9147736D02*
X4976267Y-9128689D01*
X4976267Y-9128689D02*
X4966744Y-9090593D01*
X4966744Y-9090593D02*
X4966744Y-9042974D01*
X4966744Y-9042974D02*
X4976267Y-9004879D01*
X4976267Y-9004879D02*
X4985791Y-8985831D01*
X4985791Y-8985831D02*
X4995315Y-8976308D01*
X4995315Y-8976308D02*
X5014363Y-8966784D01*
X5204839Y-8966784D02*
X5223886Y-8966784D01*
X5223886Y-8966784D02*
X5242934Y-8976308D01*
X5242934Y-8976308D02*
X5252458Y-8985831D01*
X5252458Y-8985831D02*
X5261982Y-9004879D01*
X5261982Y-9004879D02*
X5271505Y-9042974D01*
X5271505Y-9042974D02*
X5271505Y-9090593D01*
X5271505Y-9090593D02*
X5261982Y-9128689D01*
X5261982Y-9128689D02*
X5252458Y-9147736D01*
X5252458Y-9147736D02*
X5242934Y-9157260D01*
X5242934Y-9157260D02*
X5223886Y-9166784D01*
X5223886Y-9166784D02*
X5204839Y-9166784D01*
X5204839Y-9166784D02*
X5185791Y-9157260D01*
X5185791Y-9157260D02*
X5176267Y-9147736D01*
X5176267Y-9147736D02*
X5166744Y-9128689D01*
X5166744Y-9128689D02*
X5157220Y-9090593D01*
X5157220Y-9090593D02*
X5157220Y-9042974D01*
X5157220Y-9042974D02*
X5166744Y-9004879D01*
X5166744Y-9004879D02*
X5176267Y-8985831D01*
X5176267Y-8985831D02*
X5185791Y-8976308D01*
X5185791Y-8976308D02*
X5204839Y-8966784D01*
X5357220Y-9166784D02*
X5357220Y-9033450D01*
X5357220Y-9052498D02*
X5366744Y-9042974D01*
X5366744Y-9042974D02*
X5385791Y-9033450D01*
X5385791Y-9033450D02*
X5414363Y-9033450D01*
X5414363Y-9033450D02*
X5433410Y-9042974D01*
X5433410Y-9042974D02*
X5442934Y-9062022D01*
X5442934Y-9062022D02*
X5442934Y-9166784D01*
X5442934Y-9062022D02*
X5452458Y-9042974D01*
X5452458Y-9042974D02*
X5471505Y-9033450D01*
X5471505Y-9033450D02*
X5500077Y-9033450D01*
X5500077Y-9033450D02*
X5519125Y-9042974D01*
X5519125Y-9042974D02*
X5528648Y-9062022D01*
X5528648Y-9062022D02*
X5528648Y-9166784D01*
X5623886Y-9166784D02*
X5623886Y-9033450D01*
X5623886Y-9052498D02*
X5633410Y-9042974D01*
X5633410Y-9042974D02*
X5652458Y-9033450D01*
X5652458Y-9033450D02*
X5681029Y-9033450D01*
X5681029Y-9033450D02*
X5700077Y-9042974D01*
X5700077Y-9042974D02*
X5709601Y-9062022D01*
X5709601Y-9062022D02*
X5709601Y-9166784D01*
X5709601Y-9062022D02*
X5719124Y-9042974D01*
X5719124Y-9042974D02*
X5738172Y-9033450D01*
X5738172Y-9033450D02*
X5766743Y-9033450D01*
X5766743Y-9033450D02*
X5785791Y-9042974D01*
X5785791Y-9042974D02*
X5795315Y-9062022D01*
X5795315Y-9062022D02*
X5795315Y-9166784D01*
X6185791Y-8957260D02*
X6014363Y-9214403D01*
X6442934Y-8966784D02*
X6461982Y-8966784D01*
X6461982Y-8966784D02*
X6481029Y-8976308D01*
X6481029Y-8976308D02*
X6490553Y-8985831D01*
X6490553Y-8985831D02*
X6500077Y-9004879D01*
X6500077Y-9004879D02*
X6509601Y-9042974D01*
X6509601Y-9042974D02*
X6509601Y-9090593D01*
X6509601Y-9090593D02*
X6500077Y-9128689D01*
X6500077Y-9128689D02*
X6490553Y-9147736D01*
X6490553Y-9147736D02*
X6481029Y-9157260D01*
X6481029Y-9157260D02*
X6461982Y-9166784D01*
X6461982Y-9166784D02*
X6442934Y-9166784D01*
X6442934Y-9166784D02*
X6423886Y-9157260D01*
X6423886Y-9157260D02*
X6414363Y-9147736D01*
X6414363Y-9147736D02*
X6404839Y-9128689D01*
X6404839Y-9128689D02*
X6395315Y-9090593D01*
X6395315Y-9090593D02*
X6395315Y-9042974D01*
X6395315Y-9042974D02*
X6404839Y-9004879D01*
X6404839Y-9004879D02*
X6414363Y-8985831D01*
X6414363Y-8985831D02*
X6423886Y-8976308D01*
X6423886Y-8976308D02*
X6442934Y-8966784D01*
X6595315Y-9147736D02*
X6604839Y-9157260D01*
X6604839Y-9157260D02*
X6595315Y-9166784D01*
X6595315Y-9166784D02*
X6585791Y-9157260D01*
X6585791Y-9157260D02*
X6595315Y-9147736D01*
X6595315Y-9147736D02*
X6595315Y-9166784D01*
X6728648Y-8966784D02*
X6747696Y-8966784D01*
X6747696Y-8966784D02*
X6766744Y-8976308D01*
X6766744Y-8976308D02*
X6776267Y-8985831D01*
X6776267Y-8985831D02*
X6785791Y-9004879D01*
X6785791Y-9004879D02*
X6795315Y-9042974D01*
X6795315Y-9042974D02*
X6795315Y-9090593D01*
X6795315Y-9090593D02*
X6785791Y-9128689D01*
X6785791Y-9128689D02*
X6776267Y-9147736D01*
X6776267Y-9147736D02*
X6766744Y-9157260D01*
X6766744Y-9157260D02*
X6747696Y-9166784D01*
X6747696Y-9166784D02*
X6728648Y-9166784D01*
X6728648Y-9166784D02*
X6709601Y-9157260D01*
X6709601Y-9157260D02*
X6700077Y-9147736D01*
X6700077Y-9147736D02*
X6690553Y-9128689D01*
X6690553Y-9128689D02*
X6681029Y-9090593D01*
X6681029Y-9090593D02*
X6681029Y-9042974D01*
X6681029Y-9042974D02*
X6690553Y-9004879D01*
X6690553Y-9004879D02*
X6700077Y-8985831D01*
X6700077Y-8985831D02*
X6709601Y-8976308D01*
X6709601Y-8976308D02*
X6728648Y-8966784D01*
X6985791Y-9166784D02*
X6871506Y-9166784D01*
X6928648Y-9166784D02*
X6928648Y-8966784D01*
X6928648Y-8966784D02*
X6909601Y-8995355D01*
X6909601Y-8995355D02*
X6890553Y-9014403D01*
X6890553Y-9014403D02*
X6871506Y-9023927D01*
X7176267Y-9166784D02*
X7061982Y-9166784D01*
X7119125Y-9166784D02*
X7119125Y-8966784D01*
X7119125Y-8966784D02*
X7100077Y-8995355D01*
X7100077Y-8995355D02*
X7081029Y-9014403D01*
X7081029Y-9014403D02*
X7061982Y-9023927D01*
X7290553Y-9052498D02*
X7271506Y-9042974D01*
X7271506Y-9042974D02*
X7261982Y-9033450D01*
X7261982Y-9033450D02*
X7252458Y-9014403D01*
X7252458Y-9014403D02*
X7252458Y-9004879D01*
X7252458Y-9004879D02*
X7261982Y-8985831D01*
X7261982Y-8985831D02*
X7271506Y-8976308D01*
X7271506Y-8976308D02*
X7290553Y-8966784D01*
X7290553Y-8966784D02*
X7328648Y-8966784D01*
X7328648Y-8966784D02*
X7347696Y-8976308D01*
X7347696Y-8976308D02*
X7357220Y-8985831D01*
X7357220Y-8985831D02*
X7366744Y-9004879D01*
X7366744Y-9004879D02*
X7366744Y-9014403D01*
X7366744Y-9014403D02*
X7357220Y-9033450D01*
X7357220Y-9033450D02*
X7347696Y-9042974D01*
X7347696Y-9042974D02*
X7328648Y-9052498D01*
X7328648Y-9052498D02*
X7290553Y-9052498D01*
X7290553Y-9052498D02*
X7271506Y-9062022D01*
X7271506Y-9062022D02*
X7261982Y-9071546D01*
X7261982Y-9071546D02*
X7252458Y-9090593D01*
X7252458Y-9090593D02*
X7252458Y-9128689D01*
X7252458Y-9128689D02*
X7261982Y-9147736D01*
X7261982Y-9147736D02*
X7271506Y-9157260D01*
X7271506Y-9157260D02*
X7290553Y-9166784D01*
X7290553Y-9166784D02*
X7328648Y-9166784D01*
X7328648Y-9166784D02*
X7347696Y-9157260D01*
X7347696Y-9157260D02*
X7357220Y-9147736D01*
X7357220Y-9147736D02*
X7366744Y-9128689D01*
X7366744Y-9128689D02*
X7366744Y-9090593D01*
X7366744Y-9090593D02*
X7357220Y-9071546D01*
X7357220Y-9071546D02*
X7347696Y-9062022D01*
X7347696Y-9062022D02*
X7328648Y-9052498D01*
X7442934Y-8966784D02*
X7442934Y-9004879D01*
X7519125Y-8966784D02*
X7519125Y-9004879D01*
X7814363Y-9242974D02*
X7804839Y-9233450D01*
X7804839Y-9233450D02*
X7785791Y-9204879D01*
X7785791Y-9204879D02*
X7776268Y-9185831D01*
X7776268Y-9185831D02*
X7766744Y-9157260D01*
X7766744Y-9157260D02*
X7757220Y-9109641D01*
X7757220Y-9109641D02*
X7757220Y-9071546D01*
X7757220Y-9071546D02*
X7766744Y-9023927D01*
X7766744Y-9023927D02*
X7776268Y-8995355D01*
X7776268Y-8995355D02*
X7785791Y-8976308D01*
X7785791Y-8976308D02*
X7804839Y-8947736D01*
X7804839Y-8947736D02*
X7814363Y-8938212D01*
X7985791Y-8966784D02*
X7890553Y-8966784D01*
X7890553Y-8966784D02*
X7881029Y-9062022D01*
X7881029Y-9062022D02*
X7890553Y-9052498D01*
X7890553Y-9052498D02*
X7909601Y-9042974D01*
X7909601Y-9042974D02*
X7957220Y-9042974D01*
X7957220Y-9042974D02*
X7976268Y-9052498D01*
X7976268Y-9052498D02*
X7985791Y-9062022D01*
X7985791Y-9062022D02*
X7995315Y-9081070D01*
X7995315Y-9081070D02*
X7995315Y-9128689D01*
X7995315Y-9128689D02*
X7985791Y-9147736D01*
X7985791Y-9147736D02*
X7976268Y-9157260D01*
X7976268Y-9157260D02*
X7957220Y-9166784D01*
X7957220Y-9166784D02*
X7909601Y-9166784D01*
X7909601Y-9166784D02*
X7890553Y-9157260D01*
X7890553Y-9157260D02*
X7881029Y-9147736D01*
X8185791Y-9166784D02*
X8071506Y-9166784D01*
X8128648Y-9166784D02*
X8128648Y-8966784D01*
X8128648Y-8966784D02*
X8109601Y-8995355D01*
X8109601Y-8995355D02*
X8090553Y-9014403D01*
X8090553Y-9014403D02*
X8071506Y-9023927D01*
X8423887Y-9166784D02*
X8423887Y-8966784D01*
X8509601Y-9166784D02*
X8509601Y-9062022D01*
X8509601Y-9062022D02*
X8500077Y-9042974D01*
X8500077Y-9042974D02*
X8481030Y-9033450D01*
X8481030Y-9033450D02*
X8452458Y-9033450D01*
X8452458Y-9033450D02*
X8433411Y-9042974D01*
X8433411Y-9042974D02*
X8423887Y-9052498D01*
X8633411Y-9166784D02*
X8614363Y-9157260D01*
X8614363Y-9157260D02*
X8604839Y-9147736D01*
X8604839Y-9147736D02*
X8595315Y-9128689D01*
X8595315Y-9128689D02*
X8595315Y-9071546D01*
X8595315Y-9071546D02*
X8604839Y-9052498D01*
X8604839Y-9052498D02*
X8614363Y-9042974D01*
X8614363Y-9042974D02*
X8633411Y-9033450D01*
X8633411Y-9033450D02*
X8661982Y-9033450D01*
X8661982Y-9033450D02*
X8681030Y-9042974D01*
X8681030Y-9042974D02*
X8690553Y-9052498D01*
X8690553Y-9052498D02*
X8700077Y-9071546D01*
X8700077Y-9071546D02*
X8700077Y-9128689D01*
X8700077Y-9128689D02*
X8690553Y-9147736D01*
X8690553Y-9147736D02*
X8681030Y-9157260D01*
X8681030Y-9157260D02*
X8661982Y-9166784D01*
X8661982Y-9166784D02*
X8633411Y-9166784D01*
X8814363Y-9166784D02*
X8795315Y-9157260D01*
X8795315Y-9157260D02*
X8785792Y-9138212D01*
X8785792Y-9138212D02*
X8785792Y-8966784D01*
X8966744Y-9157260D02*
X8947696Y-9166784D01*
X8947696Y-9166784D02*
X8909601Y-9166784D01*
X8909601Y-9166784D02*
X8890553Y-9157260D01*
X8890553Y-9157260D02*
X8881030Y-9138212D01*
X8881030Y-9138212D02*
X8881030Y-9062022D01*
X8881030Y-9062022D02*
X8890553Y-9042974D01*
X8890553Y-9042974D02*
X8909601Y-9033450D01*
X8909601Y-9033450D02*
X8947696Y-9033450D01*
X8947696Y-9033450D02*
X8966744Y-9042974D01*
X8966744Y-9042974D02*
X8976268Y-9062022D01*
X8976268Y-9062022D02*
X8976268Y-9081070D01*
X8976268Y-9081070D02*
X8881030Y-9100117D01*
X9052458Y-9157260D02*
X9071506Y-9166784D01*
X9071506Y-9166784D02*
X9109601Y-9166784D01*
X9109601Y-9166784D02*
X9128649Y-9157260D01*
X9128649Y-9157260D02*
X9138173Y-9138212D01*
X9138173Y-9138212D02*
X9138173Y-9128689D01*
X9138173Y-9128689D02*
X9128649Y-9109641D01*
X9128649Y-9109641D02*
X9109601Y-9100117D01*
X9109601Y-9100117D02*
X9081030Y-9100117D01*
X9081030Y-9100117D02*
X9061982Y-9090593D01*
X9061982Y-9090593D02*
X9052458Y-9071546D01*
X9052458Y-9071546D02*
X9052458Y-9062022D01*
X9052458Y-9062022D02*
X9061982Y-9042974D01*
X9061982Y-9042974D02*
X9081030Y-9033450D01*
X9081030Y-9033450D02*
X9109601Y-9033450D01*
X9109601Y-9033450D02*
X9128649Y-9042974D01*
X9204839Y-9242974D02*
X9214363Y-9233450D01*
X9214363Y-9233450D02*
X9233411Y-9204879D01*
X9233411Y-9204879D02*
X9242934Y-9185831D01*
X9242934Y-9185831D02*
X9252458Y-9157260D01*
X9252458Y-9157260D02*
X9261982Y-9109641D01*
X9261982Y-9109641D02*
X9261982Y-9071546D01*
X9261982Y-9071546D02*
X9252458Y-9023927D01*
X9252458Y-9023927D02*
X9242934Y-8995355D01*
X9242934Y-8995355D02*
X9233411Y-8976308D01*
X9233411Y-8976308D02*
X9214363Y-8947736D01*
X9214363Y-8947736D02*
X9204839Y-8938212D01*
D12*
X4239300Y-9339300D02*
G75*
G02*
X4209300Y-9339300I-15000J0D01*
G01*
X4209300Y-9339300D02*
G75*
G02*
X4239300Y-9339300I15000J0D01*
G01*
D11*
X4538172Y-9230784D02*
X4557220Y-9230784D01*
X4557220Y-9230784D02*
X4576267Y-9240308D01*
X4576267Y-9240308D02*
X4585791Y-9249831D01*
X4585791Y-9249831D02*
X4595315Y-9268879D01*
X4595315Y-9268879D02*
X4604839Y-9306974D01*
X4604839Y-9306974D02*
X4604839Y-9354593D01*
X4604839Y-9354593D02*
X4595315Y-9392689D01*
X4595315Y-9392689D02*
X4585791Y-9411736D01*
X4585791Y-9411736D02*
X4576267Y-9421260D01*
X4576267Y-9421260D02*
X4557220Y-9430784D01*
X4557220Y-9430784D02*
X4538172Y-9430784D01*
X4538172Y-9430784D02*
X4519124Y-9421260D01*
X4519124Y-9421260D02*
X4509601Y-9411736D01*
X4509601Y-9411736D02*
X4500077Y-9392689D01*
X4500077Y-9392689D02*
X4490553Y-9354593D01*
X4490553Y-9354593D02*
X4490553Y-9306974D01*
X4490553Y-9306974D02*
X4500077Y-9268879D01*
X4500077Y-9268879D02*
X4509601Y-9249831D01*
X4509601Y-9249831D02*
X4519124Y-9240308D01*
X4519124Y-9240308D02*
X4538172Y-9230784D01*
X4690553Y-9411736D02*
X4700077Y-9421260D01*
X4700077Y-9421260D02*
X4690553Y-9430784D01*
X4690553Y-9430784D02*
X4681029Y-9421260D01*
X4681029Y-9421260D02*
X4690553Y-9411736D01*
X4690553Y-9411736D02*
X4690553Y-9430784D01*
X4766744Y-9230784D02*
X4890553Y-9230784D01*
X4890553Y-9230784D02*
X4823886Y-9306974D01*
X4823886Y-9306974D02*
X4852458Y-9306974D01*
X4852458Y-9306974D02*
X4871505Y-9316498D01*
X4871505Y-9316498D02*
X4881029Y-9326022D01*
X4881029Y-9326022D02*
X4890553Y-9345070D01*
X4890553Y-9345070D02*
X4890553Y-9392689D01*
X4890553Y-9392689D02*
X4881029Y-9411736D01*
X4881029Y-9411736D02*
X4871505Y-9421260D01*
X4871505Y-9421260D02*
X4852458Y-9430784D01*
X4852458Y-9430784D02*
X4795315Y-9430784D01*
X4795315Y-9430784D02*
X4776267Y-9421260D01*
X4776267Y-9421260D02*
X4766744Y-9411736D01*
X5014363Y-9230784D02*
X5033410Y-9230784D01*
X5033410Y-9230784D02*
X5052458Y-9240308D01*
X5052458Y-9240308D02*
X5061982Y-9249831D01*
X5061982Y-9249831D02*
X5071505Y-9268879D01*
X5071505Y-9268879D02*
X5081029Y-9306974D01*
X5081029Y-9306974D02*
X5081029Y-9354593D01*
X5081029Y-9354593D02*
X5071505Y-9392689D01*
X5071505Y-9392689D02*
X5061982Y-9411736D01*
X5061982Y-9411736D02*
X5052458Y-9421260D01*
X5052458Y-9421260D02*
X5033410Y-9430784D01*
X5033410Y-9430784D02*
X5014363Y-9430784D01*
X5014363Y-9430784D02*
X4995315Y-9421260D01*
X4995315Y-9421260D02*
X4985791Y-9411736D01*
X4985791Y-9411736D02*
X4976267Y-9392689D01*
X4976267Y-9392689D02*
X4966744Y-9354593D01*
X4966744Y-9354593D02*
X4966744Y-9306974D01*
X4966744Y-9306974D02*
X4976267Y-9268879D01*
X4976267Y-9268879D02*
X4985791Y-9249831D01*
X4985791Y-9249831D02*
X4995315Y-9240308D01*
X4995315Y-9240308D02*
X5014363Y-9230784D01*
X5204839Y-9230784D02*
X5223886Y-9230784D01*
X5223886Y-9230784D02*
X5242934Y-9240308D01*
X5242934Y-9240308D02*
X5252458Y-9249831D01*
X5252458Y-9249831D02*
X5261982Y-9268879D01*
X5261982Y-9268879D02*
X5271505Y-9306974D01*
X5271505Y-9306974D02*
X5271505Y-9354593D01*
X5271505Y-9354593D02*
X5261982Y-9392689D01*
X5261982Y-9392689D02*
X5252458Y-9411736D01*
X5252458Y-9411736D02*
X5242934Y-9421260D01*
X5242934Y-9421260D02*
X5223886Y-9430784D01*
X5223886Y-9430784D02*
X5204839Y-9430784D01*
X5204839Y-9430784D02*
X5185791Y-9421260D01*
X5185791Y-9421260D02*
X5176267Y-9411736D01*
X5176267Y-9411736D02*
X5166744Y-9392689D01*
X5166744Y-9392689D02*
X5157220Y-9354593D01*
X5157220Y-9354593D02*
X5157220Y-9306974D01*
X5157220Y-9306974D02*
X5166744Y-9268879D01*
X5166744Y-9268879D02*
X5176267Y-9249831D01*
X5176267Y-9249831D02*
X5185791Y-9240308D01*
X5185791Y-9240308D02*
X5204839Y-9230784D01*
X5357220Y-9430784D02*
X5357220Y-9297450D01*
X5357220Y-9316498D02*
X5366744Y-9306974D01*
X5366744Y-9306974D02*
X5385791Y-9297450D01*
X5385791Y-9297450D02*
X5414363Y-9297450D01*
X5414363Y-9297450D02*
X5433410Y-9306974D01*
X5433410Y-9306974D02*
X5442934Y-9326022D01*
X5442934Y-9326022D02*
X5442934Y-9430784D01*
X5442934Y-9326022D02*
X5452458Y-9306974D01*
X5452458Y-9306974D02*
X5471505Y-9297450D01*
X5471505Y-9297450D02*
X5500077Y-9297450D01*
X5500077Y-9297450D02*
X5519125Y-9306974D01*
X5519125Y-9306974D02*
X5528648Y-9326022D01*
X5528648Y-9326022D02*
X5528648Y-9430784D01*
X5623886Y-9430784D02*
X5623886Y-9297450D01*
X5623886Y-9316498D02*
X5633410Y-9306974D01*
X5633410Y-9306974D02*
X5652458Y-9297450D01*
X5652458Y-9297450D02*
X5681029Y-9297450D01*
X5681029Y-9297450D02*
X5700077Y-9306974D01*
X5700077Y-9306974D02*
X5709601Y-9326022D01*
X5709601Y-9326022D02*
X5709601Y-9430784D01*
X5709601Y-9326022D02*
X5719124Y-9306974D01*
X5719124Y-9306974D02*
X5738172Y-9297450D01*
X5738172Y-9297450D02*
X5766743Y-9297450D01*
X5766743Y-9297450D02*
X5785791Y-9306974D01*
X5785791Y-9306974D02*
X5795315Y-9326022D01*
X5795315Y-9326022D02*
X5795315Y-9430784D01*
X6185791Y-9221260D02*
X6014363Y-9478403D01*
X6442934Y-9230784D02*
X6461982Y-9230784D01*
X6461982Y-9230784D02*
X6481029Y-9240308D01*
X6481029Y-9240308D02*
X6490553Y-9249831D01*
X6490553Y-9249831D02*
X6500077Y-9268879D01*
X6500077Y-9268879D02*
X6509601Y-9306974D01*
X6509601Y-9306974D02*
X6509601Y-9354593D01*
X6509601Y-9354593D02*
X6500077Y-9392689D01*
X6500077Y-9392689D02*
X6490553Y-9411736D01*
X6490553Y-9411736D02*
X6481029Y-9421260D01*
X6481029Y-9421260D02*
X6461982Y-9430784D01*
X6461982Y-9430784D02*
X6442934Y-9430784D01*
X6442934Y-9430784D02*
X6423886Y-9421260D01*
X6423886Y-9421260D02*
X6414363Y-9411736D01*
X6414363Y-9411736D02*
X6404839Y-9392689D01*
X6404839Y-9392689D02*
X6395315Y-9354593D01*
X6395315Y-9354593D02*
X6395315Y-9306974D01*
X6395315Y-9306974D02*
X6404839Y-9268879D01*
X6404839Y-9268879D02*
X6414363Y-9249831D01*
X6414363Y-9249831D02*
X6423886Y-9240308D01*
X6423886Y-9240308D02*
X6442934Y-9230784D01*
X6595315Y-9411736D02*
X6604839Y-9421260D01*
X6604839Y-9421260D02*
X6595315Y-9430784D01*
X6595315Y-9430784D02*
X6585791Y-9421260D01*
X6585791Y-9421260D02*
X6595315Y-9411736D01*
X6595315Y-9411736D02*
X6595315Y-9430784D01*
X6728648Y-9230784D02*
X6747696Y-9230784D01*
X6747696Y-9230784D02*
X6766744Y-9240308D01*
X6766744Y-9240308D02*
X6776267Y-9249831D01*
X6776267Y-9249831D02*
X6785791Y-9268879D01*
X6785791Y-9268879D02*
X6795315Y-9306974D01*
X6795315Y-9306974D02*
X6795315Y-9354593D01*
X6795315Y-9354593D02*
X6785791Y-9392689D01*
X6785791Y-9392689D02*
X6776267Y-9411736D01*
X6776267Y-9411736D02*
X6766744Y-9421260D01*
X6766744Y-9421260D02*
X6747696Y-9430784D01*
X6747696Y-9430784D02*
X6728648Y-9430784D01*
X6728648Y-9430784D02*
X6709601Y-9421260D01*
X6709601Y-9421260D02*
X6700077Y-9411736D01*
X6700077Y-9411736D02*
X6690553Y-9392689D01*
X6690553Y-9392689D02*
X6681029Y-9354593D01*
X6681029Y-9354593D02*
X6681029Y-9306974D01*
X6681029Y-9306974D02*
X6690553Y-9268879D01*
X6690553Y-9268879D02*
X6700077Y-9249831D01*
X6700077Y-9249831D02*
X6709601Y-9240308D01*
X6709601Y-9240308D02*
X6728648Y-9230784D01*
X6985791Y-9430784D02*
X6871506Y-9430784D01*
X6928648Y-9430784D02*
X6928648Y-9230784D01*
X6928648Y-9230784D02*
X6909601Y-9259355D01*
X6909601Y-9259355D02*
X6890553Y-9278403D01*
X6890553Y-9278403D02*
X6871506Y-9287927D01*
X7176267Y-9430784D02*
X7061982Y-9430784D01*
X7119125Y-9430784D02*
X7119125Y-9230784D01*
X7119125Y-9230784D02*
X7100077Y-9259355D01*
X7100077Y-9259355D02*
X7081029Y-9278403D01*
X7081029Y-9278403D02*
X7061982Y-9287927D01*
X7290553Y-9316498D02*
X7271506Y-9306974D01*
X7271506Y-9306974D02*
X7261982Y-9297450D01*
X7261982Y-9297450D02*
X7252458Y-9278403D01*
X7252458Y-9278403D02*
X7252458Y-9268879D01*
X7252458Y-9268879D02*
X7261982Y-9249831D01*
X7261982Y-9249831D02*
X7271506Y-9240308D01*
X7271506Y-9240308D02*
X7290553Y-9230784D01*
X7290553Y-9230784D02*
X7328648Y-9230784D01*
X7328648Y-9230784D02*
X7347696Y-9240308D01*
X7347696Y-9240308D02*
X7357220Y-9249831D01*
X7357220Y-9249831D02*
X7366744Y-9268879D01*
X7366744Y-9268879D02*
X7366744Y-9278403D01*
X7366744Y-9278403D02*
X7357220Y-9297450D01*
X7357220Y-9297450D02*
X7347696Y-9306974D01*
X7347696Y-9306974D02*
X7328648Y-9316498D01*
X7328648Y-9316498D02*
X7290553Y-9316498D01*
X7290553Y-9316498D02*
X7271506Y-9326022D01*
X7271506Y-9326022D02*
X7261982Y-9335546D01*
X7261982Y-9335546D02*
X7252458Y-9354593D01*
X7252458Y-9354593D02*
X7252458Y-9392689D01*
X7252458Y-9392689D02*
X7261982Y-9411736D01*
X7261982Y-9411736D02*
X7271506Y-9421260D01*
X7271506Y-9421260D02*
X7290553Y-9430784D01*
X7290553Y-9430784D02*
X7328648Y-9430784D01*
X7328648Y-9430784D02*
X7347696Y-9421260D01*
X7347696Y-9421260D02*
X7357220Y-9411736D01*
X7357220Y-9411736D02*
X7366744Y-9392689D01*
X7366744Y-9392689D02*
X7366744Y-9354593D01*
X7366744Y-9354593D02*
X7357220Y-9335546D01*
X7357220Y-9335546D02*
X7347696Y-9326022D01*
X7347696Y-9326022D02*
X7328648Y-9316498D01*
X7442934Y-9230784D02*
X7442934Y-9268879D01*
X7519125Y-9230784D02*
X7519125Y-9268879D01*
X7814363Y-9506974D02*
X7804839Y-9497450D01*
X7804839Y-9497450D02*
X7785791Y-9468879D01*
X7785791Y-9468879D02*
X7776268Y-9449831D01*
X7776268Y-9449831D02*
X7766744Y-9421260D01*
X7766744Y-9421260D02*
X7757220Y-9373641D01*
X7757220Y-9373641D02*
X7757220Y-9335546D01*
X7757220Y-9335546D02*
X7766744Y-9287927D01*
X7766744Y-9287927D02*
X7776268Y-9259355D01*
X7776268Y-9259355D02*
X7785791Y-9240308D01*
X7785791Y-9240308D02*
X7804839Y-9211736D01*
X7804839Y-9211736D02*
X7814363Y-9202212D01*
X7976268Y-9230784D02*
X7938172Y-9230784D01*
X7938172Y-9230784D02*
X7919125Y-9240308D01*
X7919125Y-9240308D02*
X7909601Y-9249831D01*
X7909601Y-9249831D02*
X7890553Y-9278403D01*
X7890553Y-9278403D02*
X7881029Y-9316498D01*
X7881029Y-9316498D02*
X7881029Y-9392689D01*
X7881029Y-9392689D02*
X7890553Y-9411736D01*
X7890553Y-9411736D02*
X7900077Y-9421260D01*
X7900077Y-9421260D02*
X7919125Y-9430784D01*
X7919125Y-9430784D02*
X7957220Y-9430784D01*
X7957220Y-9430784D02*
X7976268Y-9421260D01*
X7976268Y-9421260D02*
X7985791Y-9411736D01*
X7985791Y-9411736D02*
X7995315Y-9392689D01*
X7995315Y-9392689D02*
X7995315Y-9345070D01*
X7995315Y-9345070D02*
X7985791Y-9326022D01*
X7985791Y-9326022D02*
X7976268Y-9316498D01*
X7976268Y-9316498D02*
X7957220Y-9306974D01*
X7957220Y-9306974D02*
X7919125Y-9306974D01*
X7919125Y-9306974D02*
X7900077Y-9316498D01*
X7900077Y-9316498D02*
X7890553Y-9326022D01*
X7890553Y-9326022D02*
X7881029Y-9345070D01*
X8233410Y-9430784D02*
X8233410Y-9230784D01*
X8319125Y-9430784D02*
X8319125Y-9326022D01*
X8319125Y-9326022D02*
X8309601Y-9306974D01*
X8309601Y-9306974D02*
X8290553Y-9297450D01*
X8290553Y-9297450D02*
X8261982Y-9297450D01*
X8261982Y-9297450D02*
X8242934Y-9306974D01*
X8242934Y-9306974D02*
X8233410Y-9316498D01*
X8442934Y-9430784D02*
X8423887Y-9421260D01*
X8423887Y-9421260D02*
X8414363Y-9411736D01*
X8414363Y-9411736D02*
X8404839Y-9392689D01*
X8404839Y-9392689D02*
X8404839Y-9335546D01*
X8404839Y-9335546D02*
X8414363Y-9316498D01*
X8414363Y-9316498D02*
X8423887Y-9306974D01*
X8423887Y-9306974D02*
X8442934Y-9297450D01*
X8442934Y-9297450D02*
X8471506Y-9297450D01*
X8471506Y-9297450D02*
X8490553Y-9306974D01*
X8490553Y-9306974D02*
X8500077Y-9316498D01*
X8500077Y-9316498D02*
X8509601Y-9335546D01*
X8509601Y-9335546D02*
X8509601Y-9392689D01*
X8509601Y-9392689D02*
X8500077Y-9411736D01*
X8500077Y-9411736D02*
X8490553Y-9421260D01*
X8490553Y-9421260D02*
X8471506Y-9430784D01*
X8471506Y-9430784D02*
X8442934Y-9430784D01*
X8623887Y-9430784D02*
X8604839Y-9421260D01*
X8604839Y-9421260D02*
X8595315Y-9402212D01*
X8595315Y-9402212D02*
X8595315Y-9230784D01*
X8776268Y-9421260D02*
X8757220Y-9430784D01*
X8757220Y-9430784D02*
X8719125Y-9430784D01*
X8719125Y-9430784D02*
X8700077Y-9421260D01*
X8700077Y-9421260D02*
X8690553Y-9402212D01*
X8690553Y-9402212D02*
X8690553Y-9326022D01*
X8690553Y-9326022D02*
X8700077Y-9306974D01*
X8700077Y-9306974D02*
X8719125Y-9297450D01*
X8719125Y-9297450D02*
X8757220Y-9297450D01*
X8757220Y-9297450D02*
X8776268Y-9306974D01*
X8776268Y-9306974D02*
X8785792Y-9326022D01*
X8785792Y-9326022D02*
X8785792Y-9345070D01*
X8785792Y-9345070D02*
X8690553Y-9364117D01*
X8861982Y-9421260D02*
X8881030Y-9430784D01*
X8881030Y-9430784D02*
X8919125Y-9430784D01*
X8919125Y-9430784D02*
X8938173Y-9421260D01*
X8938173Y-9421260D02*
X8947696Y-9402212D01*
X8947696Y-9402212D02*
X8947696Y-9392689D01*
X8947696Y-9392689D02*
X8938173Y-9373641D01*
X8938173Y-9373641D02*
X8919125Y-9364117D01*
X8919125Y-9364117D02*
X8890553Y-9364117D01*
X8890553Y-9364117D02*
X8871506Y-9354593D01*
X8871506Y-9354593D02*
X8861982Y-9335546D01*
X8861982Y-9335546D02*
X8861982Y-9326022D01*
X8861982Y-9326022D02*
X8871506Y-9306974D01*
X8871506Y-9306974D02*
X8890553Y-9297450D01*
X8890553Y-9297450D02*
X8919125Y-9297450D01*
X8919125Y-9297450D02*
X8938173Y-9306974D01*
X9014363Y-9506974D02*
X9023887Y-9497450D01*
X9023887Y-9497450D02*
X9042934Y-9468879D01*
X9042934Y-9468879D02*
X9052458Y-9449831D01*
X9052458Y-9449831D02*
X9061982Y-9421260D01*
X9061982Y-9421260D02*
X9071506Y-9373641D01*
X9071506Y-9373641D02*
X9071506Y-9335546D01*
X9071506Y-9335546D02*
X9061982Y-9287927D01*
X9061982Y-9287927D02*
X9052458Y-9259355D01*
X9052458Y-9259355D02*
X9042934Y-9240308D01*
X9042934Y-9240308D02*
X9023887Y-9211736D01*
X9023887Y-9211736D02*
X9014363Y-9202212D01*
D12*
X4214300Y-9578300D02*
X4214300Y-9628300D01*
X4189300Y-9603300D02*
X4239300Y-9603300D01*
D11*
X4538172Y-9494784D02*
X4557220Y-9494784D01*
X4557220Y-9494784D02*
X4576267Y-9504308D01*
X4576267Y-9504308D02*
X4585791Y-9513831D01*
X4585791Y-9513831D02*
X4595315Y-9532879D01*
X4595315Y-9532879D02*
X4604839Y-9570974D01*
X4604839Y-9570974D02*
X4604839Y-9618593D01*
X4604839Y-9618593D02*
X4595315Y-9656689D01*
X4595315Y-9656689D02*
X4585791Y-9675736D01*
X4585791Y-9675736D02*
X4576267Y-9685260D01*
X4576267Y-9685260D02*
X4557220Y-9694784D01*
X4557220Y-9694784D02*
X4538172Y-9694784D01*
X4538172Y-9694784D02*
X4519124Y-9685260D01*
X4519124Y-9685260D02*
X4509601Y-9675736D01*
X4509601Y-9675736D02*
X4500077Y-9656689D01*
X4500077Y-9656689D02*
X4490553Y-9618593D01*
X4490553Y-9618593D02*
X4490553Y-9570974D01*
X4490553Y-9570974D02*
X4500077Y-9532879D01*
X4500077Y-9532879D02*
X4509601Y-9513831D01*
X4509601Y-9513831D02*
X4519124Y-9504308D01*
X4519124Y-9504308D02*
X4538172Y-9494784D01*
X4690553Y-9675736D02*
X4700077Y-9685260D01*
X4700077Y-9685260D02*
X4690553Y-9694784D01*
X4690553Y-9694784D02*
X4681029Y-9685260D01*
X4681029Y-9685260D02*
X4690553Y-9675736D01*
X4690553Y-9675736D02*
X4690553Y-9694784D01*
X4881029Y-9494784D02*
X4785791Y-9494784D01*
X4785791Y-9494784D02*
X4776267Y-9590022D01*
X4776267Y-9590022D02*
X4785791Y-9580498D01*
X4785791Y-9580498D02*
X4804839Y-9570974D01*
X4804839Y-9570974D02*
X4852458Y-9570974D01*
X4852458Y-9570974D02*
X4871505Y-9580498D01*
X4871505Y-9580498D02*
X4881029Y-9590022D01*
X4881029Y-9590022D02*
X4890553Y-9609070D01*
X4890553Y-9609070D02*
X4890553Y-9656689D01*
X4890553Y-9656689D02*
X4881029Y-9675736D01*
X4881029Y-9675736D02*
X4871505Y-9685260D01*
X4871505Y-9685260D02*
X4852458Y-9694784D01*
X4852458Y-9694784D02*
X4804839Y-9694784D01*
X4804839Y-9694784D02*
X4785791Y-9685260D01*
X4785791Y-9685260D02*
X4776267Y-9675736D01*
X5014363Y-9494784D02*
X5033410Y-9494784D01*
X5033410Y-9494784D02*
X5052458Y-9504308D01*
X5052458Y-9504308D02*
X5061982Y-9513831D01*
X5061982Y-9513831D02*
X5071505Y-9532879D01*
X5071505Y-9532879D02*
X5081029Y-9570974D01*
X5081029Y-9570974D02*
X5081029Y-9618593D01*
X5081029Y-9618593D02*
X5071505Y-9656689D01*
X5071505Y-9656689D02*
X5061982Y-9675736D01*
X5061982Y-9675736D02*
X5052458Y-9685260D01*
X5052458Y-9685260D02*
X5033410Y-9694784D01*
X5033410Y-9694784D02*
X5014363Y-9694784D01*
X5014363Y-9694784D02*
X4995315Y-9685260D01*
X4995315Y-9685260D02*
X4985791Y-9675736D01*
X4985791Y-9675736D02*
X4976267Y-9656689D01*
X4976267Y-9656689D02*
X4966744Y-9618593D01*
X4966744Y-9618593D02*
X4966744Y-9570974D01*
X4966744Y-9570974D02*
X4976267Y-9532879D01*
X4976267Y-9532879D02*
X4985791Y-9513831D01*
X4985791Y-9513831D02*
X4995315Y-9504308D01*
X4995315Y-9504308D02*
X5014363Y-9494784D01*
X5204839Y-9494784D02*
X5223886Y-9494784D01*
X5223886Y-9494784D02*
X5242934Y-9504308D01*
X5242934Y-9504308D02*
X5252458Y-9513831D01*
X5252458Y-9513831D02*
X5261982Y-9532879D01*
X5261982Y-9532879D02*
X5271505Y-9570974D01*
X5271505Y-9570974D02*
X5271505Y-9618593D01*
X5271505Y-9618593D02*
X5261982Y-9656689D01*
X5261982Y-9656689D02*
X5252458Y-9675736D01*
X5252458Y-9675736D02*
X5242934Y-9685260D01*
X5242934Y-9685260D02*
X5223886Y-9694784D01*
X5223886Y-9694784D02*
X5204839Y-9694784D01*
X5204839Y-9694784D02*
X5185791Y-9685260D01*
X5185791Y-9685260D02*
X5176267Y-9675736D01*
X5176267Y-9675736D02*
X5166744Y-9656689D01*
X5166744Y-9656689D02*
X5157220Y-9618593D01*
X5157220Y-9618593D02*
X5157220Y-9570974D01*
X5157220Y-9570974D02*
X5166744Y-9532879D01*
X5166744Y-9532879D02*
X5176267Y-9513831D01*
X5176267Y-9513831D02*
X5185791Y-9504308D01*
X5185791Y-9504308D02*
X5204839Y-9494784D01*
X5357220Y-9694784D02*
X5357220Y-9561450D01*
X5357220Y-9580498D02*
X5366744Y-9570974D01*
X5366744Y-9570974D02*
X5385791Y-9561450D01*
X5385791Y-9561450D02*
X5414363Y-9561450D01*
X5414363Y-9561450D02*
X5433410Y-9570974D01*
X5433410Y-9570974D02*
X5442934Y-9590022D01*
X5442934Y-9590022D02*
X5442934Y-9694784D01*
X5442934Y-9590022D02*
X5452458Y-9570974D01*
X5452458Y-9570974D02*
X5471505Y-9561450D01*
X5471505Y-9561450D02*
X5500077Y-9561450D01*
X5500077Y-9561450D02*
X5519125Y-9570974D01*
X5519125Y-9570974D02*
X5528648Y-9590022D01*
X5528648Y-9590022D02*
X5528648Y-9694784D01*
X5623886Y-9694784D02*
X5623886Y-9561450D01*
X5623886Y-9580498D02*
X5633410Y-9570974D01*
X5633410Y-9570974D02*
X5652458Y-9561450D01*
X5652458Y-9561450D02*
X5681029Y-9561450D01*
X5681029Y-9561450D02*
X5700077Y-9570974D01*
X5700077Y-9570974D02*
X5709601Y-9590022D01*
X5709601Y-9590022D02*
X5709601Y-9694784D01*
X5709601Y-9590022D02*
X5719124Y-9570974D01*
X5719124Y-9570974D02*
X5738172Y-9561450D01*
X5738172Y-9561450D02*
X5766743Y-9561450D01*
X5766743Y-9561450D02*
X5785791Y-9570974D01*
X5785791Y-9570974D02*
X5795315Y-9590022D01*
X5795315Y-9590022D02*
X5795315Y-9694784D01*
X6185791Y-9485260D02*
X6014363Y-9742403D01*
X6442934Y-9494784D02*
X6461982Y-9494784D01*
X6461982Y-9494784D02*
X6481029Y-9504308D01*
X6481029Y-9504308D02*
X6490553Y-9513831D01*
X6490553Y-9513831D02*
X6500077Y-9532879D01*
X6500077Y-9532879D02*
X6509601Y-9570974D01*
X6509601Y-9570974D02*
X6509601Y-9618593D01*
X6509601Y-9618593D02*
X6500077Y-9656689D01*
X6500077Y-9656689D02*
X6490553Y-9675736D01*
X6490553Y-9675736D02*
X6481029Y-9685260D01*
X6481029Y-9685260D02*
X6461982Y-9694784D01*
X6461982Y-9694784D02*
X6442934Y-9694784D01*
X6442934Y-9694784D02*
X6423886Y-9685260D01*
X6423886Y-9685260D02*
X6414363Y-9675736D01*
X6414363Y-9675736D02*
X6404839Y-9656689D01*
X6404839Y-9656689D02*
X6395315Y-9618593D01*
X6395315Y-9618593D02*
X6395315Y-9570974D01*
X6395315Y-9570974D02*
X6404839Y-9532879D01*
X6404839Y-9532879D02*
X6414363Y-9513831D01*
X6414363Y-9513831D02*
X6423886Y-9504308D01*
X6423886Y-9504308D02*
X6442934Y-9494784D01*
X6595315Y-9675736D02*
X6604839Y-9685260D01*
X6604839Y-9685260D02*
X6595315Y-9694784D01*
X6595315Y-9694784D02*
X6585791Y-9685260D01*
X6585791Y-9685260D02*
X6595315Y-9675736D01*
X6595315Y-9675736D02*
X6595315Y-9694784D01*
X6728648Y-9494784D02*
X6747696Y-9494784D01*
X6747696Y-9494784D02*
X6766744Y-9504308D01*
X6766744Y-9504308D02*
X6776267Y-9513831D01*
X6776267Y-9513831D02*
X6785791Y-9532879D01*
X6785791Y-9532879D02*
X6795315Y-9570974D01*
X6795315Y-9570974D02*
X6795315Y-9618593D01*
X6795315Y-9618593D02*
X6785791Y-9656689D01*
X6785791Y-9656689D02*
X6776267Y-9675736D01*
X6776267Y-9675736D02*
X6766744Y-9685260D01*
X6766744Y-9685260D02*
X6747696Y-9694784D01*
X6747696Y-9694784D02*
X6728648Y-9694784D01*
X6728648Y-9694784D02*
X6709601Y-9685260D01*
X6709601Y-9685260D02*
X6700077Y-9675736D01*
X6700077Y-9675736D02*
X6690553Y-9656689D01*
X6690553Y-9656689D02*
X6681029Y-9618593D01*
X6681029Y-9618593D02*
X6681029Y-9570974D01*
X6681029Y-9570974D02*
X6690553Y-9532879D01*
X6690553Y-9532879D02*
X6700077Y-9513831D01*
X6700077Y-9513831D02*
X6709601Y-9504308D01*
X6709601Y-9504308D02*
X6728648Y-9494784D01*
X6985791Y-9694784D02*
X6871506Y-9694784D01*
X6928648Y-9694784D02*
X6928648Y-9494784D01*
X6928648Y-9494784D02*
X6909601Y-9523355D01*
X6909601Y-9523355D02*
X6890553Y-9542403D01*
X6890553Y-9542403D02*
X6871506Y-9551927D01*
X7081029Y-9694784D02*
X7119125Y-9694784D01*
X7119125Y-9694784D02*
X7138172Y-9685260D01*
X7138172Y-9685260D02*
X7147696Y-9675736D01*
X7147696Y-9675736D02*
X7166744Y-9647165D01*
X7166744Y-9647165D02*
X7176267Y-9609070D01*
X7176267Y-9609070D02*
X7176267Y-9532879D01*
X7176267Y-9532879D02*
X7166744Y-9513831D01*
X7166744Y-9513831D02*
X7157220Y-9504308D01*
X7157220Y-9504308D02*
X7138172Y-9494784D01*
X7138172Y-9494784D02*
X7100077Y-9494784D01*
X7100077Y-9494784D02*
X7081029Y-9504308D01*
X7081029Y-9504308D02*
X7071506Y-9513831D01*
X7071506Y-9513831D02*
X7061982Y-9532879D01*
X7061982Y-9532879D02*
X7061982Y-9580498D01*
X7061982Y-9580498D02*
X7071506Y-9599546D01*
X7071506Y-9599546D02*
X7081029Y-9609070D01*
X7081029Y-9609070D02*
X7100077Y-9618593D01*
X7100077Y-9618593D02*
X7138172Y-9618593D01*
X7138172Y-9618593D02*
X7157220Y-9609070D01*
X7157220Y-9609070D02*
X7166744Y-9599546D01*
X7166744Y-9599546D02*
X7176267Y-9580498D01*
X7242934Y-9494784D02*
X7376267Y-9494784D01*
X7376267Y-9494784D02*
X7290553Y-9694784D01*
X7442934Y-9494784D02*
X7442934Y-9532879D01*
X7519125Y-9494784D02*
X7519125Y-9532879D01*
X7814363Y-9770974D02*
X7804839Y-9761450D01*
X7804839Y-9761450D02*
X7785791Y-9732879D01*
X7785791Y-9732879D02*
X7776268Y-9713831D01*
X7776268Y-9713831D02*
X7766744Y-9685260D01*
X7766744Y-9685260D02*
X7757220Y-9637641D01*
X7757220Y-9637641D02*
X7757220Y-9599546D01*
X7757220Y-9599546D02*
X7766744Y-9551927D01*
X7766744Y-9551927D02*
X7776268Y-9523355D01*
X7776268Y-9523355D02*
X7785791Y-9504308D01*
X7785791Y-9504308D02*
X7804839Y-9475736D01*
X7804839Y-9475736D02*
X7814363Y-9466212D01*
X7928648Y-9494784D02*
X7947696Y-9494784D01*
X7947696Y-9494784D02*
X7966744Y-9504308D01*
X7966744Y-9504308D02*
X7976268Y-9513831D01*
X7976268Y-9513831D02*
X7985791Y-9532879D01*
X7985791Y-9532879D02*
X7995315Y-9570974D01*
X7995315Y-9570974D02*
X7995315Y-9618593D01*
X7995315Y-9618593D02*
X7985791Y-9656689D01*
X7985791Y-9656689D02*
X7976268Y-9675736D01*
X7976268Y-9675736D02*
X7966744Y-9685260D01*
X7966744Y-9685260D02*
X7947696Y-9694784D01*
X7947696Y-9694784D02*
X7928648Y-9694784D01*
X7928648Y-9694784D02*
X7909601Y-9685260D01*
X7909601Y-9685260D02*
X7900077Y-9675736D01*
X7900077Y-9675736D02*
X7890553Y-9656689D01*
X7890553Y-9656689D02*
X7881029Y-9618593D01*
X7881029Y-9618593D02*
X7881029Y-9570974D01*
X7881029Y-9570974D02*
X7890553Y-9532879D01*
X7890553Y-9532879D02*
X7900077Y-9513831D01*
X7900077Y-9513831D02*
X7909601Y-9504308D01*
X7909601Y-9504308D02*
X7928648Y-9494784D01*
X8233410Y-9694784D02*
X8233410Y-9494784D01*
X8319125Y-9694784D02*
X8319125Y-9590022D01*
X8319125Y-9590022D02*
X8309601Y-9570974D01*
X8309601Y-9570974D02*
X8290553Y-9561450D01*
X8290553Y-9561450D02*
X8261982Y-9561450D01*
X8261982Y-9561450D02*
X8242934Y-9570974D01*
X8242934Y-9570974D02*
X8233410Y-9580498D01*
X8442934Y-9694784D02*
X8423887Y-9685260D01*
X8423887Y-9685260D02*
X8414363Y-9675736D01*
X8414363Y-9675736D02*
X8404839Y-9656689D01*
X8404839Y-9656689D02*
X8404839Y-9599546D01*
X8404839Y-9599546D02*
X8414363Y-9580498D01*
X8414363Y-9580498D02*
X8423887Y-9570974D01*
X8423887Y-9570974D02*
X8442934Y-9561450D01*
X8442934Y-9561450D02*
X8471506Y-9561450D01*
X8471506Y-9561450D02*
X8490553Y-9570974D01*
X8490553Y-9570974D02*
X8500077Y-9580498D01*
X8500077Y-9580498D02*
X8509601Y-9599546D01*
X8509601Y-9599546D02*
X8509601Y-9656689D01*
X8509601Y-9656689D02*
X8500077Y-9675736D01*
X8500077Y-9675736D02*
X8490553Y-9685260D01*
X8490553Y-9685260D02*
X8471506Y-9694784D01*
X8471506Y-9694784D02*
X8442934Y-9694784D01*
X8623887Y-9694784D02*
X8604839Y-9685260D01*
X8604839Y-9685260D02*
X8595315Y-9666212D01*
X8595315Y-9666212D02*
X8595315Y-9494784D01*
X8776268Y-9685260D02*
X8757220Y-9694784D01*
X8757220Y-9694784D02*
X8719125Y-9694784D01*
X8719125Y-9694784D02*
X8700077Y-9685260D01*
X8700077Y-9685260D02*
X8690553Y-9666212D01*
X8690553Y-9666212D02*
X8690553Y-9590022D01*
X8690553Y-9590022D02*
X8700077Y-9570974D01*
X8700077Y-9570974D02*
X8719125Y-9561450D01*
X8719125Y-9561450D02*
X8757220Y-9561450D01*
X8757220Y-9561450D02*
X8776268Y-9570974D01*
X8776268Y-9570974D02*
X8785792Y-9590022D01*
X8785792Y-9590022D02*
X8785792Y-9609070D01*
X8785792Y-9609070D02*
X8690553Y-9628117D01*
X8861982Y-9685260D02*
X8881030Y-9694784D01*
X8881030Y-9694784D02*
X8919125Y-9694784D01*
X8919125Y-9694784D02*
X8938173Y-9685260D01*
X8938173Y-9685260D02*
X8947696Y-9666212D01*
X8947696Y-9666212D02*
X8947696Y-9656689D01*
X8947696Y-9656689D02*
X8938173Y-9637641D01*
X8938173Y-9637641D02*
X8919125Y-9628117D01*
X8919125Y-9628117D02*
X8890553Y-9628117D01*
X8890553Y-9628117D02*
X8871506Y-9618593D01*
X8871506Y-9618593D02*
X8861982Y-9599546D01*
X8861982Y-9599546D02*
X8861982Y-9590022D01*
X8861982Y-9590022D02*
X8871506Y-9570974D01*
X8871506Y-9570974D02*
X8890553Y-9561450D01*
X8890553Y-9561450D02*
X8919125Y-9561450D01*
X8919125Y-9561450D02*
X8938173Y-9570974D01*
X9185792Y-9618593D02*
X9338173Y-9618593D01*
X9261982Y-9694784D02*
X9261982Y-9542403D01*
X9576268Y-9513831D02*
X9585792Y-9504308D01*
X9585792Y-9504308D02*
X9604839Y-9494784D01*
X9604839Y-9494784D02*
X9652458Y-9494784D01*
X9652458Y-9494784D02*
X9671506Y-9504308D01*
X9671506Y-9504308D02*
X9681030Y-9513831D01*
X9681030Y-9513831D02*
X9690554Y-9532879D01*
X9690554Y-9532879D02*
X9690554Y-9551927D01*
X9690554Y-9551927D02*
X9681030Y-9580498D01*
X9681030Y-9580498D02*
X9566744Y-9694784D01*
X9566744Y-9694784D02*
X9690554Y-9694784D01*
X9919125Y-9685260D02*
X9938173Y-9694784D01*
X9938173Y-9694784D02*
X9976268Y-9694784D01*
X9976268Y-9694784D02*
X9995316Y-9685260D01*
X9995316Y-9685260D02*
X10004839Y-9666212D01*
X10004839Y-9666212D02*
X10004839Y-9656689D01*
X10004839Y-9656689D02*
X9995316Y-9637641D01*
X9995316Y-9637641D02*
X9976268Y-9628117D01*
X9976268Y-9628117D02*
X9947696Y-9628117D01*
X9947696Y-9628117D02*
X9928649Y-9618593D01*
X9928649Y-9618593D02*
X9919125Y-9599546D01*
X9919125Y-9599546D02*
X9919125Y-9590022D01*
X9919125Y-9590022D02*
X9928649Y-9570974D01*
X9928649Y-9570974D02*
X9947696Y-9561450D01*
X9947696Y-9561450D02*
X9976268Y-9561450D01*
X9976268Y-9561450D02*
X9995316Y-9570974D01*
X10119125Y-9694784D02*
X10100077Y-9685260D01*
X10100077Y-9685260D02*
X10090554Y-9666212D01*
X10090554Y-9666212D02*
X10090554Y-9494784D01*
X10223887Y-9694784D02*
X10204839Y-9685260D01*
X10204839Y-9685260D02*
X10195316Y-9675736D01*
X10195316Y-9675736D02*
X10185792Y-9656689D01*
X10185792Y-9656689D02*
X10185792Y-9599546D01*
X10185792Y-9599546D02*
X10195316Y-9580498D01*
X10195316Y-9580498D02*
X10204839Y-9570974D01*
X10204839Y-9570974D02*
X10223887Y-9561450D01*
X10223887Y-9561450D02*
X10252458Y-9561450D01*
X10252458Y-9561450D02*
X10271506Y-9570974D01*
X10271506Y-9570974D02*
X10281030Y-9580498D01*
X10281030Y-9580498D02*
X10290554Y-9599546D01*
X10290554Y-9599546D02*
X10290554Y-9656689D01*
X10290554Y-9656689D02*
X10281030Y-9675736D01*
X10281030Y-9675736D02*
X10271506Y-9685260D01*
X10271506Y-9685260D02*
X10252458Y-9694784D01*
X10252458Y-9694784D02*
X10223887Y-9694784D01*
X10347697Y-9561450D02*
X10423887Y-9561450D01*
X10376268Y-9494784D02*
X10376268Y-9666212D01*
X10376268Y-9666212D02*
X10385792Y-9685260D01*
X10385792Y-9685260D02*
X10404839Y-9694784D01*
X10404839Y-9694784D02*
X10423887Y-9694784D01*
X10481030Y-9685260D02*
X10500077Y-9694784D01*
X10500077Y-9694784D02*
X10538173Y-9694784D01*
X10538173Y-9694784D02*
X10557220Y-9685260D01*
X10557220Y-9685260D02*
X10566744Y-9666212D01*
X10566744Y-9666212D02*
X10566744Y-9656689D01*
X10566744Y-9656689D02*
X10557220Y-9637641D01*
X10557220Y-9637641D02*
X10538173Y-9628117D01*
X10538173Y-9628117D02*
X10509601Y-9628117D01*
X10509601Y-9628117D02*
X10490554Y-9618593D01*
X10490554Y-9618593D02*
X10481030Y-9599546D01*
X10481030Y-9599546D02*
X10481030Y-9590022D01*
X10481030Y-9590022D02*
X10490554Y-9570974D01*
X10490554Y-9570974D02*
X10509601Y-9561450D01*
X10509601Y-9561450D02*
X10538173Y-9561450D01*
X10538173Y-9561450D02*
X10557220Y-9570974D01*
X10633411Y-9770974D02*
X10642935Y-9761450D01*
X10642935Y-9761450D02*
X10661982Y-9732879D01*
X10661982Y-9732879D02*
X10671506Y-9713831D01*
X10671506Y-9713831D02*
X10681030Y-9685260D01*
X10681030Y-9685260D02*
X10690554Y-9637641D01*
X10690554Y-9637641D02*
X10690554Y-9599546D01*
X10690554Y-9599546D02*
X10681030Y-9551927D01*
X10681030Y-9551927D02*
X10671506Y-9523355D01*
X10671506Y-9523355D02*
X10661982Y-9504308D01*
X10661982Y-9504308D02*
X10642935Y-9475736D01*
X10642935Y-9475736D02*
X10633411Y-9466212D01*
D12*
X4231246Y-9886746D02*
X4231246Y-9847854D01*
X4192354Y-9847854D01*
X4192354Y-9886746D01*
X4231246Y-9886746D01*
D11*
X4538172Y-9758784D02*
X4557220Y-9758784D01*
X4557220Y-9758784D02*
X4576267Y-9768308D01*
X4576267Y-9768308D02*
X4585791Y-9777831D01*
X4585791Y-9777831D02*
X4595315Y-9796879D01*
X4595315Y-9796879D02*
X4604839Y-9834974D01*
X4604839Y-9834974D02*
X4604839Y-9882593D01*
X4604839Y-9882593D02*
X4595315Y-9920689D01*
X4595315Y-9920689D02*
X4585791Y-9939736D01*
X4585791Y-9939736D02*
X4576267Y-9949260D01*
X4576267Y-9949260D02*
X4557220Y-9958784D01*
X4557220Y-9958784D02*
X4538172Y-9958784D01*
X4538172Y-9958784D02*
X4519124Y-9949260D01*
X4519124Y-9949260D02*
X4509601Y-9939736D01*
X4509601Y-9939736D02*
X4500077Y-9920689D01*
X4500077Y-9920689D02*
X4490553Y-9882593D01*
X4490553Y-9882593D02*
X4490553Y-9834974D01*
X4490553Y-9834974D02*
X4500077Y-9796879D01*
X4500077Y-9796879D02*
X4509601Y-9777831D01*
X4509601Y-9777831D02*
X4519124Y-9768308D01*
X4519124Y-9768308D02*
X4538172Y-9758784D01*
X4690553Y-9939736D02*
X4700077Y-9949260D01*
X4700077Y-9949260D02*
X4690553Y-9958784D01*
X4690553Y-9958784D02*
X4681029Y-9949260D01*
X4681029Y-9949260D02*
X4690553Y-9939736D01*
X4690553Y-9939736D02*
X4690553Y-9958784D01*
X4881029Y-9758784D02*
X4785791Y-9758784D01*
X4785791Y-9758784D02*
X4776267Y-9854022D01*
X4776267Y-9854022D02*
X4785791Y-9844498D01*
X4785791Y-9844498D02*
X4804839Y-9834974D01*
X4804839Y-9834974D02*
X4852458Y-9834974D01*
X4852458Y-9834974D02*
X4871505Y-9844498D01*
X4871505Y-9844498D02*
X4881029Y-9854022D01*
X4881029Y-9854022D02*
X4890553Y-9873070D01*
X4890553Y-9873070D02*
X4890553Y-9920689D01*
X4890553Y-9920689D02*
X4881029Y-9939736D01*
X4881029Y-9939736D02*
X4871505Y-9949260D01*
X4871505Y-9949260D02*
X4852458Y-9958784D01*
X4852458Y-9958784D02*
X4804839Y-9958784D01*
X4804839Y-9958784D02*
X4785791Y-9949260D01*
X4785791Y-9949260D02*
X4776267Y-9939736D01*
X5071505Y-9758784D02*
X4976267Y-9758784D01*
X4976267Y-9758784D02*
X4966744Y-9854022D01*
X4966744Y-9854022D02*
X4976267Y-9844498D01*
X4976267Y-9844498D02*
X4995315Y-9834974D01*
X4995315Y-9834974D02*
X5042934Y-9834974D01*
X5042934Y-9834974D02*
X5061982Y-9844498D01*
X5061982Y-9844498D02*
X5071505Y-9854022D01*
X5071505Y-9854022D02*
X5081029Y-9873070D01*
X5081029Y-9873070D02*
X5081029Y-9920689D01*
X5081029Y-9920689D02*
X5071505Y-9939736D01*
X5071505Y-9939736D02*
X5061982Y-9949260D01*
X5061982Y-9949260D02*
X5042934Y-9958784D01*
X5042934Y-9958784D02*
X4995315Y-9958784D01*
X4995315Y-9958784D02*
X4976267Y-9949260D01*
X4976267Y-9949260D02*
X4966744Y-9939736D01*
X5204839Y-9758784D02*
X5223886Y-9758784D01*
X5223886Y-9758784D02*
X5242934Y-9768308D01*
X5242934Y-9768308D02*
X5252458Y-9777831D01*
X5252458Y-9777831D02*
X5261982Y-9796879D01*
X5261982Y-9796879D02*
X5271505Y-9834974D01*
X5271505Y-9834974D02*
X5271505Y-9882593D01*
X5271505Y-9882593D02*
X5261982Y-9920689D01*
X5261982Y-9920689D02*
X5252458Y-9939736D01*
X5252458Y-9939736D02*
X5242934Y-9949260D01*
X5242934Y-9949260D02*
X5223886Y-9958784D01*
X5223886Y-9958784D02*
X5204839Y-9958784D01*
X5204839Y-9958784D02*
X5185791Y-9949260D01*
X5185791Y-9949260D02*
X5176267Y-9939736D01*
X5176267Y-9939736D02*
X5166744Y-9920689D01*
X5166744Y-9920689D02*
X5157220Y-9882593D01*
X5157220Y-9882593D02*
X5157220Y-9834974D01*
X5157220Y-9834974D02*
X5166744Y-9796879D01*
X5166744Y-9796879D02*
X5176267Y-9777831D01*
X5176267Y-9777831D02*
X5185791Y-9768308D01*
X5185791Y-9768308D02*
X5204839Y-9758784D01*
X5357220Y-9958784D02*
X5357220Y-9825450D01*
X5357220Y-9844498D02*
X5366744Y-9834974D01*
X5366744Y-9834974D02*
X5385791Y-9825450D01*
X5385791Y-9825450D02*
X5414363Y-9825450D01*
X5414363Y-9825450D02*
X5433410Y-9834974D01*
X5433410Y-9834974D02*
X5442934Y-9854022D01*
X5442934Y-9854022D02*
X5442934Y-9958784D01*
X5442934Y-9854022D02*
X5452458Y-9834974D01*
X5452458Y-9834974D02*
X5471505Y-9825450D01*
X5471505Y-9825450D02*
X5500077Y-9825450D01*
X5500077Y-9825450D02*
X5519125Y-9834974D01*
X5519125Y-9834974D02*
X5528648Y-9854022D01*
X5528648Y-9854022D02*
X5528648Y-9958784D01*
X5623886Y-9958784D02*
X5623886Y-9825450D01*
X5623886Y-9844498D02*
X5633410Y-9834974D01*
X5633410Y-9834974D02*
X5652458Y-9825450D01*
X5652458Y-9825450D02*
X5681029Y-9825450D01*
X5681029Y-9825450D02*
X5700077Y-9834974D01*
X5700077Y-9834974D02*
X5709601Y-9854022D01*
X5709601Y-9854022D02*
X5709601Y-9958784D01*
X5709601Y-9854022D02*
X5719124Y-9834974D01*
X5719124Y-9834974D02*
X5738172Y-9825450D01*
X5738172Y-9825450D02*
X5766743Y-9825450D01*
X5766743Y-9825450D02*
X5785791Y-9834974D01*
X5785791Y-9834974D02*
X5795315Y-9854022D01*
X5795315Y-9854022D02*
X5795315Y-9958784D01*
X6185791Y-9749260D02*
X6014363Y-10006403D01*
X6442934Y-9758784D02*
X6461982Y-9758784D01*
X6461982Y-9758784D02*
X6481029Y-9768308D01*
X6481029Y-9768308D02*
X6490553Y-9777831D01*
X6490553Y-9777831D02*
X6500077Y-9796879D01*
X6500077Y-9796879D02*
X6509601Y-9834974D01*
X6509601Y-9834974D02*
X6509601Y-9882593D01*
X6509601Y-9882593D02*
X6500077Y-9920689D01*
X6500077Y-9920689D02*
X6490553Y-9939736D01*
X6490553Y-9939736D02*
X6481029Y-9949260D01*
X6481029Y-9949260D02*
X6461982Y-9958784D01*
X6461982Y-9958784D02*
X6442934Y-9958784D01*
X6442934Y-9958784D02*
X6423886Y-9949260D01*
X6423886Y-9949260D02*
X6414363Y-9939736D01*
X6414363Y-9939736D02*
X6404839Y-9920689D01*
X6404839Y-9920689D02*
X6395315Y-9882593D01*
X6395315Y-9882593D02*
X6395315Y-9834974D01*
X6395315Y-9834974D02*
X6404839Y-9796879D01*
X6404839Y-9796879D02*
X6414363Y-9777831D01*
X6414363Y-9777831D02*
X6423886Y-9768308D01*
X6423886Y-9768308D02*
X6442934Y-9758784D01*
X6595315Y-9939736D02*
X6604839Y-9949260D01*
X6604839Y-9949260D02*
X6595315Y-9958784D01*
X6595315Y-9958784D02*
X6585791Y-9949260D01*
X6585791Y-9949260D02*
X6595315Y-9939736D01*
X6595315Y-9939736D02*
X6595315Y-9958784D01*
X6728648Y-9758784D02*
X6747696Y-9758784D01*
X6747696Y-9758784D02*
X6766744Y-9768308D01*
X6766744Y-9768308D02*
X6776267Y-9777831D01*
X6776267Y-9777831D02*
X6785791Y-9796879D01*
X6785791Y-9796879D02*
X6795315Y-9834974D01*
X6795315Y-9834974D02*
X6795315Y-9882593D01*
X6795315Y-9882593D02*
X6785791Y-9920689D01*
X6785791Y-9920689D02*
X6776267Y-9939736D01*
X6776267Y-9939736D02*
X6766744Y-9949260D01*
X6766744Y-9949260D02*
X6747696Y-9958784D01*
X6747696Y-9958784D02*
X6728648Y-9958784D01*
X6728648Y-9958784D02*
X6709601Y-9949260D01*
X6709601Y-9949260D02*
X6700077Y-9939736D01*
X6700077Y-9939736D02*
X6690553Y-9920689D01*
X6690553Y-9920689D02*
X6681029Y-9882593D01*
X6681029Y-9882593D02*
X6681029Y-9834974D01*
X6681029Y-9834974D02*
X6690553Y-9796879D01*
X6690553Y-9796879D02*
X6700077Y-9777831D01*
X6700077Y-9777831D02*
X6709601Y-9768308D01*
X6709601Y-9768308D02*
X6728648Y-9758784D01*
X6871506Y-9777831D02*
X6881029Y-9768308D01*
X6881029Y-9768308D02*
X6900077Y-9758784D01*
X6900077Y-9758784D02*
X6947696Y-9758784D01*
X6947696Y-9758784D02*
X6966744Y-9768308D01*
X6966744Y-9768308D02*
X6976267Y-9777831D01*
X6976267Y-9777831D02*
X6985791Y-9796879D01*
X6985791Y-9796879D02*
X6985791Y-9815927D01*
X6985791Y-9815927D02*
X6976267Y-9844498D01*
X6976267Y-9844498D02*
X6861982Y-9958784D01*
X6861982Y-9958784D02*
X6985791Y-9958784D01*
X7176267Y-9958784D02*
X7061982Y-9958784D01*
X7119125Y-9958784D02*
X7119125Y-9758784D01*
X7119125Y-9758784D02*
X7100077Y-9787355D01*
X7100077Y-9787355D02*
X7081029Y-9806403D01*
X7081029Y-9806403D02*
X7061982Y-9815927D01*
X7242934Y-9758784D02*
X7376267Y-9758784D01*
X7376267Y-9758784D02*
X7290553Y-9958784D01*
X7442934Y-9758784D02*
X7442934Y-9796879D01*
X7519125Y-9758784D02*
X7519125Y-9796879D01*
X7814363Y-10034974D02*
X7804839Y-10025450D01*
X7804839Y-10025450D02*
X7785791Y-9996879D01*
X7785791Y-9996879D02*
X7776268Y-9977831D01*
X7776268Y-9977831D02*
X7766744Y-9949260D01*
X7766744Y-9949260D02*
X7757220Y-9901641D01*
X7757220Y-9901641D02*
X7757220Y-9863546D01*
X7757220Y-9863546D02*
X7766744Y-9815927D01*
X7766744Y-9815927D02*
X7776268Y-9787355D01*
X7776268Y-9787355D02*
X7785791Y-9768308D01*
X7785791Y-9768308D02*
X7804839Y-9739736D01*
X7804839Y-9739736D02*
X7814363Y-9730212D01*
X7928648Y-9758784D02*
X7947696Y-9758784D01*
X7947696Y-9758784D02*
X7966744Y-9768308D01*
X7966744Y-9768308D02*
X7976268Y-9777831D01*
X7976268Y-9777831D02*
X7985791Y-9796879D01*
X7985791Y-9796879D02*
X7995315Y-9834974D01*
X7995315Y-9834974D02*
X7995315Y-9882593D01*
X7995315Y-9882593D02*
X7985791Y-9920689D01*
X7985791Y-9920689D02*
X7976268Y-9939736D01*
X7976268Y-9939736D02*
X7966744Y-9949260D01*
X7966744Y-9949260D02*
X7947696Y-9958784D01*
X7947696Y-9958784D02*
X7928648Y-9958784D01*
X7928648Y-9958784D02*
X7909601Y-9949260D01*
X7909601Y-9949260D02*
X7900077Y-9939736D01*
X7900077Y-9939736D02*
X7890553Y-9920689D01*
X7890553Y-9920689D02*
X7881029Y-9882593D01*
X7881029Y-9882593D02*
X7881029Y-9834974D01*
X7881029Y-9834974D02*
X7890553Y-9796879D01*
X7890553Y-9796879D02*
X7900077Y-9777831D01*
X7900077Y-9777831D02*
X7909601Y-9768308D01*
X7909601Y-9768308D02*
X7928648Y-9758784D01*
X8233410Y-9958784D02*
X8233410Y-9758784D01*
X8319125Y-9958784D02*
X8319125Y-9854022D01*
X8319125Y-9854022D02*
X8309601Y-9834974D01*
X8309601Y-9834974D02*
X8290553Y-9825450D01*
X8290553Y-9825450D02*
X8261982Y-9825450D01*
X8261982Y-9825450D02*
X8242934Y-9834974D01*
X8242934Y-9834974D02*
X8233410Y-9844498D01*
X8442934Y-9958784D02*
X8423887Y-9949260D01*
X8423887Y-9949260D02*
X8414363Y-9939736D01*
X8414363Y-9939736D02*
X8404839Y-9920689D01*
X8404839Y-9920689D02*
X8404839Y-9863546D01*
X8404839Y-9863546D02*
X8414363Y-9844498D01*
X8414363Y-9844498D02*
X8423887Y-9834974D01*
X8423887Y-9834974D02*
X8442934Y-9825450D01*
X8442934Y-9825450D02*
X8471506Y-9825450D01*
X8471506Y-9825450D02*
X8490553Y-9834974D01*
X8490553Y-9834974D02*
X8500077Y-9844498D01*
X8500077Y-9844498D02*
X8509601Y-9863546D01*
X8509601Y-9863546D02*
X8509601Y-9920689D01*
X8509601Y-9920689D02*
X8500077Y-9939736D01*
X8500077Y-9939736D02*
X8490553Y-9949260D01*
X8490553Y-9949260D02*
X8471506Y-9958784D01*
X8471506Y-9958784D02*
X8442934Y-9958784D01*
X8623887Y-9958784D02*
X8604839Y-9949260D01*
X8604839Y-9949260D02*
X8595315Y-9930212D01*
X8595315Y-9930212D02*
X8595315Y-9758784D01*
X8776268Y-9949260D02*
X8757220Y-9958784D01*
X8757220Y-9958784D02*
X8719125Y-9958784D01*
X8719125Y-9958784D02*
X8700077Y-9949260D01*
X8700077Y-9949260D02*
X8690553Y-9930212D01*
X8690553Y-9930212D02*
X8690553Y-9854022D01*
X8690553Y-9854022D02*
X8700077Y-9834974D01*
X8700077Y-9834974D02*
X8719125Y-9825450D01*
X8719125Y-9825450D02*
X8757220Y-9825450D01*
X8757220Y-9825450D02*
X8776268Y-9834974D01*
X8776268Y-9834974D02*
X8785792Y-9854022D01*
X8785792Y-9854022D02*
X8785792Y-9873070D01*
X8785792Y-9873070D02*
X8690553Y-9892117D01*
X8861982Y-9949260D02*
X8881030Y-9958784D01*
X8881030Y-9958784D02*
X8919125Y-9958784D01*
X8919125Y-9958784D02*
X8938173Y-9949260D01*
X8938173Y-9949260D02*
X8947696Y-9930212D01*
X8947696Y-9930212D02*
X8947696Y-9920689D01*
X8947696Y-9920689D02*
X8938173Y-9901641D01*
X8938173Y-9901641D02*
X8919125Y-9892117D01*
X8919125Y-9892117D02*
X8890553Y-9892117D01*
X8890553Y-9892117D02*
X8871506Y-9882593D01*
X8871506Y-9882593D02*
X8861982Y-9863546D01*
X8861982Y-9863546D02*
X8861982Y-9854022D01*
X8861982Y-9854022D02*
X8871506Y-9834974D01*
X8871506Y-9834974D02*
X8890553Y-9825450D01*
X8890553Y-9825450D02*
X8919125Y-9825450D01*
X8919125Y-9825450D02*
X8938173Y-9834974D01*
X9185792Y-9882593D02*
X9338173Y-9882593D01*
X9261982Y-9958784D02*
X9261982Y-9806403D01*
X9671506Y-9825450D02*
X9671506Y-9958784D01*
X9623887Y-9749260D02*
X9576268Y-9892117D01*
X9576268Y-9892117D02*
X9700077Y-9892117D01*
X9919125Y-9949260D02*
X9938173Y-9958784D01*
X9938173Y-9958784D02*
X9976268Y-9958784D01*
X9976268Y-9958784D02*
X9995316Y-9949260D01*
X9995316Y-9949260D02*
X10004839Y-9930212D01*
X10004839Y-9930212D02*
X10004839Y-9920689D01*
X10004839Y-9920689D02*
X9995316Y-9901641D01*
X9995316Y-9901641D02*
X9976268Y-9892117D01*
X9976268Y-9892117D02*
X9947696Y-9892117D01*
X9947696Y-9892117D02*
X9928649Y-9882593D01*
X9928649Y-9882593D02*
X9919125Y-9863546D01*
X9919125Y-9863546D02*
X9919125Y-9854022D01*
X9919125Y-9854022D02*
X9928649Y-9834974D01*
X9928649Y-9834974D02*
X9947696Y-9825450D01*
X9947696Y-9825450D02*
X9976268Y-9825450D01*
X9976268Y-9825450D02*
X9995316Y-9834974D01*
X10119125Y-9958784D02*
X10100077Y-9949260D01*
X10100077Y-9949260D02*
X10090554Y-9930212D01*
X10090554Y-9930212D02*
X10090554Y-9758784D01*
X10223887Y-9958784D02*
X10204839Y-9949260D01*
X10204839Y-9949260D02*
X10195316Y-9939736D01*
X10195316Y-9939736D02*
X10185792Y-9920689D01*
X10185792Y-9920689D02*
X10185792Y-9863546D01*
X10185792Y-9863546D02*
X10195316Y-9844498D01*
X10195316Y-9844498D02*
X10204839Y-9834974D01*
X10204839Y-9834974D02*
X10223887Y-9825450D01*
X10223887Y-9825450D02*
X10252458Y-9825450D01*
X10252458Y-9825450D02*
X10271506Y-9834974D01*
X10271506Y-9834974D02*
X10281030Y-9844498D01*
X10281030Y-9844498D02*
X10290554Y-9863546D01*
X10290554Y-9863546D02*
X10290554Y-9920689D01*
X10290554Y-9920689D02*
X10281030Y-9939736D01*
X10281030Y-9939736D02*
X10271506Y-9949260D01*
X10271506Y-9949260D02*
X10252458Y-9958784D01*
X10252458Y-9958784D02*
X10223887Y-9958784D01*
X10347697Y-9825450D02*
X10423887Y-9825450D01*
X10376268Y-9758784D02*
X10376268Y-9930212D01*
X10376268Y-9930212D02*
X10385792Y-9949260D01*
X10385792Y-9949260D02*
X10404839Y-9958784D01*
X10404839Y-9958784D02*
X10423887Y-9958784D01*
X10481030Y-9949260D02*
X10500077Y-9958784D01*
X10500077Y-9958784D02*
X10538173Y-9958784D01*
X10538173Y-9958784D02*
X10557220Y-9949260D01*
X10557220Y-9949260D02*
X10566744Y-9930212D01*
X10566744Y-9930212D02*
X10566744Y-9920689D01*
X10566744Y-9920689D02*
X10557220Y-9901641D01*
X10557220Y-9901641D02*
X10538173Y-9892117D01*
X10538173Y-9892117D02*
X10509601Y-9892117D01*
X10509601Y-9892117D02*
X10490554Y-9882593D01*
X10490554Y-9882593D02*
X10481030Y-9863546D01*
X10481030Y-9863546D02*
X10481030Y-9854022D01*
X10481030Y-9854022D02*
X10490554Y-9834974D01*
X10490554Y-9834974D02*
X10509601Y-9825450D01*
X10509601Y-9825450D02*
X10538173Y-9825450D01*
X10538173Y-9825450D02*
X10557220Y-9834974D01*
X10633411Y-10034974D02*
X10642935Y-10025450D01*
X10642935Y-10025450D02*
X10661982Y-9996879D01*
X10661982Y-9996879D02*
X10671506Y-9977831D01*
X10671506Y-9977831D02*
X10681030Y-9949260D01*
X10681030Y-9949260D02*
X10690554Y-9901641D01*
X10690554Y-9901641D02*
X10690554Y-9863546D01*
X10690554Y-9863546D02*
X10681030Y-9815927D01*
X10681030Y-9815927D02*
X10671506Y-9787355D01*
X10671506Y-9787355D02*
X10661982Y-9768308D01*
X10661982Y-9768308D02*
X10642935Y-9739736D01*
X10642935Y-9739736D02*
X10633411Y-9730212D01*
D12*
X4209300Y-10161300D02*
X4239300Y-10131300D01*
X4209300Y-10101300D01*
X4179300Y-10131300D01*
X4209300Y-10161300D01*
D11*
X4538172Y-10022784D02*
X4557220Y-10022784D01*
X4557220Y-10022784D02*
X4576267Y-10032308D01*
X4576267Y-10032308D02*
X4585791Y-10041831D01*
X4585791Y-10041831D02*
X4595315Y-10060879D01*
X4595315Y-10060879D02*
X4604839Y-10098974D01*
X4604839Y-10098974D02*
X4604839Y-10146593D01*
X4604839Y-10146593D02*
X4595315Y-10184689D01*
X4595315Y-10184689D02*
X4585791Y-10203736D01*
X4585791Y-10203736D02*
X4576267Y-10213260D01*
X4576267Y-10213260D02*
X4557220Y-10222784D01*
X4557220Y-10222784D02*
X4538172Y-10222784D01*
X4538172Y-10222784D02*
X4519124Y-10213260D01*
X4519124Y-10213260D02*
X4509601Y-10203736D01*
X4509601Y-10203736D02*
X4500077Y-10184689D01*
X4500077Y-10184689D02*
X4490553Y-10146593D01*
X4490553Y-10146593D02*
X4490553Y-10098974D01*
X4490553Y-10098974D02*
X4500077Y-10060879D01*
X4500077Y-10060879D02*
X4509601Y-10041831D01*
X4509601Y-10041831D02*
X4519124Y-10032308D01*
X4519124Y-10032308D02*
X4538172Y-10022784D01*
X4690553Y-10203736D02*
X4700077Y-10213260D01*
X4700077Y-10213260D02*
X4690553Y-10222784D01*
X4690553Y-10222784D02*
X4681029Y-10213260D01*
X4681029Y-10213260D02*
X4690553Y-10203736D01*
X4690553Y-10203736D02*
X4690553Y-10222784D01*
X4871505Y-10022784D02*
X4833410Y-10022784D01*
X4833410Y-10022784D02*
X4814363Y-10032308D01*
X4814363Y-10032308D02*
X4804839Y-10041831D01*
X4804839Y-10041831D02*
X4785791Y-10070403D01*
X4785791Y-10070403D02*
X4776267Y-10108498D01*
X4776267Y-10108498D02*
X4776267Y-10184689D01*
X4776267Y-10184689D02*
X4785791Y-10203736D01*
X4785791Y-10203736D02*
X4795315Y-10213260D01*
X4795315Y-10213260D02*
X4814363Y-10222784D01*
X4814363Y-10222784D02*
X4852458Y-10222784D01*
X4852458Y-10222784D02*
X4871505Y-10213260D01*
X4871505Y-10213260D02*
X4881029Y-10203736D01*
X4881029Y-10203736D02*
X4890553Y-10184689D01*
X4890553Y-10184689D02*
X4890553Y-10137070D01*
X4890553Y-10137070D02*
X4881029Y-10118022D01*
X4881029Y-10118022D02*
X4871505Y-10108498D01*
X4871505Y-10108498D02*
X4852458Y-10098974D01*
X4852458Y-10098974D02*
X4814363Y-10098974D01*
X4814363Y-10098974D02*
X4795315Y-10108498D01*
X4795315Y-10108498D02*
X4785791Y-10118022D01*
X4785791Y-10118022D02*
X4776267Y-10137070D01*
X5014363Y-10022784D02*
X5033410Y-10022784D01*
X5033410Y-10022784D02*
X5052458Y-10032308D01*
X5052458Y-10032308D02*
X5061982Y-10041831D01*
X5061982Y-10041831D02*
X5071505Y-10060879D01*
X5071505Y-10060879D02*
X5081029Y-10098974D01*
X5081029Y-10098974D02*
X5081029Y-10146593D01*
X5081029Y-10146593D02*
X5071505Y-10184689D01*
X5071505Y-10184689D02*
X5061982Y-10203736D01*
X5061982Y-10203736D02*
X5052458Y-10213260D01*
X5052458Y-10213260D02*
X5033410Y-10222784D01*
X5033410Y-10222784D02*
X5014363Y-10222784D01*
X5014363Y-10222784D02*
X4995315Y-10213260D01*
X4995315Y-10213260D02*
X4985791Y-10203736D01*
X4985791Y-10203736D02*
X4976267Y-10184689D01*
X4976267Y-10184689D02*
X4966744Y-10146593D01*
X4966744Y-10146593D02*
X4966744Y-10098974D01*
X4966744Y-10098974D02*
X4976267Y-10060879D01*
X4976267Y-10060879D02*
X4985791Y-10041831D01*
X4985791Y-10041831D02*
X4995315Y-10032308D01*
X4995315Y-10032308D02*
X5014363Y-10022784D01*
X5204839Y-10022784D02*
X5223886Y-10022784D01*
X5223886Y-10022784D02*
X5242934Y-10032308D01*
X5242934Y-10032308D02*
X5252458Y-10041831D01*
X5252458Y-10041831D02*
X5261982Y-10060879D01*
X5261982Y-10060879D02*
X5271505Y-10098974D01*
X5271505Y-10098974D02*
X5271505Y-10146593D01*
X5271505Y-10146593D02*
X5261982Y-10184689D01*
X5261982Y-10184689D02*
X5252458Y-10203736D01*
X5252458Y-10203736D02*
X5242934Y-10213260D01*
X5242934Y-10213260D02*
X5223886Y-10222784D01*
X5223886Y-10222784D02*
X5204839Y-10222784D01*
X5204839Y-10222784D02*
X5185791Y-10213260D01*
X5185791Y-10213260D02*
X5176267Y-10203736D01*
X5176267Y-10203736D02*
X5166744Y-10184689D01*
X5166744Y-10184689D02*
X5157220Y-10146593D01*
X5157220Y-10146593D02*
X5157220Y-10098974D01*
X5157220Y-10098974D02*
X5166744Y-10060879D01*
X5166744Y-10060879D02*
X5176267Y-10041831D01*
X5176267Y-10041831D02*
X5185791Y-10032308D01*
X5185791Y-10032308D02*
X5204839Y-10022784D01*
X5357220Y-10222784D02*
X5357220Y-10089450D01*
X5357220Y-10108498D02*
X5366744Y-10098974D01*
X5366744Y-10098974D02*
X5385791Y-10089450D01*
X5385791Y-10089450D02*
X5414363Y-10089450D01*
X5414363Y-10089450D02*
X5433410Y-10098974D01*
X5433410Y-10098974D02*
X5442934Y-10118022D01*
X5442934Y-10118022D02*
X5442934Y-10222784D01*
X5442934Y-10118022D02*
X5452458Y-10098974D01*
X5452458Y-10098974D02*
X5471505Y-10089450D01*
X5471505Y-10089450D02*
X5500077Y-10089450D01*
X5500077Y-10089450D02*
X5519125Y-10098974D01*
X5519125Y-10098974D02*
X5528648Y-10118022D01*
X5528648Y-10118022D02*
X5528648Y-10222784D01*
X5623886Y-10222784D02*
X5623886Y-10089450D01*
X5623886Y-10108498D02*
X5633410Y-10098974D01*
X5633410Y-10098974D02*
X5652458Y-10089450D01*
X5652458Y-10089450D02*
X5681029Y-10089450D01*
X5681029Y-10089450D02*
X5700077Y-10098974D01*
X5700077Y-10098974D02*
X5709601Y-10118022D01*
X5709601Y-10118022D02*
X5709601Y-10222784D01*
X5709601Y-10118022D02*
X5719124Y-10098974D01*
X5719124Y-10098974D02*
X5738172Y-10089450D01*
X5738172Y-10089450D02*
X5766743Y-10089450D01*
X5766743Y-10089450D02*
X5785791Y-10098974D01*
X5785791Y-10098974D02*
X5795315Y-10118022D01*
X5795315Y-10118022D02*
X5795315Y-10222784D01*
X6185791Y-10013260D02*
X6014363Y-10270403D01*
X6442934Y-10022784D02*
X6461982Y-10022784D01*
X6461982Y-10022784D02*
X6481029Y-10032308D01*
X6481029Y-10032308D02*
X6490553Y-10041831D01*
X6490553Y-10041831D02*
X6500077Y-10060879D01*
X6500077Y-10060879D02*
X6509601Y-10098974D01*
X6509601Y-10098974D02*
X6509601Y-10146593D01*
X6509601Y-10146593D02*
X6500077Y-10184689D01*
X6500077Y-10184689D02*
X6490553Y-10203736D01*
X6490553Y-10203736D02*
X6481029Y-10213260D01*
X6481029Y-10213260D02*
X6461982Y-10222784D01*
X6461982Y-10222784D02*
X6442934Y-10222784D01*
X6442934Y-10222784D02*
X6423886Y-10213260D01*
X6423886Y-10213260D02*
X6414363Y-10203736D01*
X6414363Y-10203736D02*
X6404839Y-10184689D01*
X6404839Y-10184689D02*
X6395315Y-10146593D01*
X6395315Y-10146593D02*
X6395315Y-10098974D01*
X6395315Y-10098974D02*
X6404839Y-10060879D01*
X6404839Y-10060879D02*
X6414363Y-10041831D01*
X6414363Y-10041831D02*
X6423886Y-10032308D01*
X6423886Y-10032308D02*
X6442934Y-10022784D01*
X6595315Y-10203736D02*
X6604839Y-10213260D01*
X6604839Y-10213260D02*
X6595315Y-10222784D01*
X6595315Y-10222784D02*
X6585791Y-10213260D01*
X6585791Y-10213260D02*
X6595315Y-10203736D01*
X6595315Y-10203736D02*
X6595315Y-10222784D01*
X6728648Y-10022784D02*
X6747696Y-10022784D01*
X6747696Y-10022784D02*
X6766744Y-10032308D01*
X6766744Y-10032308D02*
X6776267Y-10041831D01*
X6776267Y-10041831D02*
X6785791Y-10060879D01*
X6785791Y-10060879D02*
X6795315Y-10098974D01*
X6795315Y-10098974D02*
X6795315Y-10146593D01*
X6795315Y-10146593D02*
X6785791Y-10184689D01*
X6785791Y-10184689D02*
X6776267Y-10203736D01*
X6776267Y-10203736D02*
X6766744Y-10213260D01*
X6766744Y-10213260D02*
X6747696Y-10222784D01*
X6747696Y-10222784D02*
X6728648Y-10222784D01*
X6728648Y-10222784D02*
X6709601Y-10213260D01*
X6709601Y-10213260D02*
X6700077Y-10203736D01*
X6700077Y-10203736D02*
X6690553Y-10184689D01*
X6690553Y-10184689D02*
X6681029Y-10146593D01*
X6681029Y-10146593D02*
X6681029Y-10098974D01*
X6681029Y-10098974D02*
X6690553Y-10060879D01*
X6690553Y-10060879D02*
X6700077Y-10041831D01*
X6700077Y-10041831D02*
X6709601Y-10032308D01*
X6709601Y-10032308D02*
X6728648Y-10022784D01*
X6871506Y-10041831D02*
X6881029Y-10032308D01*
X6881029Y-10032308D02*
X6900077Y-10022784D01*
X6900077Y-10022784D02*
X6947696Y-10022784D01*
X6947696Y-10022784D02*
X6966744Y-10032308D01*
X6966744Y-10032308D02*
X6976267Y-10041831D01*
X6976267Y-10041831D02*
X6985791Y-10060879D01*
X6985791Y-10060879D02*
X6985791Y-10079927D01*
X6985791Y-10079927D02*
X6976267Y-10108498D01*
X6976267Y-10108498D02*
X6861982Y-10222784D01*
X6861982Y-10222784D02*
X6985791Y-10222784D01*
X7052458Y-10022784D02*
X7176267Y-10022784D01*
X7176267Y-10022784D02*
X7109601Y-10098974D01*
X7109601Y-10098974D02*
X7138172Y-10098974D01*
X7138172Y-10098974D02*
X7157220Y-10108498D01*
X7157220Y-10108498D02*
X7166744Y-10118022D01*
X7166744Y-10118022D02*
X7176267Y-10137070D01*
X7176267Y-10137070D02*
X7176267Y-10184689D01*
X7176267Y-10184689D02*
X7166744Y-10203736D01*
X7166744Y-10203736D02*
X7157220Y-10213260D01*
X7157220Y-10213260D02*
X7138172Y-10222784D01*
X7138172Y-10222784D02*
X7081029Y-10222784D01*
X7081029Y-10222784D02*
X7061982Y-10213260D01*
X7061982Y-10213260D02*
X7052458Y-10203736D01*
X7347696Y-10022784D02*
X7309601Y-10022784D01*
X7309601Y-10022784D02*
X7290553Y-10032308D01*
X7290553Y-10032308D02*
X7281029Y-10041831D01*
X7281029Y-10041831D02*
X7261982Y-10070403D01*
X7261982Y-10070403D02*
X7252458Y-10108498D01*
X7252458Y-10108498D02*
X7252458Y-10184689D01*
X7252458Y-10184689D02*
X7261982Y-10203736D01*
X7261982Y-10203736D02*
X7271506Y-10213260D01*
X7271506Y-10213260D02*
X7290553Y-10222784D01*
X7290553Y-10222784D02*
X7328648Y-10222784D01*
X7328648Y-10222784D02*
X7347696Y-10213260D01*
X7347696Y-10213260D02*
X7357220Y-10203736D01*
X7357220Y-10203736D02*
X7366744Y-10184689D01*
X7366744Y-10184689D02*
X7366744Y-10137070D01*
X7366744Y-10137070D02*
X7357220Y-10118022D01*
X7357220Y-10118022D02*
X7347696Y-10108498D01*
X7347696Y-10108498D02*
X7328648Y-10098974D01*
X7328648Y-10098974D02*
X7290553Y-10098974D01*
X7290553Y-10098974D02*
X7271506Y-10108498D01*
X7271506Y-10108498D02*
X7261982Y-10118022D01*
X7261982Y-10118022D02*
X7252458Y-10137070D01*
X7442934Y-10022784D02*
X7442934Y-10060879D01*
X7519125Y-10022784D02*
X7519125Y-10060879D01*
X7814363Y-10298974D02*
X7804839Y-10289450D01*
X7804839Y-10289450D02*
X7785791Y-10260879D01*
X7785791Y-10260879D02*
X7776268Y-10241831D01*
X7776268Y-10241831D02*
X7766744Y-10213260D01*
X7766744Y-10213260D02*
X7757220Y-10165641D01*
X7757220Y-10165641D02*
X7757220Y-10127546D01*
X7757220Y-10127546D02*
X7766744Y-10079927D01*
X7766744Y-10079927D02*
X7776268Y-10051355D01*
X7776268Y-10051355D02*
X7785791Y-10032308D01*
X7785791Y-10032308D02*
X7804839Y-10003736D01*
X7804839Y-10003736D02*
X7814363Y-9994212D01*
X7928648Y-10022784D02*
X7947696Y-10022784D01*
X7947696Y-10022784D02*
X7966744Y-10032308D01*
X7966744Y-10032308D02*
X7976268Y-10041831D01*
X7976268Y-10041831D02*
X7985791Y-10060879D01*
X7985791Y-10060879D02*
X7995315Y-10098974D01*
X7995315Y-10098974D02*
X7995315Y-10146593D01*
X7995315Y-10146593D02*
X7985791Y-10184689D01*
X7985791Y-10184689D02*
X7976268Y-10203736D01*
X7976268Y-10203736D02*
X7966744Y-10213260D01*
X7966744Y-10213260D02*
X7947696Y-10222784D01*
X7947696Y-10222784D02*
X7928648Y-10222784D01*
X7928648Y-10222784D02*
X7909601Y-10213260D01*
X7909601Y-10213260D02*
X7900077Y-10203736D01*
X7900077Y-10203736D02*
X7890553Y-10184689D01*
X7890553Y-10184689D02*
X7881029Y-10146593D01*
X7881029Y-10146593D02*
X7881029Y-10098974D01*
X7881029Y-10098974D02*
X7890553Y-10060879D01*
X7890553Y-10060879D02*
X7900077Y-10041831D01*
X7900077Y-10041831D02*
X7909601Y-10032308D01*
X7909601Y-10032308D02*
X7928648Y-10022784D01*
X8233410Y-10222784D02*
X8233410Y-10022784D01*
X8319125Y-10222784D02*
X8319125Y-10118022D01*
X8319125Y-10118022D02*
X8309601Y-10098974D01*
X8309601Y-10098974D02*
X8290553Y-10089450D01*
X8290553Y-10089450D02*
X8261982Y-10089450D01*
X8261982Y-10089450D02*
X8242934Y-10098974D01*
X8242934Y-10098974D02*
X8233410Y-10108498D01*
X8442934Y-10222784D02*
X8423887Y-10213260D01*
X8423887Y-10213260D02*
X8414363Y-10203736D01*
X8414363Y-10203736D02*
X8404839Y-10184689D01*
X8404839Y-10184689D02*
X8404839Y-10127546D01*
X8404839Y-10127546D02*
X8414363Y-10108498D01*
X8414363Y-10108498D02*
X8423887Y-10098974D01*
X8423887Y-10098974D02*
X8442934Y-10089450D01*
X8442934Y-10089450D02*
X8471506Y-10089450D01*
X8471506Y-10089450D02*
X8490553Y-10098974D01*
X8490553Y-10098974D02*
X8500077Y-10108498D01*
X8500077Y-10108498D02*
X8509601Y-10127546D01*
X8509601Y-10127546D02*
X8509601Y-10184689D01*
X8509601Y-10184689D02*
X8500077Y-10203736D01*
X8500077Y-10203736D02*
X8490553Y-10213260D01*
X8490553Y-10213260D02*
X8471506Y-10222784D01*
X8471506Y-10222784D02*
X8442934Y-10222784D01*
X8623887Y-10222784D02*
X8604839Y-10213260D01*
X8604839Y-10213260D02*
X8595315Y-10194212D01*
X8595315Y-10194212D02*
X8595315Y-10022784D01*
X8776268Y-10213260D02*
X8757220Y-10222784D01*
X8757220Y-10222784D02*
X8719125Y-10222784D01*
X8719125Y-10222784D02*
X8700077Y-10213260D01*
X8700077Y-10213260D02*
X8690553Y-10194212D01*
X8690553Y-10194212D02*
X8690553Y-10118022D01*
X8690553Y-10118022D02*
X8700077Y-10098974D01*
X8700077Y-10098974D02*
X8719125Y-10089450D01*
X8719125Y-10089450D02*
X8757220Y-10089450D01*
X8757220Y-10089450D02*
X8776268Y-10098974D01*
X8776268Y-10098974D02*
X8785792Y-10118022D01*
X8785792Y-10118022D02*
X8785792Y-10137070D01*
X8785792Y-10137070D02*
X8690553Y-10156117D01*
X8861982Y-10213260D02*
X8881030Y-10222784D01*
X8881030Y-10222784D02*
X8919125Y-10222784D01*
X8919125Y-10222784D02*
X8938173Y-10213260D01*
X8938173Y-10213260D02*
X8947696Y-10194212D01*
X8947696Y-10194212D02*
X8947696Y-10184689D01*
X8947696Y-10184689D02*
X8938173Y-10165641D01*
X8938173Y-10165641D02*
X8919125Y-10156117D01*
X8919125Y-10156117D02*
X8890553Y-10156117D01*
X8890553Y-10156117D02*
X8871506Y-10146593D01*
X8871506Y-10146593D02*
X8861982Y-10127546D01*
X8861982Y-10127546D02*
X8861982Y-10118022D01*
X8861982Y-10118022D02*
X8871506Y-10098974D01*
X8871506Y-10098974D02*
X8890553Y-10089450D01*
X8890553Y-10089450D02*
X8919125Y-10089450D01*
X8919125Y-10089450D02*
X8938173Y-10098974D01*
X9185792Y-10146593D02*
X9338173Y-10146593D01*
X9261982Y-10222784D02*
X9261982Y-10070403D01*
X9576268Y-10041831D02*
X9585792Y-10032308D01*
X9585792Y-10032308D02*
X9604839Y-10022784D01*
X9604839Y-10022784D02*
X9652458Y-10022784D01*
X9652458Y-10022784D02*
X9671506Y-10032308D01*
X9671506Y-10032308D02*
X9681030Y-10041831D01*
X9681030Y-10041831D02*
X9690554Y-10060879D01*
X9690554Y-10060879D02*
X9690554Y-10079927D01*
X9690554Y-10079927D02*
X9681030Y-10108498D01*
X9681030Y-10108498D02*
X9566744Y-10222784D01*
X9566744Y-10222784D02*
X9690554Y-10222784D01*
X9919125Y-10213260D02*
X9938173Y-10222784D01*
X9938173Y-10222784D02*
X9976268Y-10222784D01*
X9976268Y-10222784D02*
X9995316Y-10213260D01*
X9995316Y-10213260D02*
X10004839Y-10194212D01*
X10004839Y-10194212D02*
X10004839Y-10184689D01*
X10004839Y-10184689D02*
X9995316Y-10165641D01*
X9995316Y-10165641D02*
X9976268Y-10156117D01*
X9976268Y-10156117D02*
X9947696Y-10156117D01*
X9947696Y-10156117D02*
X9928649Y-10146593D01*
X9928649Y-10146593D02*
X9919125Y-10127546D01*
X9919125Y-10127546D02*
X9919125Y-10118022D01*
X9919125Y-10118022D02*
X9928649Y-10098974D01*
X9928649Y-10098974D02*
X9947696Y-10089450D01*
X9947696Y-10089450D02*
X9976268Y-10089450D01*
X9976268Y-10089450D02*
X9995316Y-10098974D01*
X10119125Y-10222784D02*
X10100077Y-10213260D01*
X10100077Y-10213260D02*
X10090554Y-10194212D01*
X10090554Y-10194212D02*
X10090554Y-10022784D01*
X10223887Y-10222784D02*
X10204839Y-10213260D01*
X10204839Y-10213260D02*
X10195316Y-10203736D01*
X10195316Y-10203736D02*
X10185792Y-10184689D01*
X10185792Y-10184689D02*
X10185792Y-10127546D01*
X10185792Y-10127546D02*
X10195316Y-10108498D01*
X10195316Y-10108498D02*
X10204839Y-10098974D01*
X10204839Y-10098974D02*
X10223887Y-10089450D01*
X10223887Y-10089450D02*
X10252458Y-10089450D01*
X10252458Y-10089450D02*
X10271506Y-10098974D01*
X10271506Y-10098974D02*
X10281030Y-10108498D01*
X10281030Y-10108498D02*
X10290554Y-10127546D01*
X10290554Y-10127546D02*
X10290554Y-10184689D01*
X10290554Y-10184689D02*
X10281030Y-10203736D01*
X10281030Y-10203736D02*
X10271506Y-10213260D01*
X10271506Y-10213260D02*
X10252458Y-10222784D01*
X10252458Y-10222784D02*
X10223887Y-10222784D01*
X10347697Y-10089450D02*
X10423887Y-10089450D01*
X10376268Y-10022784D02*
X10376268Y-10194212D01*
X10376268Y-10194212D02*
X10385792Y-10213260D01*
X10385792Y-10213260D02*
X10404839Y-10222784D01*
X10404839Y-10222784D02*
X10423887Y-10222784D01*
X10481030Y-10213260D02*
X10500077Y-10222784D01*
X10500077Y-10222784D02*
X10538173Y-10222784D01*
X10538173Y-10222784D02*
X10557220Y-10213260D01*
X10557220Y-10213260D02*
X10566744Y-10194212D01*
X10566744Y-10194212D02*
X10566744Y-10184689D01*
X10566744Y-10184689D02*
X10557220Y-10165641D01*
X10557220Y-10165641D02*
X10538173Y-10156117D01*
X10538173Y-10156117D02*
X10509601Y-10156117D01*
X10509601Y-10156117D02*
X10490554Y-10146593D01*
X10490554Y-10146593D02*
X10481030Y-10127546D01*
X10481030Y-10127546D02*
X10481030Y-10118022D01*
X10481030Y-10118022D02*
X10490554Y-10098974D01*
X10490554Y-10098974D02*
X10509601Y-10089450D01*
X10509601Y-10089450D02*
X10538173Y-10089450D01*
X10538173Y-10089450D02*
X10557220Y-10098974D01*
X10633411Y-10298974D02*
X10642935Y-10289450D01*
X10642935Y-10289450D02*
X10661982Y-10260879D01*
X10661982Y-10260879D02*
X10671506Y-10241831D01*
X10671506Y-10241831D02*
X10681030Y-10213260D01*
X10681030Y-10213260D02*
X10690554Y-10165641D01*
X10690554Y-10165641D02*
X10690554Y-10127546D01*
X10690554Y-10127546D02*
X10681030Y-10079927D01*
X10681030Y-10079927D02*
X10671506Y-10051355D01*
X10671506Y-10051355D02*
X10661982Y-10032308D01*
X10661982Y-10032308D02*
X10642935Y-10003736D01*
X10642935Y-10003736D02*
X10633411Y-9994212D01*
D12*
X4139300Y-10345300D02*
X4239300Y-10445300D01*
X4239300Y-10345300D02*
X4139300Y-10445300D01*
X4239300Y-10395300D02*
G75*
G02*
X4139300Y-10395300I-50000J0D01*
G01*
X4139300Y-10395300D02*
G75*
G02*
X4239300Y-10395300I50000J0D01*
G01*
D11*
X4604839Y-10486784D02*
X4490553Y-10486784D01*
X4547696Y-10486784D02*
X4547696Y-10286784D01*
X4547696Y-10286784D02*
X4528648Y-10315355D01*
X4528648Y-10315355D02*
X4509601Y-10334403D01*
X4509601Y-10334403D02*
X4490553Y-10343927D01*
X4690553Y-10467736D02*
X4700077Y-10477260D01*
X4700077Y-10477260D02*
X4690553Y-10486784D01*
X4690553Y-10486784D02*
X4681029Y-10477260D01*
X4681029Y-10477260D02*
X4690553Y-10467736D01*
X4690553Y-10467736D02*
X4690553Y-10486784D01*
X4823886Y-10286784D02*
X4842934Y-10286784D01*
X4842934Y-10286784D02*
X4861982Y-10296308D01*
X4861982Y-10296308D02*
X4871505Y-10305831D01*
X4871505Y-10305831D02*
X4881029Y-10324879D01*
X4881029Y-10324879D02*
X4890553Y-10362974D01*
X4890553Y-10362974D02*
X4890553Y-10410593D01*
X4890553Y-10410593D02*
X4881029Y-10448689D01*
X4881029Y-10448689D02*
X4871505Y-10467736D01*
X4871505Y-10467736D02*
X4861982Y-10477260D01*
X4861982Y-10477260D02*
X4842934Y-10486784D01*
X4842934Y-10486784D02*
X4823886Y-10486784D01*
X4823886Y-10486784D02*
X4804839Y-10477260D01*
X4804839Y-10477260D02*
X4795315Y-10467736D01*
X4795315Y-10467736D02*
X4785791Y-10448689D01*
X4785791Y-10448689D02*
X4776267Y-10410593D01*
X4776267Y-10410593D02*
X4776267Y-10362974D01*
X4776267Y-10362974D02*
X4785791Y-10324879D01*
X4785791Y-10324879D02*
X4795315Y-10305831D01*
X4795315Y-10305831D02*
X4804839Y-10296308D01*
X4804839Y-10296308D02*
X4823886Y-10286784D01*
X5014363Y-10286784D02*
X5033410Y-10286784D01*
X5033410Y-10286784D02*
X5052458Y-10296308D01*
X5052458Y-10296308D02*
X5061982Y-10305831D01*
X5061982Y-10305831D02*
X5071505Y-10324879D01*
X5071505Y-10324879D02*
X5081029Y-10362974D01*
X5081029Y-10362974D02*
X5081029Y-10410593D01*
X5081029Y-10410593D02*
X5071505Y-10448689D01*
X5071505Y-10448689D02*
X5061982Y-10467736D01*
X5061982Y-10467736D02*
X5052458Y-10477260D01*
X5052458Y-10477260D02*
X5033410Y-10486784D01*
X5033410Y-10486784D02*
X5014363Y-10486784D01*
X5014363Y-10486784D02*
X4995315Y-10477260D01*
X4995315Y-10477260D02*
X4985791Y-10467736D01*
X4985791Y-10467736D02*
X4976267Y-10448689D01*
X4976267Y-10448689D02*
X4966744Y-10410593D01*
X4966744Y-10410593D02*
X4966744Y-10362974D01*
X4966744Y-10362974D02*
X4976267Y-10324879D01*
X4976267Y-10324879D02*
X4985791Y-10305831D01*
X4985791Y-10305831D02*
X4995315Y-10296308D01*
X4995315Y-10296308D02*
X5014363Y-10286784D01*
X5204839Y-10286784D02*
X5223886Y-10286784D01*
X5223886Y-10286784D02*
X5242934Y-10296308D01*
X5242934Y-10296308D02*
X5252458Y-10305831D01*
X5252458Y-10305831D02*
X5261982Y-10324879D01*
X5261982Y-10324879D02*
X5271505Y-10362974D01*
X5271505Y-10362974D02*
X5271505Y-10410593D01*
X5271505Y-10410593D02*
X5261982Y-10448689D01*
X5261982Y-10448689D02*
X5252458Y-10467736D01*
X5252458Y-10467736D02*
X5242934Y-10477260D01*
X5242934Y-10477260D02*
X5223886Y-10486784D01*
X5223886Y-10486784D02*
X5204839Y-10486784D01*
X5204839Y-10486784D02*
X5185791Y-10477260D01*
X5185791Y-10477260D02*
X5176267Y-10467736D01*
X5176267Y-10467736D02*
X5166744Y-10448689D01*
X5166744Y-10448689D02*
X5157220Y-10410593D01*
X5157220Y-10410593D02*
X5157220Y-10362974D01*
X5157220Y-10362974D02*
X5166744Y-10324879D01*
X5166744Y-10324879D02*
X5176267Y-10305831D01*
X5176267Y-10305831D02*
X5185791Y-10296308D01*
X5185791Y-10296308D02*
X5204839Y-10286784D01*
X5357220Y-10486784D02*
X5357220Y-10353450D01*
X5357220Y-10372498D02*
X5366744Y-10362974D01*
X5366744Y-10362974D02*
X5385791Y-10353450D01*
X5385791Y-10353450D02*
X5414363Y-10353450D01*
X5414363Y-10353450D02*
X5433410Y-10362974D01*
X5433410Y-10362974D02*
X5442934Y-10382022D01*
X5442934Y-10382022D02*
X5442934Y-10486784D01*
X5442934Y-10382022D02*
X5452458Y-10362974D01*
X5452458Y-10362974D02*
X5471505Y-10353450D01*
X5471505Y-10353450D02*
X5500077Y-10353450D01*
X5500077Y-10353450D02*
X5519125Y-10362974D01*
X5519125Y-10362974D02*
X5528648Y-10382022D01*
X5528648Y-10382022D02*
X5528648Y-10486784D01*
X5623886Y-10486784D02*
X5623886Y-10353450D01*
X5623886Y-10372498D02*
X5633410Y-10362974D01*
X5633410Y-10362974D02*
X5652458Y-10353450D01*
X5652458Y-10353450D02*
X5681029Y-10353450D01*
X5681029Y-10353450D02*
X5700077Y-10362974D01*
X5700077Y-10362974D02*
X5709601Y-10382022D01*
X5709601Y-10382022D02*
X5709601Y-10486784D01*
X5709601Y-10382022D02*
X5719124Y-10362974D01*
X5719124Y-10362974D02*
X5738172Y-10353450D01*
X5738172Y-10353450D02*
X5766743Y-10353450D01*
X5766743Y-10353450D02*
X5785791Y-10362974D01*
X5785791Y-10362974D02*
X5795315Y-10382022D01*
X5795315Y-10382022D02*
X5795315Y-10486784D01*
X6185791Y-10277260D02*
X6014363Y-10534403D01*
X6442934Y-10286784D02*
X6461982Y-10286784D01*
X6461982Y-10286784D02*
X6481029Y-10296308D01*
X6481029Y-10296308D02*
X6490553Y-10305831D01*
X6490553Y-10305831D02*
X6500077Y-10324879D01*
X6500077Y-10324879D02*
X6509601Y-10362974D01*
X6509601Y-10362974D02*
X6509601Y-10410593D01*
X6509601Y-10410593D02*
X6500077Y-10448689D01*
X6500077Y-10448689D02*
X6490553Y-10467736D01*
X6490553Y-10467736D02*
X6481029Y-10477260D01*
X6481029Y-10477260D02*
X6461982Y-10486784D01*
X6461982Y-10486784D02*
X6442934Y-10486784D01*
X6442934Y-10486784D02*
X6423886Y-10477260D01*
X6423886Y-10477260D02*
X6414363Y-10467736D01*
X6414363Y-10467736D02*
X6404839Y-10448689D01*
X6404839Y-10448689D02*
X6395315Y-10410593D01*
X6395315Y-10410593D02*
X6395315Y-10362974D01*
X6395315Y-10362974D02*
X6404839Y-10324879D01*
X6404839Y-10324879D02*
X6414363Y-10305831D01*
X6414363Y-10305831D02*
X6423886Y-10296308D01*
X6423886Y-10296308D02*
X6442934Y-10286784D01*
X6595315Y-10467736D02*
X6604839Y-10477260D01*
X6604839Y-10477260D02*
X6595315Y-10486784D01*
X6595315Y-10486784D02*
X6585791Y-10477260D01*
X6585791Y-10477260D02*
X6595315Y-10467736D01*
X6595315Y-10467736D02*
X6595315Y-10486784D01*
X6728648Y-10286784D02*
X6747696Y-10286784D01*
X6747696Y-10286784D02*
X6766744Y-10296308D01*
X6766744Y-10296308D02*
X6776267Y-10305831D01*
X6776267Y-10305831D02*
X6785791Y-10324879D01*
X6785791Y-10324879D02*
X6795315Y-10362974D01*
X6795315Y-10362974D02*
X6795315Y-10410593D01*
X6795315Y-10410593D02*
X6785791Y-10448689D01*
X6785791Y-10448689D02*
X6776267Y-10467736D01*
X6776267Y-10467736D02*
X6766744Y-10477260D01*
X6766744Y-10477260D02*
X6747696Y-10486784D01*
X6747696Y-10486784D02*
X6728648Y-10486784D01*
X6728648Y-10486784D02*
X6709601Y-10477260D01*
X6709601Y-10477260D02*
X6700077Y-10467736D01*
X6700077Y-10467736D02*
X6690553Y-10448689D01*
X6690553Y-10448689D02*
X6681029Y-10410593D01*
X6681029Y-10410593D02*
X6681029Y-10362974D01*
X6681029Y-10362974D02*
X6690553Y-10324879D01*
X6690553Y-10324879D02*
X6700077Y-10305831D01*
X6700077Y-10305831D02*
X6709601Y-10296308D01*
X6709601Y-10296308D02*
X6728648Y-10286784D01*
X6861982Y-10286784D02*
X6985791Y-10286784D01*
X6985791Y-10286784D02*
X6919125Y-10362974D01*
X6919125Y-10362974D02*
X6947696Y-10362974D01*
X6947696Y-10362974D02*
X6966744Y-10372498D01*
X6966744Y-10372498D02*
X6976267Y-10382022D01*
X6976267Y-10382022D02*
X6985791Y-10401070D01*
X6985791Y-10401070D02*
X6985791Y-10448689D01*
X6985791Y-10448689D02*
X6976267Y-10467736D01*
X6976267Y-10467736D02*
X6966744Y-10477260D01*
X6966744Y-10477260D02*
X6947696Y-10486784D01*
X6947696Y-10486784D02*
X6890553Y-10486784D01*
X6890553Y-10486784D02*
X6871506Y-10477260D01*
X6871506Y-10477260D02*
X6861982Y-10467736D01*
X7081029Y-10486784D02*
X7119125Y-10486784D01*
X7119125Y-10486784D02*
X7138172Y-10477260D01*
X7138172Y-10477260D02*
X7147696Y-10467736D01*
X7147696Y-10467736D02*
X7166744Y-10439165D01*
X7166744Y-10439165D02*
X7176267Y-10401070D01*
X7176267Y-10401070D02*
X7176267Y-10324879D01*
X7176267Y-10324879D02*
X7166744Y-10305831D01*
X7166744Y-10305831D02*
X7157220Y-10296308D01*
X7157220Y-10296308D02*
X7138172Y-10286784D01*
X7138172Y-10286784D02*
X7100077Y-10286784D01*
X7100077Y-10286784D02*
X7081029Y-10296308D01*
X7081029Y-10296308D02*
X7071506Y-10305831D01*
X7071506Y-10305831D02*
X7061982Y-10324879D01*
X7061982Y-10324879D02*
X7061982Y-10372498D01*
X7061982Y-10372498D02*
X7071506Y-10391546D01*
X7071506Y-10391546D02*
X7081029Y-10401070D01*
X7081029Y-10401070D02*
X7100077Y-10410593D01*
X7100077Y-10410593D02*
X7138172Y-10410593D01*
X7138172Y-10410593D02*
X7157220Y-10401070D01*
X7157220Y-10401070D02*
X7166744Y-10391546D01*
X7166744Y-10391546D02*
X7176267Y-10372498D01*
X7347696Y-10353450D02*
X7347696Y-10486784D01*
X7300077Y-10277260D02*
X7252458Y-10420117D01*
X7252458Y-10420117D02*
X7376267Y-10420117D01*
X7442934Y-10286784D02*
X7442934Y-10324879D01*
X7519125Y-10286784D02*
X7519125Y-10324879D01*
X7814363Y-10562974D02*
X7804839Y-10553450D01*
X7804839Y-10553450D02*
X7785791Y-10524879D01*
X7785791Y-10524879D02*
X7776268Y-10505831D01*
X7776268Y-10505831D02*
X7766744Y-10477260D01*
X7766744Y-10477260D02*
X7757220Y-10429641D01*
X7757220Y-10429641D02*
X7757220Y-10391546D01*
X7757220Y-10391546D02*
X7766744Y-10343927D01*
X7766744Y-10343927D02*
X7776268Y-10315355D01*
X7776268Y-10315355D02*
X7785791Y-10296308D01*
X7785791Y-10296308D02*
X7804839Y-10267736D01*
X7804839Y-10267736D02*
X7814363Y-10258212D01*
X7976268Y-10353450D02*
X7976268Y-10486784D01*
X7928648Y-10277260D02*
X7881029Y-10420117D01*
X7881029Y-10420117D02*
X8004839Y-10420117D01*
X8233410Y-10486784D02*
X8233410Y-10286784D01*
X8319125Y-10486784D02*
X8319125Y-10382022D01*
X8319125Y-10382022D02*
X8309601Y-10362974D01*
X8309601Y-10362974D02*
X8290553Y-10353450D01*
X8290553Y-10353450D02*
X8261982Y-10353450D01*
X8261982Y-10353450D02*
X8242934Y-10362974D01*
X8242934Y-10362974D02*
X8233410Y-10372498D01*
X8442934Y-10486784D02*
X8423887Y-10477260D01*
X8423887Y-10477260D02*
X8414363Y-10467736D01*
X8414363Y-10467736D02*
X8404839Y-10448689D01*
X8404839Y-10448689D02*
X8404839Y-10391546D01*
X8404839Y-10391546D02*
X8414363Y-10372498D01*
X8414363Y-10372498D02*
X8423887Y-10362974D01*
X8423887Y-10362974D02*
X8442934Y-10353450D01*
X8442934Y-10353450D02*
X8471506Y-10353450D01*
X8471506Y-10353450D02*
X8490553Y-10362974D01*
X8490553Y-10362974D02*
X8500077Y-10372498D01*
X8500077Y-10372498D02*
X8509601Y-10391546D01*
X8509601Y-10391546D02*
X8509601Y-10448689D01*
X8509601Y-10448689D02*
X8500077Y-10467736D01*
X8500077Y-10467736D02*
X8490553Y-10477260D01*
X8490553Y-10477260D02*
X8471506Y-10486784D01*
X8471506Y-10486784D02*
X8442934Y-10486784D01*
X8623887Y-10486784D02*
X8604839Y-10477260D01*
X8604839Y-10477260D02*
X8595315Y-10458212D01*
X8595315Y-10458212D02*
X8595315Y-10286784D01*
X8776268Y-10477260D02*
X8757220Y-10486784D01*
X8757220Y-10486784D02*
X8719125Y-10486784D01*
X8719125Y-10486784D02*
X8700077Y-10477260D01*
X8700077Y-10477260D02*
X8690553Y-10458212D01*
X8690553Y-10458212D02*
X8690553Y-10382022D01*
X8690553Y-10382022D02*
X8700077Y-10362974D01*
X8700077Y-10362974D02*
X8719125Y-10353450D01*
X8719125Y-10353450D02*
X8757220Y-10353450D01*
X8757220Y-10353450D02*
X8776268Y-10362974D01*
X8776268Y-10362974D02*
X8785792Y-10382022D01*
X8785792Y-10382022D02*
X8785792Y-10401070D01*
X8785792Y-10401070D02*
X8690553Y-10420117D01*
X8861982Y-10477260D02*
X8881030Y-10486784D01*
X8881030Y-10486784D02*
X8919125Y-10486784D01*
X8919125Y-10486784D02*
X8938173Y-10477260D01*
X8938173Y-10477260D02*
X8947696Y-10458212D01*
X8947696Y-10458212D02*
X8947696Y-10448689D01*
X8947696Y-10448689D02*
X8938173Y-10429641D01*
X8938173Y-10429641D02*
X8919125Y-10420117D01*
X8919125Y-10420117D02*
X8890553Y-10420117D01*
X8890553Y-10420117D02*
X8871506Y-10410593D01*
X8871506Y-10410593D02*
X8861982Y-10391546D01*
X8861982Y-10391546D02*
X8861982Y-10382022D01*
X8861982Y-10382022D02*
X8871506Y-10362974D01*
X8871506Y-10362974D02*
X8890553Y-10353450D01*
X8890553Y-10353450D02*
X8919125Y-10353450D01*
X8919125Y-10353450D02*
X8938173Y-10362974D01*
X9014363Y-10562974D02*
X9023887Y-10553450D01*
X9023887Y-10553450D02*
X9042934Y-10524879D01*
X9042934Y-10524879D02*
X9052458Y-10505831D01*
X9052458Y-10505831D02*
X9061982Y-10477260D01*
X9061982Y-10477260D02*
X9071506Y-10429641D01*
X9071506Y-10429641D02*
X9071506Y-10391546D01*
X9071506Y-10391546D02*
X9061982Y-10343927D01*
X9061982Y-10343927D02*
X9052458Y-10315355D01*
X9052458Y-10315355D02*
X9042934Y-10296308D01*
X9042934Y-10296308D02*
X9023887Y-10267736D01*
X9023887Y-10267736D02*
X9014363Y-10258212D01*
D13*
X4129300Y-10604300D02*
X4239300Y-10714300D01*
X4239300Y-10604300D02*
X4129300Y-10714300D01*
X4184300Y-10604300D02*
X4184300Y-10714300D01*
X4129300Y-10659300D02*
X4239300Y-10659300D01*
D11*
X4604839Y-10750784D02*
X4490553Y-10750784D01*
X4547696Y-10750784D02*
X4547696Y-10550784D01*
X4547696Y-10550784D02*
X4528648Y-10579355D01*
X4528648Y-10579355D02*
X4509601Y-10598403D01*
X4509601Y-10598403D02*
X4490553Y-10607927D01*
X4690553Y-10731736D02*
X4700077Y-10741260D01*
X4700077Y-10741260D02*
X4690553Y-10750784D01*
X4690553Y-10750784D02*
X4681029Y-10741260D01*
X4681029Y-10741260D02*
X4690553Y-10731736D01*
X4690553Y-10731736D02*
X4690553Y-10750784D01*
X4890553Y-10750784D02*
X4776267Y-10750784D01*
X4833410Y-10750784D02*
X4833410Y-10550784D01*
X4833410Y-10550784D02*
X4814363Y-10579355D01*
X4814363Y-10579355D02*
X4795315Y-10598403D01*
X4795315Y-10598403D02*
X4776267Y-10607927D01*
X5014363Y-10550784D02*
X5033410Y-10550784D01*
X5033410Y-10550784D02*
X5052458Y-10560308D01*
X5052458Y-10560308D02*
X5061982Y-10569831D01*
X5061982Y-10569831D02*
X5071505Y-10588879D01*
X5071505Y-10588879D02*
X5081029Y-10626974D01*
X5081029Y-10626974D02*
X5081029Y-10674593D01*
X5081029Y-10674593D02*
X5071505Y-10712689D01*
X5071505Y-10712689D02*
X5061982Y-10731736D01*
X5061982Y-10731736D02*
X5052458Y-10741260D01*
X5052458Y-10741260D02*
X5033410Y-10750784D01*
X5033410Y-10750784D02*
X5014363Y-10750784D01*
X5014363Y-10750784D02*
X4995315Y-10741260D01*
X4995315Y-10741260D02*
X4985791Y-10731736D01*
X4985791Y-10731736D02*
X4976267Y-10712689D01*
X4976267Y-10712689D02*
X4966744Y-10674593D01*
X4966744Y-10674593D02*
X4966744Y-10626974D01*
X4966744Y-10626974D02*
X4976267Y-10588879D01*
X4976267Y-10588879D02*
X4985791Y-10569831D01*
X4985791Y-10569831D02*
X4995315Y-10560308D01*
X4995315Y-10560308D02*
X5014363Y-10550784D01*
X5204839Y-10550784D02*
X5223886Y-10550784D01*
X5223886Y-10550784D02*
X5242934Y-10560308D01*
X5242934Y-10560308D02*
X5252458Y-10569831D01*
X5252458Y-10569831D02*
X5261982Y-10588879D01*
X5261982Y-10588879D02*
X5271505Y-10626974D01*
X5271505Y-10626974D02*
X5271505Y-10674593D01*
X5271505Y-10674593D02*
X5261982Y-10712689D01*
X5261982Y-10712689D02*
X5252458Y-10731736D01*
X5252458Y-10731736D02*
X5242934Y-10741260D01*
X5242934Y-10741260D02*
X5223886Y-10750784D01*
X5223886Y-10750784D02*
X5204839Y-10750784D01*
X5204839Y-10750784D02*
X5185791Y-10741260D01*
X5185791Y-10741260D02*
X5176267Y-10731736D01*
X5176267Y-10731736D02*
X5166744Y-10712689D01*
X5166744Y-10712689D02*
X5157220Y-10674593D01*
X5157220Y-10674593D02*
X5157220Y-10626974D01*
X5157220Y-10626974D02*
X5166744Y-10588879D01*
X5166744Y-10588879D02*
X5176267Y-10569831D01*
X5176267Y-10569831D02*
X5185791Y-10560308D01*
X5185791Y-10560308D02*
X5204839Y-10550784D01*
X5357220Y-10750784D02*
X5357220Y-10617450D01*
X5357220Y-10636498D02*
X5366744Y-10626974D01*
X5366744Y-10626974D02*
X5385791Y-10617450D01*
X5385791Y-10617450D02*
X5414363Y-10617450D01*
X5414363Y-10617450D02*
X5433410Y-10626974D01*
X5433410Y-10626974D02*
X5442934Y-10646022D01*
X5442934Y-10646022D02*
X5442934Y-10750784D01*
X5442934Y-10646022D02*
X5452458Y-10626974D01*
X5452458Y-10626974D02*
X5471505Y-10617450D01*
X5471505Y-10617450D02*
X5500077Y-10617450D01*
X5500077Y-10617450D02*
X5519125Y-10626974D01*
X5519125Y-10626974D02*
X5528648Y-10646022D01*
X5528648Y-10646022D02*
X5528648Y-10750784D01*
X5623886Y-10750784D02*
X5623886Y-10617450D01*
X5623886Y-10636498D02*
X5633410Y-10626974D01*
X5633410Y-10626974D02*
X5652458Y-10617450D01*
X5652458Y-10617450D02*
X5681029Y-10617450D01*
X5681029Y-10617450D02*
X5700077Y-10626974D01*
X5700077Y-10626974D02*
X5709601Y-10646022D01*
X5709601Y-10646022D02*
X5709601Y-10750784D01*
X5709601Y-10646022D02*
X5719124Y-10626974D01*
X5719124Y-10626974D02*
X5738172Y-10617450D01*
X5738172Y-10617450D02*
X5766743Y-10617450D01*
X5766743Y-10617450D02*
X5785791Y-10626974D01*
X5785791Y-10626974D02*
X5795315Y-10646022D01*
X5795315Y-10646022D02*
X5795315Y-10750784D01*
X6185791Y-10541260D02*
X6014363Y-10798403D01*
X6442934Y-10550784D02*
X6461982Y-10550784D01*
X6461982Y-10550784D02*
X6481029Y-10560308D01*
X6481029Y-10560308D02*
X6490553Y-10569831D01*
X6490553Y-10569831D02*
X6500077Y-10588879D01*
X6500077Y-10588879D02*
X6509601Y-10626974D01*
X6509601Y-10626974D02*
X6509601Y-10674593D01*
X6509601Y-10674593D02*
X6500077Y-10712689D01*
X6500077Y-10712689D02*
X6490553Y-10731736D01*
X6490553Y-10731736D02*
X6481029Y-10741260D01*
X6481029Y-10741260D02*
X6461982Y-10750784D01*
X6461982Y-10750784D02*
X6442934Y-10750784D01*
X6442934Y-10750784D02*
X6423886Y-10741260D01*
X6423886Y-10741260D02*
X6414363Y-10731736D01*
X6414363Y-10731736D02*
X6404839Y-10712689D01*
X6404839Y-10712689D02*
X6395315Y-10674593D01*
X6395315Y-10674593D02*
X6395315Y-10626974D01*
X6395315Y-10626974D02*
X6404839Y-10588879D01*
X6404839Y-10588879D02*
X6414363Y-10569831D01*
X6414363Y-10569831D02*
X6423886Y-10560308D01*
X6423886Y-10560308D02*
X6442934Y-10550784D01*
X6595315Y-10731736D02*
X6604839Y-10741260D01*
X6604839Y-10741260D02*
X6595315Y-10750784D01*
X6595315Y-10750784D02*
X6585791Y-10741260D01*
X6585791Y-10741260D02*
X6595315Y-10731736D01*
X6595315Y-10731736D02*
X6595315Y-10750784D01*
X6728648Y-10550784D02*
X6747696Y-10550784D01*
X6747696Y-10550784D02*
X6766744Y-10560308D01*
X6766744Y-10560308D02*
X6776267Y-10569831D01*
X6776267Y-10569831D02*
X6785791Y-10588879D01*
X6785791Y-10588879D02*
X6795315Y-10626974D01*
X6795315Y-10626974D02*
X6795315Y-10674593D01*
X6795315Y-10674593D02*
X6785791Y-10712689D01*
X6785791Y-10712689D02*
X6776267Y-10731736D01*
X6776267Y-10731736D02*
X6766744Y-10741260D01*
X6766744Y-10741260D02*
X6747696Y-10750784D01*
X6747696Y-10750784D02*
X6728648Y-10750784D01*
X6728648Y-10750784D02*
X6709601Y-10741260D01*
X6709601Y-10741260D02*
X6700077Y-10731736D01*
X6700077Y-10731736D02*
X6690553Y-10712689D01*
X6690553Y-10712689D02*
X6681029Y-10674593D01*
X6681029Y-10674593D02*
X6681029Y-10626974D01*
X6681029Y-10626974D02*
X6690553Y-10588879D01*
X6690553Y-10588879D02*
X6700077Y-10569831D01*
X6700077Y-10569831D02*
X6709601Y-10560308D01*
X6709601Y-10560308D02*
X6728648Y-10550784D01*
X6966744Y-10617450D02*
X6966744Y-10750784D01*
X6919125Y-10541260D02*
X6871506Y-10684117D01*
X6871506Y-10684117D02*
X6995315Y-10684117D01*
X7052458Y-10550784D02*
X7176267Y-10550784D01*
X7176267Y-10550784D02*
X7109601Y-10626974D01*
X7109601Y-10626974D02*
X7138172Y-10626974D01*
X7138172Y-10626974D02*
X7157220Y-10636498D01*
X7157220Y-10636498D02*
X7166744Y-10646022D01*
X7166744Y-10646022D02*
X7176267Y-10665070D01*
X7176267Y-10665070D02*
X7176267Y-10712689D01*
X7176267Y-10712689D02*
X7166744Y-10731736D01*
X7166744Y-10731736D02*
X7157220Y-10741260D01*
X7157220Y-10741260D02*
X7138172Y-10750784D01*
X7138172Y-10750784D02*
X7081029Y-10750784D01*
X7081029Y-10750784D02*
X7061982Y-10741260D01*
X7061982Y-10741260D02*
X7052458Y-10731736D01*
X7242934Y-10550784D02*
X7366744Y-10550784D01*
X7366744Y-10550784D02*
X7300077Y-10626974D01*
X7300077Y-10626974D02*
X7328648Y-10626974D01*
X7328648Y-10626974D02*
X7347696Y-10636498D01*
X7347696Y-10636498D02*
X7357220Y-10646022D01*
X7357220Y-10646022D02*
X7366744Y-10665070D01*
X7366744Y-10665070D02*
X7366744Y-10712689D01*
X7366744Y-10712689D02*
X7357220Y-10731736D01*
X7357220Y-10731736D02*
X7347696Y-10741260D01*
X7347696Y-10741260D02*
X7328648Y-10750784D01*
X7328648Y-10750784D02*
X7271506Y-10750784D01*
X7271506Y-10750784D02*
X7252458Y-10741260D01*
X7252458Y-10741260D02*
X7242934Y-10731736D01*
X7442934Y-10550784D02*
X7442934Y-10588879D01*
X7519125Y-10550784D02*
X7519125Y-10588879D01*
X7814363Y-10826974D02*
X7804839Y-10817450D01*
X7804839Y-10817450D02*
X7785791Y-10788879D01*
X7785791Y-10788879D02*
X7776268Y-10769831D01*
X7776268Y-10769831D02*
X7766744Y-10741260D01*
X7766744Y-10741260D02*
X7757220Y-10693641D01*
X7757220Y-10693641D02*
X7757220Y-10655546D01*
X7757220Y-10655546D02*
X7766744Y-10607927D01*
X7766744Y-10607927D02*
X7776268Y-10579355D01*
X7776268Y-10579355D02*
X7785791Y-10560308D01*
X7785791Y-10560308D02*
X7804839Y-10531736D01*
X7804839Y-10531736D02*
X7814363Y-10522212D01*
X7881029Y-10569831D02*
X7890553Y-10560308D01*
X7890553Y-10560308D02*
X7909601Y-10550784D01*
X7909601Y-10550784D02*
X7957220Y-10550784D01*
X7957220Y-10550784D02*
X7976268Y-10560308D01*
X7976268Y-10560308D02*
X7985791Y-10569831D01*
X7985791Y-10569831D02*
X7995315Y-10588879D01*
X7995315Y-10588879D02*
X7995315Y-10607927D01*
X7995315Y-10607927D02*
X7985791Y-10636498D01*
X7985791Y-10636498D02*
X7871506Y-10750784D01*
X7871506Y-10750784D02*
X7995315Y-10750784D01*
X8233410Y-10750784D02*
X8233410Y-10550784D01*
X8319125Y-10750784D02*
X8319125Y-10646022D01*
X8319125Y-10646022D02*
X8309601Y-10626974D01*
X8309601Y-10626974D02*
X8290553Y-10617450D01*
X8290553Y-10617450D02*
X8261982Y-10617450D01*
X8261982Y-10617450D02*
X8242934Y-10626974D01*
X8242934Y-10626974D02*
X8233410Y-10636498D01*
X8442934Y-10750784D02*
X8423887Y-10741260D01*
X8423887Y-10741260D02*
X8414363Y-10731736D01*
X8414363Y-10731736D02*
X8404839Y-10712689D01*
X8404839Y-10712689D02*
X8404839Y-10655546D01*
X8404839Y-10655546D02*
X8414363Y-10636498D01*
X8414363Y-10636498D02*
X8423887Y-10626974D01*
X8423887Y-10626974D02*
X8442934Y-10617450D01*
X8442934Y-10617450D02*
X8471506Y-10617450D01*
X8471506Y-10617450D02*
X8490553Y-10626974D01*
X8490553Y-10626974D02*
X8500077Y-10636498D01*
X8500077Y-10636498D02*
X8509601Y-10655546D01*
X8509601Y-10655546D02*
X8509601Y-10712689D01*
X8509601Y-10712689D02*
X8500077Y-10731736D01*
X8500077Y-10731736D02*
X8490553Y-10741260D01*
X8490553Y-10741260D02*
X8471506Y-10750784D01*
X8471506Y-10750784D02*
X8442934Y-10750784D01*
X8623887Y-10750784D02*
X8604839Y-10741260D01*
X8604839Y-10741260D02*
X8595315Y-10722212D01*
X8595315Y-10722212D02*
X8595315Y-10550784D01*
X8776268Y-10741260D02*
X8757220Y-10750784D01*
X8757220Y-10750784D02*
X8719125Y-10750784D01*
X8719125Y-10750784D02*
X8700077Y-10741260D01*
X8700077Y-10741260D02*
X8690553Y-10722212D01*
X8690553Y-10722212D02*
X8690553Y-10646022D01*
X8690553Y-10646022D02*
X8700077Y-10626974D01*
X8700077Y-10626974D02*
X8719125Y-10617450D01*
X8719125Y-10617450D02*
X8757220Y-10617450D01*
X8757220Y-10617450D02*
X8776268Y-10626974D01*
X8776268Y-10626974D02*
X8785792Y-10646022D01*
X8785792Y-10646022D02*
X8785792Y-10665070D01*
X8785792Y-10665070D02*
X8690553Y-10684117D01*
X8861982Y-10741260D02*
X8881030Y-10750784D01*
X8881030Y-10750784D02*
X8919125Y-10750784D01*
X8919125Y-10750784D02*
X8938173Y-10741260D01*
X8938173Y-10741260D02*
X8947696Y-10722212D01*
X8947696Y-10722212D02*
X8947696Y-10712689D01*
X8947696Y-10712689D02*
X8938173Y-10693641D01*
X8938173Y-10693641D02*
X8919125Y-10684117D01*
X8919125Y-10684117D02*
X8890553Y-10684117D01*
X8890553Y-10684117D02*
X8871506Y-10674593D01*
X8871506Y-10674593D02*
X8861982Y-10655546D01*
X8861982Y-10655546D02*
X8861982Y-10646022D01*
X8861982Y-10646022D02*
X8871506Y-10626974D01*
X8871506Y-10626974D02*
X8890553Y-10617450D01*
X8890553Y-10617450D02*
X8919125Y-10617450D01*
X8919125Y-10617450D02*
X8938173Y-10626974D01*
X9014363Y-10826974D02*
X9023887Y-10817450D01*
X9023887Y-10817450D02*
X9042934Y-10788879D01*
X9042934Y-10788879D02*
X9052458Y-10769831D01*
X9052458Y-10769831D02*
X9061982Y-10741260D01*
X9061982Y-10741260D02*
X9071506Y-10693641D01*
X9071506Y-10693641D02*
X9071506Y-10655546D01*
X9071506Y-10655546D02*
X9061982Y-10607927D01*
X9061982Y-10607927D02*
X9052458Y-10579355D01*
X9052458Y-10579355D02*
X9042934Y-10560308D01*
X9042934Y-10560308D02*
X9023887Y-10531736D01*
X9023887Y-10531736D02*
X9014363Y-10522212D01*
X4039300Y-10823300D02*
X4239300Y-11023300D01*
X4239300Y-10823300D02*
X4039300Y-11023300D01*
X4210011Y-10994011D02*
X4210011Y-10852589D01*
X4068589Y-10852589D01*
X4068589Y-10994011D01*
X4210011Y-10994011D01*
X4481029Y-10814784D02*
X4604839Y-10814784D01*
X4604839Y-10814784D02*
X4538172Y-10890974D01*
X4538172Y-10890974D02*
X4566744Y-10890974D01*
X4566744Y-10890974D02*
X4585791Y-10900498D01*
X4585791Y-10900498D02*
X4595315Y-10910022D01*
X4595315Y-10910022D02*
X4604839Y-10929070D01*
X4604839Y-10929070D02*
X4604839Y-10976689D01*
X4604839Y-10976689D02*
X4595315Y-10995736D01*
X4595315Y-10995736D02*
X4585791Y-11005260D01*
X4585791Y-11005260D02*
X4566744Y-11014784D01*
X4566744Y-11014784D02*
X4509601Y-11014784D01*
X4509601Y-11014784D02*
X4490553Y-11005260D01*
X4490553Y-11005260D02*
X4481029Y-10995736D01*
X4690553Y-10995736D02*
X4700077Y-11005260D01*
X4700077Y-11005260D02*
X4690553Y-11014784D01*
X4690553Y-11014784D02*
X4681029Y-11005260D01*
X4681029Y-11005260D02*
X4690553Y-10995736D01*
X4690553Y-10995736D02*
X4690553Y-11014784D01*
X4776267Y-10833831D02*
X4785791Y-10824308D01*
X4785791Y-10824308D02*
X4804839Y-10814784D01*
X4804839Y-10814784D02*
X4852458Y-10814784D01*
X4852458Y-10814784D02*
X4871505Y-10824308D01*
X4871505Y-10824308D02*
X4881029Y-10833831D01*
X4881029Y-10833831D02*
X4890553Y-10852879D01*
X4890553Y-10852879D02*
X4890553Y-10871927D01*
X4890553Y-10871927D02*
X4881029Y-10900498D01*
X4881029Y-10900498D02*
X4766744Y-11014784D01*
X4766744Y-11014784D02*
X4890553Y-11014784D01*
X5014363Y-10814784D02*
X5033410Y-10814784D01*
X5033410Y-10814784D02*
X5052458Y-10824308D01*
X5052458Y-10824308D02*
X5061982Y-10833831D01*
X5061982Y-10833831D02*
X5071505Y-10852879D01*
X5071505Y-10852879D02*
X5081029Y-10890974D01*
X5081029Y-10890974D02*
X5081029Y-10938593D01*
X5081029Y-10938593D02*
X5071505Y-10976689D01*
X5071505Y-10976689D02*
X5061982Y-10995736D01*
X5061982Y-10995736D02*
X5052458Y-11005260D01*
X5052458Y-11005260D02*
X5033410Y-11014784D01*
X5033410Y-11014784D02*
X5014363Y-11014784D01*
X5014363Y-11014784D02*
X4995315Y-11005260D01*
X4995315Y-11005260D02*
X4985791Y-10995736D01*
X4985791Y-10995736D02*
X4976267Y-10976689D01*
X4976267Y-10976689D02*
X4966744Y-10938593D01*
X4966744Y-10938593D02*
X4966744Y-10890974D01*
X4966744Y-10890974D02*
X4976267Y-10852879D01*
X4976267Y-10852879D02*
X4985791Y-10833831D01*
X4985791Y-10833831D02*
X4995315Y-10824308D01*
X4995315Y-10824308D02*
X5014363Y-10814784D01*
X5204839Y-10814784D02*
X5223886Y-10814784D01*
X5223886Y-10814784D02*
X5242934Y-10824308D01*
X5242934Y-10824308D02*
X5252458Y-10833831D01*
X5252458Y-10833831D02*
X5261982Y-10852879D01*
X5261982Y-10852879D02*
X5271505Y-10890974D01*
X5271505Y-10890974D02*
X5271505Y-10938593D01*
X5271505Y-10938593D02*
X5261982Y-10976689D01*
X5261982Y-10976689D02*
X5252458Y-10995736D01*
X5252458Y-10995736D02*
X5242934Y-11005260D01*
X5242934Y-11005260D02*
X5223886Y-11014784D01*
X5223886Y-11014784D02*
X5204839Y-11014784D01*
X5204839Y-11014784D02*
X5185791Y-11005260D01*
X5185791Y-11005260D02*
X5176267Y-10995736D01*
X5176267Y-10995736D02*
X5166744Y-10976689D01*
X5166744Y-10976689D02*
X5157220Y-10938593D01*
X5157220Y-10938593D02*
X5157220Y-10890974D01*
X5157220Y-10890974D02*
X5166744Y-10852879D01*
X5166744Y-10852879D02*
X5176267Y-10833831D01*
X5176267Y-10833831D02*
X5185791Y-10824308D01*
X5185791Y-10824308D02*
X5204839Y-10814784D01*
X5357220Y-11014784D02*
X5357220Y-10881450D01*
X5357220Y-10900498D02*
X5366744Y-10890974D01*
X5366744Y-10890974D02*
X5385791Y-10881450D01*
X5385791Y-10881450D02*
X5414363Y-10881450D01*
X5414363Y-10881450D02*
X5433410Y-10890974D01*
X5433410Y-10890974D02*
X5442934Y-10910022D01*
X5442934Y-10910022D02*
X5442934Y-11014784D01*
X5442934Y-10910022D02*
X5452458Y-10890974D01*
X5452458Y-10890974D02*
X5471505Y-10881450D01*
X5471505Y-10881450D02*
X5500077Y-10881450D01*
X5500077Y-10881450D02*
X5519125Y-10890974D01*
X5519125Y-10890974D02*
X5528648Y-10910022D01*
X5528648Y-10910022D02*
X5528648Y-11014784D01*
X5623886Y-11014784D02*
X5623886Y-10881450D01*
X5623886Y-10900498D02*
X5633410Y-10890974D01*
X5633410Y-10890974D02*
X5652458Y-10881450D01*
X5652458Y-10881450D02*
X5681029Y-10881450D01*
X5681029Y-10881450D02*
X5700077Y-10890974D01*
X5700077Y-10890974D02*
X5709601Y-10910022D01*
X5709601Y-10910022D02*
X5709601Y-11014784D01*
X5709601Y-10910022D02*
X5719124Y-10890974D01*
X5719124Y-10890974D02*
X5738172Y-10881450D01*
X5738172Y-10881450D02*
X5766743Y-10881450D01*
X5766743Y-10881450D02*
X5785791Y-10890974D01*
X5785791Y-10890974D02*
X5795315Y-10910022D01*
X5795315Y-10910022D02*
X5795315Y-11014784D01*
X6185791Y-10805260D02*
X6014363Y-11062403D01*
X6442934Y-10814784D02*
X6461982Y-10814784D01*
X6461982Y-10814784D02*
X6481029Y-10824308D01*
X6481029Y-10824308D02*
X6490553Y-10833831D01*
X6490553Y-10833831D02*
X6500077Y-10852879D01*
X6500077Y-10852879D02*
X6509601Y-10890974D01*
X6509601Y-10890974D02*
X6509601Y-10938593D01*
X6509601Y-10938593D02*
X6500077Y-10976689D01*
X6500077Y-10976689D02*
X6490553Y-10995736D01*
X6490553Y-10995736D02*
X6481029Y-11005260D01*
X6481029Y-11005260D02*
X6461982Y-11014784D01*
X6461982Y-11014784D02*
X6442934Y-11014784D01*
X6442934Y-11014784D02*
X6423886Y-11005260D01*
X6423886Y-11005260D02*
X6414363Y-10995736D01*
X6414363Y-10995736D02*
X6404839Y-10976689D01*
X6404839Y-10976689D02*
X6395315Y-10938593D01*
X6395315Y-10938593D02*
X6395315Y-10890974D01*
X6395315Y-10890974D02*
X6404839Y-10852879D01*
X6404839Y-10852879D02*
X6414363Y-10833831D01*
X6414363Y-10833831D02*
X6423886Y-10824308D01*
X6423886Y-10824308D02*
X6442934Y-10814784D01*
X6595315Y-10995736D02*
X6604839Y-11005260D01*
X6604839Y-11005260D02*
X6595315Y-11014784D01*
X6595315Y-11014784D02*
X6585791Y-11005260D01*
X6585791Y-11005260D02*
X6595315Y-10995736D01*
X6595315Y-10995736D02*
X6595315Y-11014784D01*
X6795315Y-11014784D02*
X6681029Y-11014784D01*
X6738172Y-11014784D02*
X6738172Y-10814784D01*
X6738172Y-10814784D02*
X6719125Y-10843355D01*
X6719125Y-10843355D02*
X6700077Y-10862403D01*
X6700077Y-10862403D02*
X6681029Y-10871927D01*
X6871506Y-10833831D02*
X6881029Y-10824308D01*
X6881029Y-10824308D02*
X6900077Y-10814784D01*
X6900077Y-10814784D02*
X6947696Y-10814784D01*
X6947696Y-10814784D02*
X6966744Y-10824308D01*
X6966744Y-10824308D02*
X6976267Y-10833831D01*
X6976267Y-10833831D02*
X6985791Y-10852879D01*
X6985791Y-10852879D02*
X6985791Y-10871927D01*
X6985791Y-10871927D02*
X6976267Y-10900498D01*
X6976267Y-10900498D02*
X6861982Y-11014784D01*
X6861982Y-11014784D02*
X6985791Y-11014784D01*
X7157220Y-10814784D02*
X7119125Y-10814784D01*
X7119125Y-10814784D02*
X7100077Y-10824308D01*
X7100077Y-10824308D02*
X7090553Y-10833831D01*
X7090553Y-10833831D02*
X7071506Y-10862403D01*
X7071506Y-10862403D02*
X7061982Y-10900498D01*
X7061982Y-10900498D02*
X7061982Y-10976689D01*
X7061982Y-10976689D02*
X7071506Y-10995736D01*
X7071506Y-10995736D02*
X7081029Y-11005260D01*
X7081029Y-11005260D02*
X7100077Y-11014784D01*
X7100077Y-11014784D02*
X7138172Y-11014784D01*
X7138172Y-11014784D02*
X7157220Y-11005260D01*
X7157220Y-11005260D02*
X7166744Y-10995736D01*
X7166744Y-10995736D02*
X7176267Y-10976689D01*
X7176267Y-10976689D02*
X7176267Y-10929070D01*
X7176267Y-10929070D02*
X7166744Y-10910022D01*
X7166744Y-10910022D02*
X7157220Y-10900498D01*
X7157220Y-10900498D02*
X7138172Y-10890974D01*
X7138172Y-10890974D02*
X7100077Y-10890974D01*
X7100077Y-10890974D02*
X7081029Y-10900498D01*
X7081029Y-10900498D02*
X7071506Y-10910022D01*
X7071506Y-10910022D02*
X7061982Y-10929070D01*
X7300077Y-10814784D02*
X7319125Y-10814784D01*
X7319125Y-10814784D02*
X7338172Y-10824308D01*
X7338172Y-10824308D02*
X7347696Y-10833831D01*
X7347696Y-10833831D02*
X7357220Y-10852879D01*
X7357220Y-10852879D02*
X7366744Y-10890974D01*
X7366744Y-10890974D02*
X7366744Y-10938593D01*
X7366744Y-10938593D02*
X7357220Y-10976689D01*
X7357220Y-10976689D02*
X7347696Y-10995736D01*
X7347696Y-10995736D02*
X7338172Y-11005260D01*
X7338172Y-11005260D02*
X7319125Y-11014784D01*
X7319125Y-11014784D02*
X7300077Y-11014784D01*
X7300077Y-11014784D02*
X7281029Y-11005260D01*
X7281029Y-11005260D02*
X7271506Y-10995736D01*
X7271506Y-10995736D02*
X7261982Y-10976689D01*
X7261982Y-10976689D02*
X7252458Y-10938593D01*
X7252458Y-10938593D02*
X7252458Y-10890974D01*
X7252458Y-10890974D02*
X7261982Y-10852879D01*
X7261982Y-10852879D02*
X7271506Y-10833831D01*
X7271506Y-10833831D02*
X7281029Y-10824308D01*
X7281029Y-10824308D02*
X7300077Y-10814784D01*
X7442934Y-10814784D02*
X7442934Y-10852879D01*
X7519125Y-10814784D02*
X7519125Y-10852879D01*
X7814363Y-11090974D02*
X7804839Y-11081450D01*
X7804839Y-11081450D02*
X7785791Y-11052879D01*
X7785791Y-11052879D02*
X7776268Y-11033831D01*
X7776268Y-11033831D02*
X7766744Y-11005260D01*
X7766744Y-11005260D02*
X7757220Y-10957641D01*
X7757220Y-10957641D02*
X7757220Y-10919546D01*
X7757220Y-10919546D02*
X7766744Y-10871927D01*
X7766744Y-10871927D02*
X7776268Y-10843355D01*
X7776268Y-10843355D02*
X7785791Y-10824308D01*
X7785791Y-10824308D02*
X7804839Y-10795736D01*
X7804839Y-10795736D02*
X7814363Y-10786212D01*
X7881029Y-10833831D02*
X7890553Y-10824308D01*
X7890553Y-10824308D02*
X7909601Y-10814784D01*
X7909601Y-10814784D02*
X7957220Y-10814784D01*
X7957220Y-10814784D02*
X7976268Y-10824308D01*
X7976268Y-10824308D02*
X7985791Y-10833831D01*
X7985791Y-10833831D02*
X7995315Y-10852879D01*
X7995315Y-10852879D02*
X7995315Y-10871927D01*
X7995315Y-10871927D02*
X7985791Y-10900498D01*
X7985791Y-10900498D02*
X7871506Y-11014784D01*
X7871506Y-11014784D02*
X7995315Y-11014784D01*
X8233410Y-11014784D02*
X8233410Y-10814784D01*
X8319125Y-11014784D02*
X8319125Y-10910022D01*
X8319125Y-10910022D02*
X8309601Y-10890974D01*
X8309601Y-10890974D02*
X8290553Y-10881450D01*
X8290553Y-10881450D02*
X8261982Y-10881450D01*
X8261982Y-10881450D02*
X8242934Y-10890974D01*
X8242934Y-10890974D02*
X8233410Y-10900498D01*
X8442934Y-11014784D02*
X8423887Y-11005260D01*
X8423887Y-11005260D02*
X8414363Y-10995736D01*
X8414363Y-10995736D02*
X8404839Y-10976689D01*
X8404839Y-10976689D02*
X8404839Y-10919546D01*
X8404839Y-10919546D02*
X8414363Y-10900498D01*
X8414363Y-10900498D02*
X8423887Y-10890974D01*
X8423887Y-10890974D02*
X8442934Y-10881450D01*
X8442934Y-10881450D02*
X8471506Y-10881450D01*
X8471506Y-10881450D02*
X8490553Y-10890974D01*
X8490553Y-10890974D02*
X8500077Y-10900498D01*
X8500077Y-10900498D02*
X8509601Y-10919546D01*
X8509601Y-10919546D02*
X8509601Y-10976689D01*
X8509601Y-10976689D02*
X8500077Y-10995736D01*
X8500077Y-10995736D02*
X8490553Y-11005260D01*
X8490553Y-11005260D02*
X8471506Y-11014784D01*
X8471506Y-11014784D02*
X8442934Y-11014784D01*
X8623887Y-11014784D02*
X8604839Y-11005260D01*
X8604839Y-11005260D02*
X8595315Y-10986212D01*
X8595315Y-10986212D02*
X8595315Y-10814784D01*
X8776268Y-11005260D02*
X8757220Y-11014784D01*
X8757220Y-11014784D02*
X8719125Y-11014784D01*
X8719125Y-11014784D02*
X8700077Y-11005260D01*
X8700077Y-11005260D02*
X8690553Y-10986212D01*
X8690553Y-10986212D02*
X8690553Y-10910022D01*
X8690553Y-10910022D02*
X8700077Y-10890974D01*
X8700077Y-10890974D02*
X8719125Y-10881450D01*
X8719125Y-10881450D02*
X8757220Y-10881450D01*
X8757220Y-10881450D02*
X8776268Y-10890974D01*
X8776268Y-10890974D02*
X8785792Y-10910022D01*
X8785792Y-10910022D02*
X8785792Y-10929070D01*
X8785792Y-10929070D02*
X8690553Y-10948117D01*
X8861982Y-11005260D02*
X8881030Y-11014784D01*
X8881030Y-11014784D02*
X8919125Y-11014784D01*
X8919125Y-11014784D02*
X8938173Y-11005260D01*
X8938173Y-11005260D02*
X8947696Y-10986212D01*
X8947696Y-10986212D02*
X8947696Y-10976689D01*
X8947696Y-10976689D02*
X8938173Y-10957641D01*
X8938173Y-10957641D02*
X8919125Y-10948117D01*
X8919125Y-10948117D02*
X8890553Y-10948117D01*
X8890553Y-10948117D02*
X8871506Y-10938593D01*
X8871506Y-10938593D02*
X8861982Y-10919546D01*
X8861982Y-10919546D02*
X8861982Y-10910022D01*
X8861982Y-10910022D02*
X8871506Y-10890974D01*
X8871506Y-10890974D02*
X8890553Y-10881450D01*
X8890553Y-10881450D02*
X8919125Y-10881450D01*
X8919125Y-10881450D02*
X8938173Y-10890974D01*
X9014363Y-11090974D02*
X9023887Y-11081450D01*
X9023887Y-11081450D02*
X9042934Y-11052879D01*
X9042934Y-11052879D02*
X9052458Y-11033831D01*
X9052458Y-11033831D02*
X9061982Y-11005260D01*
X9061982Y-11005260D02*
X9071506Y-10957641D01*
X9071506Y-10957641D02*
X9071506Y-10919546D01*
X9071506Y-10919546D02*
X9061982Y-10871927D01*
X9061982Y-10871927D02*
X9052458Y-10843355D01*
X9052458Y-10843355D02*
X9042934Y-10824308D01*
X9042934Y-10824308D02*
X9023887Y-10795736D01*
X9023887Y-10795736D02*
X9014363Y-10786212D01*
M02*
