%TF.GenerationSoftware,KiCad,Pcbnew,8.0.3*%
%TF.CreationDate,2024-07-09T21:28:30-04:00*%
%TF.ProjectId,PCB,5043422e-6b69-4636-9164-5f7063625858,rev?*%
%TF.SameCoordinates,Original*%
%TF.FileFunction,Copper,L2,Bot*%
%TF.FilePolarity,Positive*%
%FSLAX46Y46*%
G04 Gerber Fmt 4.6, Leading zero omitted, Abs format (unit mm)*
G04 Created by KiCad (PCBNEW 8.0.3) date 2024-07-09 21:28:30*
%MOMM*%
%LPD*%
G01*
G04 APERTURE LIST*
%TA.AperFunction,ComponentPad*%
%ADD10O,1.610000X0.970000*%
%TD*%
%TA.AperFunction,ComponentPad*%
%ADD11O,1.200000X2.300000*%
%TD*%
%TA.AperFunction,ComponentPad*%
%ADD12O,0.850000X2.250000*%
%TD*%
%TA.AperFunction,ComponentPad*%
%ADD13C,6.400000*%
%TD*%
%TA.AperFunction,HeatsinkPad*%
%ADD14C,0.600000*%
%TD*%
%TA.AperFunction,HeatsinkPad*%
%ADD15R,2.000000X3.500000*%
%TD*%
%TA.AperFunction,ComponentPad*%
%ADD16O,1.700000X1.700000*%
%TD*%
%TA.AperFunction,ComponentPad*%
%ADD17R,1.700000X1.700000*%
%TD*%
%TA.AperFunction,ComponentPad*%
%ADD18R,2.200000X2.200000*%
%TD*%
%TA.AperFunction,ComponentPad*%
%ADD19O,2.200000X2.200000*%
%TD*%
%TA.AperFunction,ViaPad*%
%ADD20C,0.600000*%
%TD*%
%TA.AperFunction,Conductor*%
%ADD21C,0.184150*%
%TD*%
%TA.AperFunction,Conductor*%
%ADD22C,0.381000*%
%TD*%
G04 APERTURE END LIST*
D10*
%TO.P,J3,S1,SHIELD*%
%TO.N,GND*%
X61399000Y-77472000D03*
D11*
X61724000Y-76807000D03*
D10*
X53409000Y-77472000D03*
D11*
X53084000Y-76807000D03*
D12*
X50984000Y-82347000D03*
X51584000Y-79447000D03*
X63224000Y-79447000D03*
X63824000Y-82347000D03*
%TD*%
D13*
%TO.P,REF\u002A\u002A,1*%
%TO.N,GND*%
X46482000Y-51054000D03*
%TD*%
%TO.P,GND,1*%
%TO.N,GND*%
X46482000Y-78994000D03*
%TD*%
D14*
%TO.P,U2,17,GND*%
%TO.N,GND*%
X54876000Y-58499000D03*
X54876000Y-59999000D03*
X54876000Y-61499000D03*
D15*
X55626000Y-59999000D03*
D14*
X56376000Y-58499000D03*
X56376000Y-59999000D03*
X56376000Y-61499000D03*
%TD*%
D16*
%TO.P,J2,2,Pin_2*%
%TO.N,Net-(J2-Pin_2)*%
X47244000Y-65774000D03*
D17*
%TO.P,J2,1,Pin_1*%
%TO.N,Net-(J2-Pin_1)*%
X47244000Y-68314000D03*
%TD*%
D16*
%TO.P,J1,2,Pin_2*%
%TO.N,Net-(J1-Pin_2)*%
X47244000Y-61217000D03*
D17*
%TO.P,J1,1,Pin_1*%
%TO.N,Net-(J1-Pin_1)*%
X47244000Y-58677000D03*
%TD*%
D18*
%TO.P,D1,1,K*%
%TO.N,+5V*%
X61976000Y-66421000D03*
D19*
%TO.P,D1,2,A*%
%TO.N,Net-(D1-A)*%
X51816000Y-66421000D03*
%TD*%
D20*
%TO.N,Net-(J3-CC2)*%
X60706000Y-73025000D03*
%TO.N,Net-(D1-A)*%
X59182000Y-78867000D03*
X54356000Y-78994000D03*
%TO.N,D-*%
X55245000Y-79375000D03*
%TO.N,D+*%
X56642000Y-79502000D03*
%TO.N,Net-(J3-CC2)*%
X58039000Y-79502000D03*
%TO.N,GND*%
X66040000Y-67183000D03*
%TO.N,BIN2*%
X66294000Y-58801000D03*
%TO.N,RESET*%
X82042000Y-61595000D03*
X77216000Y-48133000D03*
%TO.N,Net-(U2-BISEN)*%
X52070000Y-54991000D03*
%TO.N,Net-(U2-AISEN)*%
X58674000Y-55499000D03*
X50292000Y-58801000D03*
%TO.N,Net-(U2-BISEN)*%
X50800000Y-61595000D03*
%TO.N,BIN2*%
X59944000Y-62611000D03*
%TO.N,Net-(U2-VINT)*%
X55118000Y-55245000D03*
X61722000Y-57785000D03*
%TO.N,AIN2*%
X61722000Y-56332500D03*
%TO.N,GND*%
X65278000Y-62357000D03*
%TO.N,AIN2*%
X65278000Y-54991000D03*
%TO.N,AIN1*%
X59944000Y-57023000D03*
%TO.N,BIN1*%
X58420000Y-63119000D03*
%TO.N,AIN1*%
X70394082Y-59928403D03*
%TO.N,BIN1*%
X69088000Y-59817000D03*
%TO.N,GND*%
X78486000Y-62357000D03*
%TO.N,BOOT0*%
X65278000Y-50673000D03*
X83058000Y-81407000D03*
%TO.N,SCL*%
X65278000Y-53975000D03*
X88138000Y-58801000D03*
%TO.N,D+*%
X72136000Y-62357000D03*
%TO.N,D-*%
X71120000Y-62357000D03*
%TO.N,D+*%
X57403839Y-73532839D03*
%TO.N,D-*%
X59055000Y-72644000D03*
%TO.N,Net-(U1-CPOUT)*%
X85598000Y-62357000D03*
X85598000Y-57785000D03*
%TO.N,GND*%
X84582000Y-51435000D03*
X78740000Y-66167000D03*
X53086000Y-69755000D03*
X61468000Y-53213000D03*
X89662000Y-56007000D03*
X84074000Y-56007000D03*
X72898000Y-82931000D03*
X88392000Y-78867000D03*
X77216000Y-49911000D03*
X65278000Y-48133000D03*
X71374000Y-56769000D03*
X74168000Y-53975000D03*
X68326000Y-53975000D03*
X71374000Y-51181000D03*
X91948000Y-61849000D03*
X82042000Y-63627000D03*
%TD*%
D21*
%TO.N,BOOT0*%
X51286978Y-80864075D02*
X82515075Y-80864075D01*
X50292000Y-79869097D02*
X51286978Y-80864075D01*
X50292000Y-73152000D02*
X50292000Y-79869097D01*
X49022000Y-57201679D02*
X49022000Y-71882000D01*
X55550679Y-50673000D02*
X49022000Y-57201679D01*
X65278000Y-50673000D02*
X55550679Y-50673000D01*
X49022000Y-71882000D02*
X50292000Y-73152000D01*
X82515075Y-80864075D02*
X83058000Y-81407000D01*
%TO.N,Net-(J3-CC2)*%
X58039000Y-79502000D02*
X58039000Y-75692000D01*
X58039000Y-75692000D02*
X60706000Y-73025000D01*
%TO.N,D+*%
X57404000Y-78740000D02*
X57404000Y-73533000D01*
X56642000Y-79502000D02*
X57404000Y-78740000D01*
X57404000Y-73533000D02*
X57403839Y-73532839D01*
%TO.N,D-*%
X58674000Y-73025000D02*
X59055000Y-72644000D01*
X57158593Y-72940764D02*
X57649085Y-72940764D01*
X57649085Y-72940764D02*
X57733321Y-73025000D01*
X56642000Y-73457357D02*
X57158593Y-72940764D01*
X56642000Y-77978000D02*
X56642000Y-73457357D01*
X55245000Y-79375000D02*
X56642000Y-77978000D01*
X57733321Y-73025000D02*
X58674000Y-73025000D01*
%TO.N,Net-(D1-A)*%
X54737000Y-80264000D02*
X58801000Y-80264000D01*
X58801000Y-80264000D02*
X59182000Y-79883000D01*
X54356000Y-79883000D02*
X54737000Y-80264000D01*
X59182000Y-79883000D02*
X59182000Y-78867000D01*
X54356000Y-78994000D02*
X54356000Y-79883000D01*
%TO.N,D-*%
X71120000Y-64389000D02*
X71120000Y-62357000D01*
X59055000Y-72644000D02*
X62738000Y-68961000D01*
X62738000Y-68961000D02*
X66548000Y-68961000D01*
X66548000Y-68961000D02*
X71120000Y-64389000D01*
%TO.N,D+*%
X72136000Y-64633150D02*
X72136000Y-62357000D01*
X60460754Y-72216585D02*
X60460754Y-71781516D01*
X60460754Y-71781516D02*
X62897120Y-69345150D01*
X59144500Y-73532839D02*
X60460754Y-72216585D01*
X67424000Y-69345150D02*
X72136000Y-64633150D01*
X57403839Y-73532839D02*
X59144500Y-73532839D01*
X62897120Y-69345150D02*
X67424000Y-69345150D01*
D22*
%TO.N,AIN1*%
X67524515Y-57023000D02*
X59944000Y-57023000D01*
X70394082Y-59928403D02*
X70394082Y-59892567D01*
X70394082Y-59892567D02*
X67524515Y-57023000D01*
%TO.N,BIN1*%
X58674000Y-63373000D02*
X58420000Y-63119000D01*
X69088000Y-60579000D02*
X66294000Y-63373000D01*
X69088000Y-59817000D02*
X69088000Y-60579000D01*
X66294000Y-63373000D02*
X58674000Y-63373000D01*
%TO.N,BIN2*%
X62484000Y-62611000D02*
X66294000Y-58801000D01*
X59944000Y-62611000D02*
X62484000Y-62611000D01*
%TO.N,Net-(U2-VINT)*%
X57658000Y-57785000D02*
X55118000Y-55245000D01*
X61722000Y-57785000D02*
X57658000Y-57785000D01*
%TO.N,AIN2*%
X63063500Y-54991000D02*
X65278000Y-54991000D01*
X61722000Y-56332500D02*
X63063500Y-54991000D01*
%TO.N,Net-(U2-AISEN)*%
X57729500Y-54554500D02*
X58674000Y-55499000D01*
X54538500Y-54554500D02*
X57729500Y-54554500D01*
X50292000Y-58801000D02*
X54538500Y-54554500D01*
%TO.N,Net-(U2-BISEN)*%
X49601500Y-57459500D02*
X52070000Y-54991000D01*
X49601500Y-60396500D02*
X49601500Y-57459500D01*
X50800000Y-61595000D02*
X49601500Y-60396500D01*
%TO.N,RESET*%
X82042000Y-52959000D02*
X77216000Y-48133000D01*
X82042000Y-61595000D02*
X82042000Y-52959000D01*
D21*
%TO.N,SCL*%
X88138000Y-62611000D02*
X88138000Y-58801000D01*
X86360000Y-64389000D02*
X88138000Y-62611000D01*
X75692000Y-64389000D02*
X86360000Y-64389000D01*
X65278000Y-53975000D02*
X75692000Y-64389000D01*
D22*
%TO.N,Net-(U1-CPOUT)*%
X85598000Y-62357000D02*
X85598000Y-57785000D01*
%TD*%
%TA.AperFunction,Conductor*%
%TO.N,GND*%
G36*
X49270902Y-81429349D02*
G01*
X49479475Y-81171785D01*
X49479476Y-81171783D01*
X49690691Y-80846541D01*
X49690692Y-80846538D01*
X49863231Y-80507909D01*
X49911205Y-80457112D01*
X49979026Y-80440317D01*
X50045161Y-80462854D01*
X50061397Y-80476522D01*
X50366182Y-80781307D01*
X50399667Y-80842630D01*
X50394683Y-80912322D01*
X50366182Y-80956669D01*
X50265507Y-81057343D01*
X50265504Y-81057347D01*
X50164278Y-81208841D01*
X50164271Y-81208854D01*
X50094548Y-81377182D01*
X50094545Y-81377194D01*
X50059000Y-81555890D01*
X50059000Y-82097000D01*
X50709000Y-82097000D01*
X50709000Y-82597000D01*
X50059000Y-82597000D01*
X50059000Y-83138109D01*
X50094545Y-83316805D01*
X50094548Y-83316817D01*
X50164271Y-83485145D01*
X50164277Y-83485156D01*
X50174269Y-83500110D01*
X50195146Y-83566788D01*
X50176661Y-83634168D01*
X50124681Y-83680857D01*
X50071166Y-83693000D01*
X43217443Y-83693000D01*
X43150404Y-83673315D01*
X43129762Y-83656681D01*
X43068552Y-83595471D01*
X43051242Y-83573766D01*
X42989556Y-83475591D01*
X42977515Y-83450587D01*
X42939221Y-83341151D01*
X42933046Y-83314098D01*
X42926778Y-83258471D01*
X42926000Y-83244601D01*
X42926000Y-80681405D01*
X42945685Y-80614366D01*
X42998489Y-80568611D01*
X43067647Y-80558667D01*
X43131203Y-80587692D01*
X43160485Y-80625110D01*
X43273310Y-80846543D01*
X43484531Y-81171793D01*
X43693095Y-81429350D01*
X43693096Y-81429350D01*
X45187748Y-79934698D01*
X45261588Y-80036330D01*
X45439670Y-80214412D01*
X45541300Y-80288251D01*
X44046648Y-81782903D01*
X44046649Y-81782904D01*
X44304206Y-81991468D01*
X44629456Y-82202689D01*
X44975005Y-82378755D01*
X45337063Y-82517737D01*
X45711669Y-82618112D01*
X45711676Y-82618113D01*
X46094712Y-82678780D01*
X46481999Y-82699078D01*
X46482001Y-82699078D01*
X46869287Y-82678780D01*
X47252323Y-82618113D01*
X47252330Y-82618112D01*
X47626936Y-82517737D01*
X47988994Y-82378755D01*
X48334543Y-82202689D01*
X48659783Y-81991476D01*
X48659785Y-81991475D01*
X48917349Y-81782902D01*
X47422698Y-80288251D01*
X47524330Y-80214412D01*
X47702412Y-80036330D01*
X47776251Y-79934698D01*
X49270902Y-81429349D01*
G37*
%TD.AperFunction*%
%TA.AperFunction,Conductor*%
G36*
X62842039Y-81476335D02*
G01*
X62887794Y-81529139D01*
X62899000Y-81580650D01*
X62899000Y-82097000D01*
X63549000Y-82097000D01*
X63549000Y-82597000D01*
X62899000Y-82597000D01*
X62899000Y-83138109D01*
X62934545Y-83316805D01*
X62934548Y-83316817D01*
X63004271Y-83485145D01*
X63004277Y-83485156D01*
X63014269Y-83500110D01*
X63035146Y-83566788D01*
X63016661Y-83634168D01*
X62964681Y-83680857D01*
X62911166Y-83693000D01*
X51896834Y-83693000D01*
X51829795Y-83673315D01*
X51784040Y-83620511D01*
X51774096Y-83551353D01*
X51793731Y-83500110D01*
X51803722Y-83485156D01*
X51803728Y-83485145D01*
X51873451Y-83316817D01*
X51873454Y-83316805D01*
X51908999Y-83138109D01*
X51909000Y-83138106D01*
X51909000Y-82597000D01*
X51259000Y-82597000D01*
X51259000Y-82097000D01*
X51909000Y-82097000D01*
X51909000Y-81580650D01*
X51928685Y-81513611D01*
X51981489Y-81467856D01*
X52033000Y-81456650D01*
X62775000Y-81456650D01*
X62842039Y-81476335D01*
G37*
%TD.AperFunction*%
%TA.AperFunction,Conductor*%
G36*
X93161039Y-46882685D02*
G01*
X93206794Y-46935489D01*
X93218000Y-46987000D01*
X93218000Y-83128054D01*
X93217403Y-83140209D01*
X93211911Y-83195967D01*
X93207169Y-83219807D01*
X93170469Y-83340790D01*
X93161166Y-83363248D01*
X93101573Y-83474738D01*
X93088069Y-83494949D01*
X93007867Y-83592677D01*
X92990678Y-83609866D01*
X92923676Y-83664853D01*
X92859366Y-83692166D01*
X92845011Y-83693000D01*
X64736834Y-83693000D01*
X64669795Y-83673315D01*
X64624040Y-83620511D01*
X64614096Y-83551353D01*
X64633731Y-83500110D01*
X64643722Y-83485156D01*
X64643728Y-83485145D01*
X64713451Y-83316817D01*
X64713454Y-83316805D01*
X64748999Y-83138109D01*
X64749000Y-83138106D01*
X64749000Y-82597000D01*
X64099000Y-82597000D01*
X64099000Y-82097000D01*
X64749000Y-82097000D01*
X64749000Y-81580650D01*
X64768685Y-81513611D01*
X64821489Y-81467856D01*
X64873000Y-81456650D01*
X82147216Y-81456650D01*
X82214255Y-81476335D01*
X82260010Y-81529139D01*
X82270436Y-81566765D01*
X82271431Y-81575596D01*
X82272631Y-81586252D01*
X82332210Y-81756521D01*
X82348787Y-81782903D01*
X82428184Y-81909262D01*
X82555738Y-82036816D01*
X82708478Y-82132789D01*
X82878745Y-82192368D01*
X82878750Y-82192369D01*
X83057996Y-82212565D01*
X83058000Y-82212565D01*
X83058004Y-82212565D01*
X83237249Y-82192369D01*
X83237252Y-82192368D01*
X83237255Y-82192368D01*
X83407522Y-82132789D01*
X83560262Y-82036816D01*
X83687816Y-81909262D01*
X83783789Y-81756522D01*
X83843368Y-81586255D01*
X83845564Y-81566769D01*
X83863565Y-81407003D01*
X83863565Y-81406996D01*
X83843369Y-81227750D01*
X83843368Y-81227745D01*
X83836753Y-81208841D01*
X83783789Y-81057478D01*
X83687816Y-80904738D01*
X83560262Y-80777184D01*
X83407831Y-80681405D01*
X83407521Y-80681210D01*
X83237252Y-80621631D01*
X83237247Y-80621630D01*
X83137700Y-80610414D01*
X83073286Y-80583347D01*
X83063903Y-80574875D01*
X82878927Y-80389899D01*
X82878925Y-80389897D01*
X82743801Y-80311883D01*
X82593089Y-80271500D01*
X82593088Y-80271500D01*
X64273000Y-80271500D01*
X64205961Y-80251815D01*
X64160206Y-80199011D01*
X64149000Y-80147500D01*
X64149000Y-79697000D01*
X63499000Y-79697000D01*
X63499000Y-79197000D01*
X64149000Y-79197000D01*
X64149000Y-78655894D01*
X64148999Y-78655890D01*
X64113454Y-78477194D01*
X64113451Y-78477182D01*
X64043728Y-78308854D01*
X64043721Y-78308841D01*
X63942495Y-78157347D01*
X63942492Y-78157343D01*
X63813656Y-78028507D01*
X63813652Y-78028504D01*
X63662158Y-77927278D01*
X63662149Y-77927273D01*
X63493812Y-77857546D01*
X63474000Y-77853604D01*
X63474000Y-78681943D01*
X63457134Y-78641225D01*
X63379775Y-78563866D01*
X63278701Y-78522000D01*
X63169299Y-78522000D01*
X63068225Y-78563866D01*
X62990866Y-78641225D01*
X62974000Y-78681943D01*
X62974000Y-77853605D01*
X62973999Y-77853604D01*
X62954188Y-77857546D01*
X62929733Y-77867675D01*
X62860263Y-77875141D01*
X62797785Y-77843864D01*
X62762135Y-77783774D01*
X62764353Y-77714792D01*
X62796914Y-77614582D01*
X62824000Y-77443571D01*
X62824000Y-77057000D01*
X62024000Y-77057000D01*
X62024000Y-76557000D01*
X62824000Y-76557000D01*
X62824000Y-76170428D01*
X62796914Y-75999415D01*
X62743408Y-75834742D01*
X62664804Y-75680475D01*
X62563032Y-75540397D01*
X62440602Y-75417967D01*
X62300524Y-75316195D01*
X62146257Y-75237591D01*
X61981589Y-75184087D01*
X61981581Y-75184085D01*
X61974000Y-75182884D01*
X61974000Y-76050011D01*
X61964060Y-76032795D01*
X61908205Y-75976940D01*
X61839796Y-75937444D01*
X61763496Y-75917000D01*
X61684504Y-75917000D01*
X61608204Y-75937444D01*
X61539795Y-75976940D01*
X61483940Y-76032795D01*
X61474000Y-76050011D01*
X61474000Y-75182884D01*
X61473999Y-75182884D01*
X61466418Y-75184085D01*
X61466410Y-75184087D01*
X61301742Y-75237591D01*
X61147475Y-75316195D01*
X61007397Y-75417967D01*
X60884967Y-75540397D01*
X60783195Y-75680475D01*
X60704591Y-75834742D01*
X60651085Y-75999415D01*
X60624000Y-76170428D01*
X60624000Y-76525092D01*
X60604315Y-76592131D01*
X60568891Y-76628194D01*
X60451099Y-76706900D01*
X60451095Y-76706903D01*
X60313903Y-76844095D01*
X60313900Y-76844099D01*
X60206107Y-77005421D01*
X60206100Y-77005434D01*
X60131855Y-77184679D01*
X60131851Y-77184693D01*
X60124430Y-77221999D01*
X60124431Y-77222000D01*
X60974272Y-77222000D01*
X60882386Y-77260060D01*
X60812060Y-77330386D01*
X60774000Y-77422272D01*
X60774000Y-77521728D01*
X60812060Y-77613614D01*
X60882386Y-77683940D01*
X60974272Y-77722000D01*
X60124431Y-77722000D01*
X60131851Y-77759306D01*
X60131855Y-77759320D01*
X60206100Y-77938565D01*
X60206107Y-77938578D01*
X60313900Y-78099900D01*
X60313903Y-78099904D01*
X60451095Y-78237096D01*
X60451099Y-78237099D01*
X60612421Y-78344892D01*
X60612434Y-78344899D01*
X60791681Y-78419145D01*
X60791693Y-78419148D01*
X60981981Y-78456999D01*
X60981984Y-78457000D01*
X61149000Y-78457000D01*
X61149000Y-77722000D01*
X61823728Y-77722000D01*
X61915614Y-77683940D01*
X61974000Y-77625554D01*
X61974000Y-78431115D01*
X61981584Y-78429914D01*
X62146253Y-78376409D01*
X62150295Y-78374350D01*
X62218963Y-78361450D01*
X62283705Y-78387723D01*
X62323966Y-78444827D01*
X62328214Y-78509022D01*
X62299000Y-78655896D01*
X62299000Y-79197000D01*
X62949000Y-79197000D01*
X62949000Y-79697000D01*
X62299000Y-79697000D01*
X62299000Y-80147500D01*
X62279315Y-80214539D01*
X62226511Y-80260294D01*
X62175000Y-80271500D01*
X59852980Y-80271500D01*
X59785941Y-80251815D01*
X59740186Y-80199011D01*
X59730242Y-80129853D01*
X59733205Y-80115406D01*
X59734191Y-80111726D01*
X59734192Y-80111725D01*
X59774575Y-79961014D01*
X59774575Y-79457865D01*
X59794260Y-79390826D01*
X59810894Y-79370184D01*
X59811816Y-79369262D01*
X59907789Y-79216522D01*
X59967368Y-79046255D01*
X59967369Y-79046249D01*
X59987565Y-78867003D01*
X59987565Y-78866996D01*
X59967369Y-78687750D01*
X59967368Y-78687745D01*
X59907789Y-78517478D01*
X59902476Y-78509023D01*
X59826258Y-78387723D01*
X59811816Y-78364738D01*
X59684262Y-78237184D01*
X59684122Y-78237096D01*
X59531523Y-78141211D01*
X59361254Y-78081631D01*
X59361249Y-78081630D01*
X59182004Y-78061435D01*
X59181996Y-78061435D01*
X59002750Y-78081630D01*
X59002745Y-78081631D01*
X58832476Y-78141211D01*
X58821547Y-78148079D01*
X58754310Y-78167079D01*
X58687475Y-78146711D01*
X58642261Y-78093443D01*
X58631575Y-78043085D01*
X58631575Y-75988813D01*
X58651260Y-75921774D01*
X58667889Y-75901137D01*
X60711904Y-73857121D01*
X60773225Y-73823638D01*
X60785680Y-73821586D01*
X60885255Y-73810368D01*
X61055522Y-73750789D01*
X61208262Y-73654816D01*
X61335816Y-73527262D01*
X61431789Y-73374522D01*
X61491368Y-73204255D01*
X61503846Y-73093510D01*
X61511565Y-73025003D01*
X61511565Y-73024996D01*
X61491369Y-72845750D01*
X61491368Y-72845745D01*
X61471215Y-72788150D01*
X61431789Y-72675478D01*
X61335816Y-72522738D01*
X61208262Y-72395184D01*
X61208260Y-72395182D01*
X61111356Y-72334293D01*
X61065066Y-72281959D01*
X61053329Y-72229300D01*
X61053329Y-72078330D01*
X61073014Y-72011291D01*
X61089648Y-71990649D01*
X63106253Y-69974044D01*
X63167576Y-69940559D01*
X63193934Y-69937725D01*
X67502012Y-69937725D01*
X67502014Y-69937725D01*
X67652726Y-69897342D01*
X67787850Y-69819328D01*
X72610178Y-64997000D01*
X72669571Y-64894127D01*
X72688192Y-64861875D01*
X72728575Y-64711164D01*
X72728575Y-62947865D01*
X72748260Y-62880826D01*
X72764894Y-62860184D01*
X72765816Y-62859262D01*
X72861789Y-62706522D01*
X72876889Y-62663367D01*
X72917609Y-62606592D01*
X72982562Y-62580843D01*
X73051124Y-62594298D01*
X73081612Y-62616640D01*
X75328150Y-64863178D01*
X75463274Y-64941192D01*
X75613986Y-64981575D01*
X75613988Y-64981575D01*
X86438012Y-64981575D01*
X86438014Y-64981575D01*
X86588726Y-64941192D01*
X86723850Y-64863178D01*
X88612178Y-62974849D01*
X88690192Y-62839726D01*
X88730575Y-62689014D01*
X88730575Y-62532985D01*
X88730575Y-59391865D01*
X88750260Y-59324826D01*
X88766894Y-59304184D01*
X88767816Y-59303262D01*
X88863789Y-59150522D01*
X88923368Y-58980255D01*
X88923369Y-58980249D01*
X88943565Y-58801003D01*
X88943565Y-58800996D01*
X88923369Y-58621750D01*
X88923368Y-58621745D01*
X88880418Y-58499002D01*
X88863789Y-58451478D01*
X88863786Y-58451474D01*
X88824582Y-58389080D01*
X88767816Y-58298738D01*
X88640262Y-58171184D01*
X88599302Y-58145447D01*
X88487523Y-58075211D01*
X88317254Y-58015631D01*
X88317249Y-58015630D01*
X88138004Y-57995435D01*
X88137996Y-57995435D01*
X87958750Y-58015630D01*
X87958745Y-58015631D01*
X87788476Y-58075211D01*
X87635737Y-58171184D01*
X87508184Y-58298737D01*
X87412211Y-58451476D01*
X87352631Y-58621745D01*
X87352630Y-58621750D01*
X87332435Y-58800996D01*
X87332435Y-58801003D01*
X87352630Y-58980249D01*
X87352631Y-58980254D01*
X87412211Y-59150523D01*
X87508184Y-59303262D01*
X87509106Y-59304184D01*
X87509510Y-59304925D01*
X87512525Y-59308705D01*
X87511862Y-59309232D01*
X87542591Y-59365507D01*
X87545425Y-59391865D01*
X87545425Y-62314185D01*
X87525740Y-62381224D01*
X87509106Y-62401866D01*
X86150866Y-63760106D01*
X86089543Y-63793591D01*
X86063185Y-63796425D01*
X75988815Y-63796425D01*
X75921776Y-63776740D01*
X75901134Y-63760106D01*
X66110123Y-53969095D01*
X66076638Y-53907772D01*
X66074586Y-53895316D01*
X66063368Y-53795745D01*
X66003789Y-53625478D01*
X65907816Y-53472738D01*
X65780262Y-53345184D01*
X65627523Y-53249211D01*
X65457254Y-53189631D01*
X65457249Y-53189630D01*
X65278004Y-53169435D01*
X65277996Y-53169435D01*
X65098750Y-53189630D01*
X65098745Y-53189631D01*
X64928476Y-53249211D01*
X64775737Y-53345184D01*
X64648184Y-53472737D01*
X64552211Y-53625476D01*
X64492631Y-53795745D01*
X64492630Y-53795750D01*
X64472435Y-53974996D01*
X64472435Y-53975003D01*
X64493411Y-54161175D01*
X64490494Y-54161503D01*
X64487023Y-54218147D01*
X64445725Y-54274504D01*
X64380512Y-54299587D01*
X64370406Y-54300000D01*
X62995438Y-54300000D01*
X62880938Y-54322776D01*
X62880937Y-54322776D01*
X62869498Y-54325051D01*
X62861940Y-54326555D01*
X62861939Y-54326555D01*
X62736194Y-54378640D01*
X62736181Y-54378647D01*
X62623013Y-54454264D01*
X62623009Y-54454267D01*
X61543376Y-55533900D01*
X61496651Y-55563260D01*
X61372476Y-55606711D01*
X61372475Y-55606712D01*
X61219737Y-55702684D01*
X61092184Y-55830237D01*
X60996210Y-55982978D01*
X60936630Y-56153250D01*
X60928898Y-56221883D01*
X60901832Y-56286297D01*
X60844237Y-56325852D01*
X60805678Y-56332000D01*
X60384613Y-56332000D01*
X60318641Y-56312994D01*
X60293523Y-56297211D01*
X60123254Y-56237631D01*
X60123249Y-56237630D01*
X59944004Y-56217435D01*
X59943996Y-56217435D01*
X59764750Y-56237630D01*
X59764745Y-56237631D01*
X59594476Y-56297211D01*
X59441737Y-56393184D01*
X59314184Y-56520737D01*
X59218211Y-56673476D01*
X59158631Y-56843745D01*
X59158630Y-56843750D01*
X59142842Y-56983883D01*
X59115776Y-57048297D01*
X59058181Y-57087852D01*
X59019622Y-57094000D01*
X57995584Y-57094000D01*
X57928545Y-57074315D01*
X57907903Y-57057681D01*
X56307403Y-55457181D01*
X56273918Y-55395858D01*
X56278902Y-55326166D01*
X56320774Y-55270233D01*
X56386238Y-55245816D01*
X56395084Y-55245500D01*
X57391916Y-55245500D01*
X57458955Y-55265185D01*
X57479597Y-55281819D01*
X57875398Y-55677619D01*
X57904758Y-55724345D01*
X57948209Y-55848519D01*
X57948211Y-55848522D01*
X58044184Y-56001262D01*
X58171738Y-56128816D01*
X58324478Y-56224789D01*
X58423708Y-56259511D01*
X58494745Y-56284368D01*
X58494750Y-56284369D01*
X58673996Y-56304565D01*
X58674000Y-56304565D01*
X58674004Y-56304565D01*
X58853249Y-56284369D01*
X58853252Y-56284368D01*
X58853255Y-56284368D01*
X59023522Y-56224789D01*
X59176262Y-56128816D01*
X59303816Y-56001262D01*
X59399789Y-55848522D01*
X59459368Y-55678255D01*
X59476384Y-55527233D01*
X59479565Y-55499003D01*
X59479565Y-55498996D01*
X59459369Y-55319750D01*
X59459368Y-55319745D01*
X59433499Y-55245816D01*
X59399789Y-55149478D01*
X59303816Y-54996738D01*
X59176262Y-54869184D01*
X59084855Y-54811749D01*
X59023519Y-54773209D01*
X58899345Y-54729758D01*
X58852619Y-54700398D01*
X58169992Y-54017769D01*
X58169985Y-54017763D01*
X58056812Y-53942144D01*
X58056809Y-53942142D01*
X57931061Y-53890056D01*
X57931051Y-53890053D01*
X57797560Y-53863500D01*
X57797558Y-53863500D01*
X54470442Y-53863500D01*
X54470440Y-53863500D01*
X54336948Y-53890053D01*
X54336938Y-53890056D01*
X54211195Y-53942140D01*
X54211182Y-53942147D01*
X54098014Y-54017764D01*
X54098010Y-54017767D01*
X53082872Y-55032904D01*
X53021549Y-55066389D01*
X52951857Y-55061405D01*
X52895924Y-55019533D01*
X52871971Y-54959106D01*
X52855369Y-54811749D01*
X52855368Y-54811745D01*
X52829836Y-54738780D01*
X52795789Y-54641478D01*
X52795788Y-54641477D01*
X52795787Y-54641473D01*
X52703479Y-54494567D01*
X52684478Y-54427331D01*
X52704845Y-54360496D01*
X52720786Y-54340919D01*
X55759813Y-51301894D01*
X55821136Y-51268409D01*
X55847494Y-51265575D01*
X64687135Y-51265575D01*
X64754174Y-51285260D01*
X64774816Y-51301894D01*
X64775738Y-51302816D01*
X64928478Y-51398789D01*
X65098745Y-51458368D01*
X65098750Y-51458369D01*
X65277996Y-51478565D01*
X65278000Y-51478565D01*
X65278004Y-51478565D01*
X65457249Y-51458369D01*
X65457252Y-51458368D01*
X65457255Y-51458368D01*
X65627522Y-51398789D01*
X65780262Y-51302816D01*
X65907816Y-51175262D01*
X66003789Y-51022522D01*
X66063368Y-50852255D01*
X66063369Y-50852249D01*
X66083565Y-50673003D01*
X66083565Y-50672996D01*
X66063369Y-50493750D01*
X66063368Y-50493745D01*
X66003788Y-50323476D01*
X65907815Y-50170737D01*
X65780262Y-50043184D01*
X65627523Y-49947211D01*
X65457254Y-49887631D01*
X65457249Y-49887630D01*
X65278004Y-49867435D01*
X65277996Y-49867435D01*
X65098750Y-49887630D01*
X65098745Y-49887631D01*
X64928476Y-49947211D01*
X64775737Y-50043184D01*
X64774816Y-50044106D01*
X64774074Y-50044510D01*
X64770295Y-50047525D01*
X64769767Y-50046862D01*
X64713493Y-50077591D01*
X64687135Y-50080425D01*
X55472665Y-50080425D01*
X55321954Y-50120808D01*
X55321953Y-50120808D01*
X55321951Y-50120809D01*
X55299597Y-50133716D01*
X55299594Y-50133717D01*
X55186835Y-50198817D01*
X55186827Y-50198823D01*
X48547824Y-56837826D01*
X48547820Y-56837832D01*
X48469809Y-56972949D01*
X48469807Y-56972954D01*
X48457465Y-57019010D01*
X48457466Y-57019011D01*
X48429425Y-57123663D01*
X48429425Y-57239332D01*
X48409740Y-57306371D01*
X48356936Y-57352126D01*
X48287778Y-57362070D01*
X48262093Y-57355514D01*
X48201485Y-57332909D01*
X48201483Y-57332908D01*
X48141883Y-57326501D01*
X48141881Y-57326500D01*
X48141873Y-57326500D01*
X48141864Y-57326500D01*
X46346129Y-57326500D01*
X46346123Y-57326501D01*
X46286516Y-57332908D01*
X46151671Y-57383202D01*
X46151664Y-57383206D01*
X46036455Y-57469452D01*
X46036452Y-57469455D01*
X45950206Y-57584664D01*
X45950202Y-57584671D01*
X45899908Y-57719517D01*
X45893501Y-57779116D01*
X45893500Y-57779135D01*
X45893500Y-59574870D01*
X45893501Y-59574876D01*
X45899908Y-59634483D01*
X45950202Y-59769328D01*
X45950206Y-59769335D01*
X46036452Y-59884544D01*
X46036455Y-59884547D01*
X46151664Y-59970793D01*
X46151671Y-59970797D01*
X46283081Y-60019810D01*
X46339015Y-60061681D01*
X46363432Y-60127145D01*
X46348580Y-60195418D01*
X46327430Y-60223673D01*
X46205503Y-60345600D01*
X46069965Y-60539169D01*
X46069964Y-60539171D01*
X45970098Y-60753335D01*
X45970094Y-60753344D01*
X45908938Y-60981586D01*
X45908936Y-60981596D01*
X45888341Y-61216999D01*
X45888341Y-61217000D01*
X45908936Y-61452403D01*
X45908938Y-61452413D01*
X45970094Y-61680655D01*
X45970096Y-61680659D01*
X45970097Y-61680663D01*
X46050251Y-61852553D01*
X46069965Y-61894830D01*
X46069967Y-61894834D01*
X46148842Y-62007478D01*
X46205505Y-62088401D01*
X46372599Y-62255495D01*
X46441960Y-62304062D01*
X46566165Y-62391032D01*
X46566167Y-62391033D01*
X46566170Y-62391035D01*
X46780337Y-62490903D01*
X47008592Y-62552063D01*
X47196918Y-62568539D01*
X47243999Y-62572659D01*
X47244000Y-62572659D01*
X47244001Y-62572659D01*
X47283234Y-62569226D01*
X47479408Y-62552063D01*
X47707663Y-62490903D01*
X47921830Y-62391035D01*
X48115401Y-62255495D01*
X48217744Y-62153152D01*
X48279067Y-62119667D01*
X48348759Y-62124651D01*
X48404692Y-62166523D01*
X48429109Y-62231987D01*
X48429425Y-62240833D01*
X48429425Y-64750166D01*
X48409740Y-64817205D01*
X48356936Y-64862960D01*
X48287778Y-64872904D01*
X48224222Y-64843879D01*
X48217744Y-64837848D01*
X48195447Y-64815551D01*
X48115401Y-64735505D01*
X48115397Y-64735502D01*
X48115396Y-64735501D01*
X47921834Y-64599967D01*
X47921830Y-64599965D01*
X47921828Y-64599964D01*
X47707663Y-64500097D01*
X47707659Y-64500096D01*
X47707655Y-64500094D01*
X47479413Y-64438938D01*
X47479403Y-64438936D01*
X47244001Y-64418341D01*
X47243999Y-64418341D01*
X47008596Y-64438936D01*
X47008586Y-64438938D01*
X46780344Y-64500094D01*
X46780335Y-64500098D01*
X46566171Y-64599964D01*
X46566169Y-64599965D01*
X46372597Y-64735505D01*
X46205505Y-64902597D01*
X46069965Y-65096169D01*
X46069964Y-65096171D01*
X45970098Y-65310335D01*
X45970094Y-65310344D01*
X45908938Y-65538586D01*
X45908936Y-65538596D01*
X45888341Y-65773999D01*
X45888341Y-65774000D01*
X45908936Y-66009403D01*
X45908938Y-66009413D01*
X45970094Y-66237655D01*
X45970096Y-66237659D01*
X45970097Y-66237663D01*
X46055589Y-66421000D01*
X46069965Y-66451830D01*
X46069967Y-66451834D01*
X46205501Y-66645395D01*
X46205506Y-66645402D01*
X46327430Y-66767326D01*
X46360915Y-66828649D01*
X46355931Y-66898341D01*
X46314059Y-66954274D01*
X46283083Y-66971189D01*
X46151669Y-67020203D01*
X46151664Y-67020206D01*
X46036455Y-67106452D01*
X46036452Y-67106455D01*
X45950206Y-67221664D01*
X45950202Y-67221671D01*
X45899908Y-67356517D01*
X45893501Y-67416116D01*
X45893500Y-67416135D01*
X45893500Y-69211870D01*
X45893501Y-69211876D01*
X45899908Y-69271483D01*
X45950202Y-69406328D01*
X45950206Y-69406335D01*
X46036452Y-69521544D01*
X46036455Y-69521547D01*
X46151664Y-69607793D01*
X46151671Y-69607797D01*
X46286517Y-69658091D01*
X46286516Y-69658091D01*
X46293444Y-69658835D01*
X46346127Y-69664500D01*
X48141872Y-69664499D01*
X48201483Y-69658091D01*
X48262093Y-69635484D01*
X48331783Y-69630501D01*
X48393106Y-69663986D01*
X48426591Y-69725309D01*
X48429425Y-69751667D01*
X48429425Y-71803986D01*
X48429425Y-71960014D01*
X48447365Y-72026968D01*
X48469809Y-72110728D01*
X48469809Y-72110729D01*
X48524643Y-72205704D01*
X48547822Y-72245850D01*
X48547824Y-72245852D01*
X49663106Y-73361134D01*
X49696591Y-73422457D01*
X49699425Y-73448815D01*
X49699425Y-76737665D01*
X49679740Y-76804704D01*
X49626936Y-76850459D01*
X49557778Y-76860403D01*
X49494222Y-76831378D01*
X49479059Y-76815700D01*
X49270904Y-76558649D01*
X49270903Y-76558648D01*
X47776251Y-78053300D01*
X47702412Y-77951670D01*
X47524330Y-77773588D01*
X47422698Y-77699748D01*
X48917350Y-76205096D01*
X48917350Y-76205095D01*
X48659793Y-75996531D01*
X48334543Y-75785310D01*
X47988994Y-75609244D01*
X47626936Y-75470262D01*
X47252330Y-75369887D01*
X47252323Y-75369886D01*
X46869287Y-75309219D01*
X46482001Y-75288922D01*
X46481999Y-75288922D01*
X46094712Y-75309219D01*
X45711676Y-75369886D01*
X45711669Y-75369887D01*
X45337063Y-75470262D01*
X44975005Y-75609244D01*
X44629456Y-75785310D01*
X44304206Y-75996531D01*
X44046648Y-76205095D01*
X44046648Y-76205096D01*
X45541301Y-77699748D01*
X45439670Y-77773588D01*
X45261588Y-77951670D01*
X45187748Y-78053300D01*
X43693096Y-76558648D01*
X43693095Y-76558648D01*
X43484531Y-76816206D01*
X43273310Y-77141456D01*
X43160485Y-77362889D01*
X43112511Y-77413685D01*
X43044690Y-77430480D01*
X42978555Y-77407943D01*
X42935103Y-77353228D01*
X42926000Y-77306594D01*
X42926000Y-52741405D01*
X42945685Y-52674366D01*
X42998489Y-52628611D01*
X43067647Y-52618667D01*
X43131203Y-52647692D01*
X43160485Y-52685110D01*
X43273310Y-52906543D01*
X43484531Y-53231793D01*
X43693095Y-53489350D01*
X43693096Y-53489350D01*
X45187748Y-51994698D01*
X45261588Y-52096330D01*
X45439670Y-52274412D01*
X45541300Y-52348251D01*
X44046648Y-53842903D01*
X44046649Y-53842904D01*
X44304206Y-54051468D01*
X44629456Y-54262689D01*
X44975005Y-54438755D01*
X45337063Y-54577737D01*
X45711669Y-54678112D01*
X45711676Y-54678113D01*
X46094712Y-54738780D01*
X46481999Y-54759078D01*
X46482001Y-54759078D01*
X46869287Y-54738780D01*
X47252323Y-54678113D01*
X47252330Y-54678112D01*
X47626936Y-54577737D01*
X47988994Y-54438755D01*
X48334543Y-54262689D01*
X48659783Y-54051476D01*
X48659785Y-54051475D01*
X48917349Y-53842902D01*
X47422698Y-52348251D01*
X47524330Y-52274412D01*
X47702412Y-52096330D01*
X47776251Y-51994698D01*
X49270902Y-53489349D01*
X49479475Y-53231785D01*
X49479476Y-53231783D01*
X49690689Y-52906543D01*
X49866755Y-52560994D01*
X50005737Y-52198936D01*
X50106112Y-51824330D01*
X50106113Y-51824323D01*
X50166780Y-51441287D01*
X50187078Y-51054000D01*
X50187078Y-51053999D01*
X50166780Y-50666712D01*
X50106113Y-50283676D01*
X50106112Y-50283669D01*
X50005737Y-49909063D01*
X49866755Y-49547005D01*
X49690689Y-49201456D01*
X49479468Y-48876206D01*
X49270904Y-48618649D01*
X49270903Y-48618648D01*
X47776251Y-50113300D01*
X47702412Y-50011670D01*
X47524330Y-49833588D01*
X47422698Y-49759748D01*
X48917350Y-48265096D01*
X48917350Y-48265095D01*
X48754220Y-48132996D01*
X76410435Y-48132996D01*
X76410435Y-48133003D01*
X76430630Y-48312249D01*
X76430631Y-48312254D01*
X76490211Y-48482523D01*
X76575745Y-48618648D01*
X76586184Y-48635262D01*
X76713738Y-48762816D01*
X76866478Y-48858789D01*
X76990651Y-48902238D01*
X77037377Y-48931599D01*
X81314681Y-53208902D01*
X81348166Y-53270225D01*
X81351000Y-53296583D01*
X81351000Y-61154387D01*
X81331995Y-61220357D01*
X81316209Y-61245480D01*
X81256633Y-61415737D01*
X81256630Y-61415750D01*
X81236435Y-61594996D01*
X81236435Y-61595003D01*
X81256630Y-61774249D01*
X81256631Y-61774254D01*
X81316211Y-61944523D01*
X81355769Y-62007478D01*
X81412184Y-62097262D01*
X81539738Y-62224816D01*
X81588568Y-62255498D01*
X81681967Y-62314185D01*
X81692478Y-62320789D01*
X81795952Y-62356996D01*
X81862745Y-62380368D01*
X81862750Y-62380369D01*
X82041996Y-62400565D01*
X82042000Y-62400565D01*
X82042004Y-62400565D01*
X82221249Y-62380369D01*
X82221252Y-62380368D01*
X82221255Y-62380368D01*
X82391522Y-62320789D01*
X82544262Y-62224816D01*
X82671816Y-62097262D01*
X82767789Y-61944522D01*
X82827368Y-61774255D01*
X82832672Y-61727184D01*
X82847565Y-61595003D01*
X82847565Y-61594996D01*
X82827369Y-61415750D01*
X82827366Y-61415737D01*
X82767790Y-61245480D01*
X82767787Y-61245476D01*
X82752005Y-61220357D01*
X82733000Y-61154387D01*
X82733000Y-57784996D01*
X84792435Y-57784996D01*
X84792435Y-57785003D01*
X84812630Y-57964249D01*
X84812631Y-57964254D01*
X84872211Y-58134524D01*
X84887993Y-58159639D01*
X84907000Y-58225612D01*
X84907000Y-61916387D01*
X84887995Y-61982357D01*
X84872209Y-62007480D01*
X84812633Y-62177737D01*
X84812630Y-62177750D01*
X84792435Y-62356996D01*
X84792435Y-62357003D01*
X84812630Y-62536249D01*
X84812631Y-62536254D01*
X84872211Y-62706523D01*
X84911769Y-62769478D01*
X84968184Y-62859262D01*
X85095738Y-62986816D01*
X85248478Y-63082789D01*
X85351952Y-63118996D01*
X85418745Y-63142368D01*
X85418750Y-63142369D01*
X85597996Y-63162565D01*
X85598000Y-63162565D01*
X85598004Y-63162565D01*
X85777249Y-63142369D01*
X85777252Y-63142368D01*
X85777255Y-63142368D01*
X85947522Y-63082789D01*
X86100262Y-62986816D01*
X86227816Y-62859262D01*
X86323789Y-62706522D01*
X86383368Y-62536255D01*
X86383369Y-62536249D01*
X86403565Y-62357003D01*
X86403565Y-62356996D01*
X86383369Y-62177750D01*
X86383366Y-62177737D01*
X86323790Y-62007480D01*
X86323787Y-62007476D01*
X86308005Y-61982357D01*
X86289000Y-61916387D01*
X86289000Y-58225612D01*
X86308007Y-58159639D01*
X86323788Y-58134524D01*
X86323789Y-58134522D01*
X86383368Y-57964255D01*
X86403565Y-57785000D01*
X86403265Y-57782338D01*
X86383369Y-57605750D01*
X86383368Y-57605745D01*
X86335678Y-57469455D01*
X86323789Y-57435478D01*
X86227816Y-57282738D01*
X86100262Y-57155184D01*
X86050097Y-57123663D01*
X85947523Y-57059211D01*
X85777254Y-56999631D01*
X85777249Y-56999630D01*
X85598004Y-56979435D01*
X85597996Y-56979435D01*
X85418750Y-56999630D01*
X85418745Y-56999631D01*
X85248476Y-57059211D01*
X85095737Y-57155184D01*
X84968184Y-57282737D01*
X84872211Y-57435476D01*
X84812631Y-57605745D01*
X84812630Y-57605750D01*
X84792435Y-57784996D01*
X82733000Y-57784996D01*
X82733000Y-52890939D01*
X82706446Y-52757448D01*
X82706445Y-52757447D01*
X82706445Y-52757443D01*
X82676484Y-52685110D01*
X82654359Y-52631695D01*
X82654352Y-52631682D01*
X82578735Y-52518514D01*
X82578734Y-52518513D01*
X82482487Y-52422266D01*
X78014599Y-47954377D01*
X77985238Y-47907650D01*
X77963424Y-47845310D01*
X77941789Y-47783478D01*
X77845816Y-47630738D01*
X77718262Y-47503184D01*
X77601611Y-47429887D01*
X77565523Y-47407211D01*
X77395254Y-47347631D01*
X77395249Y-47347630D01*
X77216004Y-47327435D01*
X77215996Y-47327435D01*
X77036750Y-47347630D01*
X77036745Y-47347631D01*
X76866476Y-47407211D01*
X76713737Y-47503184D01*
X76586184Y-47630737D01*
X76490211Y-47783476D01*
X76430631Y-47953745D01*
X76430630Y-47953750D01*
X76410435Y-48132996D01*
X48754220Y-48132996D01*
X48659793Y-48056531D01*
X48334543Y-47845310D01*
X47988994Y-47669244D01*
X47626936Y-47530262D01*
X47252330Y-47429887D01*
X47252323Y-47429886D01*
X46869287Y-47369219D01*
X46482001Y-47348922D01*
X46481999Y-47348922D01*
X46094712Y-47369219D01*
X45711676Y-47429886D01*
X45711669Y-47429887D01*
X45337063Y-47530262D01*
X44975005Y-47669244D01*
X44629456Y-47845310D01*
X44304206Y-48056531D01*
X44046648Y-48265095D01*
X44046648Y-48265096D01*
X45541301Y-49759748D01*
X45439670Y-49833588D01*
X45261588Y-50011670D01*
X45187748Y-50113300D01*
X43693096Y-48618648D01*
X43693095Y-48618648D01*
X43484531Y-48876206D01*
X43273310Y-49201456D01*
X43160485Y-49422889D01*
X43112511Y-49473685D01*
X43044690Y-49490480D01*
X42978555Y-49467943D01*
X42935103Y-49413228D01*
X42926000Y-49366594D01*
X42926000Y-46987000D01*
X42945685Y-46919961D01*
X42998489Y-46874206D01*
X43050000Y-46863000D01*
X93094000Y-46863000D01*
X93161039Y-46882685D01*
G37*
%TD.AperFunction*%
%TA.AperFunction,Conductor*%
G36*
X52892386Y-77683940D02*
G01*
X52984272Y-77722000D01*
X53659000Y-77722000D01*
X53659000Y-78469686D01*
X53677225Y-78503063D01*
X53672241Y-78572755D01*
X53661053Y-78595393D01*
X53630211Y-78644476D01*
X53570631Y-78814745D01*
X53570630Y-78814750D01*
X53550435Y-78993996D01*
X53550435Y-78994003D01*
X53570630Y-79173249D01*
X53570631Y-79173254D01*
X53630211Y-79343523D01*
X53726184Y-79496262D01*
X53727106Y-79497184D01*
X53727510Y-79497925D01*
X53730525Y-79501705D01*
X53729862Y-79502232D01*
X53760591Y-79558507D01*
X53763425Y-79584865D01*
X53763425Y-79804986D01*
X53763425Y-79961014D01*
X53803808Y-80111726D01*
X53803809Y-80111729D01*
X53804795Y-80115406D01*
X53803132Y-80185256D01*
X53763970Y-80243119D01*
X53699741Y-80270623D01*
X53685020Y-80271500D01*
X52633000Y-80271500D01*
X52565961Y-80251815D01*
X52520206Y-80199011D01*
X52509000Y-80147500D01*
X52509000Y-79697000D01*
X51859000Y-79697000D01*
X51859000Y-79197000D01*
X52509000Y-79197000D01*
X52509000Y-78655894D01*
X52508999Y-78655890D01*
X52479786Y-78509023D01*
X52486013Y-78439432D01*
X52528876Y-78384254D01*
X52594766Y-78361010D01*
X52657699Y-78374348D01*
X52661742Y-78376408D01*
X52826415Y-78429914D01*
X52826414Y-78429914D01*
X52833999Y-78431115D01*
X52834000Y-78431114D01*
X52834000Y-77625554D01*
X52892386Y-77683940D01*
G37*
%TD.AperFunction*%
%TA.AperFunction,Conductor*%
G36*
X54448905Y-55723829D02*
G01*
X54493252Y-55752330D01*
X54615738Y-55874816D01*
X54768478Y-55970789D01*
X54892651Y-56014238D01*
X54939377Y-56043599D01*
X56386002Y-57490224D01*
X56419487Y-57551547D01*
X56414503Y-57621239D01*
X56372631Y-57677172D01*
X56312205Y-57701125D01*
X56196862Y-57714121D01*
X56196858Y-57714122D01*
X56026701Y-57773662D01*
X56026691Y-57773667D01*
X56012891Y-57782337D01*
X56012891Y-57782338D01*
X56376000Y-58145447D01*
X57092660Y-58862106D01*
X57092661Y-58862106D01*
X57101334Y-58848306D01*
X57101334Y-58848305D01*
X57160877Y-58678141D01*
X57160878Y-58678137D01*
X57180227Y-58506406D01*
X57207293Y-58441992D01*
X57264888Y-58402437D01*
X57334725Y-58400299D01*
X57350899Y-58405728D01*
X57372840Y-58414816D01*
X57456442Y-58449445D01*
X57466663Y-58451478D01*
X57528302Y-58463739D01*
X57589940Y-58476000D01*
X57589942Y-58476000D01*
X61281387Y-58476000D01*
X61347359Y-58495006D01*
X61372476Y-58510788D01*
X61372478Y-58510789D01*
X61542745Y-58570368D01*
X61542750Y-58570369D01*
X61721996Y-58590565D01*
X61722000Y-58590565D01*
X61722004Y-58590565D01*
X61901249Y-58570369D01*
X61901252Y-58570368D01*
X61901255Y-58570368D01*
X62071522Y-58510789D01*
X62224262Y-58414816D01*
X62351816Y-58287262D01*
X62447789Y-58134522D01*
X62507368Y-57964255D01*
X62523158Y-57824117D01*
X62550224Y-57759703D01*
X62607819Y-57720148D01*
X62646378Y-57714000D01*
X67186931Y-57714000D01*
X67253970Y-57733685D01*
X67274612Y-57750319D01*
X68560926Y-59036633D01*
X68594411Y-59097956D01*
X68589427Y-59167648D01*
X68560927Y-59211995D01*
X68458183Y-59314739D01*
X68362211Y-59467476D01*
X68302631Y-59637745D01*
X68302630Y-59637750D01*
X68282435Y-59816996D01*
X68282435Y-59817003D01*
X68302630Y-59996249D01*
X68302631Y-59996254D01*
X68333324Y-60083968D01*
X68362211Y-60166522D01*
X68369740Y-60178505D01*
X68371742Y-60181690D01*
X68390744Y-60248927D01*
X68370378Y-60315762D01*
X68354431Y-60335346D01*
X66044097Y-62645681D01*
X65982774Y-62679166D01*
X65956416Y-62682000D01*
X63689584Y-62682000D01*
X63622545Y-62662315D01*
X63576790Y-62609511D01*
X63566846Y-62540353D01*
X63595871Y-62476797D01*
X63601903Y-62470319D01*
X64064746Y-62007476D01*
X66472622Y-59599597D01*
X66519346Y-59570239D01*
X66643522Y-59526789D01*
X66796262Y-59430816D01*
X66923816Y-59303262D01*
X67019789Y-59150522D01*
X67079368Y-58980255D01*
X67079369Y-58980249D01*
X67099565Y-58801003D01*
X67099565Y-58800996D01*
X67079369Y-58621750D01*
X67079368Y-58621745D01*
X67036418Y-58499002D01*
X67019789Y-58451478D01*
X67019786Y-58451474D01*
X66980582Y-58389080D01*
X66923816Y-58298738D01*
X66796262Y-58171184D01*
X66755302Y-58145447D01*
X66643523Y-58075211D01*
X66473254Y-58015631D01*
X66473249Y-58015630D01*
X66294004Y-57995435D01*
X66293996Y-57995435D01*
X66114750Y-58015630D01*
X66114745Y-58015631D01*
X65944476Y-58075211D01*
X65791737Y-58171184D01*
X65664184Y-58298737D01*
X65568212Y-58451475D01*
X65568211Y-58451478D01*
X65524760Y-58575651D01*
X65495400Y-58622377D01*
X62234097Y-61883681D01*
X62172774Y-61917166D01*
X62146416Y-61920000D01*
X60384613Y-61920000D01*
X60318641Y-61900994D01*
X60293523Y-61885211D01*
X60123254Y-61825631D01*
X60123249Y-61825630D01*
X59944004Y-61805435D01*
X59943996Y-61805435D01*
X59764750Y-61825630D01*
X59764745Y-61825631D01*
X59594476Y-61885211D01*
X59441737Y-61981184D01*
X59314184Y-62108737D01*
X59218211Y-62261476D01*
X59158631Y-62431745D01*
X59158629Y-62431755D01*
X59157707Y-62439939D01*
X59130637Y-62504352D01*
X59073039Y-62543903D01*
X59003202Y-62546036D01*
X58946807Y-62513729D01*
X58922262Y-62489184D01*
X58769523Y-62393211D01*
X58599254Y-62333631D01*
X58599249Y-62333630D01*
X58420004Y-62313435D01*
X58419996Y-62313435D01*
X58240750Y-62333630D01*
X58240745Y-62333631D01*
X58070476Y-62393211D01*
X57917737Y-62489184D01*
X57790184Y-62616737D01*
X57694211Y-62769476D01*
X57634631Y-62939745D01*
X57634630Y-62939750D01*
X57614435Y-63118996D01*
X57614435Y-63119003D01*
X57634630Y-63298249D01*
X57634631Y-63298254D01*
X57694211Y-63468523D01*
X57790184Y-63621262D01*
X57917738Y-63748816D01*
X58070478Y-63844789D01*
X58196004Y-63888712D01*
X58228162Y-63906778D01*
X58228448Y-63906351D01*
X58346687Y-63985355D01*
X58346690Y-63985357D01*
X58472438Y-64037443D01*
X58472443Y-64037445D01*
X58472447Y-64037445D01*
X58472448Y-64037446D01*
X58605939Y-64064000D01*
X58605942Y-64064000D01*
X66362060Y-64064000D01*
X66451870Y-64046134D01*
X66495557Y-64037445D01*
X66621311Y-63985356D01*
X66734487Y-63909735D01*
X69624735Y-61019486D01*
X69700356Y-60906311D01*
X69752445Y-60780557D01*
X69772114Y-60681676D01*
X69804499Y-60619765D01*
X69865214Y-60585191D01*
X69934984Y-60588930D01*
X69959703Y-60600873D01*
X70033204Y-60647057D01*
X70044560Y-60654192D01*
X70123105Y-60681676D01*
X70214827Y-60713771D01*
X70214832Y-60713772D01*
X70394078Y-60733968D01*
X70394082Y-60733968D01*
X70394086Y-60733968D01*
X70573331Y-60713772D01*
X70573334Y-60713771D01*
X70573337Y-60713771D01*
X70743604Y-60654192D01*
X70890514Y-60561881D01*
X70957750Y-60542882D01*
X71024586Y-60563250D01*
X71044167Y-60579195D01*
X71876359Y-61411387D01*
X71909844Y-61472710D01*
X71904860Y-61542402D01*
X71862988Y-61598335D01*
X71829633Y-61616109D01*
X71786480Y-61631209D01*
X71693972Y-61689336D01*
X71626735Y-61708336D01*
X71562028Y-61689336D01*
X71469523Y-61631211D01*
X71299254Y-61571631D01*
X71299249Y-61571630D01*
X71120004Y-61551435D01*
X71119996Y-61551435D01*
X70940750Y-61571630D01*
X70940745Y-61571631D01*
X70770476Y-61631211D01*
X70617737Y-61727184D01*
X70490184Y-61854737D01*
X70394211Y-62007476D01*
X70334631Y-62177745D01*
X70334630Y-62177750D01*
X70314435Y-62356996D01*
X70314435Y-62357003D01*
X70334630Y-62536249D01*
X70334631Y-62536254D01*
X70394211Y-62706523D01*
X70490184Y-62859262D01*
X70491106Y-62860184D01*
X70491510Y-62860925D01*
X70494525Y-62864705D01*
X70493862Y-62865232D01*
X70524591Y-62921507D01*
X70527425Y-62947865D01*
X70527425Y-64092185D01*
X70507740Y-64159224D01*
X70491106Y-64179866D01*
X66338866Y-68332106D01*
X66277543Y-68365591D01*
X66251185Y-68368425D01*
X62816015Y-68368425D01*
X62659986Y-68368425D01*
X62521629Y-68405497D01*
X62509271Y-68408809D01*
X62374154Y-68486820D01*
X62374148Y-68486824D01*
X59049096Y-71811875D01*
X58987773Y-71845360D01*
X58975299Y-71847414D01*
X58875752Y-71858630D01*
X58875747Y-71858631D01*
X58705478Y-71918210D01*
X58552737Y-72014184D01*
X58425184Y-72141737D01*
X58329211Y-72294476D01*
X58310000Y-72349380D01*
X58269278Y-72406156D01*
X58204325Y-72431903D01*
X58192958Y-72432425D01*
X57986992Y-72432425D01*
X57924992Y-72415812D01*
X57908267Y-72406156D01*
X57900168Y-72401480D01*
X57877813Y-72388573D01*
X57877812Y-72388572D01*
X57877811Y-72388572D01*
X57727099Y-72348189D01*
X57236608Y-72348189D01*
X57080579Y-72348189D01*
X56929865Y-72388572D01*
X56794744Y-72466586D01*
X56794741Y-72466588D01*
X56167824Y-73093504D01*
X56167820Y-73093510D01*
X56089809Y-73228627D01*
X56089808Y-73228631D01*
X56062774Y-73329523D01*
X56062774Y-73329524D01*
X56062773Y-73329523D01*
X56049425Y-73379341D01*
X56049425Y-77681184D01*
X56029740Y-77748223D01*
X56013106Y-77768865D01*
X55239095Y-78542875D01*
X55177772Y-78576360D01*
X55165297Y-78578414D01*
X55125968Y-78582845D01*
X55057146Y-78570790D01*
X55007092Y-78525598D01*
X54985817Y-78491739D01*
X54858262Y-78364184D01*
X54705522Y-78268211D01*
X54594078Y-78229215D01*
X54537302Y-78188493D01*
X54511555Y-78123540D01*
X54525011Y-78054978D01*
X54531931Y-78043282D01*
X54601892Y-77938578D01*
X54601899Y-77938565D01*
X54676144Y-77759320D01*
X54676148Y-77759306D01*
X54683569Y-77722000D01*
X53833728Y-77722000D01*
X53925614Y-77683940D01*
X53995940Y-77613614D01*
X54034000Y-77521728D01*
X54034000Y-77422272D01*
X53995940Y-77330386D01*
X53925614Y-77260060D01*
X53833728Y-77222000D01*
X54683569Y-77222000D01*
X54683569Y-77221999D01*
X54676148Y-77184693D01*
X54676144Y-77184679D01*
X54601899Y-77005434D01*
X54601892Y-77005421D01*
X54494099Y-76844099D01*
X54494096Y-76844095D01*
X54356904Y-76706903D01*
X54356900Y-76706900D01*
X54239109Y-76628194D01*
X54194304Y-76574582D01*
X54184000Y-76525092D01*
X54184000Y-76170428D01*
X54156914Y-75999415D01*
X54103408Y-75834742D01*
X54024804Y-75680475D01*
X53923032Y-75540397D01*
X53800602Y-75417967D01*
X53660524Y-75316195D01*
X53506257Y-75237591D01*
X53341589Y-75184087D01*
X53341581Y-75184085D01*
X53334000Y-75182884D01*
X53334000Y-76050011D01*
X53324060Y-76032795D01*
X53268205Y-75976940D01*
X53199796Y-75937444D01*
X53123496Y-75917000D01*
X53044504Y-75917000D01*
X52968204Y-75937444D01*
X52899795Y-75976940D01*
X52843940Y-76032795D01*
X52834000Y-76050011D01*
X52834000Y-75182884D01*
X52833999Y-75182884D01*
X52826418Y-75184085D01*
X52826410Y-75184087D01*
X52661742Y-75237591D01*
X52507475Y-75316195D01*
X52367397Y-75417967D01*
X52244967Y-75540397D01*
X52143195Y-75680475D01*
X52064591Y-75834742D01*
X52011085Y-75999415D01*
X51984000Y-76170428D01*
X51984000Y-76557000D01*
X52784000Y-76557000D01*
X52784000Y-77057000D01*
X51984000Y-77057000D01*
X51984000Y-77443571D01*
X52011085Y-77614584D01*
X52043646Y-77714793D01*
X52045641Y-77784635D01*
X52009561Y-77844468D01*
X51946860Y-77875296D01*
X51878265Y-77867674D01*
X51853815Y-77857547D01*
X51853812Y-77857546D01*
X51834000Y-77853604D01*
X51834000Y-78681943D01*
X51817134Y-78641225D01*
X51739775Y-78563866D01*
X51638701Y-78522000D01*
X51529299Y-78522000D01*
X51428225Y-78563866D01*
X51350866Y-78641225D01*
X51334000Y-78681943D01*
X51334000Y-77853605D01*
X51333999Y-77853604D01*
X51314187Y-77857546D01*
X51145850Y-77927273D01*
X51145843Y-77927277D01*
X51077465Y-77972966D01*
X51010787Y-77993843D01*
X50943407Y-77975358D01*
X50896718Y-77923379D01*
X50884575Y-77869863D01*
X50884575Y-73073988D01*
X50884575Y-73073986D01*
X50844192Y-72923275D01*
X50844192Y-72923274D01*
X50844192Y-72923273D01*
X50799433Y-72845750D01*
X50766178Y-72788150D01*
X49650894Y-71672866D01*
X49617409Y-71611543D01*
X49614575Y-71585185D01*
X49614575Y-66421000D01*
X50210551Y-66421000D01*
X50230317Y-66672151D01*
X50289126Y-66917110D01*
X50385533Y-67149859D01*
X50517160Y-67364653D01*
X50517161Y-67364656D01*
X50517164Y-67364659D01*
X50680776Y-67556224D01*
X50829066Y-67682875D01*
X50872343Y-67719838D01*
X50872346Y-67719839D01*
X51087140Y-67851466D01*
X51319889Y-67947873D01*
X51564852Y-68006683D01*
X51816000Y-68026449D01*
X52067148Y-68006683D01*
X52312111Y-67947873D01*
X52544859Y-67851466D01*
X52759659Y-67719836D01*
X52951224Y-67556224D01*
X53114836Y-67364659D01*
X53246466Y-67149859D01*
X53342873Y-66917111D01*
X53401683Y-66672148D01*
X53421449Y-66421000D01*
X53401683Y-66169852D01*
X53342873Y-65924889D01*
X53246466Y-65692141D01*
X53246466Y-65692140D01*
X53114839Y-65477346D01*
X53114838Y-65477343D01*
X53077875Y-65434066D01*
X52951224Y-65285776D01*
X52936423Y-65273135D01*
X60375500Y-65273135D01*
X60375500Y-67568870D01*
X60375501Y-67568876D01*
X60381908Y-67628483D01*
X60432202Y-67763328D01*
X60432206Y-67763335D01*
X60518452Y-67878544D01*
X60518455Y-67878547D01*
X60633664Y-67964793D01*
X60633671Y-67964797D01*
X60768517Y-68015091D01*
X60768516Y-68015091D01*
X60775444Y-68015835D01*
X60828127Y-68021500D01*
X63123872Y-68021499D01*
X63183483Y-68015091D01*
X63318331Y-67964796D01*
X63433546Y-67878546D01*
X63519796Y-67763331D01*
X63570091Y-67628483D01*
X63576500Y-67568873D01*
X63576499Y-65273128D01*
X63570091Y-65213517D01*
X63536017Y-65122161D01*
X63519797Y-65078671D01*
X63519793Y-65078664D01*
X63433547Y-64963455D01*
X63433544Y-64963452D01*
X63318335Y-64877206D01*
X63318328Y-64877202D01*
X63183482Y-64826908D01*
X63183483Y-64826908D01*
X63123883Y-64820501D01*
X63123881Y-64820500D01*
X63123873Y-64820500D01*
X63123864Y-64820500D01*
X60828129Y-64820500D01*
X60828123Y-64820501D01*
X60768516Y-64826908D01*
X60633671Y-64877202D01*
X60633664Y-64877206D01*
X60518455Y-64963452D01*
X60518452Y-64963455D01*
X60432206Y-65078664D01*
X60432202Y-65078671D01*
X60381908Y-65213517D01*
X60375501Y-65273116D01*
X60375501Y-65273123D01*
X60375500Y-65273135D01*
X52936423Y-65273135D01*
X52824571Y-65177604D01*
X52759656Y-65122161D01*
X52759653Y-65122160D01*
X52544859Y-64990533D01*
X52312110Y-64894126D01*
X52067151Y-64835317D01*
X51816000Y-64815551D01*
X51564848Y-64835317D01*
X51319889Y-64894126D01*
X51087140Y-64990533D01*
X50872346Y-65122160D01*
X50872343Y-65122161D01*
X50680776Y-65285776D01*
X50517161Y-65477343D01*
X50517160Y-65477346D01*
X50385533Y-65692140D01*
X50289126Y-65924889D01*
X50230317Y-66169848D01*
X50210551Y-66421000D01*
X49614575Y-66421000D01*
X49614575Y-61686158D01*
X49634260Y-61619119D01*
X49687064Y-61573364D01*
X49756222Y-61563420D01*
X49819778Y-61592445D01*
X49826256Y-61598477D01*
X50001398Y-61773619D01*
X50030758Y-61820345D01*
X50074209Y-61944519D01*
X50074211Y-61944522D01*
X50170184Y-62097262D01*
X50297738Y-62224816D01*
X50346568Y-62255498D01*
X50439967Y-62314185D01*
X50450478Y-62320789D01*
X50553952Y-62356996D01*
X50620745Y-62380368D01*
X50620750Y-62380369D01*
X50799996Y-62400565D01*
X50800000Y-62400565D01*
X50800004Y-62400565D01*
X50979249Y-62380369D01*
X50979252Y-62380368D01*
X50979255Y-62380368D01*
X51149522Y-62320789D01*
X51302262Y-62224816D01*
X51311418Y-62215660D01*
X54512892Y-62215660D01*
X54512892Y-62215661D01*
X54526692Y-62224333D01*
X54526691Y-62224333D01*
X54696861Y-62283878D01*
X54875997Y-62304062D01*
X54876003Y-62304062D01*
X55055138Y-62283878D01*
X55055141Y-62283877D01*
X55225305Y-62224334D01*
X55225306Y-62224334D01*
X55239106Y-62215661D01*
X55239106Y-62215660D01*
X56012892Y-62215660D01*
X56012892Y-62215661D01*
X56026692Y-62224333D01*
X56026691Y-62224333D01*
X56196861Y-62283878D01*
X56375997Y-62304062D01*
X56376003Y-62304062D01*
X56555138Y-62283878D01*
X56555141Y-62283877D01*
X56725305Y-62224334D01*
X56725306Y-62224334D01*
X56739106Y-62215661D01*
X56739106Y-62215660D01*
X56376001Y-61852553D01*
X56376000Y-61852553D01*
X56012892Y-62215660D01*
X55239106Y-62215660D01*
X54876001Y-61852553D01*
X54876000Y-61852553D01*
X54512892Y-62215660D01*
X51311418Y-62215660D01*
X51429816Y-62097262D01*
X51525789Y-61944522D01*
X51585368Y-61774255D01*
X51590672Y-61727184D01*
X51605565Y-61595003D01*
X51605565Y-61594996D01*
X51594749Y-61498997D01*
X54070938Y-61498997D01*
X54070938Y-61499002D01*
X54091121Y-61678138D01*
X54150665Y-61848304D01*
X54159338Y-61862107D01*
X54522446Y-61499000D01*
X54522446Y-61498999D01*
X54492610Y-61469163D01*
X54726000Y-61469163D01*
X54726000Y-61528837D01*
X54748836Y-61583968D01*
X54791032Y-61626164D01*
X54846163Y-61649000D01*
X54905837Y-61649000D01*
X54960968Y-61626164D01*
X55003164Y-61583968D01*
X55026000Y-61528837D01*
X55026000Y-61499000D01*
X55229553Y-61499000D01*
X55592659Y-61862106D01*
X55612120Y-61859914D01*
X55639883Y-61859915D01*
X55659338Y-61862107D01*
X56022446Y-61499000D01*
X56022446Y-61498999D01*
X55992610Y-61469163D01*
X56226000Y-61469163D01*
X56226000Y-61528837D01*
X56248836Y-61583968D01*
X56291032Y-61626164D01*
X56346163Y-61649000D01*
X56405837Y-61649000D01*
X56460968Y-61626164D01*
X56503164Y-61583968D01*
X56526000Y-61528837D01*
X56526000Y-61499000D01*
X56729553Y-61499000D01*
X57092660Y-61862106D01*
X57092661Y-61862106D01*
X57101334Y-61848306D01*
X57101334Y-61848305D01*
X57160877Y-61678141D01*
X57160878Y-61678138D01*
X57181062Y-61499002D01*
X57181062Y-61498997D01*
X57160878Y-61319861D01*
X57101333Y-61149692D01*
X57092661Y-61135892D01*
X57092660Y-61135892D01*
X56729553Y-61499000D01*
X56526000Y-61499000D01*
X56526000Y-61469163D01*
X56503164Y-61414032D01*
X56460968Y-61371836D01*
X56405837Y-61349000D01*
X56346163Y-61349000D01*
X56291032Y-61371836D01*
X56248836Y-61414032D01*
X56226000Y-61469163D01*
X55992610Y-61469163D01*
X55659337Y-61135891D01*
X55639884Y-61138083D01*
X55612120Y-61138084D01*
X55592660Y-61135892D01*
X55229553Y-61499000D01*
X55026000Y-61499000D01*
X55026000Y-61469163D01*
X55003164Y-61414032D01*
X54960968Y-61371836D01*
X54905837Y-61349000D01*
X54846163Y-61349000D01*
X54791032Y-61371836D01*
X54748836Y-61414032D01*
X54726000Y-61469163D01*
X54492610Y-61469163D01*
X54159338Y-61135891D01*
X54159337Y-61135891D01*
X54150667Y-61149691D01*
X54150662Y-61149701D01*
X54091122Y-61319858D01*
X54091121Y-61319861D01*
X54070938Y-61498997D01*
X51594749Y-61498997D01*
X51585369Y-61415750D01*
X51585368Y-61415745D01*
X51575238Y-61386796D01*
X51525789Y-61245478D01*
X51510004Y-61220357D01*
X51465608Y-61149701D01*
X51429816Y-61092738D01*
X51302262Y-60965184D01*
X51149522Y-60869211D01*
X51149519Y-60869209D01*
X51025345Y-60825758D01*
X50978619Y-60796398D01*
X50964558Y-60782337D01*
X54512891Y-60782337D01*
X54876000Y-61145446D01*
X54876001Y-61145446D01*
X55239107Y-60782338D01*
X55239107Y-60782337D01*
X56012891Y-60782337D01*
X56376000Y-61145446D01*
X56376001Y-61145446D01*
X56739107Y-60782338D01*
X56736915Y-60762883D01*
X56736914Y-60735120D01*
X56739106Y-60715659D01*
X56376001Y-60352553D01*
X56376000Y-60352553D01*
X56012892Y-60715660D01*
X56015084Y-60735120D01*
X56015083Y-60762884D01*
X56012891Y-60782337D01*
X55239107Y-60782337D01*
X55236915Y-60762883D01*
X55236914Y-60735120D01*
X55239106Y-60715659D01*
X54876001Y-60352553D01*
X54876000Y-60352553D01*
X54512892Y-60715660D01*
X54515084Y-60735120D01*
X54515083Y-60762884D01*
X54512891Y-60782337D01*
X50964558Y-60782337D01*
X50328819Y-60146597D01*
X50295334Y-60085274D01*
X50292500Y-60058916D01*
X50292500Y-59998997D01*
X54070938Y-59998997D01*
X54070938Y-59999002D01*
X54091121Y-60178138D01*
X54150665Y-60348304D01*
X54159338Y-60362107D01*
X54522446Y-59999000D01*
X54522446Y-59998999D01*
X54492610Y-59969163D01*
X54726000Y-59969163D01*
X54726000Y-60028837D01*
X54748836Y-60083968D01*
X54791032Y-60126164D01*
X54846163Y-60149000D01*
X54905837Y-60149000D01*
X54960968Y-60126164D01*
X55003164Y-60083968D01*
X55026000Y-60028837D01*
X55026000Y-59999000D01*
X55229553Y-59999000D01*
X55592659Y-60362106D01*
X55612120Y-60359914D01*
X55639883Y-60359915D01*
X55659338Y-60362107D01*
X56022446Y-59999000D01*
X56022446Y-59998999D01*
X55992610Y-59969163D01*
X56226000Y-59969163D01*
X56226000Y-60028837D01*
X56248836Y-60083968D01*
X56291032Y-60126164D01*
X56346163Y-60149000D01*
X56405837Y-60149000D01*
X56460968Y-60126164D01*
X56503164Y-60083968D01*
X56526000Y-60028837D01*
X56526000Y-59999000D01*
X56729553Y-59999000D01*
X57092660Y-60362106D01*
X57092661Y-60362106D01*
X57101334Y-60348306D01*
X57101334Y-60348305D01*
X57160877Y-60178141D01*
X57160878Y-60178138D01*
X57181062Y-59999002D01*
X57181062Y-59998997D01*
X57160878Y-59819861D01*
X57101333Y-59649692D01*
X57092661Y-59635892D01*
X57092660Y-59635892D01*
X56729553Y-59999000D01*
X56526000Y-59999000D01*
X56526000Y-59969163D01*
X56503164Y-59914032D01*
X56460968Y-59871836D01*
X56405837Y-59849000D01*
X56346163Y-59849000D01*
X56291032Y-59871836D01*
X56248836Y-59914032D01*
X56226000Y-59969163D01*
X55992610Y-59969163D01*
X55659337Y-59635891D01*
X55639884Y-59638083D01*
X55612120Y-59638084D01*
X55592660Y-59635892D01*
X55229553Y-59999000D01*
X55026000Y-59999000D01*
X55026000Y-59969163D01*
X55003164Y-59914032D01*
X54960968Y-59871836D01*
X54905837Y-59849000D01*
X54846163Y-59849000D01*
X54791032Y-59871836D01*
X54748836Y-59914032D01*
X54726000Y-59969163D01*
X54492610Y-59969163D01*
X54159338Y-59635891D01*
X54159337Y-59635891D01*
X54150667Y-59649691D01*
X54150662Y-59649701D01*
X54091122Y-59819858D01*
X54091121Y-59819861D01*
X54070938Y-59998997D01*
X50292500Y-59998997D01*
X50292500Y-59717321D01*
X50312185Y-59650282D01*
X50364989Y-59604527D01*
X50402612Y-59594101D01*
X50471255Y-59586368D01*
X50641522Y-59526789D01*
X50794262Y-59430816D01*
X50921816Y-59303262D01*
X50934964Y-59282337D01*
X54512891Y-59282337D01*
X54876000Y-59645446D01*
X54876001Y-59645446D01*
X55239107Y-59282338D01*
X55239107Y-59282337D01*
X56012891Y-59282337D01*
X56376000Y-59645446D01*
X56376001Y-59645446D01*
X56739107Y-59282338D01*
X56736915Y-59262883D01*
X56736914Y-59235120D01*
X56739106Y-59215659D01*
X56376001Y-58852553D01*
X56376000Y-58852553D01*
X56012892Y-59215660D01*
X56015084Y-59235120D01*
X56015083Y-59262884D01*
X56012891Y-59282337D01*
X55239107Y-59282337D01*
X55236915Y-59262883D01*
X55236914Y-59235120D01*
X55239106Y-59215659D01*
X54876001Y-58852553D01*
X54876000Y-58852553D01*
X54512892Y-59215660D01*
X54515084Y-59235120D01*
X54515083Y-59262884D01*
X54512891Y-59282337D01*
X50934964Y-59282337D01*
X51017789Y-59150522D01*
X51061239Y-59026345D01*
X51090597Y-58979623D01*
X51571223Y-58498997D01*
X54070938Y-58498997D01*
X54070938Y-58499002D01*
X54091121Y-58678138D01*
X54150665Y-58848304D01*
X54159338Y-58862107D01*
X54522446Y-58499000D01*
X54522446Y-58498999D01*
X54492610Y-58469163D01*
X54726000Y-58469163D01*
X54726000Y-58528837D01*
X54748836Y-58583968D01*
X54791032Y-58626164D01*
X54846163Y-58649000D01*
X54905837Y-58649000D01*
X54960968Y-58626164D01*
X55003164Y-58583968D01*
X55026000Y-58528837D01*
X55026000Y-58499000D01*
X55229553Y-58499000D01*
X55592659Y-58862106D01*
X55612120Y-58859914D01*
X55639883Y-58859915D01*
X55659338Y-58862107D01*
X56022446Y-58499000D01*
X56022446Y-58498999D01*
X55992610Y-58469163D01*
X56226000Y-58469163D01*
X56226000Y-58528837D01*
X56248836Y-58583968D01*
X56291032Y-58626164D01*
X56346163Y-58649000D01*
X56405837Y-58649000D01*
X56460968Y-58626164D01*
X56503164Y-58583968D01*
X56526000Y-58528837D01*
X56526000Y-58469163D01*
X56503164Y-58414032D01*
X56460968Y-58371836D01*
X56405837Y-58349000D01*
X56346163Y-58349000D01*
X56291032Y-58371836D01*
X56248836Y-58414032D01*
X56226000Y-58469163D01*
X55992610Y-58469163D01*
X55659337Y-58135891D01*
X55639884Y-58138083D01*
X55612120Y-58138084D01*
X55592660Y-58135892D01*
X55229553Y-58499000D01*
X55026000Y-58499000D01*
X55026000Y-58469163D01*
X55003164Y-58414032D01*
X54960968Y-58371836D01*
X54905837Y-58349000D01*
X54846163Y-58349000D01*
X54791032Y-58371836D01*
X54748836Y-58414032D01*
X54726000Y-58469163D01*
X54492610Y-58469163D01*
X54159338Y-58135891D01*
X54159337Y-58135891D01*
X54150667Y-58149691D01*
X54150662Y-58149701D01*
X54091122Y-58319858D01*
X54091121Y-58319861D01*
X54070938Y-58498997D01*
X51571223Y-58498997D01*
X52287883Y-57782337D01*
X54512891Y-57782337D01*
X54512891Y-57782338D01*
X54876000Y-58145446D01*
X54876001Y-58145446D01*
X55239107Y-57782338D01*
X55225304Y-57773665D01*
X55055138Y-57714121D01*
X54876003Y-57693938D01*
X54875997Y-57693938D01*
X54696861Y-57714121D01*
X54696858Y-57714122D01*
X54526701Y-57773662D01*
X54526691Y-57773667D01*
X54512891Y-57782337D01*
X52287883Y-57782337D01*
X54317890Y-55752329D01*
X54379213Y-55718845D01*
X54448905Y-55723829D01*
G37*
%TD.AperFunction*%
%TD*%
M02*
