%TF.GenerationSoftware,KiCad,Pcbnew,8.0.3*%
%TF.CreationDate,2024-07-09T21:28:30-04:00*%
%TF.ProjectId,PCB,5043422e-6b69-4636-9164-5f7063625858,rev?*%
%TF.SameCoordinates,Original*%
%TF.FileFunction,Paste,Top*%
%TF.FilePolarity,Positive*%
%FSLAX46Y46*%
G04 Gerber Fmt 4.6, Leading zero omitted, Abs format (unit mm)*
G04 Created by KiCad (PCBNEW 8.0.3) date 2024-07-09 21:28:30*
%MOMM*%
%LPD*%
G01*
G04 APERTURE LIST*
G04 Aperture macros list*
%AMRoundRect*
0 Rectangle with rounded corners*
0 $1 Rounding radius*
0 $2 $3 $4 $5 $6 $7 $8 $9 X,Y pos of 4 corners*
0 Add a 4 corners polygon primitive as box body*
4,1,4,$2,$3,$4,$5,$6,$7,$8,$9,$2,$3,0*
0 Add four circle primitives for the rounded corners*
1,1,$1+$1,$2,$3*
1,1,$1+$1,$4,$5*
1,1,$1+$1,$6,$7*
1,1,$1+$1,$8,$9*
0 Add four rect primitives between the rounded corners*
20,1,$1+$1,$2,$3,$4,$5,0*
20,1,$1+$1,$4,$5,$6,$7,0*
20,1,$1+$1,$6,$7,$8,$9,0*
20,1,$1+$1,$8,$9,$2,$3,0*%
%AMOutline5P*
0 Free polygon, 5 corners , with rotation*
0 The origin of the aperture is its center*
0 number of corners: always 5*
0 $1 to $10 corner X, Y*
0 $11 Rotation angle, in degrees counterclockwise*
0 create outline with 5 corners*
4,1,5,$1,$2,$3,$4,$5,$6,$7,$8,$9,$10,$1,$2,$11*%
%AMOutline6P*
0 Free polygon, 6 corners , with rotation*
0 The origin of the aperture is its center*
0 number of corners: always 6*
0 $1 to $12 corner X, Y*
0 $13 Rotation angle, in degrees counterclockwise*
0 create outline with 6 corners*
4,1,6,$1,$2,$3,$4,$5,$6,$7,$8,$9,$10,$11,$12,$1,$2,$13*%
%AMOutline7P*
0 Free polygon, 7 corners , with rotation*
0 The origin of the aperture is its center*
0 number of corners: always 7*
0 $1 to $14 corner X, Y*
0 $15 Rotation angle, in degrees counterclockwise*
0 create outline with 7 corners*
4,1,7,$1,$2,$3,$4,$5,$6,$7,$8,$9,$10,$11,$12,$13,$14,$1,$2,$15*%
%AMOutline8P*
0 Free polygon, 8 corners , with rotation*
0 The origin of the aperture is its center*
0 number of corners: always 8*
0 $1 to $16 corner X, Y*
0 $17 Rotation angle, in degrees counterclockwise*
0 create outline with 8 corners*
4,1,8,$1,$2,$3,$4,$5,$6,$7,$8,$9,$10,$11,$12,$13,$14,$15,$16,$1,$2,$17*%
G04 Aperture macros list end*
%ADD10R,0.270000X0.900000*%
%ADD11R,0.270000X0.800000*%
%ADD12R,0.800000X0.400000*%
%ADD13R,0.400000X0.800000*%
%ADD14Outline5P,-0.600000X0.204000X-0.204000X0.600000X0.600000X0.600000X0.600000X-0.600000X-0.600000X-0.600000X0.000000*%
%ADD15R,1.200000X1.200000*%
%ADD16R,0.800000X0.800000*%
%ADD17RoundRect,0.232500X-0.757500X-0.232500X0.757500X-0.232500X0.757500X0.232500X-0.757500X0.232500X0*%
%ADD18RoundRect,0.100000X-0.687500X-0.100000X0.687500X-0.100000X0.687500X0.100000X-0.687500X0.100000X0*%
%ADD19RoundRect,0.250000X-0.262500X-0.450000X0.262500X-0.450000X0.262500X0.450000X-0.262500X0.450000X0*%
%ADD20RoundRect,0.075000X0.350000X0.075000X-0.350000X0.075000X-0.350000X-0.075000X0.350000X-0.075000X0*%
%ADD21RoundRect,0.075000X-0.075000X0.350000X-0.075000X-0.350000X0.075000X-0.350000X0.075000X0.350000X0*%
%ADD22RoundRect,0.243750X-0.456250X0.243750X-0.456250X-0.243750X0.456250X-0.243750X0.456250X0.243750X0*%
%ADD23RoundRect,0.250000X0.450000X-0.262500X0.450000X0.262500X-0.450000X0.262500X-0.450000X-0.262500X0*%
%ADD24RoundRect,0.250000X0.250000X0.475000X-0.250000X0.475000X-0.250000X-0.475000X0.250000X-0.475000X0*%
%ADD25RoundRect,0.250000X0.475000X-0.250000X0.475000X0.250000X-0.475000X0.250000X-0.475000X-0.250000X0*%
%ADD26RoundRect,0.250000X-0.250000X-0.475000X0.250000X-0.475000X0.250000X0.475000X-0.250000X0.475000X0*%
%ADD27RoundRect,0.250000X-0.450000X0.262500X-0.450000X-0.262500X0.450000X-0.262500X0.450000X0.262500X0*%
%ADD28RoundRect,0.150000X0.150000X-0.512500X0.150000X0.512500X-0.150000X0.512500X-0.150000X-0.512500X0*%
%ADD29R,2.750000X1.000000*%
%ADD30RoundRect,0.250000X-0.475000X0.250000X-0.475000X-0.250000X0.475000X-0.250000X0.475000X0.250000X0*%
%ADD31RoundRect,0.250000X0.262500X0.450000X-0.262500X0.450000X-0.262500X-0.450000X0.262500X-0.450000X0*%
G04 APERTURE END LIST*
D10*
%TO.C,J3*%
X54779000Y-76107000D03*
X55279000Y-76107000D03*
X55779000Y-76107000D03*
X56279000Y-76107000D03*
X56779000Y-76107000D03*
X57279000Y-76107000D03*
X57779000Y-76107000D03*
X58279000Y-76107000D03*
X58779000Y-76107000D03*
X59279000Y-76107000D03*
X59779000Y-76107000D03*
X60279000Y-76107000D03*
D11*
X60029000Y-77707000D03*
X59529000Y-77707000D03*
X59029000Y-77707000D03*
X58529000Y-77707000D03*
X58029000Y-77707000D03*
X57529000Y-77707000D03*
X57029000Y-77707000D03*
X56529000Y-77707000D03*
X56029000Y-77707000D03*
X55529000Y-77707000D03*
X55029000Y-77707000D03*
X54529000Y-77707000D03*
%TD*%
D12*
%TO.C,U3*%
X64262000Y-48093000D03*
X64262000Y-48943000D03*
X64262000Y-49793000D03*
X64262000Y-50643000D03*
X64262000Y-51493000D03*
X64262000Y-52343000D03*
X64262000Y-53193000D03*
X64262000Y-54043000D03*
X64262000Y-54893000D03*
X64262000Y-55743000D03*
X64262000Y-56593000D03*
X64262000Y-57443000D03*
X64262000Y-58293000D03*
X64262000Y-59143000D03*
X64262000Y-59993000D03*
D13*
X65312000Y-61043000D03*
X66162000Y-61043000D03*
X67012000Y-61043000D03*
X67862000Y-61043000D03*
X68712000Y-61043000D03*
X69562000Y-61043000D03*
X70412000Y-61043000D03*
X71262000Y-61043000D03*
X72112000Y-61043000D03*
X72962000Y-61043000D03*
X73812000Y-61043000D03*
X74662000Y-61043000D03*
X75512000Y-61043000D03*
X76362000Y-61043000D03*
X77212000Y-61043000D03*
D12*
X78262000Y-59993000D03*
X78262000Y-59143000D03*
X78262000Y-58293000D03*
X78262000Y-57443000D03*
X78262000Y-56593000D03*
X78262000Y-55743000D03*
X78262000Y-54893000D03*
X78262000Y-54043000D03*
X78262000Y-53193000D03*
X78262000Y-52343000D03*
X78262000Y-51493000D03*
X78262000Y-50643000D03*
X78262000Y-49793000D03*
X78262000Y-48943000D03*
X78262000Y-48093000D03*
D13*
X77212000Y-47043000D03*
X76362000Y-47043000D03*
X75512000Y-47043000D03*
X74662000Y-47043000D03*
X73812000Y-47043000D03*
X72962000Y-47043000D03*
X72112000Y-47043000D03*
X71262000Y-47043000D03*
X70412000Y-47043000D03*
X69562000Y-47043000D03*
X68712000Y-47043000D03*
X67862000Y-47043000D03*
X67012000Y-47043000D03*
X66162000Y-47043000D03*
X65312000Y-47043000D03*
D14*
X69612000Y-52393000D03*
D15*
X69612000Y-54043000D03*
X69612000Y-55693000D03*
X71262000Y-52393000D03*
X71262000Y-54043000D03*
X71262000Y-55693000D03*
X72912000Y-52393000D03*
X72912000Y-54043000D03*
X72912000Y-55693000D03*
D16*
X64262000Y-47043000D03*
X64262000Y-61043000D03*
X78262000Y-61043000D03*
X78262000Y-47043000D03*
%TD*%
D17*
%TO.C,U2*%
X55626000Y-59419000D03*
X55626000Y-60579000D03*
D18*
X52763500Y-57724000D03*
X52763500Y-58374000D03*
X52763500Y-59024000D03*
X52763500Y-59674000D03*
X52763500Y-60324000D03*
X52763500Y-60974000D03*
X52763500Y-61624000D03*
X52763500Y-62274000D03*
X58488500Y-62274000D03*
X58488500Y-61624000D03*
X58488500Y-60974000D03*
X58488500Y-60324000D03*
X58488500Y-59674000D03*
X58488500Y-59024000D03*
X58488500Y-58374000D03*
X58488500Y-57724000D03*
%TD*%
D19*
%TO.C,R10*%
X52173500Y-50165000D03*
X53998500Y-50165000D03*
%TD*%
D20*
%TO.C,U1*%
X88818000Y-55987000D03*
X88818000Y-55487000D03*
X88818000Y-54987000D03*
X88818000Y-54487000D03*
X88818000Y-53987000D03*
X88818000Y-53487000D03*
D21*
X88118000Y-52787000D03*
X87618000Y-52787000D03*
X87118000Y-52787000D03*
X86618000Y-52787000D03*
X86118000Y-52787000D03*
X85618000Y-52787000D03*
D20*
X84918000Y-53487000D03*
X84918000Y-53987000D03*
X84918000Y-54487000D03*
X84918000Y-54987000D03*
X84918000Y-55487000D03*
X84918000Y-55987000D03*
D21*
X85618000Y-56687000D03*
X86118000Y-56687000D03*
X86618000Y-56687000D03*
X87118000Y-56687000D03*
X87618000Y-56687000D03*
X88118000Y-56687000D03*
%TD*%
D22*
%TO.C,D2*%
X60198000Y-48798000D03*
X60198000Y-50673000D03*
%TD*%
D23*
%TO.C,R8*%
X54610000Y-71937500D03*
X54610000Y-70112500D03*
%TD*%
%TO.C,R7*%
X57912000Y-71937500D03*
X57912000Y-70112500D03*
%TD*%
D24*
%TO.C,C10*%
X85532000Y-74549000D03*
X83632000Y-74549000D03*
%TD*%
D25*
%TO.C,C2*%
X82804000Y-50607000D03*
X82804000Y-48707000D03*
%TD*%
D26*
%TO.C,C4*%
X89916000Y-74295000D03*
X91816000Y-74295000D03*
%TD*%
D23*
%TO.C,R3*%
X91186000Y-50569500D03*
X91186000Y-48744500D03*
%TD*%
D25*
%TO.C,C8*%
X73660000Y-68641000D03*
X73660000Y-66741000D03*
%TD*%
D26*
%TO.C,C13*%
X89982000Y-63627000D03*
X91882000Y-63627000D03*
%TD*%
D25*
%TO.C,C9*%
X77216000Y-66741000D03*
X77216000Y-68641000D03*
%TD*%
D26*
%TO.C,C14*%
X89916000Y-67183000D03*
X91816000Y-67183000D03*
%TD*%
D23*
%TO.C,R1*%
X89916000Y-60729500D03*
X89916000Y-58904500D03*
%TD*%
D24*
%TO.C,C1*%
X88072000Y-48895000D03*
X86172000Y-48895000D03*
%TD*%
%TO.C,C16*%
X81890000Y-82899000D03*
X79990000Y-82899000D03*
%TD*%
D27*
%TO.C,R2*%
X82804000Y-54078500D03*
X82804000Y-55903500D03*
%TD*%
D28*
%TO.C,U4*%
X65024000Y-65913000D03*
X65974000Y-65913000D03*
X66924000Y-65913000D03*
X66924000Y-63638000D03*
X65024000Y-63638000D03*
%TD*%
D26*
%TO.C,C7*%
X79990000Y-78835000D03*
X81890000Y-78835000D03*
%TD*%
D19*
%TO.C,R5*%
X52070000Y-53577000D03*
X53895000Y-53577000D03*
%TD*%
D29*
%TO.C,RESET*%
X70018000Y-78899000D03*
X75778000Y-78899000D03*
X70018000Y-82899000D03*
X75778000Y-82899000D03*
%TD*%
D30*
%TO.C,C6*%
X56388000Y-53389000D03*
X56388000Y-55289000D03*
%TD*%
D31*
%TO.C,R6*%
X82954500Y-58801000D03*
X81129500Y-58801000D03*
%TD*%
D30*
%TO.C,C5*%
X60960000Y-59629000D03*
X60960000Y-61529000D03*
%TD*%
D27*
%TO.C,R9*%
X70104000Y-66778500D03*
X70104000Y-68603500D03*
%TD*%
D24*
%TO.C,C12*%
X85532000Y-67183000D03*
X83632000Y-67183000D03*
%TD*%
D23*
%TO.C,R4*%
X60198000Y-55251500D03*
X60198000Y-53426500D03*
%TD*%
D24*
%TO.C,C3*%
X85532000Y-63627000D03*
X83632000Y-63627000D03*
%TD*%
D29*
%TO.C,BOOT*%
X91186000Y-82867000D03*
X85426000Y-82867000D03*
X91186000Y-78867000D03*
X85426000Y-78867000D03*
%TD*%
D26*
%TO.C,C15*%
X89916000Y-70739000D03*
X91816000Y-70739000D03*
%TD*%
D24*
%TO.C,C11*%
X85532000Y-70739000D03*
X83632000Y-70739000D03*
%TD*%
M02*
