%TF.GenerationSoftware,KiCad,Pcbnew,8.0.3*%
%TF.CreationDate,2024-07-09T21:28:30-04:00*%
%TF.ProjectId,PCB,5043422e-6b69-4636-9164-5f7063625858,rev?*%
%TF.SameCoordinates,Original*%
%TF.FileFunction,Legend,Top*%
%TF.FilePolarity,Positive*%
%FSLAX46Y46*%
G04 Gerber Fmt 4.6, Leading zero omitted, Abs format (unit mm)*
G04 Created by KiCad (PCBNEW 8.0.3) date 2024-07-09 21:28:30*
%MOMM*%
%LPD*%
G01*
G04 APERTURE LIST*
%ADD10C,0.150000*%
%ADD11C,0.120000*%
G04 APERTURE END LIST*
D10*
X50974666Y-72860819D02*
X50974666Y-73575104D01*
X50974666Y-73575104D02*
X50927047Y-73717961D01*
X50927047Y-73717961D02*
X50831809Y-73813200D01*
X50831809Y-73813200D02*
X50688952Y-73860819D01*
X50688952Y-73860819D02*
X50593714Y-73860819D01*
X51355619Y-72860819D02*
X51974666Y-72860819D01*
X51974666Y-72860819D02*
X51641333Y-73241771D01*
X51641333Y-73241771D02*
X51784190Y-73241771D01*
X51784190Y-73241771D02*
X51879428Y-73289390D01*
X51879428Y-73289390D02*
X51927047Y-73337009D01*
X51927047Y-73337009D02*
X51974666Y-73432247D01*
X51974666Y-73432247D02*
X51974666Y-73670342D01*
X51974666Y-73670342D02*
X51927047Y-73765580D01*
X51927047Y-73765580D02*
X51879428Y-73813200D01*
X51879428Y-73813200D02*
X51784190Y-73860819D01*
X51784190Y-73860819D02*
X51498476Y-73860819D01*
X51498476Y-73860819D02*
X51403238Y-73813200D01*
X51403238Y-73813200D02*
X51355619Y-73765580D01*
X68326095Y-62192819D02*
X68326095Y-63002342D01*
X68326095Y-63002342D02*
X68373714Y-63097580D01*
X68373714Y-63097580D02*
X68421333Y-63145200D01*
X68421333Y-63145200D02*
X68516571Y-63192819D01*
X68516571Y-63192819D02*
X68707047Y-63192819D01*
X68707047Y-63192819D02*
X68802285Y-63145200D01*
X68802285Y-63145200D02*
X68849904Y-63097580D01*
X68849904Y-63097580D02*
X68897523Y-63002342D01*
X68897523Y-63002342D02*
X68897523Y-62192819D01*
X69278476Y-62192819D02*
X69897523Y-62192819D01*
X69897523Y-62192819D02*
X69564190Y-62573771D01*
X69564190Y-62573771D02*
X69707047Y-62573771D01*
X69707047Y-62573771D02*
X69802285Y-62621390D01*
X69802285Y-62621390D02*
X69849904Y-62669009D01*
X69849904Y-62669009D02*
X69897523Y-62764247D01*
X69897523Y-62764247D02*
X69897523Y-63002342D01*
X69897523Y-63002342D02*
X69849904Y-63097580D01*
X69849904Y-63097580D02*
X69802285Y-63145200D01*
X69802285Y-63145200D02*
X69707047Y-63192819D01*
X69707047Y-63192819D02*
X69421333Y-63192819D01*
X69421333Y-63192819D02*
X69326095Y-63145200D01*
X69326095Y-63145200D02*
X69278476Y-63097580D01*
X54864095Y-56003819D02*
X54864095Y-56813342D01*
X54864095Y-56813342D02*
X54911714Y-56908580D01*
X54911714Y-56908580D02*
X54959333Y-56956200D01*
X54959333Y-56956200D02*
X55054571Y-57003819D01*
X55054571Y-57003819D02*
X55245047Y-57003819D01*
X55245047Y-57003819D02*
X55340285Y-56956200D01*
X55340285Y-56956200D02*
X55387904Y-56908580D01*
X55387904Y-56908580D02*
X55435523Y-56813342D01*
X55435523Y-56813342D02*
X55435523Y-56003819D01*
X55864095Y-56099057D02*
X55911714Y-56051438D01*
X55911714Y-56051438D02*
X56006952Y-56003819D01*
X56006952Y-56003819D02*
X56245047Y-56003819D01*
X56245047Y-56003819D02*
X56340285Y-56051438D01*
X56340285Y-56051438D02*
X56387904Y-56099057D01*
X56387904Y-56099057D02*
X56435523Y-56194295D01*
X56435523Y-56194295D02*
X56435523Y-56289533D01*
X56435523Y-56289533D02*
X56387904Y-56432390D01*
X56387904Y-56432390D02*
X55816476Y-57003819D01*
X55816476Y-57003819D02*
X56435523Y-57003819D01*
X52443142Y-48969819D02*
X52109809Y-48493628D01*
X51871714Y-48969819D02*
X51871714Y-47969819D01*
X51871714Y-47969819D02*
X52252666Y-47969819D01*
X52252666Y-47969819D02*
X52347904Y-48017438D01*
X52347904Y-48017438D02*
X52395523Y-48065057D01*
X52395523Y-48065057D02*
X52443142Y-48160295D01*
X52443142Y-48160295D02*
X52443142Y-48303152D01*
X52443142Y-48303152D02*
X52395523Y-48398390D01*
X52395523Y-48398390D02*
X52347904Y-48446009D01*
X52347904Y-48446009D02*
X52252666Y-48493628D01*
X52252666Y-48493628D02*
X51871714Y-48493628D01*
X53395523Y-48969819D02*
X52824095Y-48969819D01*
X53109809Y-48969819D02*
X53109809Y-47969819D01*
X53109809Y-47969819D02*
X53014571Y-48112676D01*
X53014571Y-48112676D02*
X52919333Y-48207914D01*
X52919333Y-48207914D02*
X52824095Y-48255533D01*
X54014571Y-47969819D02*
X54109809Y-47969819D01*
X54109809Y-47969819D02*
X54205047Y-48017438D01*
X54205047Y-48017438D02*
X54252666Y-48065057D01*
X54252666Y-48065057D02*
X54300285Y-48160295D01*
X54300285Y-48160295D02*
X54347904Y-48350771D01*
X54347904Y-48350771D02*
X54347904Y-48588866D01*
X54347904Y-48588866D02*
X54300285Y-48779342D01*
X54300285Y-48779342D02*
X54252666Y-48874580D01*
X54252666Y-48874580D02*
X54205047Y-48922200D01*
X54205047Y-48922200D02*
X54109809Y-48969819D01*
X54109809Y-48969819D02*
X54014571Y-48969819D01*
X54014571Y-48969819D02*
X53919333Y-48922200D01*
X53919333Y-48922200D02*
X53871714Y-48874580D01*
X53871714Y-48874580D02*
X53824095Y-48779342D01*
X53824095Y-48779342D02*
X53776476Y-48588866D01*
X53776476Y-48588866D02*
X53776476Y-48350771D01*
X53776476Y-48350771D02*
X53824095Y-48160295D01*
X53824095Y-48160295D02*
X53871714Y-48065057D01*
X53871714Y-48065057D02*
X53919333Y-48017438D01*
X53919333Y-48017438D02*
X54014571Y-47969819D01*
X86106095Y-57566819D02*
X86106095Y-58376342D01*
X86106095Y-58376342D02*
X86153714Y-58471580D01*
X86153714Y-58471580D02*
X86201333Y-58519200D01*
X86201333Y-58519200D02*
X86296571Y-58566819D01*
X86296571Y-58566819D02*
X86487047Y-58566819D01*
X86487047Y-58566819D02*
X86582285Y-58519200D01*
X86582285Y-58519200D02*
X86629904Y-58471580D01*
X86629904Y-58471580D02*
X86677523Y-58376342D01*
X86677523Y-58376342D02*
X86677523Y-57566819D01*
X87677523Y-58566819D02*
X87106095Y-58566819D01*
X87391809Y-58566819D02*
X87391809Y-57566819D01*
X87391809Y-57566819D02*
X87296571Y-57709676D01*
X87296571Y-57709676D02*
X87201333Y-57804914D01*
X87201333Y-57804914D02*
X87106095Y-57852533D01*
X62302819Y-50473594D02*
X61302819Y-50473594D01*
X61302819Y-50473594D02*
X61302819Y-50235499D01*
X61302819Y-50235499D02*
X61350438Y-50092642D01*
X61350438Y-50092642D02*
X61445676Y-49997404D01*
X61445676Y-49997404D02*
X61540914Y-49949785D01*
X61540914Y-49949785D02*
X61731390Y-49902166D01*
X61731390Y-49902166D02*
X61874247Y-49902166D01*
X61874247Y-49902166D02*
X62064723Y-49949785D01*
X62064723Y-49949785D02*
X62159961Y-49997404D01*
X62159961Y-49997404D02*
X62255200Y-50092642D01*
X62255200Y-50092642D02*
X62302819Y-50235499D01*
X62302819Y-50235499D02*
X62302819Y-50473594D01*
X61398057Y-49521213D02*
X61350438Y-49473594D01*
X61350438Y-49473594D02*
X61302819Y-49378356D01*
X61302819Y-49378356D02*
X61302819Y-49140261D01*
X61302819Y-49140261D02*
X61350438Y-49045023D01*
X61350438Y-49045023D02*
X61398057Y-48997404D01*
X61398057Y-48997404D02*
X61493295Y-48949785D01*
X61493295Y-48949785D02*
X61588533Y-48949785D01*
X61588533Y-48949785D02*
X61731390Y-48997404D01*
X61731390Y-48997404D02*
X62302819Y-49568832D01*
X62302819Y-49568832D02*
X62302819Y-48949785D01*
X53414819Y-71191666D02*
X52938628Y-71524999D01*
X53414819Y-71763094D02*
X52414819Y-71763094D01*
X52414819Y-71763094D02*
X52414819Y-71382142D01*
X52414819Y-71382142D02*
X52462438Y-71286904D01*
X52462438Y-71286904D02*
X52510057Y-71239285D01*
X52510057Y-71239285D02*
X52605295Y-71191666D01*
X52605295Y-71191666D02*
X52748152Y-71191666D01*
X52748152Y-71191666D02*
X52843390Y-71239285D01*
X52843390Y-71239285D02*
X52891009Y-71286904D01*
X52891009Y-71286904D02*
X52938628Y-71382142D01*
X52938628Y-71382142D02*
X52938628Y-71763094D01*
X52843390Y-70620237D02*
X52795771Y-70715475D01*
X52795771Y-70715475D02*
X52748152Y-70763094D01*
X52748152Y-70763094D02*
X52652914Y-70810713D01*
X52652914Y-70810713D02*
X52605295Y-70810713D01*
X52605295Y-70810713D02*
X52510057Y-70763094D01*
X52510057Y-70763094D02*
X52462438Y-70715475D01*
X52462438Y-70715475D02*
X52414819Y-70620237D01*
X52414819Y-70620237D02*
X52414819Y-70429761D01*
X52414819Y-70429761D02*
X52462438Y-70334523D01*
X52462438Y-70334523D02*
X52510057Y-70286904D01*
X52510057Y-70286904D02*
X52605295Y-70239285D01*
X52605295Y-70239285D02*
X52652914Y-70239285D01*
X52652914Y-70239285D02*
X52748152Y-70286904D01*
X52748152Y-70286904D02*
X52795771Y-70334523D01*
X52795771Y-70334523D02*
X52843390Y-70429761D01*
X52843390Y-70429761D02*
X52843390Y-70620237D01*
X52843390Y-70620237D02*
X52891009Y-70715475D01*
X52891009Y-70715475D02*
X52938628Y-70763094D01*
X52938628Y-70763094D02*
X53033866Y-70810713D01*
X53033866Y-70810713D02*
X53224342Y-70810713D01*
X53224342Y-70810713D02*
X53319580Y-70763094D01*
X53319580Y-70763094D02*
X53367200Y-70715475D01*
X53367200Y-70715475D02*
X53414819Y-70620237D01*
X53414819Y-70620237D02*
X53414819Y-70429761D01*
X53414819Y-70429761D02*
X53367200Y-70334523D01*
X53367200Y-70334523D02*
X53319580Y-70286904D01*
X53319580Y-70286904D02*
X53224342Y-70239285D01*
X53224342Y-70239285D02*
X53033866Y-70239285D01*
X53033866Y-70239285D02*
X52938628Y-70286904D01*
X52938628Y-70286904D02*
X52891009Y-70334523D01*
X52891009Y-70334523D02*
X52843390Y-70429761D01*
X56716819Y-71191666D02*
X56240628Y-71524999D01*
X56716819Y-71763094D02*
X55716819Y-71763094D01*
X55716819Y-71763094D02*
X55716819Y-71382142D01*
X55716819Y-71382142D02*
X55764438Y-71286904D01*
X55764438Y-71286904D02*
X55812057Y-71239285D01*
X55812057Y-71239285D02*
X55907295Y-71191666D01*
X55907295Y-71191666D02*
X56050152Y-71191666D01*
X56050152Y-71191666D02*
X56145390Y-71239285D01*
X56145390Y-71239285D02*
X56193009Y-71286904D01*
X56193009Y-71286904D02*
X56240628Y-71382142D01*
X56240628Y-71382142D02*
X56240628Y-71763094D01*
X55716819Y-70858332D02*
X55716819Y-70191666D01*
X55716819Y-70191666D02*
X56716819Y-70620237D01*
X83939142Y-76588580D02*
X83891523Y-76636200D01*
X83891523Y-76636200D02*
X83748666Y-76683819D01*
X83748666Y-76683819D02*
X83653428Y-76683819D01*
X83653428Y-76683819D02*
X83510571Y-76636200D01*
X83510571Y-76636200D02*
X83415333Y-76540961D01*
X83415333Y-76540961D02*
X83367714Y-76445723D01*
X83367714Y-76445723D02*
X83320095Y-76255247D01*
X83320095Y-76255247D02*
X83320095Y-76112390D01*
X83320095Y-76112390D02*
X83367714Y-75921914D01*
X83367714Y-75921914D02*
X83415333Y-75826676D01*
X83415333Y-75826676D02*
X83510571Y-75731438D01*
X83510571Y-75731438D02*
X83653428Y-75683819D01*
X83653428Y-75683819D02*
X83748666Y-75683819D01*
X83748666Y-75683819D02*
X83891523Y-75731438D01*
X83891523Y-75731438D02*
X83939142Y-75779057D01*
X84891523Y-76683819D02*
X84320095Y-76683819D01*
X84605809Y-76683819D02*
X84605809Y-75683819D01*
X84605809Y-75683819D02*
X84510571Y-75826676D01*
X84510571Y-75826676D02*
X84415333Y-75921914D01*
X84415333Y-75921914D02*
X84320095Y-75969533D01*
X85510571Y-75683819D02*
X85605809Y-75683819D01*
X85605809Y-75683819D02*
X85701047Y-75731438D01*
X85701047Y-75731438D02*
X85748666Y-75779057D01*
X85748666Y-75779057D02*
X85796285Y-75874295D01*
X85796285Y-75874295D02*
X85843904Y-76064771D01*
X85843904Y-76064771D02*
X85843904Y-76302866D01*
X85843904Y-76302866D02*
X85796285Y-76493342D01*
X85796285Y-76493342D02*
X85748666Y-76588580D01*
X85748666Y-76588580D02*
X85701047Y-76636200D01*
X85701047Y-76636200D02*
X85605809Y-76683819D01*
X85605809Y-76683819D02*
X85510571Y-76683819D01*
X85510571Y-76683819D02*
X85415333Y-76636200D01*
X85415333Y-76636200D02*
X85367714Y-76588580D01*
X85367714Y-76588580D02*
X85320095Y-76493342D01*
X85320095Y-76493342D02*
X85272476Y-76302866D01*
X85272476Y-76302866D02*
X85272476Y-76064771D01*
X85272476Y-76064771D02*
X85320095Y-75874295D01*
X85320095Y-75874295D02*
X85367714Y-75779057D01*
X85367714Y-75779057D02*
X85415333Y-75731438D01*
X85415333Y-75731438D02*
X85510571Y-75683819D01*
X81483580Y-49823666D02*
X81531200Y-49871285D01*
X81531200Y-49871285D02*
X81578819Y-50014142D01*
X81578819Y-50014142D02*
X81578819Y-50109380D01*
X81578819Y-50109380D02*
X81531200Y-50252237D01*
X81531200Y-50252237D02*
X81435961Y-50347475D01*
X81435961Y-50347475D02*
X81340723Y-50395094D01*
X81340723Y-50395094D02*
X81150247Y-50442713D01*
X81150247Y-50442713D02*
X81007390Y-50442713D01*
X81007390Y-50442713D02*
X80816914Y-50395094D01*
X80816914Y-50395094D02*
X80721676Y-50347475D01*
X80721676Y-50347475D02*
X80626438Y-50252237D01*
X80626438Y-50252237D02*
X80578819Y-50109380D01*
X80578819Y-50109380D02*
X80578819Y-50014142D01*
X80578819Y-50014142D02*
X80626438Y-49871285D01*
X80626438Y-49871285D02*
X80674057Y-49823666D01*
X80674057Y-49442713D02*
X80626438Y-49395094D01*
X80626438Y-49395094D02*
X80578819Y-49299856D01*
X80578819Y-49299856D02*
X80578819Y-49061761D01*
X80578819Y-49061761D02*
X80626438Y-48966523D01*
X80626438Y-48966523D02*
X80674057Y-48918904D01*
X80674057Y-48918904D02*
X80769295Y-48871285D01*
X80769295Y-48871285D02*
X80864533Y-48871285D01*
X80864533Y-48871285D02*
X81007390Y-48918904D01*
X81007390Y-48918904D02*
X81578819Y-49490332D01*
X81578819Y-49490332D02*
X81578819Y-48871285D01*
X90699333Y-76432580D02*
X90651714Y-76480200D01*
X90651714Y-76480200D02*
X90508857Y-76527819D01*
X90508857Y-76527819D02*
X90413619Y-76527819D01*
X90413619Y-76527819D02*
X90270762Y-76480200D01*
X90270762Y-76480200D02*
X90175524Y-76384961D01*
X90175524Y-76384961D02*
X90127905Y-76289723D01*
X90127905Y-76289723D02*
X90080286Y-76099247D01*
X90080286Y-76099247D02*
X90080286Y-75956390D01*
X90080286Y-75956390D02*
X90127905Y-75765914D01*
X90127905Y-75765914D02*
X90175524Y-75670676D01*
X90175524Y-75670676D02*
X90270762Y-75575438D01*
X90270762Y-75575438D02*
X90413619Y-75527819D01*
X90413619Y-75527819D02*
X90508857Y-75527819D01*
X90508857Y-75527819D02*
X90651714Y-75575438D01*
X90651714Y-75575438D02*
X90699333Y-75623057D01*
X91556476Y-75861152D02*
X91556476Y-76527819D01*
X91318381Y-75480200D02*
X91080286Y-76194485D01*
X91080286Y-76194485D02*
X91699333Y-76194485D01*
X93418819Y-49823666D02*
X92942628Y-50156999D01*
X93418819Y-50395094D02*
X92418819Y-50395094D01*
X92418819Y-50395094D02*
X92418819Y-50014142D01*
X92418819Y-50014142D02*
X92466438Y-49918904D01*
X92466438Y-49918904D02*
X92514057Y-49871285D01*
X92514057Y-49871285D02*
X92609295Y-49823666D01*
X92609295Y-49823666D02*
X92752152Y-49823666D01*
X92752152Y-49823666D02*
X92847390Y-49871285D01*
X92847390Y-49871285D02*
X92895009Y-49918904D01*
X92895009Y-49918904D02*
X92942628Y-50014142D01*
X92942628Y-50014142D02*
X92942628Y-50395094D01*
X92418819Y-49490332D02*
X92418819Y-48871285D01*
X92418819Y-48871285D02*
X92799771Y-49204618D01*
X92799771Y-49204618D02*
X92799771Y-49061761D01*
X92799771Y-49061761D02*
X92847390Y-48966523D01*
X92847390Y-48966523D02*
X92895009Y-48918904D01*
X92895009Y-48918904D02*
X92990247Y-48871285D01*
X92990247Y-48871285D02*
X93228342Y-48871285D01*
X93228342Y-48871285D02*
X93323580Y-48918904D01*
X93323580Y-48918904D02*
X93371200Y-48966523D01*
X93371200Y-48966523D02*
X93418819Y-49061761D01*
X93418819Y-49061761D02*
X93418819Y-49347475D01*
X93418819Y-49347475D02*
X93371200Y-49442713D01*
X93371200Y-49442713D02*
X93323580Y-49490332D01*
X75797580Y-67857666D02*
X75845200Y-67905285D01*
X75845200Y-67905285D02*
X75892819Y-68048142D01*
X75892819Y-68048142D02*
X75892819Y-68143380D01*
X75892819Y-68143380D02*
X75845200Y-68286237D01*
X75845200Y-68286237D02*
X75749961Y-68381475D01*
X75749961Y-68381475D02*
X75654723Y-68429094D01*
X75654723Y-68429094D02*
X75464247Y-68476713D01*
X75464247Y-68476713D02*
X75321390Y-68476713D01*
X75321390Y-68476713D02*
X75130914Y-68429094D01*
X75130914Y-68429094D02*
X75035676Y-68381475D01*
X75035676Y-68381475D02*
X74940438Y-68286237D01*
X74940438Y-68286237D02*
X74892819Y-68143380D01*
X74892819Y-68143380D02*
X74892819Y-68048142D01*
X74892819Y-68048142D02*
X74940438Y-67905285D01*
X74940438Y-67905285D02*
X74988057Y-67857666D01*
X75321390Y-67286237D02*
X75273771Y-67381475D01*
X75273771Y-67381475D02*
X75226152Y-67429094D01*
X75226152Y-67429094D02*
X75130914Y-67476713D01*
X75130914Y-67476713D02*
X75083295Y-67476713D01*
X75083295Y-67476713D02*
X74988057Y-67429094D01*
X74988057Y-67429094D02*
X74940438Y-67381475D01*
X74940438Y-67381475D02*
X74892819Y-67286237D01*
X74892819Y-67286237D02*
X74892819Y-67095761D01*
X74892819Y-67095761D02*
X74940438Y-67000523D01*
X74940438Y-67000523D02*
X74988057Y-66952904D01*
X74988057Y-66952904D02*
X75083295Y-66905285D01*
X75083295Y-66905285D02*
X75130914Y-66905285D01*
X75130914Y-66905285D02*
X75226152Y-66952904D01*
X75226152Y-66952904D02*
X75273771Y-67000523D01*
X75273771Y-67000523D02*
X75321390Y-67095761D01*
X75321390Y-67095761D02*
X75321390Y-67286237D01*
X75321390Y-67286237D02*
X75369009Y-67381475D01*
X75369009Y-67381475D02*
X75416628Y-67429094D01*
X75416628Y-67429094D02*
X75511866Y-67476713D01*
X75511866Y-67476713D02*
X75702342Y-67476713D01*
X75702342Y-67476713D02*
X75797580Y-67429094D01*
X75797580Y-67429094D02*
X75845200Y-67381475D01*
X75845200Y-67381475D02*
X75892819Y-67286237D01*
X75892819Y-67286237D02*
X75892819Y-67095761D01*
X75892819Y-67095761D02*
X75845200Y-67000523D01*
X75845200Y-67000523D02*
X75797580Y-66952904D01*
X75797580Y-66952904D02*
X75702342Y-66905285D01*
X75702342Y-66905285D02*
X75511866Y-66905285D01*
X75511866Y-66905285D02*
X75416628Y-66952904D01*
X75416628Y-66952904D02*
X75369009Y-67000523D01*
X75369009Y-67000523D02*
X75321390Y-67095761D01*
X90289142Y-65764580D02*
X90241523Y-65812200D01*
X90241523Y-65812200D02*
X90098666Y-65859819D01*
X90098666Y-65859819D02*
X90003428Y-65859819D01*
X90003428Y-65859819D02*
X89860571Y-65812200D01*
X89860571Y-65812200D02*
X89765333Y-65716961D01*
X89765333Y-65716961D02*
X89717714Y-65621723D01*
X89717714Y-65621723D02*
X89670095Y-65431247D01*
X89670095Y-65431247D02*
X89670095Y-65288390D01*
X89670095Y-65288390D02*
X89717714Y-65097914D01*
X89717714Y-65097914D02*
X89765333Y-65002676D01*
X89765333Y-65002676D02*
X89860571Y-64907438D01*
X89860571Y-64907438D02*
X90003428Y-64859819D01*
X90003428Y-64859819D02*
X90098666Y-64859819D01*
X90098666Y-64859819D02*
X90241523Y-64907438D01*
X90241523Y-64907438D02*
X90289142Y-64955057D01*
X91241523Y-65859819D02*
X90670095Y-65859819D01*
X90955809Y-65859819D02*
X90955809Y-64859819D01*
X90955809Y-64859819D02*
X90860571Y-65002676D01*
X90860571Y-65002676D02*
X90765333Y-65097914D01*
X90765333Y-65097914D02*
X90670095Y-65145533D01*
X91574857Y-64859819D02*
X92193904Y-64859819D01*
X92193904Y-64859819D02*
X91860571Y-65240771D01*
X91860571Y-65240771D02*
X92003428Y-65240771D01*
X92003428Y-65240771D02*
X92098666Y-65288390D01*
X92098666Y-65288390D02*
X92146285Y-65336009D01*
X92146285Y-65336009D02*
X92193904Y-65431247D01*
X92193904Y-65431247D02*
X92193904Y-65669342D01*
X92193904Y-65669342D02*
X92146285Y-65764580D01*
X92146285Y-65764580D02*
X92098666Y-65812200D01*
X92098666Y-65812200D02*
X92003428Y-65859819D01*
X92003428Y-65859819D02*
X91717714Y-65859819D01*
X91717714Y-65859819D02*
X91622476Y-65812200D01*
X91622476Y-65812200D02*
X91574857Y-65764580D01*
X79353580Y-67857666D02*
X79401200Y-67905285D01*
X79401200Y-67905285D02*
X79448819Y-68048142D01*
X79448819Y-68048142D02*
X79448819Y-68143380D01*
X79448819Y-68143380D02*
X79401200Y-68286237D01*
X79401200Y-68286237D02*
X79305961Y-68381475D01*
X79305961Y-68381475D02*
X79210723Y-68429094D01*
X79210723Y-68429094D02*
X79020247Y-68476713D01*
X79020247Y-68476713D02*
X78877390Y-68476713D01*
X78877390Y-68476713D02*
X78686914Y-68429094D01*
X78686914Y-68429094D02*
X78591676Y-68381475D01*
X78591676Y-68381475D02*
X78496438Y-68286237D01*
X78496438Y-68286237D02*
X78448819Y-68143380D01*
X78448819Y-68143380D02*
X78448819Y-68048142D01*
X78448819Y-68048142D02*
X78496438Y-67905285D01*
X78496438Y-67905285D02*
X78544057Y-67857666D01*
X79448819Y-67381475D02*
X79448819Y-67190999D01*
X79448819Y-67190999D02*
X79401200Y-67095761D01*
X79401200Y-67095761D02*
X79353580Y-67048142D01*
X79353580Y-67048142D02*
X79210723Y-66952904D01*
X79210723Y-66952904D02*
X79020247Y-66905285D01*
X79020247Y-66905285D02*
X78639295Y-66905285D01*
X78639295Y-66905285D02*
X78544057Y-66952904D01*
X78544057Y-66952904D02*
X78496438Y-67000523D01*
X78496438Y-67000523D02*
X78448819Y-67095761D01*
X78448819Y-67095761D02*
X78448819Y-67286237D01*
X78448819Y-67286237D02*
X78496438Y-67381475D01*
X78496438Y-67381475D02*
X78544057Y-67429094D01*
X78544057Y-67429094D02*
X78639295Y-67476713D01*
X78639295Y-67476713D02*
X78877390Y-67476713D01*
X78877390Y-67476713D02*
X78972628Y-67429094D01*
X78972628Y-67429094D02*
X79020247Y-67381475D01*
X79020247Y-67381475D02*
X79067866Y-67286237D01*
X79067866Y-67286237D02*
X79067866Y-67095761D01*
X79067866Y-67095761D02*
X79020247Y-67000523D01*
X79020247Y-67000523D02*
X78972628Y-66952904D01*
X78972628Y-66952904D02*
X78877390Y-66905285D01*
X90223142Y-69320580D02*
X90175523Y-69368200D01*
X90175523Y-69368200D02*
X90032666Y-69415819D01*
X90032666Y-69415819D02*
X89937428Y-69415819D01*
X89937428Y-69415819D02*
X89794571Y-69368200D01*
X89794571Y-69368200D02*
X89699333Y-69272961D01*
X89699333Y-69272961D02*
X89651714Y-69177723D01*
X89651714Y-69177723D02*
X89604095Y-68987247D01*
X89604095Y-68987247D02*
X89604095Y-68844390D01*
X89604095Y-68844390D02*
X89651714Y-68653914D01*
X89651714Y-68653914D02*
X89699333Y-68558676D01*
X89699333Y-68558676D02*
X89794571Y-68463438D01*
X89794571Y-68463438D02*
X89937428Y-68415819D01*
X89937428Y-68415819D02*
X90032666Y-68415819D01*
X90032666Y-68415819D02*
X90175523Y-68463438D01*
X90175523Y-68463438D02*
X90223142Y-68511057D01*
X91175523Y-69415819D02*
X90604095Y-69415819D01*
X90889809Y-69415819D02*
X90889809Y-68415819D01*
X90889809Y-68415819D02*
X90794571Y-68558676D01*
X90794571Y-68558676D02*
X90699333Y-68653914D01*
X90699333Y-68653914D02*
X90604095Y-68701533D01*
X92032666Y-68749152D02*
X92032666Y-69415819D01*
X91794571Y-68368200D02*
X91556476Y-69082485D01*
X91556476Y-69082485D02*
X92175523Y-69082485D01*
X46910666Y-70098819D02*
X46910666Y-70813104D01*
X46910666Y-70813104D02*
X46863047Y-70955961D01*
X46863047Y-70955961D02*
X46767809Y-71051200D01*
X46767809Y-71051200D02*
X46624952Y-71098819D01*
X46624952Y-71098819D02*
X46529714Y-71098819D01*
X47339238Y-70194057D02*
X47386857Y-70146438D01*
X47386857Y-70146438D02*
X47482095Y-70098819D01*
X47482095Y-70098819D02*
X47720190Y-70098819D01*
X47720190Y-70098819D02*
X47815428Y-70146438D01*
X47815428Y-70146438D02*
X47863047Y-70194057D01*
X47863047Y-70194057D02*
X47910666Y-70289295D01*
X47910666Y-70289295D02*
X47910666Y-70384533D01*
X47910666Y-70384533D02*
X47863047Y-70527390D01*
X47863047Y-70527390D02*
X47291619Y-71098819D01*
X47291619Y-71098819D02*
X47910666Y-71098819D01*
X88720819Y-59983666D02*
X88244628Y-60316999D01*
X88720819Y-60555094D02*
X87720819Y-60555094D01*
X87720819Y-60555094D02*
X87720819Y-60174142D01*
X87720819Y-60174142D02*
X87768438Y-60078904D01*
X87768438Y-60078904D02*
X87816057Y-60031285D01*
X87816057Y-60031285D02*
X87911295Y-59983666D01*
X87911295Y-59983666D02*
X88054152Y-59983666D01*
X88054152Y-59983666D02*
X88149390Y-60031285D01*
X88149390Y-60031285D02*
X88197009Y-60078904D01*
X88197009Y-60078904D02*
X88244628Y-60174142D01*
X88244628Y-60174142D02*
X88244628Y-60555094D01*
X88720819Y-59031285D02*
X88720819Y-59602713D01*
X88720819Y-59316999D02*
X87720819Y-59316999D01*
X87720819Y-59316999D02*
X87863676Y-59412237D01*
X87863676Y-59412237D02*
X87958914Y-59507475D01*
X87958914Y-59507475D02*
X88006533Y-59602713D01*
X46910666Y-55361819D02*
X46910666Y-56076104D01*
X46910666Y-56076104D02*
X46863047Y-56218961D01*
X46863047Y-56218961D02*
X46767809Y-56314200D01*
X46767809Y-56314200D02*
X46624952Y-56361819D01*
X46624952Y-56361819D02*
X46529714Y-56361819D01*
X47910666Y-56361819D02*
X47339238Y-56361819D01*
X47624952Y-56361819D02*
X47624952Y-55361819D01*
X47624952Y-55361819D02*
X47529714Y-55504676D01*
X47529714Y-55504676D02*
X47434476Y-55599914D01*
X47434476Y-55599914D02*
X47339238Y-55647533D01*
X86955333Y-50934580D02*
X86907714Y-50982200D01*
X86907714Y-50982200D02*
X86764857Y-51029819D01*
X86764857Y-51029819D02*
X86669619Y-51029819D01*
X86669619Y-51029819D02*
X86526762Y-50982200D01*
X86526762Y-50982200D02*
X86431524Y-50886961D01*
X86431524Y-50886961D02*
X86383905Y-50791723D01*
X86383905Y-50791723D02*
X86336286Y-50601247D01*
X86336286Y-50601247D02*
X86336286Y-50458390D01*
X86336286Y-50458390D02*
X86383905Y-50267914D01*
X86383905Y-50267914D02*
X86431524Y-50172676D01*
X86431524Y-50172676D02*
X86526762Y-50077438D01*
X86526762Y-50077438D02*
X86669619Y-50029819D01*
X86669619Y-50029819D02*
X86764857Y-50029819D01*
X86764857Y-50029819D02*
X86907714Y-50077438D01*
X86907714Y-50077438D02*
X86955333Y-50125057D01*
X87907714Y-51029819D02*
X87336286Y-51029819D01*
X87622000Y-51029819D02*
X87622000Y-50029819D01*
X87622000Y-50029819D02*
X87526762Y-50172676D01*
X87526762Y-50172676D02*
X87431524Y-50267914D01*
X87431524Y-50267914D02*
X87336286Y-50315533D01*
X80297142Y-81512580D02*
X80249523Y-81560200D01*
X80249523Y-81560200D02*
X80106666Y-81607819D01*
X80106666Y-81607819D02*
X80011428Y-81607819D01*
X80011428Y-81607819D02*
X79868571Y-81560200D01*
X79868571Y-81560200D02*
X79773333Y-81464961D01*
X79773333Y-81464961D02*
X79725714Y-81369723D01*
X79725714Y-81369723D02*
X79678095Y-81179247D01*
X79678095Y-81179247D02*
X79678095Y-81036390D01*
X79678095Y-81036390D02*
X79725714Y-80845914D01*
X79725714Y-80845914D02*
X79773333Y-80750676D01*
X79773333Y-80750676D02*
X79868571Y-80655438D01*
X79868571Y-80655438D02*
X80011428Y-80607819D01*
X80011428Y-80607819D02*
X80106666Y-80607819D01*
X80106666Y-80607819D02*
X80249523Y-80655438D01*
X80249523Y-80655438D02*
X80297142Y-80703057D01*
X81249523Y-81607819D02*
X80678095Y-81607819D01*
X80963809Y-81607819D02*
X80963809Y-80607819D01*
X80963809Y-80607819D02*
X80868571Y-80750676D01*
X80868571Y-80750676D02*
X80773333Y-80845914D01*
X80773333Y-80845914D02*
X80678095Y-80893533D01*
X82106666Y-80607819D02*
X81916190Y-80607819D01*
X81916190Y-80607819D02*
X81820952Y-80655438D01*
X81820952Y-80655438D02*
X81773333Y-80703057D01*
X81773333Y-80703057D02*
X81678095Y-80845914D01*
X81678095Y-80845914D02*
X81630476Y-81036390D01*
X81630476Y-81036390D02*
X81630476Y-81417342D01*
X81630476Y-81417342D02*
X81678095Y-81512580D01*
X81678095Y-81512580D02*
X81725714Y-81560200D01*
X81725714Y-81560200D02*
X81820952Y-81607819D01*
X81820952Y-81607819D02*
X82011428Y-81607819D01*
X82011428Y-81607819D02*
X82106666Y-81560200D01*
X82106666Y-81560200D02*
X82154285Y-81512580D01*
X82154285Y-81512580D02*
X82201904Y-81417342D01*
X82201904Y-81417342D02*
X82201904Y-81179247D01*
X82201904Y-81179247D02*
X82154285Y-81084009D01*
X82154285Y-81084009D02*
X82106666Y-81036390D01*
X82106666Y-81036390D02*
X82011428Y-80988771D01*
X82011428Y-80988771D02*
X81820952Y-80988771D01*
X81820952Y-80988771D02*
X81725714Y-81036390D01*
X81725714Y-81036390D02*
X81678095Y-81084009D01*
X81678095Y-81084009D02*
X81630476Y-81179247D01*
X81480819Y-55157666D02*
X81004628Y-55490999D01*
X81480819Y-55729094D02*
X80480819Y-55729094D01*
X80480819Y-55729094D02*
X80480819Y-55348142D01*
X80480819Y-55348142D02*
X80528438Y-55252904D01*
X80528438Y-55252904D02*
X80576057Y-55205285D01*
X80576057Y-55205285D02*
X80671295Y-55157666D01*
X80671295Y-55157666D02*
X80814152Y-55157666D01*
X80814152Y-55157666D02*
X80909390Y-55205285D01*
X80909390Y-55205285D02*
X80957009Y-55252904D01*
X80957009Y-55252904D02*
X81004628Y-55348142D01*
X81004628Y-55348142D02*
X81004628Y-55729094D01*
X80576057Y-54776713D02*
X80528438Y-54729094D01*
X80528438Y-54729094D02*
X80480819Y-54633856D01*
X80480819Y-54633856D02*
X80480819Y-54395761D01*
X80480819Y-54395761D02*
X80528438Y-54300523D01*
X80528438Y-54300523D02*
X80576057Y-54252904D01*
X80576057Y-54252904D02*
X80671295Y-54205285D01*
X80671295Y-54205285D02*
X80766533Y-54205285D01*
X80766533Y-54205285D02*
X80909390Y-54252904D01*
X80909390Y-54252904D02*
X81480819Y-54824332D01*
X81480819Y-54824332D02*
X81480819Y-54205285D01*
X63028819Y-64642904D02*
X63838342Y-64642904D01*
X63838342Y-64642904D02*
X63933580Y-64595285D01*
X63933580Y-64595285D02*
X63981200Y-64547666D01*
X63981200Y-64547666D02*
X64028819Y-64452428D01*
X64028819Y-64452428D02*
X64028819Y-64261952D01*
X64028819Y-64261952D02*
X63981200Y-64166714D01*
X63981200Y-64166714D02*
X63933580Y-64119095D01*
X63933580Y-64119095D02*
X63838342Y-64071476D01*
X63838342Y-64071476D02*
X63028819Y-64071476D01*
X63362152Y-63166714D02*
X64028819Y-63166714D01*
X62981200Y-63404809D02*
X63695485Y-63642904D01*
X63695485Y-63642904D02*
X63695485Y-63023857D01*
X80773333Y-77514580D02*
X80725714Y-77562200D01*
X80725714Y-77562200D02*
X80582857Y-77609819D01*
X80582857Y-77609819D02*
X80487619Y-77609819D01*
X80487619Y-77609819D02*
X80344762Y-77562200D01*
X80344762Y-77562200D02*
X80249524Y-77466961D01*
X80249524Y-77466961D02*
X80201905Y-77371723D01*
X80201905Y-77371723D02*
X80154286Y-77181247D01*
X80154286Y-77181247D02*
X80154286Y-77038390D01*
X80154286Y-77038390D02*
X80201905Y-76847914D01*
X80201905Y-76847914D02*
X80249524Y-76752676D01*
X80249524Y-76752676D02*
X80344762Y-76657438D01*
X80344762Y-76657438D02*
X80487619Y-76609819D01*
X80487619Y-76609819D02*
X80582857Y-76609819D01*
X80582857Y-76609819D02*
X80725714Y-76657438D01*
X80725714Y-76657438D02*
X80773333Y-76705057D01*
X81106667Y-76609819D02*
X81773333Y-76609819D01*
X81773333Y-76609819D02*
X81344762Y-77609819D01*
X56157905Y-69345819D02*
X56157905Y-68345819D01*
X56157905Y-68345819D02*
X56396000Y-68345819D01*
X56396000Y-68345819D02*
X56538857Y-68393438D01*
X56538857Y-68393438D02*
X56634095Y-68488676D01*
X56634095Y-68488676D02*
X56681714Y-68583914D01*
X56681714Y-68583914D02*
X56729333Y-68774390D01*
X56729333Y-68774390D02*
X56729333Y-68917247D01*
X56729333Y-68917247D02*
X56681714Y-69107723D01*
X56681714Y-69107723D02*
X56634095Y-69202961D01*
X56634095Y-69202961D02*
X56538857Y-69298200D01*
X56538857Y-69298200D02*
X56396000Y-69345819D01*
X56396000Y-69345819D02*
X56157905Y-69345819D01*
X57681714Y-69345819D02*
X57110286Y-69345819D01*
X57396000Y-69345819D02*
X57396000Y-68345819D01*
X57396000Y-68345819D02*
X57300762Y-68488676D01*
X57300762Y-68488676D02*
X57205524Y-68583914D01*
X57205524Y-68583914D02*
X57110286Y-68631533D01*
X52815833Y-52381819D02*
X52482500Y-51905628D01*
X52244405Y-52381819D02*
X52244405Y-51381819D01*
X52244405Y-51381819D02*
X52625357Y-51381819D01*
X52625357Y-51381819D02*
X52720595Y-51429438D01*
X52720595Y-51429438D02*
X52768214Y-51477057D01*
X52768214Y-51477057D02*
X52815833Y-51572295D01*
X52815833Y-51572295D02*
X52815833Y-51715152D01*
X52815833Y-51715152D02*
X52768214Y-51810390D01*
X52768214Y-51810390D02*
X52720595Y-51858009D01*
X52720595Y-51858009D02*
X52625357Y-51905628D01*
X52625357Y-51905628D02*
X52244405Y-51905628D01*
X53720595Y-51381819D02*
X53244405Y-51381819D01*
X53244405Y-51381819D02*
X53196786Y-51858009D01*
X53196786Y-51858009D02*
X53244405Y-51810390D01*
X53244405Y-51810390D02*
X53339643Y-51762771D01*
X53339643Y-51762771D02*
X53577738Y-51762771D01*
X53577738Y-51762771D02*
X53672976Y-51810390D01*
X53672976Y-51810390D02*
X53720595Y-51858009D01*
X53720595Y-51858009D02*
X53768214Y-51953247D01*
X53768214Y-51953247D02*
X53768214Y-52191342D01*
X53768214Y-52191342D02*
X53720595Y-52286580D01*
X53720595Y-52286580D02*
X53672976Y-52334200D01*
X53672976Y-52334200D02*
X53577738Y-52381819D01*
X53577738Y-52381819D02*
X53339643Y-52381819D01*
X53339643Y-52381819D02*
X53244405Y-52334200D01*
X53244405Y-52334200D02*
X53196786Y-52286580D01*
X71445618Y-77453819D02*
X71112285Y-76977628D01*
X70874190Y-77453819D02*
X70874190Y-76453819D01*
X70874190Y-76453819D02*
X71255142Y-76453819D01*
X71255142Y-76453819D02*
X71350380Y-76501438D01*
X71350380Y-76501438D02*
X71397999Y-76549057D01*
X71397999Y-76549057D02*
X71445618Y-76644295D01*
X71445618Y-76644295D02*
X71445618Y-76787152D01*
X71445618Y-76787152D02*
X71397999Y-76882390D01*
X71397999Y-76882390D02*
X71350380Y-76930009D01*
X71350380Y-76930009D02*
X71255142Y-76977628D01*
X71255142Y-76977628D02*
X70874190Y-76977628D01*
X71874190Y-76930009D02*
X72207523Y-76930009D01*
X72350380Y-77453819D02*
X71874190Y-77453819D01*
X71874190Y-77453819D02*
X71874190Y-76453819D01*
X71874190Y-76453819D02*
X72350380Y-76453819D01*
X72731333Y-77406200D02*
X72874190Y-77453819D01*
X72874190Y-77453819D02*
X73112285Y-77453819D01*
X73112285Y-77453819D02*
X73207523Y-77406200D01*
X73207523Y-77406200D02*
X73255142Y-77358580D01*
X73255142Y-77358580D02*
X73302761Y-77263342D01*
X73302761Y-77263342D02*
X73302761Y-77168104D01*
X73302761Y-77168104D02*
X73255142Y-77072866D01*
X73255142Y-77072866D02*
X73207523Y-77025247D01*
X73207523Y-77025247D02*
X73112285Y-76977628D01*
X73112285Y-76977628D02*
X72921809Y-76930009D01*
X72921809Y-76930009D02*
X72826571Y-76882390D01*
X72826571Y-76882390D02*
X72778952Y-76834771D01*
X72778952Y-76834771D02*
X72731333Y-76739533D01*
X72731333Y-76739533D02*
X72731333Y-76644295D01*
X72731333Y-76644295D02*
X72778952Y-76549057D01*
X72778952Y-76549057D02*
X72826571Y-76501438D01*
X72826571Y-76501438D02*
X72921809Y-76453819D01*
X72921809Y-76453819D02*
X73159904Y-76453819D01*
X73159904Y-76453819D02*
X73302761Y-76501438D01*
X73731333Y-76930009D02*
X74064666Y-76930009D01*
X74207523Y-77453819D02*
X73731333Y-77453819D01*
X73731333Y-77453819D02*
X73731333Y-76453819D01*
X73731333Y-76453819D02*
X74207523Y-76453819D01*
X74493238Y-76453819D02*
X75064666Y-76453819D01*
X74778952Y-77453819D02*
X74778952Y-76453819D01*
X58427580Y-54505666D02*
X58475200Y-54553285D01*
X58475200Y-54553285D02*
X58522819Y-54696142D01*
X58522819Y-54696142D02*
X58522819Y-54791380D01*
X58522819Y-54791380D02*
X58475200Y-54934237D01*
X58475200Y-54934237D02*
X58379961Y-55029475D01*
X58379961Y-55029475D02*
X58284723Y-55077094D01*
X58284723Y-55077094D02*
X58094247Y-55124713D01*
X58094247Y-55124713D02*
X57951390Y-55124713D01*
X57951390Y-55124713D02*
X57760914Y-55077094D01*
X57760914Y-55077094D02*
X57665676Y-55029475D01*
X57665676Y-55029475D02*
X57570438Y-54934237D01*
X57570438Y-54934237D02*
X57522819Y-54791380D01*
X57522819Y-54791380D02*
X57522819Y-54696142D01*
X57522819Y-54696142D02*
X57570438Y-54553285D01*
X57570438Y-54553285D02*
X57618057Y-54505666D01*
X57522819Y-53648523D02*
X57522819Y-53838999D01*
X57522819Y-53838999D02*
X57570438Y-53934237D01*
X57570438Y-53934237D02*
X57618057Y-53981856D01*
X57618057Y-53981856D02*
X57760914Y-54077094D01*
X57760914Y-54077094D02*
X57951390Y-54124713D01*
X57951390Y-54124713D02*
X58332342Y-54124713D01*
X58332342Y-54124713D02*
X58427580Y-54077094D01*
X58427580Y-54077094D02*
X58475200Y-54029475D01*
X58475200Y-54029475D02*
X58522819Y-53934237D01*
X58522819Y-53934237D02*
X58522819Y-53743761D01*
X58522819Y-53743761D02*
X58475200Y-53648523D01*
X58475200Y-53648523D02*
X58427580Y-53600904D01*
X58427580Y-53600904D02*
X58332342Y-53553285D01*
X58332342Y-53553285D02*
X58094247Y-53553285D01*
X58094247Y-53553285D02*
X57999009Y-53600904D01*
X57999009Y-53600904D02*
X57951390Y-53648523D01*
X57951390Y-53648523D02*
X57903771Y-53743761D01*
X57903771Y-53743761D02*
X57903771Y-53934237D01*
X57903771Y-53934237D02*
X57951390Y-54029475D01*
X57951390Y-54029475D02*
X57999009Y-54077094D01*
X57999009Y-54077094D02*
X58094247Y-54124713D01*
X81875333Y-60905819D02*
X81542000Y-60429628D01*
X81303905Y-60905819D02*
X81303905Y-59905819D01*
X81303905Y-59905819D02*
X81684857Y-59905819D01*
X81684857Y-59905819D02*
X81780095Y-59953438D01*
X81780095Y-59953438D02*
X81827714Y-60001057D01*
X81827714Y-60001057D02*
X81875333Y-60096295D01*
X81875333Y-60096295D02*
X81875333Y-60239152D01*
X81875333Y-60239152D02*
X81827714Y-60334390D01*
X81827714Y-60334390D02*
X81780095Y-60382009D01*
X81780095Y-60382009D02*
X81684857Y-60429628D01*
X81684857Y-60429628D02*
X81303905Y-60429628D01*
X82732476Y-59905819D02*
X82542000Y-59905819D01*
X82542000Y-59905819D02*
X82446762Y-59953438D01*
X82446762Y-59953438D02*
X82399143Y-60001057D01*
X82399143Y-60001057D02*
X82303905Y-60143914D01*
X82303905Y-60143914D02*
X82256286Y-60334390D01*
X82256286Y-60334390D02*
X82256286Y-60715342D01*
X82256286Y-60715342D02*
X82303905Y-60810580D01*
X82303905Y-60810580D02*
X82351524Y-60858200D01*
X82351524Y-60858200D02*
X82446762Y-60905819D01*
X82446762Y-60905819D02*
X82637238Y-60905819D01*
X82637238Y-60905819D02*
X82732476Y-60858200D01*
X82732476Y-60858200D02*
X82780095Y-60810580D01*
X82780095Y-60810580D02*
X82827714Y-60715342D01*
X82827714Y-60715342D02*
X82827714Y-60477247D01*
X82827714Y-60477247D02*
X82780095Y-60382009D01*
X82780095Y-60382009D02*
X82732476Y-60334390D01*
X82732476Y-60334390D02*
X82637238Y-60286771D01*
X82637238Y-60286771D02*
X82446762Y-60286771D01*
X82446762Y-60286771D02*
X82351524Y-60334390D01*
X82351524Y-60334390D02*
X82303905Y-60382009D01*
X82303905Y-60382009D02*
X82256286Y-60477247D01*
X62999580Y-60745666D02*
X63047200Y-60793285D01*
X63047200Y-60793285D02*
X63094819Y-60936142D01*
X63094819Y-60936142D02*
X63094819Y-61031380D01*
X63094819Y-61031380D02*
X63047200Y-61174237D01*
X63047200Y-61174237D02*
X62951961Y-61269475D01*
X62951961Y-61269475D02*
X62856723Y-61317094D01*
X62856723Y-61317094D02*
X62666247Y-61364713D01*
X62666247Y-61364713D02*
X62523390Y-61364713D01*
X62523390Y-61364713D02*
X62332914Y-61317094D01*
X62332914Y-61317094D02*
X62237676Y-61269475D01*
X62237676Y-61269475D02*
X62142438Y-61174237D01*
X62142438Y-61174237D02*
X62094819Y-61031380D01*
X62094819Y-61031380D02*
X62094819Y-60936142D01*
X62094819Y-60936142D02*
X62142438Y-60793285D01*
X62142438Y-60793285D02*
X62190057Y-60745666D01*
X62094819Y-59840904D02*
X62094819Y-60317094D01*
X62094819Y-60317094D02*
X62571009Y-60364713D01*
X62571009Y-60364713D02*
X62523390Y-60317094D01*
X62523390Y-60317094D02*
X62475771Y-60221856D01*
X62475771Y-60221856D02*
X62475771Y-59983761D01*
X62475771Y-59983761D02*
X62523390Y-59888523D01*
X62523390Y-59888523D02*
X62571009Y-59840904D01*
X62571009Y-59840904D02*
X62666247Y-59793285D01*
X62666247Y-59793285D02*
X62904342Y-59793285D01*
X62904342Y-59793285D02*
X62999580Y-59840904D01*
X62999580Y-59840904D02*
X63047200Y-59888523D01*
X63047200Y-59888523D02*
X63094819Y-59983761D01*
X63094819Y-59983761D02*
X63094819Y-60221856D01*
X63094819Y-60221856D02*
X63047200Y-60317094D01*
X63047200Y-60317094D02*
X62999580Y-60364713D01*
X72208819Y-67857666D02*
X71732628Y-68190999D01*
X72208819Y-68429094D02*
X71208819Y-68429094D01*
X71208819Y-68429094D02*
X71208819Y-68048142D01*
X71208819Y-68048142D02*
X71256438Y-67952904D01*
X71256438Y-67952904D02*
X71304057Y-67905285D01*
X71304057Y-67905285D02*
X71399295Y-67857666D01*
X71399295Y-67857666D02*
X71542152Y-67857666D01*
X71542152Y-67857666D02*
X71637390Y-67905285D01*
X71637390Y-67905285D02*
X71685009Y-67952904D01*
X71685009Y-67952904D02*
X71732628Y-68048142D01*
X71732628Y-68048142D02*
X71732628Y-68429094D01*
X72208819Y-67381475D02*
X72208819Y-67190999D01*
X72208819Y-67190999D02*
X72161200Y-67095761D01*
X72161200Y-67095761D02*
X72113580Y-67048142D01*
X72113580Y-67048142D02*
X71970723Y-66952904D01*
X71970723Y-66952904D02*
X71780247Y-66905285D01*
X71780247Y-66905285D02*
X71399295Y-66905285D01*
X71399295Y-66905285D02*
X71304057Y-66952904D01*
X71304057Y-66952904D02*
X71256438Y-67000523D01*
X71256438Y-67000523D02*
X71208819Y-67095761D01*
X71208819Y-67095761D02*
X71208819Y-67286237D01*
X71208819Y-67286237D02*
X71256438Y-67381475D01*
X71256438Y-67381475D02*
X71304057Y-67429094D01*
X71304057Y-67429094D02*
X71399295Y-67476713D01*
X71399295Y-67476713D02*
X71637390Y-67476713D01*
X71637390Y-67476713D02*
X71732628Y-67429094D01*
X71732628Y-67429094D02*
X71780247Y-67381475D01*
X71780247Y-67381475D02*
X71827866Y-67286237D01*
X71827866Y-67286237D02*
X71827866Y-67095761D01*
X71827866Y-67095761D02*
X71780247Y-67000523D01*
X71780247Y-67000523D02*
X71732628Y-66952904D01*
X71732628Y-66952904D02*
X71637390Y-66905285D01*
X83939142Y-69222580D02*
X83891523Y-69270200D01*
X83891523Y-69270200D02*
X83748666Y-69317819D01*
X83748666Y-69317819D02*
X83653428Y-69317819D01*
X83653428Y-69317819D02*
X83510571Y-69270200D01*
X83510571Y-69270200D02*
X83415333Y-69174961D01*
X83415333Y-69174961D02*
X83367714Y-69079723D01*
X83367714Y-69079723D02*
X83320095Y-68889247D01*
X83320095Y-68889247D02*
X83320095Y-68746390D01*
X83320095Y-68746390D02*
X83367714Y-68555914D01*
X83367714Y-68555914D02*
X83415333Y-68460676D01*
X83415333Y-68460676D02*
X83510571Y-68365438D01*
X83510571Y-68365438D02*
X83653428Y-68317819D01*
X83653428Y-68317819D02*
X83748666Y-68317819D01*
X83748666Y-68317819D02*
X83891523Y-68365438D01*
X83891523Y-68365438D02*
X83939142Y-68413057D01*
X84891523Y-69317819D02*
X84320095Y-69317819D01*
X84605809Y-69317819D02*
X84605809Y-68317819D01*
X84605809Y-68317819D02*
X84510571Y-68460676D01*
X84510571Y-68460676D02*
X84415333Y-68555914D01*
X84415333Y-68555914D02*
X84320095Y-68603533D01*
X85272476Y-68413057D02*
X85320095Y-68365438D01*
X85320095Y-68365438D02*
X85415333Y-68317819D01*
X85415333Y-68317819D02*
X85653428Y-68317819D01*
X85653428Y-68317819D02*
X85748666Y-68365438D01*
X85748666Y-68365438D02*
X85796285Y-68413057D01*
X85796285Y-68413057D02*
X85843904Y-68508295D01*
X85843904Y-68508295D02*
X85843904Y-68603533D01*
X85843904Y-68603533D02*
X85796285Y-68746390D01*
X85796285Y-68746390D02*
X85224857Y-69317819D01*
X85224857Y-69317819D02*
X85843904Y-69317819D01*
X62430819Y-54505666D02*
X61954628Y-54838999D01*
X62430819Y-55077094D02*
X61430819Y-55077094D01*
X61430819Y-55077094D02*
X61430819Y-54696142D01*
X61430819Y-54696142D02*
X61478438Y-54600904D01*
X61478438Y-54600904D02*
X61526057Y-54553285D01*
X61526057Y-54553285D02*
X61621295Y-54505666D01*
X61621295Y-54505666D02*
X61764152Y-54505666D01*
X61764152Y-54505666D02*
X61859390Y-54553285D01*
X61859390Y-54553285D02*
X61907009Y-54600904D01*
X61907009Y-54600904D02*
X61954628Y-54696142D01*
X61954628Y-54696142D02*
X61954628Y-55077094D01*
X61764152Y-53648523D02*
X62430819Y-53648523D01*
X61383200Y-53886618D02*
X62097485Y-54124713D01*
X62097485Y-54124713D02*
X62097485Y-53505666D01*
X84415333Y-65666580D02*
X84367714Y-65714200D01*
X84367714Y-65714200D02*
X84224857Y-65761819D01*
X84224857Y-65761819D02*
X84129619Y-65761819D01*
X84129619Y-65761819D02*
X83986762Y-65714200D01*
X83986762Y-65714200D02*
X83891524Y-65618961D01*
X83891524Y-65618961D02*
X83843905Y-65523723D01*
X83843905Y-65523723D02*
X83796286Y-65333247D01*
X83796286Y-65333247D02*
X83796286Y-65190390D01*
X83796286Y-65190390D02*
X83843905Y-64999914D01*
X83843905Y-64999914D02*
X83891524Y-64904676D01*
X83891524Y-64904676D02*
X83986762Y-64809438D01*
X83986762Y-64809438D02*
X84129619Y-64761819D01*
X84129619Y-64761819D02*
X84224857Y-64761819D01*
X84224857Y-64761819D02*
X84367714Y-64809438D01*
X84367714Y-64809438D02*
X84415333Y-64857057D01*
X84748667Y-64761819D02*
X85367714Y-64761819D01*
X85367714Y-64761819D02*
X85034381Y-65142771D01*
X85034381Y-65142771D02*
X85177238Y-65142771D01*
X85177238Y-65142771D02*
X85272476Y-65190390D01*
X85272476Y-65190390D02*
X85320095Y-65238009D01*
X85320095Y-65238009D02*
X85367714Y-65333247D01*
X85367714Y-65333247D02*
X85367714Y-65571342D01*
X85367714Y-65571342D02*
X85320095Y-65666580D01*
X85320095Y-65666580D02*
X85272476Y-65714200D01*
X85272476Y-65714200D02*
X85177238Y-65761819D01*
X85177238Y-65761819D02*
X84891524Y-65761819D01*
X84891524Y-65761819D02*
X84796286Y-65714200D01*
X84796286Y-65714200D02*
X84748667Y-65666580D01*
X86526857Y-76943809D02*
X86669714Y-76991428D01*
X86669714Y-76991428D02*
X86717333Y-77039047D01*
X86717333Y-77039047D02*
X86764952Y-77134285D01*
X86764952Y-77134285D02*
X86764952Y-77277142D01*
X86764952Y-77277142D02*
X86717333Y-77372380D01*
X86717333Y-77372380D02*
X86669714Y-77420000D01*
X86669714Y-77420000D02*
X86574476Y-77467619D01*
X86574476Y-77467619D02*
X86193524Y-77467619D01*
X86193524Y-77467619D02*
X86193524Y-76467619D01*
X86193524Y-76467619D02*
X86526857Y-76467619D01*
X86526857Y-76467619D02*
X86622095Y-76515238D01*
X86622095Y-76515238D02*
X86669714Y-76562857D01*
X86669714Y-76562857D02*
X86717333Y-76658095D01*
X86717333Y-76658095D02*
X86717333Y-76753333D01*
X86717333Y-76753333D02*
X86669714Y-76848571D01*
X86669714Y-76848571D02*
X86622095Y-76896190D01*
X86622095Y-76896190D02*
X86526857Y-76943809D01*
X86526857Y-76943809D02*
X86193524Y-76943809D01*
X87384000Y-76467619D02*
X87574476Y-76467619D01*
X87574476Y-76467619D02*
X87669714Y-76515238D01*
X87669714Y-76515238D02*
X87764952Y-76610476D01*
X87764952Y-76610476D02*
X87812571Y-76800952D01*
X87812571Y-76800952D02*
X87812571Y-77134285D01*
X87812571Y-77134285D02*
X87764952Y-77324761D01*
X87764952Y-77324761D02*
X87669714Y-77420000D01*
X87669714Y-77420000D02*
X87574476Y-77467619D01*
X87574476Y-77467619D02*
X87384000Y-77467619D01*
X87384000Y-77467619D02*
X87288762Y-77420000D01*
X87288762Y-77420000D02*
X87193524Y-77324761D01*
X87193524Y-77324761D02*
X87145905Y-77134285D01*
X87145905Y-77134285D02*
X87145905Y-76800952D01*
X87145905Y-76800952D02*
X87193524Y-76610476D01*
X87193524Y-76610476D02*
X87288762Y-76515238D01*
X87288762Y-76515238D02*
X87384000Y-76467619D01*
X88431619Y-76467619D02*
X88622095Y-76467619D01*
X88622095Y-76467619D02*
X88717333Y-76515238D01*
X88717333Y-76515238D02*
X88812571Y-76610476D01*
X88812571Y-76610476D02*
X88860190Y-76800952D01*
X88860190Y-76800952D02*
X88860190Y-77134285D01*
X88860190Y-77134285D02*
X88812571Y-77324761D01*
X88812571Y-77324761D02*
X88717333Y-77420000D01*
X88717333Y-77420000D02*
X88622095Y-77467619D01*
X88622095Y-77467619D02*
X88431619Y-77467619D01*
X88431619Y-77467619D02*
X88336381Y-77420000D01*
X88336381Y-77420000D02*
X88241143Y-77324761D01*
X88241143Y-77324761D02*
X88193524Y-77134285D01*
X88193524Y-77134285D02*
X88193524Y-76800952D01*
X88193524Y-76800952D02*
X88241143Y-76610476D01*
X88241143Y-76610476D02*
X88336381Y-76515238D01*
X88336381Y-76515238D02*
X88431619Y-76467619D01*
X89145905Y-76467619D02*
X89717333Y-76467619D01*
X89431619Y-77467619D02*
X89431619Y-76467619D01*
X90223142Y-72876580D02*
X90175523Y-72924200D01*
X90175523Y-72924200D02*
X90032666Y-72971819D01*
X90032666Y-72971819D02*
X89937428Y-72971819D01*
X89937428Y-72971819D02*
X89794571Y-72924200D01*
X89794571Y-72924200D02*
X89699333Y-72828961D01*
X89699333Y-72828961D02*
X89651714Y-72733723D01*
X89651714Y-72733723D02*
X89604095Y-72543247D01*
X89604095Y-72543247D02*
X89604095Y-72400390D01*
X89604095Y-72400390D02*
X89651714Y-72209914D01*
X89651714Y-72209914D02*
X89699333Y-72114676D01*
X89699333Y-72114676D02*
X89794571Y-72019438D01*
X89794571Y-72019438D02*
X89937428Y-71971819D01*
X89937428Y-71971819D02*
X90032666Y-71971819D01*
X90032666Y-71971819D02*
X90175523Y-72019438D01*
X90175523Y-72019438D02*
X90223142Y-72067057D01*
X91175523Y-72971819D02*
X90604095Y-72971819D01*
X90889809Y-72971819D02*
X90889809Y-71971819D01*
X90889809Y-71971819D02*
X90794571Y-72114676D01*
X90794571Y-72114676D02*
X90699333Y-72209914D01*
X90699333Y-72209914D02*
X90604095Y-72257533D01*
X92080285Y-71971819D02*
X91604095Y-71971819D01*
X91604095Y-71971819D02*
X91556476Y-72448009D01*
X91556476Y-72448009D02*
X91604095Y-72400390D01*
X91604095Y-72400390D02*
X91699333Y-72352771D01*
X91699333Y-72352771D02*
X91937428Y-72352771D01*
X91937428Y-72352771D02*
X92032666Y-72400390D01*
X92032666Y-72400390D02*
X92080285Y-72448009D01*
X92080285Y-72448009D02*
X92127904Y-72543247D01*
X92127904Y-72543247D02*
X92127904Y-72781342D01*
X92127904Y-72781342D02*
X92080285Y-72876580D01*
X92080285Y-72876580D02*
X92032666Y-72924200D01*
X92032666Y-72924200D02*
X91937428Y-72971819D01*
X91937428Y-72971819D02*
X91699333Y-72971819D01*
X91699333Y-72971819D02*
X91604095Y-72924200D01*
X91604095Y-72924200D02*
X91556476Y-72876580D01*
X83939142Y-72778580D02*
X83891523Y-72826200D01*
X83891523Y-72826200D02*
X83748666Y-72873819D01*
X83748666Y-72873819D02*
X83653428Y-72873819D01*
X83653428Y-72873819D02*
X83510571Y-72826200D01*
X83510571Y-72826200D02*
X83415333Y-72730961D01*
X83415333Y-72730961D02*
X83367714Y-72635723D01*
X83367714Y-72635723D02*
X83320095Y-72445247D01*
X83320095Y-72445247D02*
X83320095Y-72302390D01*
X83320095Y-72302390D02*
X83367714Y-72111914D01*
X83367714Y-72111914D02*
X83415333Y-72016676D01*
X83415333Y-72016676D02*
X83510571Y-71921438D01*
X83510571Y-71921438D02*
X83653428Y-71873819D01*
X83653428Y-71873819D02*
X83748666Y-71873819D01*
X83748666Y-71873819D02*
X83891523Y-71921438D01*
X83891523Y-71921438D02*
X83939142Y-71969057D01*
X84891523Y-72873819D02*
X84320095Y-72873819D01*
X84605809Y-72873819D02*
X84605809Y-71873819D01*
X84605809Y-71873819D02*
X84510571Y-72016676D01*
X84510571Y-72016676D02*
X84415333Y-72111914D01*
X84415333Y-72111914D02*
X84320095Y-72159533D01*
X85843904Y-72873819D02*
X85272476Y-72873819D01*
X85558190Y-72873819D02*
X85558190Y-71873819D01*
X85558190Y-71873819D02*
X85462952Y-72016676D01*
X85462952Y-72016676D02*
X85367714Y-72111914D01*
X85367714Y-72111914D02*
X85272476Y-72159533D01*
D11*
%TO.C,J3*%
X50404000Y-75607000D02*
X50404000Y-82867000D01*
X50404000Y-75607000D02*
X51904000Y-75607000D01*
X63104000Y-75607000D02*
X64604000Y-75607000D01*
X64604000Y-75607000D02*
X64604000Y-82867000D01*
%TO.C,U3*%
X63187000Y-40893000D02*
X63187000Y-43343000D01*
X63187000Y-40893000D02*
X65637000Y-40893000D01*
X63462000Y-41143000D02*
X79062000Y-41143000D01*
X63462000Y-61843000D02*
X63462000Y-41143000D01*
X79062000Y-41143000D02*
X79062000Y-61843000D01*
X79062000Y-61843000D02*
X63462000Y-61843000D01*
X63287000Y-48093000D02*
X62951000Y-48333000D01*
X62951000Y-47853000D01*
X63287000Y-48093000D01*
G36*
X63287000Y-48093000D02*
G01*
X62951000Y-48333000D01*
X62951000Y-47853000D01*
X63287000Y-48093000D01*
G37*
%TO.C,U2*%
X55626000Y-57239000D02*
X53426000Y-57239000D01*
X55626000Y-57239000D02*
X57826000Y-57239000D01*
X55626000Y-62759000D02*
X53426000Y-62759000D01*
X55626000Y-62759000D02*
X57826000Y-62759000D01*
X51716000Y-57724000D02*
X51386000Y-57964000D01*
X51386000Y-57484000D01*
X51716000Y-57724000D01*
G36*
X51716000Y-57724000D02*
G01*
X51386000Y-57964000D01*
X51386000Y-57484000D01*
X51716000Y-57724000D01*
G37*
%TO.C,R10*%
X52858936Y-49430000D02*
X53313064Y-49430000D01*
X52858936Y-50900000D02*
X53313064Y-50900000D01*
%TO.C,U1*%
X89018000Y-56422000D02*
X89018000Y-56647000D01*
X89018000Y-52587000D02*
X89018000Y-53112000D01*
X89018000Y-52587000D02*
X88493000Y-52587000D01*
X88493000Y-56887000D02*
X88718000Y-56887000D01*
X84718000Y-56887000D02*
X85243000Y-56887000D01*
X84718000Y-56887000D02*
X84718000Y-56362000D01*
X84718000Y-52587000D02*
X85243000Y-52587000D01*
X84718000Y-52587000D02*
X84718000Y-53112000D01*
X89258000Y-57217000D02*
X88778000Y-57217000D01*
X89018000Y-56887000D01*
X89258000Y-57217000D01*
G36*
X89258000Y-57217000D02*
G01*
X88778000Y-57217000D01*
X89018000Y-56887000D01*
X89258000Y-57217000D01*
G37*
%TO.C,D2*%
X61158000Y-48050500D02*
X59238000Y-48050500D01*
X59238000Y-48050500D02*
X59238000Y-50735500D01*
X61158000Y-50735500D02*
X61158000Y-48050500D01*
%TO.C,R8*%
X53875000Y-71252064D02*
X53875000Y-70797936D01*
X55345000Y-71252064D02*
X55345000Y-70797936D01*
%TO.C,R7*%
X57177000Y-71252064D02*
X57177000Y-70797936D01*
X58647000Y-71252064D02*
X58647000Y-70797936D01*
%TO.C,C10*%
X84843252Y-75284000D02*
X84320748Y-75284000D01*
X84843252Y-73814000D02*
X84320748Y-73814000D01*
%TO.C,C2*%
X82069000Y-49918252D02*
X82069000Y-49395748D01*
X83539000Y-49918252D02*
X83539000Y-49395748D01*
%TO.C,C4*%
X90604748Y-73560000D02*
X91127252Y-73560000D01*
X90604748Y-75030000D02*
X91127252Y-75030000D01*
%TO.C,R3*%
X90451000Y-49884064D02*
X90451000Y-49429936D01*
X91921000Y-49884064D02*
X91921000Y-49429936D01*
%TO.C,C8*%
X72925000Y-67952252D02*
X72925000Y-67429748D01*
X74395000Y-67952252D02*
X74395000Y-67429748D01*
%TO.C,C13*%
X90670748Y-62892000D02*
X91193252Y-62892000D01*
X90670748Y-64362000D02*
X91193252Y-64362000D01*
%TO.C,C9*%
X77951000Y-67952252D02*
X77951000Y-67429748D01*
X76481000Y-67952252D02*
X76481000Y-67429748D01*
%TO.C,C14*%
X90604748Y-66448000D02*
X91127252Y-66448000D01*
X90604748Y-67918000D02*
X91127252Y-67918000D01*
%TO.C,J2*%
X45914000Y-67044000D02*
X45914000Y-64444000D01*
X48574000Y-64444000D02*
X45914000Y-64444000D01*
X48574000Y-67044000D02*
X45914000Y-67044000D01*
X48574000Y-67044000D02*
X48574000Y-64444000D01*
X48574000Y-68314000D02*
X48574000Y-69644000D01*
X48574000Y-69644000D02*
X47244000Y-69644000D01*
%TO.C,R1*%
X89181000Y-60044064D02*
X89181000Y-59589936D01*
X90651000Y-60044064D02*
X90651000Y-59589936D01*
%TO.C,J1*%
X48574000Y-59947000D02*
X48574000Y-62547000D01*
X48574000Y-57347000D02*
X48574000Y-58677000D01*
X47244000Y-57347000D02*
X48574000Y-57347000D01*
X45914000Y-62547000D02*
X48574000Y-62547000D01*
X45914000Y-59947000D02*
X48574000Y-59947000D01*
X45914000Y-59947000D02*
X45914000Y-62547000D01*
%TO.C,C1*%
X87383252Y-49630000D02*
X86860748Y-49630000D01*
X87383252Y-48160000D02*
X86860748Y-48160000D01*
%TO.C,C16*%
X81201252Y-83634000D02*
X80678748Y-83634000D01*
X81201252Y-82164000D02*
X80678748Y-82164000D01*
%TO.C,R2*%
X83539000Y-54763936D02*
X83539000Y-55218064D01*
X82069000Y-54763936D02*
X82069000Y-55218064D01*
%TO.C,U4*%
X64414000Y-64775500D02*
X64414000Y-65575500D01*
X64414000Y-64775500D02*
X64414000Y-63975500D01*
X67534000Y-64775500D02*
X67534000Y-65575500D01*
X67534000Y-64775500D02*
X67534000Y-63975500D01*
X64464000Y-66075500D02*
X64134000Y-66315500D01*
X64134000Y-65835500D01*
X64464000Y-66075500D01*
G36*
X64464000Y-66075500D02*
G01*
X64134000Y-66315500D01*
X64134000Y-65835500D01*
X64464000Y-66075500D01*
G37*
%TO.C,C7*%
X80678748Y-78100000D02*
X81201252Y-78100000D01*
X80678748Y-79570000D02*
X81201252Y-79570000D01*
%TO.C,D1*%
X60636000Y-66421000D02*
X59616000Y-66421000D01*
X59616000Y-67891000D02*
X59616000Y-64951000D01*
X59616000Y-64951000D02*
X54176000Y-64951000D01*
X58836000Y-67891000D02*
X58836000Y-64951000D01*
X58716000Y-67891000D02*
X58716000Y-64951000D01*
X58596000Y-67891000D02*
X58596000Y-64951000D01*
X54176000Y-67891000D02*
X59616000Y-67891000D01*
X54176000Y-64951000D02*
X54176000Y-67891000D01*
X53156000Y-66421000D02*
X54176000Y-66421000D01*
%TO.C,R5*%
X52755436Y-52842000D02*
X53209564Y-52842000D01*
X52755436Y-54312000D02*
X53209564Y-54312000D01*
%TO.C,RESET*%
X69748000Y-77799000D02*
X76048000Y-77799000D01*
X69748000Y-78249000D02*
X69748000Y-77799000D01*
X69748000Y-82249000D02*
X69748000Y-79549000D01*
X69748000Y-83549000D02*
X69748000Y-83999000D01*
X69748000Y-83999000D02*
X76048000Y-83999000D01*
X76048000Y-77799000D02*
X76048000Y-78249000D01*
X76048000Y-79549000D02*
X76048000Y-82249000D01*
X76048000Y-83999000D02*
X76048000Y-83599000D01*
%TO.C,C6*%
X57123000Y-54077748D02*
X57123000Y-54600252D01*
X55653000Y-54077748D02*
X55653000Y-54600252D01*
%TO.C,R6*%
X82269064Y-59536000D02*
X81814936Y-59536000D01*
X82269064Y-58066000D02*
X81814936Y-58066000D01*
%TO.C,C5*%
X61695000Y-60317748D02*
X61695000Y-60840252D01*
X60225000Y-60317748D02*
X60225000Y-60840252D01*
%TO.C,R9*%
X70839000Y-67463936D02*
X70839000Y-67918064D01*
X69369000Y-67463936D02*
X69369000Y-67918064D01*
%TO.C,C12*%
X84843252Y-67918000D02*
X84320748Y-67918000D01*
X84843252Y-66448000D02*
X84320748Y-66448000D01*
%TO.C,R4*%
X59463000Y-54566064D02*
X59463000Y-54111936D01*
X60933000Y-54566064D02*
X60933000Y-54111936D01*
%TO.C,C3*%
X84843252Y-64362000D02*
X84320748Y-64362000D01*
X84843252Y-62892000D02*
X84320748Y-62892000D01*
%TO.C,BOOT*%
X91456000Y-83967000D02*
X91456000Y-83567000D01*
X91456000Y-79517000D02*
X91456000Y-82217000D01*
X91456000Y-77767000D02*
X91456000Y-78217000D01*
X85156000Y-83967000D02*
X91456000Y-83967000D01*
X85156000Y-83517000D02*
X85156000Y-83967000D01*
X85156000Y-82217000D02*
X85156000Y-79517000D01*
X85156000Y-78217000D02*
X85156000Y-77767000D01*
X85156000Y-77767000D02*
X91456000Y-77767000D01*
%TO.C,C15*%
X90604748Y-70004000D02*
X91127252Y-70004000D01*
X90604748Y-71474000D02*
X91127252Y-71474000D01*
%TO.C,C11*%
X84843252Y-71474000D02*
X84320748Y-71474000D01*
X84843252Y-70004000D02*
X84320748Y-70004000D01*
%TD*%
M02*
